%TF.GenerationSoftware,KiCad,Pcbnew,9.0.6*%
%TF.CreationDate,2026-05-11T20:36:49+10:00*%
%TF.ProjectId,LTC1779_CV Controlled_Non-Inv,4c544331-3737-4395-9f43-5620436f6e74,rev?*%
%TF.SameCoordinates,Original*%
%TF.FileFunction,Copper,L1,Top*%
%TF.FilePolarity,Positive*%
%FSLAX46Y46*%
G04 Gerber Fmt 4.6, Leading zero omitted, Abs format (unit mm)*
G04 Created by KiCad (PCBNEW 9.0.6) date 2026-05-11 20:36:49*
%MOMM*%
%LPD*%
G01*
G04 APERTURE LIST*
G04 Aperture macros list*
%AMRoundRect*
0 Rectangle with rounded corners*
0 $1 Rounding radius*
0 $2 $3 $4 $5 $6 $7 $8 $9 X,Y pos of 4 corners*
0 Add a 4 corners polygon primitive as box body*
4,1,4,$2,$3,$4,$5,$6,$7,$8,$9,$2,$3,0*
0 Add four circle primitives for the rounded corners*
1,1,$1+$1,$2,$3*
1,1,$1+$1,$4,$5*
1,1,$1+$1,$6,$7*
1,1,$1+$1,$8,$9*
0 Add four rect primitives between the rounded corners*
20,1,$1+$1,$2,$3,$4,$5,0*
20,1,$1+$1,$4,$5,$6,$7,0*
20,1,$1+$1,$6,$7,$8,$9,0*
20,1,$1+$1,$8,$9,$2,$3,0*%
G04 Aperture macros list end*
%TA.AperFunction,ComponentPad*%
%ADD10RoundRect,0.250000X-0.845000X0.620000X-0.845000X-0.620000X0.845000X-0.620000X0.845000X0.620000X0*%
%TD*%
%TA.AperFunction,ComponentPad*%
%ADD11O,2.190000X1.740000*%
%TD*%
%TA.AperFunction,SMDPad,CuDef*%
%ADD12RoundRect,0.150000X-0.512500X-0.150000X0.512500X-0.150000X0.512500X0.150000X-0.512500X0.150000X0*%
%TD*%
%TA.AperFunction,ComponentPad*%
%ADD13RoundRect,0.250000X0.620000X0.845000X-0.620000X0.845000X-0.620000X-0.845000X0.620000X-0.845000X0*%
%TD*%
%TA.AperFunction,ComponentPad*%
%ADD14O,1.740000X2.190000*%
%TD*%
%TA.AperFunction,SMDPad,CuDef*%
%ADD15RoundRect,0.250000X-0.337500X-0.475000X0.337500X-0.475000X0.337500X0.475000X-0.337500X0.475000X0*%
%TD*%
%TA.AperFunction,SMDPad,CuDef*%
%ADD16RoundRect,0.250000X-0.350000X-0.450000X0.350000X-0.450000X0.350000X0.450000X-0.350000X0.450000X0*%
%TD*%
%TA.AperFunction,ComponentPad*%
%ADD17C,2.500000*%
%TD*%
%TA.AperFunction,SMDPad,CuDef*%
%ADD18R,2.500000X1.800000*%
%TD*%
%TA.AperFunction,SMDPad,CuDef*%
%ADD19RoundRect,0.250000X0.350000X0.450000X-0.350000X0.450000X-0.350000X-0.450000X0.350000X-0.450000X0*%
%TD*%
%TA.AperFunction,SMDPad,CuDef*%
%ADD20RoundRect,0.150000X-0.825000X-0.150000X0.825000X-0.150000X0.825000X0.150000X-0.825000X0.150000X0*%
%TD*%
%TA.AperFunction,SMDPad,CuDef*%
%ADD21RoundRect,0.250000X-0.325000X-0.450000X0.325000X-0.450000X0.325000X0.450000X-0.325000X0.450000X0*%
%TD*%
%TA.AperFunction,SMDPad,CuDef*%
%ADD22RoundRect,0.250000X-0.450000X0.350000X-0.450000X-0.350000X0.450000X-0.350000X0.450000X0.350000X0*%
%TD*%
%TA.AperFunction,SMDPad,CuDef*%
%ADD23RoundRect,0.250000X0.475000X-0.337500X0.475000X0.337500X-0.475000X0.337500X-0.475000X-0.337500X0*%
%TD*%
%TA.AperFunction,SMDPad,CuDef*%
%ADD24RoundRect,0.250000X0.337500X0.475000X-0.337500X0.475000X-0.337500X-0.475000X0.337500X-0.475000X0*%
%TD*%
%TA.AperFunction,ComponentPad*%
%ADD25RoundRect,0.250000X-0.620000X-0.845000X0.620000X-0.845000X0.620000X0.845000X-0.620000X0.845000X0*%
%TD*%
%TA.AperFunction,ViaPad*%
%ADD26C,0.800000*%
%TD*%
%TA.AperFunction,Conductor*%
%ADD27C,0.250000*%
%TD*%
G04 APERTURE END LIST*
D10*
%TO.P,J5,1,Pin_1*%
%TO.N,Net-(J1-Pad1)*%
X126190000Y-68770000D03*
D11*
%TO.P,J5,2,Pin_2*%
%TO.N,Net-(J5-Pad2)*%
X126190000Y-71310000D03*
%TO.P,J5,3,Pin_3*%
%TO.N,/2.5V*%
X126190000Y-73850000D03*
%TD*%
D12*
%TO.P,U3,1,V+*%
%TO.N,+5V*%
X148262500Y-53850000D03*
%TO.P,U3,2,GND*%
%TO.N,GND*%
X148262500Y-54800000D03*
%TO.P,U3,3,SET*%
%TO.N,Net-(R10-Pad1)*%
X148262500Y-55750000D03*
%TO.P,U3,4,DIV*%
%TO.N,Net-(J3-Pad2)*%
X150537500Y-55750000D03*
%TO.P,U3,5,OUT*%
%TO.N,Net-(J4-Pad3)*%
X150537500Y-53850000D03*
%TD*%
D13*
%TO.P,J3,1,Pin_1*%
%TO.N,GND*%
X149290000Y-46180000D03*
D14*
%TO.P,J3,2,Pin_2*%
%TO.N,Net-(J3-Pad2)*%
X146750000Y-46180000D03*
%TO.P,J3,3,Pin_3*%
%TO.N,+5V*%
X144210000Y-46180000D03*
%TD*%
D15*
%TO.P,C3,1*%
%TO.N,+5V*%
X148212500Y-50700000D03*
%TO.P,C3,2*%
%TO.N,GND*%
X150287500Y-50700000D03*
%TD*%
D16*
%TO.P,R4,1*%
%TO.N,Net-(J5-Pad2)*%
X132500000Y-63781075D03*
%TO.P,R4,2*%
%TO.N,Net-(R4-Pad2)*%
X134500000Y-63781075D03*
%TD*%
D17*
%TO.P,TP4,1,1*%
%TO.N,Net-(R10-Pad1)*%
X132770000Y-52020000D03*
%TD*%
D10*
%TO.P,J6,1,Pin_1*%
%TO.N,Net-(J6-Pad1)*%
X126190000Y-44570000D03*
D11*
%TO.P,J6,2,Pin_2*%
%TO.N,/2.5V*%
X126190000Y-47110000D03*
%TD*%
D13*
%TO.P,J2,1,Pin_1*%
%TO.N,GND*%
X140120000Y-46180000D03*
D14*
%TO.P,J2,2,Pin_2*%
%TO.N,Net-(J2-Pad2)*%
X137580000Y-46180000D03*
%TO.P,J2,3,Pin_3*%
%TO.N,+5V*%
X135040000Y-46180000D03*
%TD*%
D10*
%TO.P,J1,1,Pin_1*%
%TO.N,Net-(J1-Pad1)*%
X126190000Y-61790000D03*
D11*
%TO.P,J1,2,Pin_2*%
%TO.N,/2.5V*%
X126190000Y-64330000D03*
%TD*%
D15*
%TO.P,C1,1*%
%TO.N,Net-(C1-Pad1)*%
X137362500Y-71800000D03*
%TO.P,C1,2*%
%TO.N,GND*%
X139437500Y-71800000D03*
%TD*%
D18*
%TO.P,D2,1,K*%
%TO.N,Net-(D2-Pad1)*%
X138306250Y-78570000D03*
%TO.P,D2,2,A*%
%TO.N,+5V*%
X134306250Y-78570000D03*
%TD*%
D16*
%TO.P,R10,1*%
%TO.N,Net-(R10-Pad1)*%
X142250000Y-52000000D03*
%TO.P,R10,2*%
%TO.N,+5V*%
X144250000Y-52000000D03*
%TD*%
D19*
%TO.P,R7,1*%
%TO.N,Net-(R7-Pad1)*%
X139500000Y-55781075D03*
%TO.P,R7,2*%
%TO.N,Net-(R6-Pad2)*%
X137500000Y-55781075D03*
%TD*%
D20*
%TO.P,U2,1*%
%TO.N,Net-(R8-Pad2)*%
X146035000Y-61635000D03*
%TO.P,U2,2,-*%
%TO.N,Net-(R7-Pad1)*%
X146035000Y-62905000D03*
%TO.P,U2,3,+*%
%TO.N,/2.5V*%
X146035000Y-64175000D03*
%TO.P,U2,4,V-*%
%TO.N,GND*%
X146035000Y-65445000D03*
%TO.P,U2,5,+*%
X150985000Y-65445000D03*
%TO.P,U2,6,-*%
%TO.N,Net-(U2-Pad6)*%
X150985000Y-64175000D03*
%TO.P,U2,7*%
X150985000Y-62905000D03*
%TO.P,U2,8,V+*%
%TO.N,+5V*%
X150985000Y-61635000D03*
%TD*%
D21*
%TO.P,D1,1,K*%
%TO.N,Net-(D1-Pad1)*%
X129443750Y-79310000D03*
%TO.P,D1,2,A*%
%TO.N,+5V*%
X131493750Y-79310000D03*
%TD*%
D16*
%TO.P,R11,1*%
%TO.N,Net-(D1-Pad1)*%
X129446250Y-76750000D03*
%TO.P,R11,2*%
%TO.N,GND*%
X131446250Y-76750000D03*
%TD*%
D22*
%TO.P,R3,1*%
%TO.N,Net-(J2-Pad2)*%
X139840000Y-51010000D03*
%TO.P,R3,2*%
%TO.N,Net-(R4-Pad2)*%
X139840000Y-53010000D03*
%TD*%
D19*
%TO.P,R2,1*%
%TO.N,Net-(C1-Pad1)*%
X134500000Y-71781075D03*
%TO.P,R2,2*%
%TO.N,GND*%
X132500000Y-71781075D03*
%TD*%
%TO.P,R9,1*%
%TO.N,Net-(R10-Pad1)*%
X144500000Y-55781075D03*
%TO.P,R9,2*%
%TO.N,Net-(R8-Pad2)*%
X142500000Y-55781075D03*
%TD*%
D16*
%TO.P,R6,1*%
%TO.N,Net-(R4-Pad2)*%
X132500000Y-55781075D03*
%TO.P,R6,2*%
%TO.N,Net-(R6-Pad2)*%
X134500000Y-55781075D03*
%TD*%
D23*
%TO.P,C2,1*%
%TO.N,+5V*%
X153590000Y-66887500D03*
%TO.P,C2,2*%
%TO.N,GND*%
X153590000Y-64812500D03*
%TD*%
D16*
%TO.P,R5,1*%
%TO.N,Net-(J7-Pad2)*%
X132500000Y-59781075D03*
%TO.P,R5,2*%
%TO.N,Net-(R4-Pad2)*%
X134500000Y-59781075D03*
%TD*%
D24*
%TO.P,C4,1*%
%TO.N,+5V*%
X151087500Y-59840000D03*
%TO.P,C4,2*%
%TO.N,GND*%
X149012500Y-59840000D03*
%TD*%
D10*
%TO.P,J7,1,Pin_1*%
%TO.N,Net-(J6-Pad1)*%
X126190000Y-51680000D03*
D11*
%TO.P,J7,2,Pin_2*%
%TO.N,Net-(J7-Pad2)*%
X126190000Y-54220000D03*
%TO.P,J7,3,Pin_3*%
%TO.N,/2.5V*%
X126190000Y-56760000D03*
%TD*%
D19*
%TO.P,R1,1*%
%TO.N,+5V*%
X139500000Y-67781075D03*
%TO.P,R1,2*%
%TO.N,Net-(C1-Pad1)*%
X137500000Y-67781075D03*
%TD*%
D20*
%TO.P,U1,1*%
%TO.N,Net-(R6-Pad2)*%
X146195000Y-67755000D03*
%TO.P,U1,2,-*%
%TO.N,Net-(R4-Pad2)*%
X146195000Y-69025000D03*
%TO.P,U1,3,+*%
%TO.N,/2.5V*%
X146195000Y-70295000D03*
%TO.P,U1,4,V-*%
%TO.N,GND*%
X146195000Y-71565000D03*
%TO.P,U1,5,+*%
%TO.N,Net-(C1-Pad1)*%
X151145000Y-71565000D03*
%TO.P,U1,6,-*%
%TO.N,/2.5V*%
X151145000Y-70295000D03*
%TO.P,U1,7*%
X151145000Y-69025000D03*
%TO.P,U1,8,V+*%
%TO.N,+5V*%
X151145000Y-67755000D03*
%TD*%
D25*
%TO.P,J4,1,Pin_1*%
%TO.N,GND*%
X146060000Y-77370000D03*
D14*
%TO.P,J4,2,Pin_2*%
%TO.N,Net-(D2-Pad1)*%
X148600000Y-77370000D03*
%TO.P,J4,3,Pin_3*%
%TO.N,Net-(J4-Pad3)*%
X151140000Y-77370000D03*
%TD*%
D16*
%TO.P,R8,1*%
%TO.N,Net-(R7-Pad1)*%
X142600000Y-59700000D03*
%TO.P,R8,2*%
%TO.N,Net-(R8-Pad2)*%
X144600000Y-59700000D03*
%TD*%
D26*
%TO.N,GND*%
X131270000Y-62170000D03*
X137320000Y-62170000D03*
X151670000Y-50680000D03*
X146770000Y-54820000D03*
X139430000Y-70290000D03*
X153610000Y-63500000D03*
X144450000Y-65470000D03*
X139500000Y-60520000D03*
X132660000Y-70370000D03*
X141520000Y-57500000D03*
X146070000Y-50960000D03*
%TO.N,+5V*%
X152630000Y-59820000D03*
%TO.N,/2.5V*%
X136600000Y-64505575D03*
%TD*%
D27*
%TO.N,GND*%
X153590000Y-63520000D02*
X153610000Y-63500000D01*
X139437500Y-70297500D02*
X139430000Y-70290000D01*
X146195000Y-71565000D02*
X139672500Y-71565000D01*
X149012500Y-59840000D02*
X149012500Y-63848572D01*
X144450000Y-65470000D02*
X139500000Y-60520000D01*
X149012500Y-63848572D02*
X150608928Y-65445000D01*
X150287500Y-50700000D02*
X151650000Y-50700000D01*
X144475000Y-65445000D02*
X144450000Y-65470000D01*
X146790000Y-54800000D02*
X146770000Y-54820000D01*
X150985000Y-65445000D02*
X152957500Y-65445000D01*
X132500000Y-71781075D02*
X132500000Y-75696250D01*
X149379520Y-55533448D02*
X149379520Y-59472980D01*
X146035000Y-65445000D02*
X144475000Y-65445000D01*
X148646072Y-54800000D02*
X149379520Y-55533448D01*
X150287500Y-47177500D02*
X150287500Y-50700000D01*
X132500000Y-75696250D02*
X131446250Y-76750000D01*
X149290000Y-46180000D02*
X150287500Y-47177500D01*
X132660000Y-70370000D02*
X132660000Y-71621075D01*
X151650000Y-50700000D02*
X151670000Y-50680000D01*
X152957500Y-65445000D02*
X153590000Y-64812500D01*
X148262500Y-54800000D02*
X146790000Y-54800000D01*
X153590000Y-64812500D02*
X153590000Y-63520000D01*
X139437500Y-71800000D02*
X139437500Y-70297500D01*
%TO.N,+5V*%
X151087500Y-59840000D02*
X152520000Y-59840000D01*
X154910000Y-65567500D02*
X153590000Y-66887500D01*
X146412500Y-52000000D02*
X148262500Y-53850000D01*
X144210000Y-46180000D02*
X144210000Y-51960000D01*
X144250000Y-52000000D02*
X146412500Y-52000000D01*
X153590000Y-70770000D02*
X153590000Y-66887500D01*
X151087500Y-59840000D02*
X151087500Y-61532500D01*
X134306250Y-78570000D02*
X132233750Y-78570000D01*
X134306250Y-76793750D02*
X136630480Y-74469520D01*
X142638445Y-70919520D02*
X153440480Y-70919520D01*
X152012500Y-66887500D02*
X151145000Y-67755000D01*
X139500000Y-67781075D02*
X142638445Y-70919520D01*
X132233750Y-78570000D02*
X131493750Y-79310000D01*
X134306250Y-78570000D02*
X134306250Y-76793750D01*
X154910000Y-62230000D02*
X154910000Y-65567500D01*
X136630480Y-74469520D02*
X149890480Y-74469520D01*
X153590000Y-66887500D02*
X152012500Y-66887500D01*
X149890480Y-74469520D02*
X153485000Y-70875000D01*
X148212500Y-50700000D02*
X148212500Y-53800000D01*
X152520000Y-59840000D02*
X154910000Y-62230000D01*
X153485000Y-70875000D02*
X153590000Y-70770000D01*
%TO.N,Net-(D2-Pad1)*%
X146980000Y-78990000D02*
X148600000Y-77370000D01*
X142540000Y-78990000D02*
X146980000Y-78990000D01*
X138306250Y-78570000D02*
X142120000Y-78570000D01*
X142120000Y-78570000D02*
X142540000Y-78990000D01*
%TO.N,Net-(R6-Pad2)*%
X134500000Y-55781075D02*
X137500000Y-55781075D01*
X137500000Y-60070354D02*
X145184646Y-67755000D01*
X145184646Y-67755000D02*
X146195000Y-67755000D01*
X137500000Y-55781075D02*
X137500000Y-60070354D01*
%TO.N,Net-(C1-Pad1)*%
X137500000Y-67781075D02*
X137500000Y-71662500D01*
X136738925Y-74020000D02*
X134500000Y-71781075D01*
X134500000Y-71781075D02*
X137343575Y-71781075D01*
X148690000Y-74020000D02*
X136738925Y-74020000D01*
X151145000Y-71565000D02*
X148690000Y-74020000D01*
%TO.N,Net-(R7-Pad1)*%
X139500000Y-56600000D02*
X142600000Y-59700000D01*
X145658928Y-62905000D02*
X142600000Y-59846072D01*
X139500000Y-55781075D02*
X139500000Y-56600000D01*
%TO.N,Net-(R8-Pad2)*%
X142500000Y-57600000D02*
X144600000Y-59700000D01*
X142500000Y-55781075D02*
X142500000Y-57600000D01*
X146035000Y-61635000D02*
X146035000Y-61135000D01*
X146035000Y-61135000D02*
X144600000Y-59700000D01*
%TO.N,Net-(R10-Pad1)*%
X142230000Y-52020000D02*
X132770000Y-52020000D01*
X142250000Y-53531075D02*
X144500000Y-55781075D01*
X144500000Y-55781075D02*
X148888925Y-55781075D01*
X142250000Y-52000000D02*
X142250000Y-53531075D01*
%TO.N,Net-(D1-Pad1)*%
X129443750Y-79310000D02*
X129443750Y-76752500D01*
%TO.N,Net-(J2-Pad2)*%
X137580000Y-48750000D02*
X139840000Y-51010000D01*
X137580000Y-46180000D02*
X137580000Y-48750000D01*
%TO.N,Net-(J3-Pad2)*%
X146750000Y-46180000D02*
X149375480Y-48805480D01*
X149375480Y-48805480D02*
X149375480Y-54587980D01*
X149249520Y-54462020D02*
X150537500Y-55750000D01*
%TO.N,Net-(J4-Pad3)*%
X155370000Y-55800000D02*
X153420000Y-53850000D01*
X155370000Y-73140000D02*
X155370000Y-55800000D01*
X153420000Y-53850000D02*
X150537500Y-53850000D01*
X151140000Y-77370000D02*
X155370000Y-73140000D01*
%TO.N,Net-(J1-Pad1)*%
X128410000Y-68200000D02*
X127840000Y-68770000D01*
X128410000Y-64010000D02*
X128410000Y-68200000D01*
X126190000Y-61790000D02*
X128410000Y-64010000D01*
X127840000Y-68770000D02*
X126190000Y-68770000D01*
%TO.N,/2.5V*%
X127609520Y-52640480D02*
X127224520Y-53025480D01*
X147725000Y-70295000D02*
X148995000Y-69025000D01*
X126190000Y-64330000D02*
X124170000Y-62310000D01*
X124170000Y-58780000D02*
X126190000Y-56760000D01*
X148420000Y-64590000D02*
X148420000Y-69600000D01*
X140663785Y-64505575D02*
X136600000Y-64505575D01*
X124770480Y-55340480D02*
X126190000Y-56760000D01*
X146035000Y-64175000D02*
X148005000Y-64175000D01*
X127609520Y-48529520D02*
X127609520Y-52640480D01*
X144895480Y-68737270D02*
X140663785Y-64505575D01*
X125470214Y-53025480D02*
X124770480Y-53725214D01*
X145818928Y-70295000D02*
X144895480Y-69371552D01*
X124770480Y-53725214D02*
X124770480Y-55340480D01*
X144895480Y-69371552D02*
X144895480Y-68737270D01*
X127224520Y-53025480D02*
X125470214Y-53025480D01*
X151145000Y-69025000D02*
X148995000Y-69025000D01*
X126190000Y-73850000D02*
X124290000Y-71950000D01*
X124290000Y-66230000D02*
X126190000Y-64330000D01*
X126190000Y-47110000D02*
X127609520Y-48529520D01*
X151145000Y-69025000D02*
X151145000Y-70295000D01*
X124290000Y-71950000D02*
X124290000Y-66230000D01*
X147725000Y-70295000D02*
X146195000Y-70295000D01*
X124170000Y-62310000D02*
X124170000Y-58780000D01*
X148005000Y-64175000D02*
X148420000Y-64590000D01*
%TO.N,Net-(J5-Pad2)*%
X126190000Y-71310000D02*
X132500000Y-65000000D01*
X132500000Y-65000000D02*
X132500000Y-63781075D01*
%TO.N,Net-(J7-Pad2)*%
X132500000Y-59781075D02*
X131751075Y-59781075D01*
X131751075Y-59781075D02*
X126190000Y-54220000D01*
%TO.N,Net-(R4-Pad2)*%
X135271075Y-53010000D02*
X132500000Y-55781075D01*
X132500000Y-55781075D02*
X134500000Y-57781075D01*
X145818928Y-69025000D02*
X140575003Y-63781075D01*
X134500000Y-57781075D02*
X134500000Y-59781075D01*
X139840000Y-53010000D02*
X135271075Y-53010000D01*
X140575003Y-63781075D02*
X134500000Y-63781075D01*
X134500000Y-63781075D02*
X134500000Y-59781075D01*
%TO.N,Net-(J6-Pad1)*%
X124770480Y-50260480D02*
X124770480Y-45989520D01*
X124770480Y-45989520D02*
X126190000Y-44570000D01*
X126190000Y-51680000D02*
X124770480Y-50260480D01*
%TO.N,Net-(U2-Pad6)*%
X150985000Y-62905000D02*
X150985000Y-64175000D01*
%TD*%
%TA.AperFunction,Conductor*%
%TO.N,GND*%
G36*
X154667813Y-67814569D02*
G01*
X154719381Y-67863368D01*
X154736500Y-67926779D01*
X154736500Y-72825405D01*
X154716498Y-72893526D01*
X154699595Y-72914500D01*
X151783305Y-75830790D01*
X151720993Y-75864816D01*
X151656848Y-75862028D01*
X151437083Y-75793790D01*
X151431796Y-75793089D01*
X151431795Y-75793089D01*
X151210455Y-75763752D01*
X151210451Y-75763752D01*
X151205171Y-75763052D01*
X151199842Y-75763252D01*
X151199840Y-75763252D01*
X151088284Y-75767440D01*
X150971396Y-75771828D01*
X150892120Y-75788462D01*
X150747668Y-75818771D01*
X150747665Y-75818772D01*
X150742441Y-75819868D01*
X150524854Y-75905797D01*
X150520290Y-75908566D01*
X150520291Y-75908566D01*
X150329417Y-76024391D01*
X150329414Y-76024393D01*
X150324856Y-76027159D01*
X150148166Y-76180483D01*
X149999835Y-76361386D01*
X149997199Y-76366016D01*
X149997196Y-76366021D01*
X149978699Y-76398516D01*
X149927616Y-76447822D01*
X149857985Y-76461683D01*
X149791915Y-76435699D01*
X149764677Y-76406550D01*
X149727548Y-76351401D01*
X149678202Y-76278104D01*
X149654080Y-76252817D01*
X149545132Y-76138611D01*
X149516724Y-76108832D01*
X149329035Y-75969187D01*
X149324284Y-75966771D01*
X149324280Y-75966769D01*
X149125256Y-75865580D01*
X149125255Y-75865580D01*
X149120500Y-75863162D01*
X148897083Y-75793790D01*
X148891796Y-75793089D01*
X148891795Y-75793089D01*
X148670455Y-75763752D01*
X148670451Y-75763752D01*
X148665171Y-75763052D01*
X148659842Y-75763252D01*
X148659840Y-75763252D01*
X148548284Y-75767440D01*
X148431396Y-75771828D01*
X148352120Y-75788462D01*
X148207668Y-75818771D01*
X148207665Y-75818772D01*
X148202441Y-75819868D01*
X147984854Y-75905797D01*
X147980290Y-75908566D01*
X147980291Y-75908566D01*
X147789417Y-76024391D01*
X147789414Y-76024393D01*
X147784856Y-76027159D01*
X147608166Y-76180483D01*
X147604778Y-76184615D01*
X147577239Y-76218201D01*
X147518579Y-76258196D01*
X147447609Y-76260127D01*
X147386861Y-76223383D01*
X147371780Y-76200843D01*
X147371094Y-76201268D01*
X147281937Y-76057193D01*
X147272901Y-76045792D01*
X147158171Y-75931261D01*
X147146760Y-75922249D01*
X147008757Y-75837184D01*
X146995576Y-75831037D01*
X146841290Y-75779862D01*
X146827914Y-75776995D01*
X146733562Y-75767328D01*
X146727145Y-75767000D01*
X146332115Y-75767000D01*
X146316876Y-75771475D01*
X146315671Y-75772865D01*
X146314000Y-75780548D01*
X146314000Y-77498000D01*
X146293998Y-77566121D01*
X146240342Y-77612614D01*
X146188000Y-77624000D01*
X144700116Y-77624000D01*
X144684877Y-77628475D01*
X144683672Y-77629865D01*
X144682001Y-77637548D01*
X144682001Y-78230500D01*
X144661999Y-78298621D01*
X144608343Y-78345114D01*
X144556001Y-78356500D01*
X142854595Y-78356500D01*
X142786474Y-78336498D01*
X142765499Y-78319595D01*
X142707427Y-78261522D01*
X142623646Y-78177741D01*
X142616113Y-78169463D01*
X142612000Y-78162982D01*
X142605428Y-78156810D01*
X142562365Y-78116373D01*
X142559519Y-78113615D01*
X142542571Y-78096666D01*
X142539770Y-78093865D01*
X142536573Y-78091385D01*
X142527551Y-78083680D01*
X142495321Y-78053414D01*
X142488375Y-78049595D01*
X142488372Y-78049593D01*
X142477566Y-78043652D01*
X142461047Y-78032801D01*
X142460583Y-78032441D01*
X142445041Y-78020386D01*
X142437772Y-78017241D01*
X142437768Y-78017238D01*
X142404463Y-78002826D01*
X142393813Y-77997609D01*
X142355060Y-77976305D01*
X142335437Y-77971267D01*
X142316734Y-77964863D01*
X142305420Y-77959967D01*
X142305419Y-77959967D01*
X142298145Y-77956819D01*
X142290322Y-77955580D01*
X142290312Y-77955577D01*
X142254476Y-77949901D01*
X142242856Y-77947495D01*
X142207711Y-77938472D01*
X142207710Y-77938472D01*
X142200030Y-77936500D01*
X142179776Y-77936500D01*
X142160065Y-77934949D01*
X142147886Y-77933020D01*
X142140057Y-77931780D01*
X142132165Y-77932526D01*
X142096039Y-77935941D01*
X142084181Y-77936500D01*
X140190750Y-77936500D01*
X140122629Y-77916498D01*
X140076136Y-77862842D01*
X140064750Y-77810500D01*
X140064750Y-77621866D01*
X140057995Y-77559684D01*
X140006865Y-77423295D01*
X139919511Y-77306739D01*
X139802955Y-77219385D01*
X139666566Y-77168255D01*
X139604384Y-77161500D01*
X137008116Y-77161500D01*
X136945934Y-77168255D01*
X136809545Y-77219385D01*
X136692989Y-77306739D01*
X136605635Y-77423295D01*
X136554505Y-77559684D01*
X136547750Y-77621866D01*
X136547750Y-79518134D01*
X136554505Y-79580316D01*
X136605635Y-79716705D01*
X136692989Y-79833261D01*
X136809545Y-79920615D01*
X136945934Y-79971745D01*
X137008116Y-79978500D01*
X139604384Y-79978500D01*
X139666566Y-79971745D01*
X139802955Y-79920615D01*
X139919511Y-79833261D01*
X140006865Y-79716705D01*
X140057995Y-79580316D01*
X140064750Y-79518134D01*
X140064750Y-79329500D01*
X140084752Y-79261379D01*
X140138408Y-79214886D01*
X140190750Y-79203500D01*
X141805406Y-79203500D01*
X141873527Y-79223502D01*
X141894501Y-79240405D01*
X142036343Y-79382247D01*
X142043887Y-79390537D01*
X142048000Y-79397018D01*
X142053777Y-79402443D01*
X142097667Y-79443658D01*
X142100509Y-79446413D01*
X142120231Y-79466135D01*
X142123373Y-79468572D01*
X142123433Y-79468619D01*
X142132445Y-79476317D01*
X142145878Y-79488931D01*
X142164679Y-79506586D01*
X142179470Y-79514717D01*
X142182431Y-79516345D01*
X142198953Y-79527198D01*
X142214959Y-79539614D01*
X142222237Y-79542764D01*
X142222238Y-79542764D01*
X142255537Y-79557174D01*
X142266187Y-79562391D01*
X142304940Y-79583695D01*
X142312615Y-79585666D01*
X142312616Y-79585666D01*
X142324562Y-79588733D01*
X142343266Y-79595137D01*
X142348480Y-79597393D01*
X142361855Y-79603181D01*
X142369678Y-79604420D01*
X142369688Y-79604423D01*
X142405524Y-79610099D01*
X142417144Y-79612505D01*
X142448959Y-79620673D01*
X142459970Y-79623500D01*
X142480224Y-79623500D01*
X142499934Y-79625051D01*
X142519943Y-79628220D01*
X142527835Y-79627474D01*
X142546580Y-79625702D01*
X142563962Y-79624059D01*
X142575819Y-79623500D01*
X146901233Y-79623500D01*
X146912416Y-79624027D01*
X146919909Y-79625702D01*
X146927835Y-79625453D01*
X146927836Y-79625453D01*
X146987986Y-79623562D01*
X146991945Y-79623500D01*
X147019856Y-79623500D01*
X147023791Y-79623003D01*
X147023856Y-79622995D01*
X147035693Y-79622062D01*
X147067951Y-79621048D01*
X147071970Y-79620922D01*
X147079889Y-79620673D01*
X147099343Y-79615021D01*
X147118700Y-79611013D01*
X147130930Y-79609468D01*
X147130931Y-79609468D01*
X147138797Y-79608474D01*
X147146168Y-79605555D01*
X147146170Y-79605555D01*
X147179912Y-79592196D01*
X147191142Y-79588351D01*
X147225983Y-79578229D01*
X147225984Y-79578229D01*
X147233593Y-79576018D01*
X147240412Y-79571985D01*
X147240417Y-79571983D01*
X147251028Y-79565707D01*
X147268776Y-79557012D01*
X147287617Y-79549552D01*
X147323387Y-79523564D01*
X147333307Y-79517048D01*
X147364535Y-79498580D01*
X147364538Y-79498578D01*
X147371362Y-79494542D01*
X147385683Y-79480221D01*
X147400717Y-79467380D01*
X147402431Y-79466135D01*
X147417107Y-79455472D01*
X147422157Y-79449368D01*
X147422162Y-79449363D01*
X147445293Y-79421402D01*
X147453283Y-79412621D01*
X147956695Y-78909210D01*
X148019007Y-78875185D01*
X148083154Y-78877973D01*
X148183756Y-78909210D01*
X148302917Y-78946210D01*
X148308204Y-78946911D01*
X148308205Y-78946911D01*
X148529545Y-78976248D01*
X148529549Y-78976248D01*
X148534829Y-78976948D01*
X148540158Y-78976748D01*
X148540160Y-78976748D01*
X148651716Y-78972560D01*
X148768604Y-78968172D01*
X148880813Y-78944628D01*
X148992332Y-78921229D01*
X148992335Y-78921228D01*
X148997559Y-78920132D01*
X149215146Y-78834203D01*
X149379242Y-78734627D01*
X149410583Y-78715609D01*
X149410586Y-78715607D01*
X149415144Y-78712841D01*
X149591834Y-78559517D01*
X149740165Y-78378614D01*
X149742801Y-78373984D01*
X149742804Y-78373979D01*
X149761301Y-78341484D01*
X149812384Y-78292178D01*
X149882015Y-78278317D01*
X149948085Y-78304301D01*
X149975323Y-78333450D01*
X150061798Y-78461896D01*
X150065477Y-78465753D01*
X150065479Y-78465755D01*
X150127751Y-78531032D01*
X150223276Y-78631168D01*
X150410965Y-78770813D01*
X150415716Y-78773229D01*
X150415720Y-78773231D01*
X150614744Y-78874420D01*
X150619500Y-78876838D01*
X150842917Y-78946210D01*
X150848204Y-78946911D01*
X150848205Y-78946911D01*
X151069545Y-78976248D01*
X151069549Y-78976248D01*
X151074829Y-78976948D01*
X151080158Y-78976748D01*
X151080160Y-78976748D01*
X151191716Y-78972560D01*
X151308604Y-78968172D01*
X151420813Y-78944628D01*
X151532332Y-78921229D01*
X151532335Y-78921228D01*
X151537559Y-78920132D01*
X151755146Y-78834203D01*
X151919242Y-78734627D01*
X151950583Y-78715609D01*
X151950586Y-78715607D01*
X151955144Y-78712841D01*
X152131834Y-78559517D01*
X152280165Y-78378614D01*
X152395896Y-78175305D01*
X152475716Y-77955404D01*
X152479135Y-77936500D01*
X152502543Y-77807046D01*
X152517344Y-77725197D01*
X152517989Y-77711537D01*
X152518430Y-77702172D01*
X152518430Y-77702165D01*
X152518500Y-77700684D01*
X152518500Y-77086262D01*
X152507897Y-76961301D01*
X152522068Y-76891733D01*
X152544351Y-76861553D01*
X155276905Y-74128999D01*
X155339217Y-74094973D01*
X155410032Y-74100038D01*
X155466868Y-74142585D01*
X155491679Y-74209105D01*
X155492000Y-74218094D01*
X155492000Y-80366000D01*
X155471998Y-80434121D01*
X155418342Y-80480614D01*
X155366000Y-80492000D01*
X132463625Y-80492000D01*
X132395504Y-80471998D01*
X132349011Y-80418342D01*
X132338907Y-80348068D01*
X132368401Y-80283488D01*
X132374452Y-80276982D01*
X132412884Y-80238483D01*
X132418055Y-80233303D01*
X132510865Y-80082738D01*
X132558297Y-79939735D01*
X132598726Y-79881376D01*
X132664290Y-79854139D01*
X132734172Y-79866672D01*
X132753453Y-79878577D01*
X132809545Y-79920615D01*
X132945934Y-79971745D01*
X133008116Y-79978500D01*
X135604384Y-79978500D01*
X135666566Y-79971745D01*
X135802955Y-79920615D01*
X135919511Y-79833261D01*
X136006865Y-79716705D01*
X136057995Y-79580316D01*
X136064750Y-79518134D01*
X136064750Y-77621866D01*
X136057995Y-77559684D01*
X136006865Y-77423295D01*
X135919511Y-77306739D01*
X135802955Y-77219385D01*
X135666566Y-77168255D01*
X135604384Y-77161500D01*
X135138594Y-77161500D01*
X135070473Y-77141498D01*
X135032682Y-77097885D01*
X144682000Y-77097885D01*
X144686475Y-77113124D01*
X144687865Y-77114329D01*
X144695548Y-77116000D01*
X145787885Y-77116000D01*
X145803124Y-77111525D01*
X145804329Y-77110135D01*
X145806000Y-77102452D01*
X145806000Y-75785116D01*
X145801525Y-75769877D01*
X145800135Y-75768672D01*
X145792452Y-75767001D01*
X145392905Y-75767001D01*
X145386386Y-75767338D01*
X145290794Y-75777257D01*
X145277400Y-75780149D01*
X145123216Y-75831588D01*
X145110038Y-75837761D01*
X144972193Y-75923063D01*
X144960792Y-75932099D01*
X144846261Y-76046829D01*
X144837249Y-76058240D01*
X144752184Y-76196243D01*
X144746037Y-76209424D01*
X144694862Y-76363710D01*
X144691995Y-76377086D01*
X144682328Y-76471438D01*
X144682000Y-76477855D01*
X144682000Y-77097885D01*
X135032682Y-77097885D01*
X135023980Y-77087842D01*
X135013876Y-77017568D01*
X135043370Y-76952988D01*
X135049499Y-76946405D01*
X136855979Y-75139925D01*
X136918291Y-75105899D01*
X136945074Y-75103020D01*
X149811713Y-75103020D01*
X149822896Y-75103547D01*
X149830389Y-75105222D01*
X149838315Y-75104973D01*
X149838316Y-75104973D01*
X149898466Y-75103082D01*
X149902425Y-75103020D01*
X149930336Y-75103020D01*
X149934271Y-75102523D01*
X149934336Y-75102515D01*
X149946173Y-75101582D01*
X149978431Y-75100568D01*
X149982450Y-75100442D01*
X149990369Y-75100193D01*
X150009823Y-75094541D01*
X150029180Y-75090533D01*
X150041410Y-75088988D01*
X150041411Y-75088988D01*
X150049277Y-75087994D01*
X150056648Y-75085075D01*
X150056650Y-75085075D01*
X150090392Y-75071716D01*
X150101622Y-75067871D01*
X150136463Y-75057749D01*
X150136464Y-75057749D01*
X150144073Y-75055538D01*
X150150892Y-75051505D01*
X150150897Y-75051503D01*
X150161508Y-75045227D01*
X150179256Y-75036532D01*
X150198097Y-75029072D01*
X150233867Y-75003084D01*
X150243787Y-74996568D01*
X150275015Y-74978100D01*
X150275018Y-74978098D01*
X150281842Y-74974062D01*
X150296163Y-74959741D01*
X150311197Y-74946900D01*
X150321174Y-74939651D01*
X150327587Y-74934992D01*
X150355778Y-74900915D01*
X150363768Y-74892136D01*
X153846167Y-71409738D01*
X153861199Y-71396899D01*
X153877587Y-71384992D01*
X153905769Y-71350926D01*
X153913758Y-71342147D01*
X153961135Y-71294770D01*
X153961138Y-71294766D01*
X153982247Y-71273657D01*
X153990537Y-71266113D01*
X153997018Y-71262000D01*
X154043659Y-71212332D01*
X154046413Y-71209491D01*
X154066134Y-71189770D01*
X154068612Y-71186575D01*
X154076318Y-71177553D01*
X154101158Y-71151101D01*
X154106586Y-71145321D01*
X154116346Y-71127568D01*
X154127199Y-71111045D01*
X154134753Y-71101306D01*
X154139613Y-71095041D01*
X154157176Y-71054457D01*
X154162383Y-71043827D01*
X154183695Y-71005060D01*
X154185666Y-70997383D01*
X154185668Y-70997378D01*
X154188732Y-70985442D01*
X154195138Y-70966730D01*
X154200034Y-70955417D01*
X154203181Y-70948145D01*
X154210097Y-70904481D01*
X154212504Y-70892860D01*
X154221528Y-70857711D01*
X154221528Y-70857710D01*
X154223500Y-70850030D01*
X154223500Y-70829769D01*
X154225051Y-70810058D01*
X154225798Y-70805345D01*
X154228219Y-70790057D01*
X154224059Y-70746046D01*
X154223500Y-70734189D01*
X154223500Y-68062538D01*
X154243502Y-67994417D01*
X154297158Y-67947924D01*
X154309624Y-67943014D01*
X154381998Y-67918868D01*
X154388946Y-67916550D01*
X154539348Y-67823478D01*
X154540177Y-67824818D01*
X154598050Y-67801396D01*
X154667813Y-67814569D01*
G37*
%TD.AperFunction*%
%TA.AperFunction,Conductor*%
G36*
X155434121Y-42528002D02*
G01*
X155480614Y-42581658D01*
X155492000Y-42634000D01*
X155492000Y-54721905D01*
X155471998Y-54790026D01*
X155418342Y-54836519D01*
X155348068Y-54846623D01*
X155283488Y-54817129D01*
X155276905Y-54811000D01*
X153923652Y-53457747D01*
X153916112Y-53449461D01*
X153912000Y-53442982D01*
X153862348Y-53396356D01*
X153859507Y-53393602D01*
X153839770Y-53373865D01*
X153836573Y-53371385D01*
X153827551Y-53363680D01*
X153801100Y-53338841D01*
X153795321Y-53333414D01*
X153788375Y-53329595D01*
X153788372Y-53329593D01*
X153777566Y-53323652D01*
X153761047Y-53312801D01*
X153755592Y-53308570D01*
X153745041Y-53300386D01*
X153737772Y-53297241D01*
X153737768Y-53297238D01*
X153704463Y-53282826D01*
X153693813Y-53277609D01*
X153655060Y-53256305D01*
X153635437Y-53251267D01*
X153616734Y-53244863D01*
X153605420Y-53239967D01*
X153605419Y-53239967D01*
X153598145Y-53236819D01*
X153590322Y-53235580D01*
X153590312Y-53235577D01*
X153554476Y-53229901D01*
X153542856Y-53227495D01*
X153507711Y-53218472D01*
X153507710Y-53218472D01*
X153500030Y-53216500D01*
X153479776Y-53216500D01*
X153460065Y-53214949D01*
X153447886Y-53213020D01*
X153440057Y-53211780D01*
X153432165Y-53212526D01*
X153396039Y-53215941D01*
X153384181Y-53216500D01*
X151549950Y-53216500D01*
X151481829Y-53196498D01*
X151468729Y-53185941D01*
X151468675Y-53186011D01*
X151462415Y-53181155D01*
X151456807Y-53175547D01*
X151449983Y-53171511D01*
X151449980Y-53171509D01*
X151320427Y-53094892D01*
X151320428Y-53094892D01*
X151313601Y-53090855D01*
X151305990Y-53088644D01*
X151305988Y-53088643D01*
X151217901Y-53063052D01*
X151153831Y-53044438D01*
X151147426Y-53043934D01*
X151147421Y-53043933D01*
X151118958Y-53041693D01*
X151118950Y-53041693D01*
X151116502Y-53041500D01*
X150134980Y-53041500D01*
X150066859Y-53021498D01*
X150020366Y-52967842D01*
X150008980Y-52915500D01*
X150008980Y-52000500D01*
X150028982Y-51932379D01*
X150031387Y-51929167D01*
X150033500Y-51919452D01*
X150033500Y-51914884D01*
X150541500Y-51914884D01*
X150545975Y-51930123D01*
X150547365Y-51931328D01*
X150555048Y-51932999D01*
X150672095Y-51932999D01*
X150678614Y-51932662D01*
X150774206Y-51922743D01*
X150787600Y-51919851D01*
X150941784Y-51868412D01*
X150954962Y-51862239D01*
X151092807Y-51776937D01*
X151104208Y-51767901D01*
X151218739Y-51653171D01*
X151227751Y-51641760D01*
X151312816Y-51503757D01*
X151318963Y-51490576D01*
X151370138Y-51336290D01*
X151373005Y-51322914D01*
X151382672Y-51228562D01*
X151383000Y-51222146D01*
X151383000Y-50972115D01*
X151378525Y-50956876D01*
X151377135Y-50955671D01*
X151369452Y-50954000D01*
X150559615Y-50954000D01*
X150544376Y-50958475D01*
X150543171Y-50959865D01*
X150541500Y-50967548D01*
X150541500Y-51914884D01*
X150033500Y-51914884D01*
X150033500Y-50427885D01*
X150541500Y-50427885D01*
X150545975Y-50443124D01*
X150547365Y-50444329D01*
X150555048Y-50446000D01*
X151364884Y-50446000D01*
X151380123Y-50441525D01*
X151381328Y-50440135D01*
X151382999Y-50432452D01*
X151382999Y-50177905D01*
X151382662Y-50171386D01*
X151372743Y-50075794D01*
X151369851Y-50062400D01*
X151318412Y-49908216D01*
X151312239Y-49895038D01*
X151226937Y-49757193D01*
X151217901Y-49745792D01*
X151103171Y-49631261D01*
X151091760Y-49622249D01*
X150953757Y-49537184D01*
X150940576Y-49531037D01*
X150786290Y-49479862D01*
X150772914Y-49476995D01*
X150678562Y-49467328D01*
X150672145Y-49467000D01*
X150559615Y-49467000D01*
X150544376Y-49471475D01*
X150543171Y-49472865D01*
X150541500Y-49480548D01*
X150541500Y-50427885D01*
X150033500Y-50427885D01*
X150033500Y-49485116D01*
X150020286Y-49440113D01*
X150014083Y-49430461D01*
X150008980Y-49394965D01*
X150008980Y-48884243D01*
X150009507Y-48873059D01*
X150011181Y-48865571D01*
X150009042Y-48797512D01*
X150008980Y-48793555D01*
X150008980Y-48765624D01*
X150008474Y-48761618D01*
X150007541Y-48749772D01*
X150006402Y-48713517D01*
X150006153Y-48705590D01*
X150000502Y-48686138D01*
X149996494Y-48666786D01*
X149994948Y-48654548D01*
X149994947Y-48654546D01*
X149993954Y-48646683D01*
X149977674Y-48605566D01*
X149973839Y-48594365D01*
X149961498Y-48551886D01*
X149957465Y-48545067D01*
X149957463Y-48545062D01*
X149951187Y-48534451D01*
X149942490Y-48516701D01*
X149935032Y-48497863D01*
X149928230Y-48488500D01*
X149909052Y-48462105D01*
X149902533Y-48452181D01*
X149884058Y-48420940D01*
X149884054Y-48420935D01*
X149880022Y-48414117D01*
X149865698Y-48399793D01*
X149852856Y-48384758D01*
X149840952Y-48368373D01*
X149806886Y-48340191D01*
X149798107Y-48332202D01*
X149464000Y-47998095D01*
X149429974Y-47935783D01*
X149435039Y-47864968D01*
X149477586Y-47808132D01*
X149544106Y-47783321D01*
X149553095Y-47783000D01*
X149957095Y-47782999D01*
X149963614Y-47782662D01*
X150059206Y-47772743D01*
X150072600Y-47769851D01*
X150226784Y-47718412D01*
X150239962Y-47712239D01*
X150377807Y-47626937D01*
X150389208Y-47617901D01*
X150503739Y-47503171D01*
X150512751Y-47491760D01*
X150597816Y-47353757D01*
X150603963Y-47340576D01*
X150655138Y-47186290D01*
X150658005Y-47172914D01*
X150667672Y-47078562D01*
X150668000Y-47072146D01*
X150668000Y-46452115D01*
X150663525Y-46436876D01*
X150662135Y-46435671D01*
X150654452Y-46434000D01*
X149162000Y-46434000D01*
X149093879Y-46413998D01*
X149047386Y-46360342D01*
X149036000Y-46308000D01*
X149036000Y-45907885D01*
X149544000Y-45907885D01*
X149548475Y-45923124D01*
X149549865Y-45924329D01*
X149557548Y-45926000D01*
X150649884Y-45926000D01*
X150665123Y-45921525D01*
X150666328Y-45920135D01*
X150667999Y-45912452D01*
X150667999Y-45287905D01*
X150667662Y-45281386D01*
X150657743Y-45185794D01*
X150654851Y-45172400D01*
X150603412Y-45018216D01*
X150597239Y-45005038D01*
X150511937Y-44867193D01*
X150502901Y-44855792D01*
X150388171Y-44741261D01*
X150376760Y-44732249D01*
X150296565Y-44682817D01*
X152087514Y-44682817D01*
X152088095Y-44687837D01*
X152088095Y-44687841D01*
X152114454Y-44915649D01*
X152115415Y-44923956D01*
X152116791Y-44928820D01*
X152116792Y-44928823D01*
X152158197Y-45075144D01*
X152181510Y-45157532D01*
X152183644Y-45162108D01*
X152183646Y-45162114D01*
X152281962Y-45372954D01*
X152284099Y-45377536D01*
X152420544Y-45578307D01*
X152587332Y-45754681D01*
X152591358Y-45757759D01*
X152591359Y-45757760D01*
X152776154Y-45899047D01*
X152776158Y-45899050D01*
X152780174Y-45902120D01*
X152784632Y-45904510D01*
X152784633Y-45904511D01*
X152868453Y-45949455D01*
X152994109Y-46016831D01*
X153223631Y-46095862D01*
X153322978Y-46113022D01*
X153458926Y-46136504D01*
X153458932Y-46136505D01*
X153462836Y-46137179D01*
X153466797Y-46137359D01*
X153466798Y-46137359D01*
X153490506Y-46138436D01*
X153490525Y-46138436D01*
X153491925Y-46138500D01*
X153661001Y-46138500D01*
X153663509Y-46138298D01*
X153663514Y-46138298D01*
X153836924Y-46124346D01*
X153836929Y-46124345D01*
X153841965Y-46123940D01*
X153846873Y-46122734D01*
X153846876Y-46122734D01*
X154072792Y-46067244D01*
X154077706Y-46066037D01*
X154082358Y-46064062D01*
X154082362Y-46064061D01*
X154296498Y-45973165D01*
X154301156Y-45971188D01*
X154407037Y-45904511D01*
X154502288Y-45844528D01*
X154502291Y-45844526D01*
X154506567Y-45841833D01*
X154605673Y-45754460D01*
X154684858Y-45684650D01*
X154684861Y-45684647D01*
X154688655Y-45681302D01*
X154691866Y-45677393D01*
X154839526Y-45497628D01*
X154839528Y-45497625D01*
X154842734Y-45493722D01*
X154947044Y-45314500D01*
X154962299Y-45288290D01*
X154962300Y-45288288D01*
X154964841Y-45283922D01*
X154987303Y-45225405D01*
X155050020Y-45062022D01*
X155050021Y-45062018D01*
X155051833Y-45057298D01*
X155052868Y-45052345D01*
X155100440Y-44824631D01*
X155100440Y-44824627D01*
X155101474Y-44819680D01*
X155112486Y-44577183D01*
X155097235Y-44445373D01*
X155085167Y-44341071D01*
X155085166Y-44341067D01*
X155084585Y-44336044D01*
X155045517Y-44197978D01*
X155019866Y-44107331D01*
X155018490Y-44102468D01*
X155016356Y-44097892D01*
X155016354Y-44097886D01*
X154918038Y-43887046D01*
X154918036Y-43887042D01*
X154915901Y-43882464D01*
X154779456Y-43681693D01*
X154612668Y-43505319D01*
X154567099Y-43470479D01*
X154423846Y-43360953D01*
X154423842Y-43360950D01*
X154419826Y-43357880D01*
X154407969Y-43351522D01*
X154210352Y-43245561D01*
X154205891Y-43243169D01*
X153976369Y-43164138D01*
X153877022Y-43146978D01*
X153741074Y-43123496D01*
X153741068Y-43123495D01*
X153737164Y-43122821D01*
X153733203Y-43122641D01*
X153733202Y-43122641D01*
X153709494Y-43121564D01*
X153709475Y-43121564D01*
X153708075Y-43121500D01*
X153538999Y-43121500D01*
X153536491Y-43121702D01*
X153536486Y-43121702D01*
X153363076Y-43135654D01*
X153363071Y-43135655D01*
X153358035Y-43136060D01*
X153353127Y-43137266D01*
X153353124Y-43137266D01*
X153237007Y-43165787D01*
X153122294Y-43193963D01*
X153117642Y-43195938D01*
X153117638Y-43195939D01*
X153102243Y-43202474D01*
X152898844Y-43288812D01*
X152894560Y-43291510D01*
X152697712Y-43415472D01*
X152697709Y-43415474D01*
X152693433Y-43418167D01*
X152689639Y-43421512D01*
X152515142Y-43575350D01*
X152515139Y-43575353D01*
X152511345Y-43578698D01*
X152508135Y-43582606D01*
X152508134Y-43582607D01*
X152472447Y-43626054D01*
X152357266Y-43766278D01*
X152336488Y-43801978D01*
X152277770Y-43902866D01*
X152235159Y-43976078D01*
X152148167Y-44202702D01*
X152098526Y-44440320D01*
X152087514Y-44682817D01*
X150296565Y-44682817D01*
X150238757Y-44647184D01*
X150225576Y-44641037D01*
X150071290Y-44589862D01*
X150057914Y-44586995D01*
X149963562Y-44577328D01*
X149957145Y-44577000D01*
X149562115Y-44577000D01*
X149546876Y-44581475D01*
X149545671Y-44582865D01*
X149544000Y-44590548D01*
X149544000Y-45907885D01*
X149036000Y-45907885D01*
X149036000Y-44595116D01*
X149031525Y-44579877D01*
X149030135Y-44578672D01*
X149022452Y-44577001D01*
X148622905Y-44577001D01*
X148616386Y-44577338D01*
X148520794Y-44587257D01*
X148507400Y-44590149D01*
X148353216Y-44641588D01*
X148340038Y-44647761D01*
X148202193Y-44733063D01*
X148190792Y-44742099D01*
X148076261Y-44856829D01*
X148067249Y-44868240D01*
X147978342Y-45012475D01*
X147976245Y-45011183D01*
X147937044Y-45055692D01*
X147868764Y-45075144D01*
X147800807Y-45054593D01*
X147778614Y-45036122D01*
X147666724Y-44918832D01*
X147479035Y-44779187D01*
X147474284Y-44776771D01*
X147474280Y-44776769D01*
X147275256Y-44675580D01*
X147275255Y-44675580D01*
X147270500Y-44673162D01*
X147047083Y-44603790D01*
X147041796Y-44603089D01*
X147041795Y-44603089D01*
X146820455Y-44573752D01*
X146820451Y-44573752D01*
X146815171Y-44573052D01*
X146809842Y-44573252D01*
X146809840Y-44573252D01*
X146698283Y-44577440D01*
X146581396Y-44581828D01*
X146497411Y-44599450D01*
X146357668Y-44628771D01*
X146357665Y-44628772D01*
X146352441Y-44629868D01*
X146134854Y-44715797D01*
X146130290Y-44718566D01*
X146130291Y-44718566D01*
X145939417Y-44834391D01*
X145939414Y-44834393D01*
X145934856Y-44837159D01*
X145758166Y-44990483D01*
X145609835Y-45171386D01*
X145607199Y-45176016D01*
X145607196Y-45176021D01*
X145588699Y-45208516D01*
X145537616Y-45257822D01*
X145467985Y-45271683D01*
X145401915Y-45245699D01*
X145374677Y-45216550D01*
X145291182Y-45092531D01*
X145288202Y-45088104D01*
X145258815Y-45057298D01*
X145130403Y-44922689D01*
X145126724Y-44918832D01*
X144939035Y-44779187D01*
X144934284Y-44776771D01*
X144934280Y-44776769D01*
X144735256Y-44675580D01*
X144735255Y-44675580D01*
X144730500Y-44673162D01*
X144507083Y-44603790D01*
X144501796Y-44603089D01*
X144501795Y-44603089D01*
X144280455Y-44573752D01*
X144280451Y-44573752D01*
X144275171Y-44573052D01*
X144269842Y-44573252D01*
X144269840Y-44573252D01*
X144158283Y-44577440D01*
X144041396Y-44581828D01*
X143957411Y-44599450D01*
X143817668Y-44628771D01*
X143817665Y-44628772D01*
X143812441Y-44629868D01*
X143594854Y-44715797D01*
X143590290Y-44718566D01*
X143590291Y-44718566D01*
X143399417Y-44834391D01*
X143399414Y-44834393D01*
X143394856Y-44837159D01*
X143218166Y-44990483D01*
X143069835Y-45171386D01*
X143012742Y-45271683D01*
X142967371Y-45351389D01*
X142954104Y-45374695D01*
X142874284Y-45594596D01*
X142873335Y-45599845D01*
X142873334Y-45599848D01*
X142862779Y-45658219D01*
X142832656Y-45824803D01*
X142832461Y-45828942D01*
X142832460Y-45828949D01*
X142831853Y-45841833D01*
X142831500Y-45849316D01*
X142831500Y-46463738D01*
X142846295Y-46638102D01*
X142847633Y-46643259D01*
X142847634Y-46643262D01*
X142865590Y-46712441D01*
X142905067Y-46864540D01*
X142907259Y-46869406D01*
X142907260Y-46869409D01*
X142973864Y-47017264D01*
X143001150Y-47077837D01*
X143004134Y-47082270D01*
X143004135Y-47082271D01*
X143017537Y-47102178D01*
X143131798Y-47271896D01*
X143293276Y-47441168D01*
X143297554Y-47444351D01*
X143476677Y-47577623D01*
X143476680Y-47577625D01*
X143480965Y-47580813D01*
X143507608Y-47594359D01*
X143559264Y-47643062D01*
X143576500Y-47706674D01*
X143576500Y-50787972D01*
X143556498Y-50856093D01*
X143516804Y-50895115D01*
X143425652Y-50951522D01*
X143343416Y-51033902D01*
X143339216Y-51038109D01*
X143276934Y-51072188D01*
X143206114Y-51067185D01*
X143161025Y-51038264D01*
X143078483Y-50955866D01*
X143073303Y-50950695D01*
X142983138Y-50895116D01*
X142928968Y-50861725D01*
X142928966Y-50861724D01*
X142922738Y-50857885D01*
X142762254Y-50804655D01*
X142761389Y-50804368D01*
X142761387Y-50804368D01*
X142754861Y-50802203D01*
X142748025Y-50801503D01*
X142748022Y-50801502D01*
X142704969Y-50797091D01*
X142650400Y-50791500D01*
X141849600Y-50791500D01*
X141846354Y-50791837D01*
X141846350Y-50791837D01*
X141750692Y-50801762D01*
X141750688Y-50801763D01*
X141743834Y-50802474D01*
X141737298Y-50804655D01*
X141737296Y-50804655D01*
X141665396Y-50828643D01*
X141576054Y-50858450D01*
X141425652Y-50951522D01*
X141300695Y-51076697D01*
X141296855Y-51082927D01*
X141296854Y-51082928D01*
X141281760Y-51107415D01*
X141228987Y-51154909D01*
X141158916Y-51166332D01*
X141093792Y-51138058D01*
X141054292Y-51079063D01*
X141048500Y-51041299D01*
X141048500Y-50609600D01*
X141041283Y-50540043D01*
X141038238Y-50510692D01*
X141038237Y-50510688D01*
X141037526Y-50503834D01*
X141029652Y-50480231D01*
X140983868Y-50343002D01*
X140981550Y-50336054D01*
X140888478Y-50185652D01*
X140880718Y-50177905D01*
X140768483Y-50065866D01*
X140763303Y-50060695D01*
X140661715Y-49998075D01*
X140618968Y-49971725D01*
X140618966Y-49971724D01*
X140612738Y-49967885D01*
X140532995Y-49941436D01*
X140451389Y-49914368D01*
X140451387Y-49914368D01*
X140444861Y-49912203D01*
X140438025Y-49911503D01*
X140438022Y-49911502D01*
X140394969Y-49907091D01*
X140340400Y-49901500D01*
X139679594Y-49901500D01*
X139611473Y-49881498D01*
X139590499Y-49864595D01*
X138250405Y-48524500D01*
X138216379Y-48462188D01*
X138213500Y-48435405D01*
X138213500Y-47703990D01*
X138233502Y-47635869D01*
X138274135Y-47596271D01*
X138390580Y-47525611D01*
X138390584Y-47525608D01*
X138395144Y-47522841D01*
X138571834Y-47369517D01*
X138602761Y-47331799D01*
X138661421Y-47291804D01*
X138732391Y-47289873D01*
X138793139Y-47326617D01*
X138808220Y-47349157D01*
X138808906Y-47348732D01*
X138898063Y-47492807D01*
X138907099Y-47504208D01*
X139021829Y-47618739D01*
X139033240Y-47627751D01*
X139171243Y-47712816D01*
X139184424Y-47718963D01*
X139338710Y-47770138D01*
X139352086Y-47773005D01*
X139446438Y-47782672D01*
X139452854Y-47783000D01*
X139847885Y-47783000D01*
X139863124Y-47778525D01*
X139864329Y-47777135D01*
X139866000Y-47769452D01*
X139866000Y-47764884D01*
X140374000Y-47764884D01*
X140378475Y-47780123D01*
X140379865Y-47781328D01*
X140387548Y-47782999D01*
X140787095Y-47782999D01*
X140793614Y-47782662D01*
X140889206Y-47772743D01*
X140902600Y-47769851D01*
X141056784Y-47718412D01*
X141069962Y-47712239D01*
X141207807Y-47626937D01*
X141219208Y-47617901D01*
X141333739Y-47503171D01*
X141342751Y-47491760D01*
X141427816Y-47353757D01*
X141433963Y-47340576D01*
X141485138Y-47186290D01*
X141488005Y-47172914D01*
X141497672Y-47078562D01*
X141498000Y-47072146D01*
X141498000Y-46452115D01*
X141493525Y-46436876D01*
X141492135Y-46435671D01*
X141484452Y-46434000D01*
X140392115Y-46434000D01*
X140376876Y-46438475D01*
X140375671Y-46439865D01*
X140374000Y-46447548D01*
X140374000Y-47764884D01*
X139866000Y-47764884D01*
X139866000Y-45907885D01*
X140374000Y-45907885D01*
X140378475Y-45923124D01*
X140379865Y-45924329D01*
X140387548Y-45926000D01*
X141479884Y-45926000D01*
X141495123Y-45921525D01*
X141496328Y-45920135D01*
X141497999Y-45912452D01*
X141497999Y-45287905D01*
X141497662Y-45281386D01*
X141487743Y-45185794D01*
X141484851Y-45172400D01*
X141433412Y-45018216D01*
X141427239Y-45005038D01*
X141341937Y-44867193D01*
X141332901Y-44855792D01*
X141218171Y-44741261D01*
X141206760Y-44732249D01*
X141068757Y-44647184D01*
X141055576Y-44641037D01*
X140901290Y-44589862D01*
X140887914Y-44586995D01*
X140793562Y-44577328D01*
X140787145Y-44577000D01*
X140392115Y-44577000D01*
X140376876Y-44581475D01*
X140375671Y-44582865D01*
X140374000Y-44590548D01*
X140374000Y-45907885D01*
X139866000Y-45907885D01*
X139866000Y-44595116D01*
X139861525Y-44579877D01*
X139860135Y-44578672D01*
X139852452Y-44577001D01*
X139452905Y-44577001D01*
X139446386Y-44577338D01*
X139350794Y-44587257D01*
X139337400Y-44590149D01*
X139183216Y-44641588D01*
X139170038Y-44647761D01*
X139032193Y-44733063D01*
X139020792Y-44742099D01*
X138906261Y-44856829D01*
X138897249Y-44868240D01*
X138808342Y-45012475D01*
X138806245Y-45011183D01*
X138767044Y-45055692D01*
X138698764Y-45075144D01*
X138630807Y-45054593D01*
X138608614Y-45036122D01*
X138496724Y-44918832D01*
X138309035Y-44779187D01*
X138304284Y-44776771D01*
X138304280Y-44776769D01*
X138105256Y-44675580D01*
X138105255Y-44675580D01*
X138100500Y-44673162D01*
X137877083Y-44603790D01*
X137871796Y-44603089D01*
X137871795Y-44603089D01*
X137650455Y-44573752D01*
X137650451Y-44573752D01*
X137645171Y-44573052D01*
X137639842Y-44573252D01*
X137639840Y-44573252D01*
X137528283Y-44577440D01*
X137411396Y-44581828D01*
X137327411Y-44599450D01*
X137187668Y-44628771D01*
X137187665Y-44628772D01*
X137182441Y-44629868D01*
X136964854Y-44715797D01*
X136960290Y-44718566D01*
X136960291Y-44718566D01*
X136769417Y-44834391D01*
X136769414Y-44834393D01*
X136764856Y-44837159D01*
X136588166Y-44990483D01*
X136439835Y-45171386D01*
X136437199Y-45176016D01*
X136437196Y-45176021D01*
X136418699Y-45208516D01*
X136367616Y-45257822D01*
X136297985Y-45271683D01*
X136231915Y-45245699D01*
X136204677Y-45216550D01*
X136121182Y-45092531D01*
X136118202Y-45088104D01*
X136088815Y-45057298D01*
X135960403Y-44922689D01*
X135956724Y-44918832D01*
X135769035Y-44779187D01*
X135764284Y-44776771D01*
X135764280Y-44776769D01*
X135565256Y-44675580D01*
X135565255Y-44675580D01*
X135560500Y-44673162D01*
X135337083Y-44603790D01*
X135331796Y-44603089D01*
X135331795Y-44603089D01*
X135110455Y-44573752D01*
X135110451Y-44573752D01*
X135105171Y-44573052D01*
X135099842Y-44573252D01*
X135099840Y-44573252D01*
X134988283Y-44577440D01*
X134871396Y-44581828D01*
X134787411Y-44599450D01*
X134647668Y-44628771D01*
X134647665Y-44628772D01*
X134642441Y-44629868D01*
X134424854Y-44715797D01*
X134420290Y-44718566D01*
X134420291Y-44718566D01*
X134229417Y-44834391D01*
X134229414Y-44834393D01*
X134224856Y-44837159D01*
X134048166Y-44990483D01*
X133899835Y-45171386D01*
X133842742Y-45271683D01*
X133797371Y-45351389D01*
X133784104Y-45374695D01*
X133704284Y-45594596D01*
X133703335Y-45599845D01*
X133703334Y-45599848D01*
X133692779Y-45658219D01*
X133662656Y-45824803D01*
X133662461Y-45828942D01*
X133662460Y-45828949D01*
X133661853Y-45841833D01*
X133661500Y-45849316D01*
X133661500Y-46463738D01*
X133676295Y-46638102D01*
X133677633Y-46643259D01*
X133677634Y-46643262D01*
X133695590Y-46712441D01*
X133735067Y-46864540D01*
X133737259Y-46869406D01*
X133737260Y-46869409D01*
X133803864Y-47017264D01*
X133831150Y-47077837D01*
X133834134Y-47082270D01*
X133834135Y-47082271D01*
X133847537Y-47102178D01*
X133961798Y-47271896D01*
X134123276Y-47441168D01*
X134310965Y-47580813D01*
X134315716Y-47583229D01*
X134315720Y-47583231D01*
X134514744Y-47684420D01*
X134519500Y-47686838D01*
X134742917Y-47756210D01*
X134748204Y-47756911D01*
X134748205Y-47756911D01*
X134969545Y-47786248D01*
X134969549Y-47786248D01*
X134974829Y-47786948D01*
X134980158Y-47786748D01*
X134980160Y-47786748D01*
X135091717Y-47782560D01*
X135208604Y-47778172D01*
X135320813Y-47754628D01*
X135432332Y-47731229D01*
X135432335Y-47731228D01*
X135437559Y-47730132D01*
X135655146Y-47644203D01*
X135764866Y-47577623D01*
X135850583Y-47525609D01*
X135850586Y-47525607D01*
X135855144Y-47522841D01*
X136031834Y-47369517D01*
X136180165Y-47188614D01*
X136182801Y-47183984D01*
X136182804Y-47183979D01*
X136201301Y-47151484D01*
X136252384Y-47102178D01*
X136322015Y-47088317D01*
X136388085Y-47114301D01*
X136415323Y-47143450D01*
X136436679Y-47175171D01*
X136501798Y-47271896D01*
X136663276Y-47441168D01*
X136667554Y-47444351D01*
X136846677Y-47577623D01*
X136846680Y-47577625D01*
X136850965Y-47580813D01*
X136877608Y-47594359D01*
X136929264Y-47643062D01*
X136946500Y-47706674D01*
X136946500Y-48671233D01*
X136945973Y-48682416D01*
X136944298Y-48689909D01*
X136944547Y-48697835D01*
X136944547Y-48697836D01*
X136946438Y-48757986D01*
X136946500Y-48761945D01*
X136946500Y-48789856D01*
X136946997Y-48793790D01*
X136946997Y-48793791D01*
X136947005Y-48793856D01*
X136947938Y-48805693D01*
X136949327Y-48849889D01*
X136953883Y-48865571D01*
X136954978Y-48869339D01*
X136958987Y-48888700D01*
X136961526Y-48908797D01*
X136964445Y-48916168D01*
X136964445Y-48916170D01*
X136977804Y-48949912D01*
X136981649Y-48961142D01*
X136993982Y-49003593D01*
X136998015Y-49010412D01*
X136998017Y-49010417D01*
X137004293Y-49021028D01*
X137012988Y-49038776D01*
X137020448Y-49057617D01*
X137025110Y-49064033D01*
X137025110Y-49064034D01*
X137046436Y-49093387D01*
X137052952Y-49103307D01*
X137075458Y-49141362D01*
X137089779Y-49155683D01*
X137102619Y-49170716D01*
X137114528Y-49187107D01*
X137120634Y-49192158D01*
X137148605Y-49215298D01*
X137157384Y-49223288D01*
X138594595Y-50660499D01*
X138628621Y-50722811D01*
X138631500Y-50749594D01*
X138631500Y-51260500D01*
X138611498Y-51328621D01*
X138557842Y-51375114D01*
X138505500Y-51386500D01*
X134496713Y-51386500D01*
X134428592Y-51366498D01*
X134382099Y-51312842D01*
X134379280Y-51306166D01*
X134363342Y-51265180D01*
X134363338Y-51265173D01*
X134361647Y-51260823D01*
X134339535Y-51222134D01*
X134307641Y-51166332D01*
X134231951Y-51033902D01*
X134070138Y-50828643D01*
X133879763Y-50649557D01*
X133709597Y-50531508D01*
X133668851Y-50503241D01*
X133668848Y-50503239D01*
X133665009Y-50500576D01*
X133658358Y-50497296D01*
X133434781Y-50387040D01*
X133434778Y-50387039D01*
X133430593Y-50384975D01*
X133384449Y-50370204D01*
X133186123Y-50306720D01*
X133181665Y-50305293D01*
X132923693Y-50263279D01*
X132809942Y-50261790D01*
X132667022Y-50259919D01*
X132667019Y-50259919D01*
X132662345Y-50259858D01*
X132403362Y-50295104D01*
X132398876Y-50296412D01*
X132398874Y-50296412D01*
X132381418Y-50301500D01*
X132152433Y-50368243D01*
X132148180Y-50370203D01*
X132148179Y-50370204D01*
X132111659Y-50387040D01*
X131915072Y-50477668D01*
X131876067Y-50503241D01*
X131700404Y-50618410D01*
X131700399Y-50618414D01*
X131696491Y-50620976D01*
X131501494Y-50795018D01*
X131334363Y-50995970D01*
X131331934Y-50999973D01*
X131235480Y-51158925D01*
X131198771Y-51219419D01*
X131097697Y-51460455D01*
X131033359Y-51713783D01*
X131007173Y-51973839D01*
X131007397Y-51978505D01*
X131007397Y-51978511D01*
X131013443Y-52104374D01*
X131019713Y-52234908D01*
X131070704Y-52491256D01*
X131159026Y-52737252D01*
X131161242Y-52741376D01*
X131279645Y-52961736D01*
X131282737Y-52967491D01*
X131285532Y-52971234D01*
X131285534Y-52971237D01*
X131436330Y-53173177D01*
X131436335Y-53173183D01*
X131439122Y-53176915D01*
X131442431Y-53180195D01*
X131442436Y-53180201D01*
X131613616Y-53349893D01*
X131624743Y-53360923D01*
X131628503Y-53363680D01*
X131628508Y-53363684D01*
X131827753Y-53509776D01*
X131835524Y-53515474D01*
X131839667Y-53517654D01*
X131839669Y-53517655D01*
X132062684Y-53634989D01*
X132062689Y-53634991D01*
X132066834Y-53637172D01*
X132313590Y-53723344D01*
X132318183Y-53724216D01*
X132565785Y-53771224D01*
X132565788Y-53771224D01*
X132570374Y-53772095D01*
X132696683Y-53777058D01*
X132826875Y-53782174D01*
X132826881Y-53782174D01*
X132831543Y-53782357D01*
X132910977Y-53773657D01*
X133086707Y-53754412D01*
X133086712Y-53754411D01*
X133091360Y-53753902D01*
X133204116Y-53724216D01*
X133339594Y-53688548D01*
X133339596Y-53688547D01*
X133344117Y-53687357D01*
X133348412Y-53685512D01*
X133348420Y-53685509D01*
X133361649Y-53679825D01*
X133432133Y-53671312D01*
X133496031Y-53702256D01*
X133533055Y-53762835D01*
X133531451Y-53833813D01*
X133500483Y-53884687D01*
X132849500Y-54535670D01*
X132787188Y-54569696D01*
X132760405Y-54572575D01*
X132099600Y-54572575D01*
X132096354Y-54572912D01*
X132096350Y-54572912D01*
X132000692Y-54582837D01*
X132000688Y-54582838D01*
X131993834Y-54583549D01*
X131987298Y-54585730D01*
X131987296Y-54585730D01*
X131855194Y-54629803D01*
X131826054Y-54639525D01*
X131675652Y-54732597D01*
X131550695Y-54857772D01*
X131546855Y-54864002D01*
X131546854Y-54864003D01*
X131466173Y-54994892D01*
X131457885Y-55008337D01*
X131402203Y-55176214D01*
X131391500Y-55280675D01*
X131391500Y-56281475D01*
X131391837Y-56284721D01*
X131391837Y-56284725D01*
X131392757Y-56293586D01*
X131402474Y-56387241D01*
X131404655Y-56393777D01*
X131404655Y-56393779D01*
X131443882Y-56511357D01*
X131458450Y-56555021D01*
X131551522Y-56705423D01*
X131676697Y-56830380D01*
X131682927Y-56834220D01*
X131682928Y-56834221D01*
X131820090Y-56918769D01*
X131827262Y-56923190D01*
X131907005Y-56949639D01*
X131988611Y-56976707D01*
X131988613Y-56976707D01*
X131995139Y-56978872D01*
X132001975Y-56979572D01*
X132001978Y-56979573D01*
X132045031Y-56983984D01*
X132099600Y-56989575D01*
X132760406Y-56989575D01*
X132828527Y-57009577D01*
X132849501Y-57026480D01*
X133829595Y-58006575D01*
X133863621Y-58068887D01*
X133866500Y-58095670D01*
X133866500Y-58544294D01*
X133846498Y-58612415D01*
X133806803Y-58651438D01*
X133675652Y-58732597D01*
X133670479Y-58737779D01*
X133589216Y-58819184D01*
X133526934Y-58853263D01*
X133456114Y-58848260D01*
X133411025Y-58819339D01*
X133328483Y-58736941D01*
X133323303Y-58731770D01*
X133304572Y-58720224D01*
X133178968Y-58642800D01*
X133178966Y-58642799D01*
X133172738Y-58638960D01*
X133075890Y-58606837D01*
X133011389Y-58585443D01*
X133011387Y-58585443D01*
X133004861Y-58583278D01*
X132998025Y-58582578D01*
X132998022Y-58582577D01*
X132954969Y-58578166D01*
X132900400Y-58572575D01*
X132099600Y-58572575D01*
X132096354Y-58572912D01*
X132096350Y-58572912D01*
X132000692Y-58582837D01*
X132000688Y-58582838D01*
X131993834Y-58583549D01*
X131987298Y-58585730D01*
X131987296Y-58585730D01*
X131886472Y-58619368D01*
X131826054Y-58639525D01*
X131819822Y-58643381D01*
X131819823Y-58643381D01*
X131712838Y-58709585D01*
X131644386Y-58728423D01*
X131576616Y-58707262D01*
X131557440Y-58691536D01*
X127729210Y-54863305D01*
X127695184Y-54800993D01*
X127697972Y-54736848D01*
X127766210Y-54517083D01*
X127787311Y-54357883D01*
X127796248Y-54290455D01*
X127796248Y-54290451D01*
X127796948Y-54285171D01*
X127795853Y-54255988D01*
X127788372Y-54056727D01*
X127788172Y-54051396D01*
X127762291Y-53928048D01*
X127741229Y-53827668D01*
X127741228Y-53827665D01*
X127740132Y-53822441D01*
X127654203Y-53604854D01*
X127656148Y-53604086D01*
X127645345Y-53543034D01*
X127673494Y-53476608D01*
X127689820Y-53456874D01*
X127697808Y-53448096D01*
X128001767Y-53144137D01*
X128010057Y-53136593D01*
X128016538Y-53132480D01*
X128063179Y-53082812D01*
X128065933Y-53079971D01*
X128085654Y-53060250D01*
X128088132Y-53057055D01*
X128095838Y-53048033D01*
X128120678Y-53021581D01*
X128126106Y-53015801D01*
X128135866Y-52998048D01*
X128146719Y-52981525D01*
X128154273Y-52971786D01*
X128159133Y-52965521D01*
X128176696Y-52924937D01*
X128181903Y-52914307D01*
X128203215Y-52875540D01*
X128205186Y-52867863D01*
X128205188Y-52867858D01*
X128208252Y-52855922D01*
X128214658Y-52837210D01*
X128219553Y-52825899D01*
X128222701Y-52818625D01*
X128223941Y-52810797D01*
X128223943Y-52810790D01*
X128229619Y-52774956D01*
X128232025Y-52763336D01*
X128241048Y-52728191D01*
X128241048Y-52728190D01*
X128243020Y-52720510D01*
X128243020Y-52700256D01*
X128244571Y-52680545D01*
X128246500Y-52668366D01*
X128247740Y-52660537D01*
X128243579Y-52616518D01*
X128243020Y-52604661D01*
X128243020Y-48608283D01*
X128243547Y-48597099D01*
X128245221Y-48589611D01*
X128243082Y-48521552D01*
X128243020Y-48517595D01*
X128243020Y-48489664D01*
X128242514Y-48485658D01*
X128241581Y-48473812D01*
X128240902Y-48452181D01*
X128240193Y-48429630D01*
X128234542Y-48410178D01*
X128230534Y-48390826D01*
X128228988Y-48378588D01*
X128228987Y-48378586D01*
X128227994Y-48370723D01*
X128211714Y-48329606D01*
X128207879Y-48318405D01*
X128195538Y-48275926D01*
X128191505Y-48269107D01*
X128191503Y-48269102D01*
X128185227Y-48258491D01*
X128176530Y-48240741D01*
X128169072Y-48221903D01*
X128143091Y-48186143D01*
X128136573Y-48176221D01*
X128118098Y-48144980D01*
X128118094Y-48144975D01*
X128114062Y-48138157D01*
X128099738Y-48123833D01*
X128086896Y-48108798D01*
X128074992Y-48092413D01*
X128040926Y-48064231D01*
X128032147Y-48056242D01*
X127729210Y-47753305D01*
X127695184Y-47690993D01*
X127697972Y-47626848D01*
X127766210Y-47407083D01*
X127776875Y-47326617D01*
X127796248Y-47180455D01*
X127796248Y-47180451D01*
X127796948Y-47175171D01*
X127793688Y-47088317D01*
X127788372Y-46946727D01*
X127788172Y-46941396D01*
X127740132Y-46712441D01*
X127654203Y-46494854D01*
X127532841Y-46294856D01*
X127379517Y-46118166D01*
X127342229Y-46087592D01*
X127302236Y-46028933D01*
X127300305Y-45957962D01*
X127337050Y-45897214D01*
X127359390Y-45882267D01*
X127358946Y-45881550D01*
X127503120Y-45792332D01*
X127509348Y-45788478D01*
X127634305Y-45663303D01*
X127638146Y-45657072D01*
X127723275Y-45518968D01*
X127723276Y-45518966D01*
X127727115Y-45512738D01*
X127782797Y-45344861D01*
X127793500Y-45240400D01*
X127793500Y-43899600D01*
X127793163Y-43896350D01*
X127783238Y-43800692D01*
X127783237Y-43800688D01*
X127782526Y-43793834D01*
X127772030Y-43762372D01*
X127728868Y-43633002D01*
X127726550Y-43626054D01*
X127633478Y-43475652D01*
X127508303Y-43350695D01*
X127407911Y-43288812D01*
X127363968Y-43261725D01*
X127363966Y-43261724D01*
X127357738Y-43257885D01*
X127197254Y-43204655D01*
X127196389Y-43204368D01*
X127196387Y-43204368D01*
X127189861Y-43202203D01*
X127183025Y-43201503D01*
X127183022Y-43201502D01*
X127139969Y-43197091D01*
X127085400Y-43191500D01*
X125294600Y-43191500D01*
X125291354Y-43191837D01*
X125291350Y-43191837D01*
X125195692Y-43201762D01*
X125195688Y-43201763D01*
X125188834Y-43202474D01*
X125182298Y-43204655D01*
X125182296Y-43204655D01*
X125071793Y-43241522D01*
X125021054Y-43258450D01*
X124870652Y-43351522D01*
X124745695Y-43476697D01*
X124652885Y-43627262D01*
X124597203Y-43795139D01*
X124586500Y-43899600D01*
X124586500Y-45225405D01*
X124566498Y-45293526D01*
X124549595Y-45314500D01*
X124378227Y-45485868D01*
X124369941Y-45493408D01*
X124363462Y-45497520D01*
X124358037Y-45503297D01*
X124316837Y-45547171D01*
X124314082Y-45550013D01*
X124294345Y-45569750D01*
X124291865Y-45572947D01*
X124284162Y-45581967D01*
X124253894Y-45614199D01*
X124250075Y-45621145D01*
X124250073Y-45621148D01*
X124244132Y-45631954D01*
X124233281Y-45648473D01*
X124220866Y-45664479D01*
X124217721Y-45671748D01*
X124217718Y-45671752D01*
X124203306Y-45705057D01*
X124198089Y-45715707D01*
X124176785Y-45754460D01*
X124174814Y-45762135D01*
X124174814Y-45762136D01*
X124171747Y-45774082D01*
X124165343Y-45792786D01*
X124157299Y-45811375D01*
X124156060Y-45819198D01*
X124156057Y-45819208D01*
X124150381Y-45855044D01*
X124147975Y-45866664D01*
X124136980Y-45909490D01*
X124136980Y-45929744D01*
X124135429Y-45949454D01*
X124132260Y-45969463D01*
X124133006Y-45977355D01*
X124136421Y-46013481D01*
X124136980Y-46025339D01*
X124136980Y-50181713D01*
X124136453Y-50192896D01*
X124134778Y-50200389D01*
X124135027Y-50208315D01*
X124135027Y-50208316D01*
X124136918Y-50268466D01*
X124136980Y-50272425D01*
X124136980Y-50300336D01*
X124137477Y-50304270D01*
X124137477Y-50304271D01*
X124137485Y-50304336D01*
X124138418Y-50316173D01*
X124139807Y-50360369D01*
X124145458Y-50379819D01*
X124149467Y-50399180D01*
X124152006Y-50419277D01*
X124154925Y-50426648D01*
X124154925Y-50426650D01*
X124168284Y-50460392D01*
X124172129Y-50471622D01*
X124174630Y-50480231D01*
X124184462Y-50514073D01*
X124188495Y-50520892D01*
X124188497Y-50520897D01*
X124194773Y-50531508D01*
X124203468Y-50549256D01*
X124210928Y-50568097D01*
X124215590Y-50574513D01*
X124215590Y-50574514D01*
X124236916Y-50603867D01*
X124243432Y-50613787D01*
X124265938Y-50651842D01*
X124280259Y-50666163D01*
X124293099Y-50681196D01*
X124305008Y-50697587D01*
X124311114Y-50702638D01*
X124339085Y-50725778D01*
X124347864Y-50733768D01*
X124549595Y-50935499D01*
X124583621Y-50997811D01*
X124586500Y-51024594D01*
X124586500Y-52350400D01*
X124597474Y-52456166D01*
X124653450Y-52623946D01*
X124657306Y-52630177D01*
X124724186Y-52738254D01*
X124743024Y-52806706D01*
X124721863Y-52874476D01*
X124706137Y-52893652D01*
X124378227Y-53221562D01*
X124369941Y-53229102D01*
X124363462Y-53233214D01*
X124358037Y-53238991D01*
X124316837Y-53282865D01*
X124314082Y-53285707D01*
X124294345Y-53305444D01*
X124291865Y-53308641D01*
X124284162Y-53317661D01*
X124253894Y-53349893D01*
X124250075Y-53356839D01*
X124250073Y-53356842D01*
X124244132Y-53367648D01*
X124233281Y-53384167D01*
X124220866Y-53400173D01*
X124217721Y-53407442D01*
X124217718Y-53407446D01*
X124203306Y-53440751D01*
X124198089Y-53451401D01*
X124176785Y-53490154D01*
X124174814Y-53497829D01*
X124174814Y-53497830D01*
X124171747Y-53509776D01*
X124165343Y-53528480D01*
X124157299Y-53547069D01*
X124156060Y-53554892D01*
X124156057Y-53554902D01*
X124150381Y-53590738D01*
X124147975Y-53602358D01*
X124139345Y-53635973D01*
X124136980Y-53645184D01*
X124136980Y-53665438D01*
X124135429Y-53685148D01*
X124132260Y-53705157D01*
X124133006Y-53713049D01*
X124136421Y-53749175D01*
X124136980Y-53761033D01*
X124136980Y-55261713D01*
X124136453Y-55272896D01*
X124134778Y-55280389D01*
X124135027Y-55288315D01*
X124135027Y-55288316D01*
X124136918Y-55348466D01*
X124136980Y-55352425D01*
X124136980Y-55380336D01*
X124137477Y-55384270D01*
X124137477Y-55384271D01*
X124137485Y-55384336D01*
X124138418Y-55396173D01*
X124139807Y-55440369D01*
X124145458Y-55459819D01*
X124149467Y-55479180D01*
X124152006Y-55499277D01*
X124154925Y-55506648D01*
X124154925Y-55506650D01*
X124168284Y-55540392D01*
X124172129Y-55551622D01*
X124184462Y-55594073D01*
X124188495Y-55600892D01*
X124188497Y-55600897D01*
X124194773Y-55611508D01*
X124203468Y-55629256D01*
X124210928Y-55648097D01*
X124215590Y-55654513D01*
X124215590Y-55654514D01*
X124236916Y-55683867D01*
X124243432Y-55693787D01*
X124265938Y-55731842D01*
X124280259Y-55746163D01*
X124293099Y-55761196D01*
X124305008Y-55777587D01*
X124311114Y-55782638D01*
X124339085Y-55805778D01*
X124347864Y-55813768D01*
X124650790Y-56116694D01*
X124684816Y-56179006D01*
X124682028Y-56243152D01*
X124613790Y-56462917D01*
X124613089Y-56468204D01*
X124613089Y-56468205D01*
X124600757Y-56561251D01*
X124583052Y-56694829D01*
X124583252Y-56700158D01*
X124583252Y-56700160D01*
X124583954Y-56718861D01*
X124591828Y-56928604D01*
X124639868Y-57157559D01*
X124641826Y-57162518D01*
X124641827Y-57162520D01*
X124682162Y-57264653D01*
X124688580Y-57335359D01*
X124654065Y-57400030D01*
X123777747Y-58276348D01*
X123769461Y-58283888D01*
X123762982Y-58288000D01*
X123757557Y-58293777D01*
X123716357Y-58337651D01*
X123713602Y-58340493D01*
X123693865Y-58360230D01*
X123691385Y-58363427D01*
X123683682Y-58372447D01*
X123653414Y-58404679D01*
X123649595Y-58411625D01*
X123649593Y-58411628D01*
X123643652Y-58422434D01*
X123632801Y-58438953D01*
X123620386Y-58454959D01*
X123617241Y-58462228D01*
X123617238Y-58462232D01*
X123602826Y-58495537D01*
X123597609Y-58506187D01*
X123576305Y-58544940D01*
X123574334Y-58552615D01*
X123574334Y-58552616D01*
X123571267Y-58564562D01*
X123564863Y-58583266D01*
X123556819Y-58601855D01*
X123555580Y-58609678D01*
X123555577Y-58609688D01*
X123549901Y-58645524D01*
X123547495Y-58657144D01*
X123543928Y-58671037D01*
X123536500Y-58699970D01*
X123536500Y-58720224D01*
X123534949Y-58739934D01*
X123531780Y-58759943D01*
X123532526Y-58767835D01*
X123535941Y-58803961D01*
X123536500Y-58815819D01*
X123536500Y-62231233D01*
X123535973Y-62242416D01*
X123534298Y-62249909D01*
X123534547Y-62257835D01*
X123534547Y-62257836D01*
X123536438Y-62317986D01*
X123536500Y-62321945D01*
X123536500Y-62349856D01*
X123536997Y-62353790D01*
X123536997Y-62353791D01*
X123537005Y-62353856D01*
X123537938Y-62365693D01*
X123539327Y-62409889D01*
X123544978Y-62429339D01*
X123548987Y-62448700D01*
X123551526Y-62468797D01*
X123554445Y-62476168D01*
X123554445Y-62476170D01*
X123567804Y-62509912D01*
X123571649Y-62521142D01*
X123578462Y-62544594D01*
X123583982Y-62563593D01*
X123588015Y-62570412D01*
X123588017Y-62570417D01*
X123594293Y-62581028D01*
X123602988Y-62598776D01*
X123610448Y-62617617D01*
X123615110Y-62624033D01*
X123615110Y-62624034D01*
X123636436Y-62653387D01*
X123642952Y-62663307D01*
X123656398Y-62686042D01*
X123665458Y-62701362D01*
X123679779Y-62715683D01*
X123692619Y-62730716D01*
X123704528Y-62747107D01*
X123710634Y-62752158D01*
X123738605Y-62775298D01*
X123747384Y-62783288D01*
X124650790Y-63686694D01*
X124684816Y-63749006D01*
X124682028Y-63813152D01*
X124613790Y-64032917D01*
X124613089Y-64038204D01*
X124613089Y-64038205D01*
X124585467Y-64246612D01*
X124583052Y-64264829D01*
X124591828Y-64498604D01*
X124592923Y-64503822D01*
X124633917Y-64699195D01*
X124639868Y-64727559D01*
X124682162Y-64834655D01*
X124688580Y-64905359D01*
X124654065Y-64970031D01*
X124275216Y-65348879D01*
X123897742Y-65726353D01*
X123889463Y-65733887D01*
X123882982Y-65738000D01*
X123870966Y-65750796D01*
X123836357Y-65787651D01*
X123833602Y-65790493D01*
X123813865Y-65810230D01*
X123811385Y-65813427D01*
X123803682Y-65822447D01*
X123773414Y-65854679D01*
X123769595Y-65861625D01*
X123769593Y-65861628D01*
X123763652Y-65872434D01*
X123752801Y-65888953D01*
X123740386Y-65904959D01*
X123737241Y-65912228D01*
X123737238Y-65912232D01*
X123722826Y-65945537D01*
X123717609Y-65956187D01*
X123696305Y-65994940D01*
X123694334Y-66002615D01*
X123694334Y-66002616D01*
X123691267Y-66014562D01*
X123684863Y-66033266D01*
X123676819Y-66051855D01*
X123675580Y-66059678D01*
X123675577Y-66059688D01*
X123669901Y-66095524D01*
X123667495Y-66107144D01*
X123658472Y-66142289D01*
X123656500Y-66149970D01*
X123656500Y-66170224D01*
X123654949Y-66189934D01*
X123651780Y-66209943D01*
X123655737Y-66251798D01*
X123655941Y-66253961D01*
X123656500Y-66265819D01*
X123656500Y-71871233D01*
X123655973Y-71882416D01*
X123654298Y-71889909D01*
X123654547Y-71897835D01*
X123654547Y-71897836D01*
X123656438Y-71957986D01*
X123656500Y-71961945D01*
X123656500Y-71989856D01*
X123656997Y-71993790D01*
X123656997Y-71993791D01*
X123657005Y-71993856D01*
X123657938Y-72005693D01*
X123659327Y-72049889D01*
X123664978Y-72069339D01*
X123668987Y-72088700D01*
X123671526Y-72108797D01*
X123674445Y-72116168D01*
X123674445Y-72116170D01*
X123687804Y-72149912D01*
X123691649Y-72161142D01*
X123703982Y-72203593D01*
X123708015Y-72210412D01*
X123708017Y-72210417D01*
X123714293Y-72221028D01*
X123722988Y-72238776D01*
X123730448Y-72257617D01*
X123735110Y-72264033D01*
X123735110Y-72264034D01*
X123756436Y-72293387D01*
X123762952Y-72303307D01*
X123776310Y-72325893D01*
X123785458Y-72341362D01*
X123799779Y-72355683D01*
X123812619Y-72370716D01*
X123824528Y-72387107D01*
X123830632Y-72392157D01*
X123830637Y-72392162D01*
X123858598Y-72415293D01*
X123867379Y-72423283D01*
X124650790Y-73206695D01*
X124684815Y-73269007D01*
X124682027Y-73333154D01*
X124613790Y-73552917D01*
X124613089Y-73558204D01*
X124613089Y-73558205D01*
X124596055Y-73686727D01*
X124583052Y-73784829D01*
X124591828Y-74018604D01*
X124592923Y-74023822D01*
X124633686Y-74218094D01*
X124639868Y-74247559D01*
X124725797Y-74465146D01*
X124847159Y-74665144D01*
X125000483Y-74841834D01*
X125181386Y-74990165D01*
X125289141Y-75051503D01*
X125379752Y-75103082D01*
X125384695Y-75105896D01*
X125604596Y-75185716D01*
X125609845Y-75186665D01*
X125609848Y-75186666D01*
X125691040Y-75201348D01*
X125834803Y-75227344D01*
X125838942Y-75227539D01*
X125838949Y-75227540D01*
X125857828Y-75228430D01*
X125857835Y-75228430D01*
X125859316Y-75228500D01*
X126473738Y-75228500D01*
X126541641Y-75222738D01*
X126642791Y-75214156D01*
X126642795Y-75214155D01*
X126648102Y-75213705D01*
X126653259Y-75212367D01*
X126653262Y-75212366D01*
X126869371Y-75156275D01*
X126869375Y-75156274D01*
X126874540Y-75154933D01*
X126879406Y-75152741D01*
X126879409Y-75152740D01*
X127082964Y-75061045D01*
X127087837Y-75058850D01*
X127281896Y-74928202D01*
X127451168Y-74766724D01*
X127590813Y-74579035D01*
X127646398Y-74469709D01*
X127694420Y-74375256D01*
X127694420Y-74375255D01*
X127696838Y-74370500D01*
X127766210Y-74147083D01*
X127772259Y-74101443D01*
X127796248Y-73920455D01*
X127796248Y-73920451D01*
X127796948Y-73915171D01*
X127788172Y-73681396D01*
X127740132Y-73452441D01*
X127654203Y-73234854D01*
X127623646Y-73184498D01*
X127535609Y-73039417D01*
X127535607Y-73039414D01*
X127532841Y-73034856D01*
X127379517Y-72858166D01*
X127198614Y-72709835D01*
X127193984Y-72707199D01*
X127193979Y-72707196D01*
X127161484Y-72688699D01*
X127112178Y-72637616D01*
X127098317Y-72567985D01*
X127124301Y-72501915D01*
X127153450Y-72474677D01*
X127230336Y-72422914D01*
X127281896Y-72388202D01*
X127289767Y-72380694D01*
X127397239Y-72278170D01*
X131392001Y-72278170D01*
X131392338Y-72284689D01*
X131402257Y-72380281D01*
X131405149Y-72393675D01*
X131456588Y-72547859D01*
X131462761Y-72561037D01*
X131548063Y-72698882D01*
X131557099Y-72710283D01*
X131671829Y-72824814D01*
X131683240Y-72833826D01*
X131821243Y-72918891D01*
X131834424Y-72925038D01*
X131988710Y-72976213D01*
X132002086Y-72979080D01*
X132096438Y-72988747D01*
X132102854Y-72989075D01*
X132227885Y-72989075D01*
X132243124Y-72984600D01*
X132244329Y-72983210D01*
X132246000Y-72975527D01*
X132246000Y-72053190D01*
X132241525Y-72037951D01*
X132240135Y-72036746D01*
X132232452Y-72035075D01*
X131410116Y-72035075D01*
X131394877Y-72039550D01*
X131393672Y-72040940D01*
X131392001Y-72048623D01*
X131392001Y-72278170D01*
X127397239Y-72278170D01*
X127418784Y-72257617D01*
X127451168Y-72226724D01*
X127590813Y-72039035D01*
X127613784Y-71993856D01*
X127694420Y-71835256D01*
X127694420Y-71835255D01*
X127696838Y-71830500D01*
X127766210Y-71607083D01*
X127770725Y-71573022D01*
X127779216Y-71508960D01*
X131392000Y-71508960D01*
X131396475Y-71524199D01*
X131397865Y-71525404D01*
X131405548Y-71527075D01*
X132227885Y-71527075D01*
X132243124Y-71522600D01*
X132244329Y-71521210D01*
X132246000Y-71513527D01*
X132246000Y-70591191D01*
X132241525Y-70575952D01*
X132240135Y-70574747D01*
X132232452Y-70573076D01*
X132102905Y-70573076D01*
X132096386Y-70573413D01*
X132000794Y-70583332D01*
X131987400Y-70586224D01*
X131833216Y-70637663D01*
X131820038Y-70643836D01*
X131682193Y-70729138D01*
X131670792Y-70738174D01*
X131556261Y-70852904D01*
X131547249Y-70864315D01*
X131462184Y-71002318D01*
X131456037Y-71015499D01*
X131404862Y-71169785D01*
X131401995Y-71183161D01*
X131392328Y-71277513D01*
X131392000Y-71283930D01*
X131392000Y-71508960D01*
X127779216Y-71508960D01*
X127796248Y-71380455D01*
X127796248Y-71380451D01*
X127796948Y-71375171D01*
X127788172Y-71141396D01*
X127751523Y-70966730D01*
X127741229Y-70917668D01*
X127741228Y-70917665D01*
X127740132Y-70912441D01*
X127697838Y-70805345D01*
X127691420Y-70734639D01*
X127725935Y-70669969D01*
X132892247Y-65503657D01*
X132900537Y-65496113D01*
X132907018Y-65492000D01*
X132953659Y-65442332D01*
X132956413Y-65439491D01*
X132976135Y-65419769D01*
X132978612Y-65416576D01*
X132986317Y-65407555D01*
X133011159Y-65381100D01*
X133016586Y-65375321D01*
X133020407Y-65368371D01*
X133026346Y-65357568D01*
X133037202Y-65341041D01*
X133044757Y-65331302D01*
X133044758Y-65331300D01*
X133049614Y-65325040D01*
X133067174Y-65284460D01*
X133072391Y-65273812D01*
X133089875Y-65242009D01*
X133089876Y-65242007D01*
X133093695Y-65235060D01*
X133098733Y-65215437D01*
X133105137Y-65196734D01*
X133110033Y-65185420D01*
X133110033Y-65185419D01*
X133113181Y-65178145D01*
X133114420Y-65170322D01*
X133114423Y-65170312D01*
X133120099Y-65134476D01*
X133122505Y-65122856D01*
X133131528Y-65087711D01*
X133131528Y-65087710D01*
X133133500Y-65080030D01*
X133133500Y-65059776D01*
X133135051Y-65040065D01*
X133136980Y-65027886D01*
X133138220Y-65020057D01*
X133137474Y-65012165D01*
X133137496Y-65011465D01*
X133159628Y-64944006D01*
X133197131Y-64908278D01*
X133318120Y-64833407D01*
X133324348Y-64829553D01*
X133410784Y-64742966D01*
X133473066Y-64708887D01*
X133543886Y-64713890D01*
X133588976Y-64742811D01*
X133676697Y-64830380D01*
X133682927Y-64834220D01*
X133682928Y-64834221D01*
X133820090Y-64918769D01*
X133827262Y-64923190D01*
X133890021Y-64944006D01*
X133988611Y-64976707D01*
X133988613Y-64976707D01*
X133995139Y-64978872D01*
X134001975Y-64979572D01*
X134001978Y-64979573D01*
X134040308Y-64983500D01*
X134099600Y-64989575D01*
X134900400Y-64989575D01*
X134903646Y-64989238D01*
X134903650Y-64989238D01*
X134999308Y-64979313D01*
X134999312Y-64979312D01*
X135006166Y-64978601D01*
X135012702Y-64976420D01*
X135012704Y-64976420D01*
X135152371Y-64929823D01*
X135173946Y-64922625D01*
X135324348Y-64829553D01*
X135449305Y-64704378D01*
X135477356Y-64658871D01*
X135530128Y-64611378D01*
X135600200Y-64599954D01*
X135665324Y-64628228D01*
X135704823Y-64687222D01*
X135706097Y-64692072D01*
X135706458Y-64695503D01*
X135765473Y-64877131D01*
X135860960Y-65042519D01*
X135865378Y-65047426D01*
X135865379Y-65047427D01*
X135882728Y-65066695D01*
X135988747Y-65184441D01*
X136143248Y-65296693D01*
X136149276Y-65299377D01*
X136149278Y-65299378D01*
X136260460Y-65348879D01*
X136317712Y-65374369D01*
X136411113Y-65394222D01*
X136498056Y-65412703D01*
X136498061Y-65412703D01*
X136504513Y-65414075D01*
X136695487Y-65414075D01*
X136701939Y-65412703D01*
X136701944Y-65412703D01*
X136788887Y-65394222D01*
X136882288Y-65374369D01*
X136939540Y-65348879D01*
X137050722Y-65299378D01*
X137050724Y-65299377D01*
X137056752Y-65296693D01*
X137120465Y-65250403D01*
X137203748Y-65189894D01*
X137211253Y-65184441D01*
X137215668Y-65179538D01*
X137220580Y-65175115D01*
X137221705Y-65176364D01*
X137275014Y-65143524D01*
X137308200Y-65139075D01*
X140349191Y-65139075D01*
X140417312Y-65159077D01*
X140438286Y-65175980D01*
X144225075Y-68962769D01*
X144259101Y-69025081D01*
X144261980Y-69051864D01*
X144261980Y-69292785D01*
X144261453Y-69303968D01*
X144259778Y-69311461D01*
X144260027Y-69319387D01*
X144260027Y-69319388D01*
X144261918Y-69379538D01*
X144261980Y-69383497D01*
X144261980Y-69411408D01*
X144262477Y-69415342D01*
X144262477Y-69415343D01*
X144262485Y-69415408D01*
X144263418Y-69427245D01*
X144264807Y-69471441D01*
X144270458Y-69490891D01*
X144274467Y-69510252D01*
X144277006Y-69530349D01*
X144279925Y-69537720D01*
X144279925Y-69537722D01*
X144293284Y-69571464D01*
X144297129Y-69582694D01*
X144309462Y-69625145D01*
X144313495Y-69631964D01*
X144313497Y-69631969D01*
X144319773Y-69642580D01*
X144328468Y-69660328D01*
X144335928Y-69679169D01*
X144340590Y-69685585D01*
X144340590Y-69685586D01*
X144361916Y-69714939D01*
X144368432Y-69724859D01*
X144380357Y-69745022D01*
X144390938Y-69762914D01*
X144405259Y-69777235D01*
X144418099Y-69792268D01*
X144430008Y-69808659D01*
X144436114Y-69813710D01*
X144464085Y-69836850D01*
X144472864Y-69844840D01*
X144674595Y-70046571D01*
X144708621Y-70108883D01*
X144711500Y-70135666D01*
X144711500Y-70160020D01*
X144691498Y-70228141D01*
X144637842Y-70274634D01*
X144585500Y-70286020D01*
X142953040Y-70286020D01*
X142884919Y-70266018D01*
X142863945Y-70249115D01*
X140645405Y-68030575D01*
X140611379Y-67968263D01*
X140608500Y-67941480D01*
X140608500Y-67280675D01*
X140606915Y-67265395D01*
X140598238Y-67181767D01*
X140598237Y-67181763D01*
X140597526Y-67174909D01*
X140541550Y-67007129D01*
X140448478Y-66856727D01*
X140323303Y-66731770D01*
X140317072Y-66727929D01*
X140178968Y-66642800D01*
X140178966Y-66642799D01*
X140172738Y-66638960D01*
X140012254Y-66585730D01*
X140011389Y-66585443D01*
X140011387Y-66585443D01*
X140004861Y-66583278D01*
X139998025Y-66582578D01*
X139998022Y-66582577D01*
X139954969Y-66578166D01*
X139900400Y-66572575D01*
X139099600Y-66572575D01*
X139096354Y-66572912D01*
X139096350Y-66572912D01*
X139000692Y-66582837D01*
X139000688Y-66582838D01*
X138993834Y-66583549D01*
X138987298Y-66585730D01*
X138987296Y-66585730D01*
X138855194Y-66629803D01*
X138826054Y-66639525D01*
X138675652Y-66732597D01*
X138670479Y-66737779D01*
X138589216Y-66819184D01*
X138526934Y-66853263D01*
X138456114Y-66848260D01*
X138411025Y-66819339D01*
X138328483Y-66736941D01*
X138323303Y-66731770D01*
X138317072Y-66727929D01*
X138178968Y-66642800D01*
X138178966Y-66642799D01*
X138172738Y-66638960D01*
X138012254Y-66585730D01*
X138011389Y-66585443D01*
X138011387Y-66585443D01*
X138004861Y-66583278D01*
X137998025Y-66582578D01*
X137998022Y-66582577D01*
X137954969Y-66578166D01*
X137900400Y-66572575D01*
X137099600Y-66572575D01*
X137096354Y-66572912D01*
X137096350Y-66572912D01*
X137000692Y-66582837D01*
X137000688Y-66582838D01*
X136993834Y-66583549D01*
X136987298Y-66585730D01*
X136987296Y-66585730D01*
X136855194Y-66629803D01*
X136826054Y-66639525D01*
X136675652Y-66732597D01*
X136550695Y-66857772D01*
X136546855Y-66864002D01*
X136546854Y-66864003D01*
X136463091Y-66999892D01*
X136457885Y-67008337D01*
X136433934Y-67080547D01*
X136411928Y-67146895D01*
X136402203Y-67176214D01*
X136401503Y-67183050D01*
X136401502Y-67183053D01*
X136398635Y-67211033D01*
X136391500Y-67280675D01*
X136391500Y-68281475D01*
X136391837Y-68284721D01*
X136391837Y-68284725D01*
X136400841Y-68371498D01*
X136402474Y-68387241D01*
X136404655Y-68393777D01*
X136404655Y-68393779D01*
X136435094Y-68485016D01*
X136458450Y-68555021D01*
X136551522Y-68705423D01*
X136676697Y-68830380D01*
X136682927Y-68834220D01*
X136682928Y-68834221D01*
X136806616Y-68910464D01*
X136854110Y-68963237D01*
X136866500Y-69017724D01*
X136866500Y-70487462D01*
X136846498Y-70555583D01*
X136792842Y-70602076D01*
X136780376Y-70606986D01*
X136701054Y-70633450D01*
X136550652Y-70726522D01*
X136425695Y-70851697D01*
X136421855Y-70857927D01*
X136421854Y-70857928D01*
X136400322Y-70892860D01*
X136332885Y-71002262D01*
X136313322Y-71061243D01*
X136272891Y-71119602D01*
X136207327Y-71146839D01*
X136193729Y-71147575D01*
X135679197Y-71147575D01*
X135611076Y-71127573D01*
X135564583Y-71073917D01*
X135559674Y-71061452D01*
X135543867Y-71014073D01*
X135543866Y-71014071D01*
X135541550Y-71007129D01*
X135509550Y-70955417D01*
X135452332Y-70862955D01*
X135448478Y-70856727D01*
X135433827Y-70842101D01*
X135328483Y-70736941D01*
X135323303Y-70731770D01*
X135223044Y-70669969D01*
X135178968Y-70642800D01*
X135178966Y-70642799D01*
X135172738Y-70638960D01*
X135061536Y-70602076D01*
X135011389Y-70585443D01*
X135011387Y-70585443D01*
X135004861Y-70583278D01*
X134998025Y-70582578D01*
X134998022Y-70582577D01*
X134954969Y-70578166D01*
X134900400Y-70572575D01*
X134099600Y-70572575D01*
X134096354Y-70572912D01*
X134096350Y-70572912D01*
X134000692Y-70582837D01*
X134000688Y-70582838D01*
X133993834Y-70583549D01*
X133987298Y-70585730D01*
X133987296Y-70585730D01*
X133970928Y-70591191D01*
X133826054Y-70639525D01*
X133675652Y-70732597D01*
X133670479Y-70737779D01*
X133588862Y-70819538D01*
X133526579Y-70853617D01*
X133455759Y-70848614D01*
X133410671Y-70819693D01*
X133328171Y-70737336D01*
X133316760Y-70728324D01*
X133178757Y-70643259D01*
X133165576Y-70637112D01*
X133011290Y-70585937D01*
X132997914Y-70583070D01*
X132903562Y-70573403D01*
X132897145Y-70573075D01*
X132772115Y-70573075D01*
X132756876Y-70577550D01*
X132755671Y-70578940D01*
X132754000Y-70586623D01*
X132754000Y-72970959D01*
X132758475Y-72986198D01*
X132759865Y-72987403D01*
X132767548Y-72989074D01*
X132897095Y-72989074D01*
X132903614Y-72988737D01*
X132999206Y-72978818D01*
X133012600Y-72975926D01*
X133166784Y-72924487D01*
X133179962Y-72918314D01*
X133317807Y-72833012D01*
X133329208Y-72823976D01*
X133410430Y-72742613D01*
X133472713Y-72708534D01*
X133543533Y-72713537D01*
X133588620Y-72742458D01*
X133671512Y-72825205D01*
X133671517Y-72825209D01*
X133676697Y-72830380D01*
X133682927Y-72834220D01*
X133682928Y-72834221D01*
X133820288Y-72918891D01*
X133827262Y-72923190D01*
X133907005Y-72949639D01*
X133988611Y-72976707D01*
X133988613Y-72976707D01*
X133995139Y-72978872D01*
X134001975Y-72979572D01*
X134001978Y-72979573D01*
X134045031Y-72983984D01*
X134099600Y-72989575D01*
X134760406Y-72989575D01*
X134828527Y-73009577D01*
X134849501Y-73026480D01*
X135924463Y-74101443D01*
X135958489Y-74163755D01*
X135953424Y-74234571D01*
X135924463Y-74279633D01*
X133913997Y-76290098D01*
X133905711Y-76297638D01*
X133899232Y-76301750D01*
X133893807Y-76307527D01*
X133852607Y-76351401D01*
X133849852Y-76354243D01*
X133830115Y-76373980D01*
X133827635Y-76377177D01*
X133819932Y-76386197D01*
X133789664Y-76418429D01*
X133785845Y-76425375D01*
X133785843Y-76425378D01*
X133779902Y-76436184D01*
X133769051Y-76452703D01*
X133756636Y-76468709D01*
X133753491Y-76475978D01*
X133753488Y-76475982D01*
X133739076Y-76509287D01*
X133733859Y-76519937D01*
X133712555Y-76558690D01*
X133710584Y-76566365D01*
X133710584Y-76566366D01*
X133707517Y-76578312D01*
X133701113Y-76597016D01*
X133693069Y-76615605D01*
X133691830Y-76623428D01*
X133691827Y-76623438D01*
X133686151Y-76659274D01*
X133683745Y-76670894D01*
X133672750Y-76713720D01*
X133672750Y-76733974D01*
X133671199Y-76753684D01*
X133668030Y-76773693D01*
X133668776Y-76781585D01*
X133672191Y-76817711D01*
X133672750Y-76829569D01*
X133672750Y-77035500D01*
X133652748Y-77103621D01*
X133599092Y-77150114D01*
X133546750Y-77161500D01*
X133008116Y-77161500D01*
X132945934Y-77168255D01*
X132809545Y-77219385D01*
X132755814Y-77259655D01*
X132689308Y-77284501D01*
X132619926Y-77269448D01*
X132569696Y-77219273D01*
X132554250Y-77158827D01*
X132554250Y-77022115D01*
X132549775Y-77006876D01*
X132548385Y-77005671D01*
X132540702Y-77004000D01*
X131318250Y-77004000D01*
X131250129Y-76983998D01*
X131203636Y-76930342D01*
X131192250Y-76878000D01*
X131192250Y-76477885D01*
X131700250Y-76477885D01*
X131704725Y-76493124D01*
X131706115Y-76494329D01*
X131713798Y-76496000D01*
X132536134Y-76496000D01*
X132551373Y-76491525D01*
X132552578Y-76490135D01*
X132554249Y-76482452D01*
X132554249Y-76252905D01*
X132553912Y-76246386D01*
X132543993Y-76150794D01*
X132541101Y-76137400D01*
X132489662Y-75983216D01*
X132483489Y-75970038D01*
X132398187Y-75832193D01*
X132389151Y-75820792D01*
X132274421Y-75706261D01*
X132263010Y-75697249D01*
X132125007Y-75612184D01*
X132111826Y-75606037D01*
X131957540Y-75554862D01*
X131944164Y-75551995D01*
X131849812Y-75542328D01*
X131843395Y-75542000D01*
X131718365Y-75542000D01*
X131703126Y-75546475D01*
X131701921Y-75547865D01*
X131700250Y-75555548D01*
X131700250Y-76477885D01*
X131192250Y-76477885D01*
X131192250Y-75560116D01*
X131187775Y-75544877D01*
X131186385Y-75543672D01*
X131178702Y-75542001D01*
X131049155Y-75542001D01*
X131042636Y-75542338D01*
X130947044Y-75552257D01*
X130933650Y-75555149D01*
X130779466Y-75606588D01*
X130766288Y-75612761D01*
X130628443Y-75698063D01*
X130617042Y-75707099D01*
X130535820Y-75788462D01*
X130473537Y-75822541D01*
X130402717Y-75817538D01*
X130357630Y-75788617D01*
X130274738Y-75705870D01*
X130274733Y-75705866D01*
X130269553Y-75700695D01*
X130263322Y-75696854D01*
X130125218Y-75611725D01*
X130125216Y-75611724D01*
X130118988Y-75607885D01*
X130039245Y-75581436D01*
X129957639Y-75554368D01*
X129957637Y-75554368D01*
X129951111Y-75552203D01*
X129944275Y-75551503D01*
X129944272Y-75551502D01*
X129901219Y-75547091D01*
X129846650Y-75541500D01*
X129045850Y-75541500D01*
X129042604Y-75541837D01*
X129042600Y-75541837D01*
X128946942Y-75551762D01*
X128946938Y-75551763D01*
X128940084Y-75552474D01*
X128933548Y-75554655D01*
X128933546Y-75554655D01*
X128917178Y-75560116D01*
X128772304Y-75608450D01*
X128621902Y-75701522D01*
X128496945Y-75826697D01*
X128493105Y-75832927D01*
X128493104Y-75832928D01*
X128409113Y-75969187D01*
X128404135Y-75977262D01*
X128348453Y-76145139D01*
X128337750Y-76249600D01*
X128337750Y-77250400D01*
X128338087Y-77253646D01*
X128338087Y-77253650D01*
X128347204Y-77341512D01*
X128348724Y-77356166D01*
X128350905Y-77362702D01*
X128350905Y-77362704D01*
X128370768Y-77422240D01*
X128404700Y-77523946D01*
X128497772Y-77674348D01*
X128622947Y-77799305D01*
X128629177Y-77803145D01*
X128629178Y-77803146D01*
X128750366Y-77877848D01*
X128797860Y-77930621D01*
X128810250Y-77985108D01*
X128810250Y-78088689D01*
X128790248Y-78156810D01*
X128750554Y-78195833D01*
X128644402Y-78261522D01*
X128639229Y-78266704D01*
X128586430Y-78319595D01*
X128519445Y-78386697D01*
X128426635Y-78537262D01*
X128370953Y-78705139D01*
X128360250Y-78809600D01*
X128360250Y-79810400D01*
X128360587Y-79813646D01*
X128360587Y-79813650D01*
X128366089Y-79866672D01*
X128371224Y-79916166D01*
X128373405Y-79922702D01*
X128373405Y-79922704D01*
X128403935Y-80014213D01*
X128427200Y-80083946D01*
X128520272Y-80234348D01*
X128525454Y-80239521D01*
X128562825Y-80276827D01*
X128596904Y-80339110D01*
X128591901Y-80409930D01*
X128549404Y-80466802D01*
X128482905Y-80491671D01*
X128473807Y-80492000D01*
X122634000Y-80492000D01*
X122565879Y-80471998D01*
X122519386Y-80418342D01*
X122508000Y-80366000D01*
X122508000Y-78602817D01*
X123057514Y-78602817D01*
X123058095Y-78607837D01*
X123058095Y-78607841D01*
X123084514Y-78836165D01*
X123085415Y-78843956D01*
X123086791Y-78848820D01*
X123086792Y-78848823D01*
X123132476Y-79010266D01*
X123151510Y-79077532D01*
X123153644Y-79082108D01*
X123153646Y-79082114D01*
X123251962Y-79292954D01*
X123254099Y-79297536D01*
X123390544Y-79498307D01*
X123557332Y-79674681D01*
X123561358Y-79677759D01*
X123561359Y-79677760D01*
X123746154Y-79819047D01*
X123746158Y-79819050D01*
X123750174Y-79822120D01*
X123964109Y-79936831D01*
X124193631Y-80015862D01*
X124292978Y-80033022D01*
X124428926Y-80056504D01*
X124428932Y-80056505D01*
X124432836Y-80057179D01*
X124436797Y-80057359D01*
X124436798Y-80057359D01*
X124460506Y-80058436D01*
X124460525Y-80058436D01*
X124461925Y-80058500D01*
X124631001Y-80058500D01*
X124633509Y-80058298D01*
X124633514Y-80058298D01*
X124806924Y-80044346D01*
X124806929Y-80044345D01*
X124811965Y-80043940D01*
X124816873Y-80042734D01*
X124816876Y-80042734D01*
X125042792Y-79987244D01*
X125047706Y-79986037D01*
X125052358Y-79984062D01*
X125052362Y-79984061D01*
X125201830Y-79920615D01*
X125271156Y-79891188D01*
X125377037Y-79824511D01*
X125472288Y-79764528D01*
X125472291Y-79764526D01*
X125476567Y-79761833D01*
X125575422Y-79674681D01*
X125654858Y-79604650D01*
X125654861Y-79604647D01*
X125658655Y-79601302D01*
X125669293Y-79588351D01*
X125809526Y-79417628D01*
X125809528Y-79417625D01*
X125812734Y-79413722D01*
X125934841Y-79203922D01*
X126021833Y-78977298D01*
X126023740Y-78968172D01*
X126070440Y-78744631D01*
X126070440Y-78744627D01*
X126071474Y-78739680D01*
X126082486Y-78497183D01*
X126070145Y-78390525D01*
X126055167Y-78261071D01*
X126055166Y-78261067D01*
X126054585Y-78256044D01*
X126015517Y-78117978D01*
X125989866Y-78027331D01*
X125988490Y-78022468D01*
X125986356Y-78017892D01*
X125986354Y-78017886D01*
X125888038Y-77807046D01*
X125888036Y-77807042D01*
X125885901Y-77802464D01*
X125879972Y-77793739D01*
X125798833Y-77674348D01*
X125749456Y-77601693D01*
X125582668Y-77425319D01*
X125483250Y-77349308D01*
X125393846Y-77280953D01*
X125393842Y-77280950D01*
X125389826Y-77277880D01*
X125374101Y-77269448D01*
X125185376Y-77168255D01*
X125175891Y-77163169D01*
X124946369Y-77084138D01*
X124847022Y-77066978D01*
X124711074Y-77043496D01*
X124711068Y-77043495D01*
X124707164Y-77042821D01*
X124703203Y-77042641D01*
X124703202Y-77042641D01*
X124679494Y-77041564D01*
X124679475Y-77041564D01*
X124678075Y-77041500D01*
X124508999Y-77041500D01*
X124506491Y-77041702D01*
X124506486Y-77041702D01*
X124333076Y-77055654D01*
X124333071Y-77055655D01*
X124328035Y-77056060D01*
X124323127Y-77057266D01*
X124323124Y-77057266D01*
X124139159Y-77102452D01*
X124092294Y-77113963D01*
X124087642Y-77115938D01*
X124087638Y-77115939D01*
X123976372Y-77163169D01*
X123868844Y-77208812D01*
X123843502Y-77224771D01*
X123667712Y-77335472D01*
X123667709Y-77335474D01*
X123663433Y-77338167D01*
X123659639Y-77341512D01*
X123485142Y-77495350D01*
X123485139Y-77495353D01*
X123481345Y-77498698D01*
X123478135Y-77502606D01*
X123478134Y-77502607D01*
X123334511Y-77677458D01*
X123327266Y-77686278D01*
X123312655Y-77711382D01*
X123209968Y-77887816D01*
X123205159Y-77896078D01*
X123203346Y-77900801D01*
X123126306Y-78101500D01*
X123118167Y-78122702D01*
X123117133Y-78127652D01*
X123117132Y-78127655D01*
X123071703Y-78345114D01*
X123068526Y-78360320D01*
X123057514Y-78602817D01*
X122508000Y-78602817D01*
X122508000Y-42634000D01*
X122528002Y-42565879D01*
X122581658Y-42519386D01*
X122634000Y-42508000D01*
X155366000Y-42508000D01*
X155434121Y-42528002D01*
G37*
%TD.AperFunction*%
%TA.AperFunction,Conductor*%
G36*
X138543886Y-68713890D02*
G01*
X138588976Y-68742811D01*
X138676697Y-68830380D01*
X138682927Y-68834220D01*
X138682928Y-68834221D01*
X138806617Y-68910464D01*
X138827262Y-68923190D01*
X138907005Y-68949639D01*
X138988611Y-68976707D01*
X138988613Y-68976707D01*
X138995139Y-68978872D01*
X139001975Y-68979572D01*
X139001978Y-68979573D01*
X139045031Y-68983984D01*
X139099600Y-68989575D01*
X139760406Y-68989575D01*
X139828527Y-69009577D01*
X139849501Y-69026480D01*
X142134788Y-71311767D01*
X142142332Y-71320057D01*
X142146445Y-71326538D01*
X142152222Y-71331963D01*
X142196112Y-71373178D01*
X142198954Y-71375933D01*
X142218675Y-71395654D01*
X142221870Y-71398132D01*
X142230892Y-71405838D01*
X142263124Y-71436106D01*
X142270073Y-71439926D01*
X142280877Y-71445866D01*
X142297401Y-71456719D01*
X142313404Y-71469133D01*
X142353988Y-71486696D01*
X142364618Y-71491903D01*
X142403385Y-71513215D01*
X142411062Y-71515186D01*
X142411067Y-71515188D01*
X142423003Y-71518252D01*
X142441711Y-71524657D01*
X142460300Y-71532701D01*
X142468125Y-71533940D01*
X142468127Y-71533941D01*
X142503964Y-71539617D01*
X142515585Y-71542024D01*
X142550734Y-71551048D01*
X142558415Y-71553020D01*
X142578676Y-71553020D01*
X142598385Y-71554571D01*
X142618388Y-71557739D01*
X142626280Y-71556993D01*
X142631507Y-71556499D01*
X142662399Y-71553579D01*
X142674256Y-71553020D01*
X144586001Y-71553020D01*
X144654122Y-71573022D01*
X144700615Y-71626678D01*
X144712001Y-71679020D01*
X144712001Y-71778983D01*
X144712195Y-71783920D01*
X144714430Y-71812336D01*
X144716730Y-71824931D01*
X144759107Y-71970790D01*
X144765352Y-71985221D01*
X144841911Y-72114678D01*
X144851551Y-72127104D01*
X144957896Y-72233449D01*
X144970322Y-72243089D01*
X145099779Y-72319648D01*
X145114210Y-72325893D01*
X145260065Y-72368269D01*
X145272667Y-72370570D01*
X145301084Y-72372807D01*
X145306014Y-72373000D01*
X145922885Y-72373000D01*
X145938124Y-72368525D01*
X145939329Y-72367135D01*
X145941000Y-72359452D01*
X145941000Y-71679020D01*
X145961002Y-71610899D01*
X146014658Y-71564406D01*
X146067000Y-71553020D01*
X146323000Y-71553020D01*
X146391121Y-71573022D01*
X146437614Y-71626678D01*
X146449000Y-71679020D01*
X146449000Y-72354884D01*
X146453475Y-72370123D01*
X146454865Y-72371328D01*
X146462548Y-72372999D01*
X147083984Y-72372999D01*
X147088920Y-72372805D01*
X147117336Y-72370570D01*
X147129931Y-72368270D01*
X147275790Y-72325893D01*
X147290221Y-72319648D01*
X147419678Y-72243089D01*
X147432104Y-72233449D01*
X147538449Y-72127104D01*
X147548089Y-72114678D01*
X147624648Y-71985221D01*
X147630893Y-71970790D01*
X147673269Y-71824935D01*
X147675570Y-71812333D01*
X147677807Y-71783915D01*
X147678000Y-71778987D01*
X147678000Y-71679020D01*
X147698002Y-71610899D01*
X147751658Y-71564406D01*
X147804000Y-71553020D01*
X149535500Y-71553020D01*
X149603621Y-71573022D01*
X149650114Y-71626678D01*
X149661500Y-71679020D01*
X149661500Y-71781502D01*
X149661693Y-71783950D01*
X149661693Y-71783958D01*
X149663927Y-71812336D01*
X149664438Y-71818831D01*
X149669210Y-71835256D01*
X149708586Y-71970790D01*
X149710855Y-71978601D01*
X149714892Y-71985426D01*
X149715248Y-71986250D01*
X149723946Y-72056712D01*
X149688707Y-72125388D01*
X148464500Y-73349595D01*
X148402188Y-73383621D01*
X148375405Y-73386500D01*
X137053520Y-73386500D01*
X136985399Y-73366498D01*
X136964425Y-73349595D01*
X136861640Y-73246810D01*
X136827614Y-73184498D01*
X136832679Y-73113683D01*
X136875226Y-73056847D01*
X136941746Y-73032036D01*
X136963574Y-73032371D01*
X136971392Y-73033172D01*
X136971405Y-73033173D01*
X136974600Y-73033500D01*
X137750400Y-73033500D01*
X137753646Y-73033163D01*
X137753650Y-73033163D01*
X137849308Y-73023238D01*
X137849312Y-73023237D01*
X137856166Y-73022526D01*
X137862702Y-73020345D01*
X137862704Y-73020345D01*
X138016998Y-72968868D01*
X138023946Y-72966550D01*
X138174348Y-72873478D01*
X138299305Y-72748303D01*
X138302102Y-72743765D01*
X138359353Y-72703176D01*
X138430276Y-72699946D01*
X138491687Y-72735572D01*
X138499062Y-72744068D01*
X138507098Y-72754207D01*
X138621829Y-72868739D01*
X138633240Y-72877751D01*
X138771243Y-72962816D01*
X138784424Y-72968963D01*
X138938710Y-73020138D01*
X138952086Y-73023005D01*
X139046438Y-73032672D01*
X139052854Y-73033000D01*
X139165385Y-73033000D01*
X139180624Y-73028525D01*
X139181829Y-73027135D01*
X139183500Y-73019452D01*
X139183500Y-73014884D01*
X139691500Y-73014884D01*
X139695975Y-73030123D01*
X139697365Y-73031328D01*
X139705048Y-73032999D01*
X139822095Y-73032999D01*
X139828614Y-73032662D01*
X139924206Y-73022743D01*
X139937600Y-73019851D01*
X140091784Y-72968412D01*
X140104962Y-72962239D01*
X140242807Y-72876937D01*
X140254208Y-72867901D01*
X140368739Y-72753171D01*
X140377751Y-72741760D01*
X140462816Y-72603757D01*
X140468963Y-72590576D01*
X140520138Y-72436290D01*
X140523005Y-72422914D01*
X140532672Y-72328562D01*
X140533000Y-72322146D01*
X140533000Y-72072115D01*
X140528525Y-72056876D01*
X140527135Y-72055671D01*
X140519452Y-72054000D01*
X139709615Y-72054000D01*
X139694376Y-72058475D01*
X139693171Y-72059865D01*
X139691500Y-72067548D01*
X139691500Y-73014884D01*
X139183500Y-73014884D01*
X139183500Y-71527885D01*
X139691500Y-71527885D01*
X139695975Y-71543124D01*
X139697365Y-71544329D01*
X139705048Y-71546000D01*
X140514884Y-71546000D01*
X140530123Y-71541525D01*
X140531328Y-71540135D01*
X140532999Y-71532452D01*
X140532999Y-71277905D01*
X140532662Y-71271386D01*
X140522743Y-71175794D01*
X140519851Y-71162400D01*
X140468412Y-71008216D01*
X140462239Y-70995038D01*
X140376937Y-70857193D01*
X140367901Y-70845792D01*
X140253171Y-70731261D01*
X140241760Y-70722249D01*
X140103757Y-70637184D01*
X140090576Y-70631037D01*
X139936290Y-70579862D01*
X139922914Y-70576995D01*
X139828562Y-70567328D01*
X139822145Y-70567000D01*
X139709615Y-70567000D01*
X139694376Y-70571475D01*
X139693171Y-70572865D01*
X139691500Y-70580548D01*
X139691500Y-71527885D01*
X139183500Y-71527885D01*
X139183500Y-70585116D01*
X139179025Y-70569877D01*
X139177635Y-70568672D01*
X139169952Y-70567001D01*
X139052905Y-70567001D01*
X139046386Y-70567338D01*
X138950794Y-70577257D01*
X138937400Y-70580149D01*
X138783216Y-70631588D01*
X138770038Y-70637761D01*
X138632193Y-70723063D01*
X138620792Y-70732099D01*
X138506262Y-70846828D01*
X138499206Y-70855762D01*
X138441288Y-70896823D01*
X138370365Y-70900053D01*
X138308954Y-70864426D01*
X138302154Y-70856593D01*
X138298478Y-70850652D01*
X138173303Y-70725695D01*
X138174941Y-70724055D01*
X138140344Y-70675256D01*
X138133500Y-70634294D01*
X138133500Y-69017856D01*
X138153502Y-68949735D01*
X138193197Y-68910712D01*
X138318120Y-68833407D01*
X138324348Y-68829553D01*
X138410784Y-68742966D01*
X138473066Y-68708887D01*
X138543886Y-68713890D01*
G37*
%TD.AperFunction*%
%TA.AperFunction,Conductor*%
G36*
X153173527Y-54503502D02*
G01*
X153194501Y-54520405D01*
X154699595Y-56025499D01*
X154733621Y-56087811D01*
X154736500Y-56114594D01*
X154736500Y-60856405D01*
X154716498Y-60924526D01*
X154662842Y-60971019D01*
X154592568Y-60981123D01*
X154527988Y-60951629D01*
X154521405Y-60945500D01*
X153571963Y-59996058D01*
X153537937Y-59933746D01*
X153535748Y-59893792D01*
X153542814Y-59826565D01*
X153543504Y-59820000D01*
X153523542Y-59630072D01*
X153464527Y-59448444D01*
X153369040Y-59283056D01*
X153309641Y-59217086D01*
X153245675Y-59146045D01*
X153245674Y-59146044D01*
X153241253Y-59141134D01*
X153115026Y-59049424D01*
X153092094Y-59032763D01*
X153092093Y-59032762D01*
X153086752Y-59028882D01*
X153080724Y-59026198D01*
X153080722Y-59026197D01*
X152918319Y-58953891D01*
X152918318Y-58953891D01*
X152912288Y-58951206D01*
X152793958Y-58926054D01*
X152731944Y-58912872D01*
X152731939Y-58912872D01*
X152725487Y-58911500D01*
X152534513Y-58911500D01*
X152528061Y-58912872D01*
X152528056Y-58912872D01*
X152466042Y-58926054D01*
X152347712Y-58951206D01*
X152223393Y-59006556D01*
X152153027Y-59015990D01*
X152088730Y-58985884D01*
X152065001Y-58957752D01*
X152027332Y-58896880D01*
X152023478Y-58890652D01*
X151898303Y-58765695D01*
X151851656Y-58736941D01*
X151753968Y-58676725D01*
X151753966Y-58676724D01*
X151747738Y-58672885D01*
X151586389Y-58619368D01*
X151586387Y-58619368D01*
X151579861Y-58617203D01*
X151573025Y-58616503D01*
X151573022Y-58616502D01*
X151529969Y-58612091D01*
X151475400Y-58606500D01*
X150699600Y-58606500D01*
X150696354Y-58606837D01*
X150696350Y-58606837D01*
X150600692Y-58616762D01*
X150600688Y-58616763D01*
X150593834Y-58617474D01*
X150587298Y-58619655D01*
X150587296Y-58619655D01*
X150474929Y-58657144D01*
X150426054Y-58673450D01*
X150275652Y-58766522D01*
X150270479Y-58771704D01*
X150226441Y-58815819D01*
X150150695Y-58891697D01*
X150147898Y-58896235D01*
X150090647Y-58936824D01*
X150019724Y-58940054D01*
X149958313Y-58904428D01*
X149950938Y-58895932D01*
X149942902Y-58885793D01*
X149828171Y-58771261D01*
X149816760Y-58762249D01*
X149678757Y-58677184D01*
X149665576Y-58671037D01*
X149511290Y-58619862D01*
X149497914Y-58616995D01*
X149403562Y-58607328D01*
X149397145Y-58607000D01*
X149284615Y-58607000D01*
X149269376Y-58611475D01*
X149268171Y-58612865D01*
X149266500Y-58620548D01*
X149266500Y-61054884D01*
X149270975Y-61070123D01*
X149272365Y-61071328D01*
X149280048Y-61072999D01*
X149397095Y-61072999D01*
X149403612Y-61072662D01*
X149413748Y-61071610D01*
X149483570Y-61084475D01*
X149535352Y-61133046D01*
X149552654Y-61201902D01*
X149547749Y-61232090D01*
X149504438Y-61381169D01*
X149501500Y-61418498D01*
X149501500Y-61851502D01*
X149504438Y-61888831D01*
X149550855Y-62048601D01*
X149635547Y-62191807D01*
X149638229Y-62194489D01*
X149663502Y-62258861D01*
X149649600Y-62328484D01*
X149639428Y-62344312D01*
X149635547Y-62348193D01*
X149550855Y-62491399D01*
X149548644Y-62499010D01*
X149548643Y-62499012D01*
X149543873Y-62515431D01*
X149504438Y-62651169D01*
X149503934Y-62657574D01*
X149503933Y-62657579D01*
X149501693Y-62686042D01*
X149501500Y-62688498D01*
X149501500Y-63121502D01*
X149501693Y-63123950D01*
X149501693Y-63123958D01*
X149503527Y-63147254D01*
X149504438Y-63158831D01*
X149511475Y-63183053D01*
X149539837Y-63280675D01*
X149550855Y-63318601D01*
X149635547Y-63461807D01*
X149638229Y-63464489D01*
X149663502Y-63528861D01*
X149649600Y-63598484D01*
X149639428Y-63614312D01*
X149635547Y-63618193D01*
X149550855Y-63761399D01*
X149548644Y-63769010D01*
X149548643Y-63769012D01*
X149536707Y-63810097D01*
X149504438Y-63921169D01*
X149501500Y-63958498D01*
X149501500Y-64391502D01*
X149504438Y-64428831D01*
X149510964Y-64451293D01*
X149548365Y-64580029D01*
X149550855Y-64588601D01*
X149554892Y-64595427D01*
X149619944Y-64705423D01*
X149635547Y-64731807D01*
X149638487Y-64734747D01*
X149663820Y-64799266D01*
X149649921Y-64868889D01*
X149637874Y-64887636D01*
X149631910Y-64895324D01*
X149555352Y-65024779D01*
X149549107Y-65039210D01*
X149510061Y-65173605D01*
X149510101Y-65187706D01*
X149517370Y-65191000D01*
X151113000Y-65191000D01*
X151181121Y-65211002D01*
X151227614Y-65264658D01*
X151239000Y-65317000D01*
X151239000Y-66234884D01*
X151243475Y-66250123D01*
X151244865Y-66251328D01*
X151252548Y-66252999D01*
X151446906Y-66252999D01*
X151515027Y-66273001D01*
X151561520Y-66326657D01*
X151571624Y-66396931D01*
X151542130Y-66461511D01*
X151536001Y-66468094D01*
X151094500Y-66909595D01*
X151032188Y-66943621D01*
X151005405Y-66946500D01*
X150253498Y-66946500D01*
X150251050Y-66946693D01*
X150251042Y-66946693D01*
X150222579Y-66948933D01*
X150222574Y-66948934D01*
X150216169Y-66949438D01*
X150116231Y-66978472D01*
X150064012Y-66993643D01*
X150064010Y-66993644D01*
X150056399Y-66995855D01*
X150037336Y-67007129D01*
X149920020Y-67076509D01*
X149920017Y-67076511D01*
X149913193Y-67080547D01*
X149795547Y-67198193D01*
X149791511Y-67205017D01*
X149791509Y-67205020D01*
X149744836Y-67283941D01*
X149710855Y-67341399D01*
X149664438Y-67501169D01*
X149663934Y-67507574D01*
X149663933Y-67507579D01*
X149661693Y-67536042D01*
X149661500Y-67538498D01*
X149661500Y-67971502D01*
X149661693Y-67973950D01*
X149661693Y-67973958D01*
X149663304Y-67994417D01*
X149664438Y-68008831D01*
X149710855Y-68168601D01*
X149730231Y-68201363D01*
X149747689Y-68270178D01*
X149725172Y-68337509D01*
X149669827Y-68381978D01*
X149621776Y-68391500D01*
X149179500Y-68391500D01*
X149111379Y-68371498D01*
X149064886Y-68317842D01*
X149053500Y-68265500D01*
X149053500Y-65710871D01*
X149508456Y-65710871D01*
X149549107Y-65850790D01*
X149555352Y-65865221D01*
X149631911Y-65994678D01*
X149641551Y-66007104D01*
X149747896Y-66113449D01*
X149760322Y-66123089D01*
X149889779Y-66199648D01*
X149904210Y-66205893D01*
X150050065Y-66248269D01*
X150062667Y-66250570D01*
X150091084Y-66252807D01*
X150096014Y-66253000D01*
X150712885Y-66253000D01*
X150728124Y-66248525D01*
X150729329Y-66247135D01*
X150731000Y-66239452D01*
X150731000Y-65717115D01*
X150726525Y-65701876D01*
X150725135Y-65700671D01*
X150717452Y-65699000D01*
X149523122Y-65699000D01*
X149509591Y-65702973D01*
X149508456Y-65710871D01*
X149053500Y-65710871D01*
X149053500Y-64668768D01*
X149054027Y-64657585D01*
X149055702Y-64650092D01*
X149053562Y-64582001D01*
X149053500Y-64578044D01*
X149053500Y-64550144D01*
X149052996Y-64546153D01*
X149052063Y-64534311D01*
X149050923Y-64498036D01*
X149050674Y-64490111D01*
X149045021Y-64470652D01*
X149041012Y-64451293D01*
X149040846Y-64449983D01*
X149038474Y-64431203D01*
X149035558Y-64423837D01*
X149035556Y-64423831D01*
X149022200Y-64390098D01*
X149018355Y-64378868D01*
X149008230Y-64344017D01*
X149008230Y-64344016D01*
X149006019Y-64336407D01*
X148995705Y-64318966D01*
X148987008Y-64301213D01*
X148982472Y-64289758D01*
X148979552Y-64282383D01*
X148953563Y-64246612D01*
X148947047Y-64236692D01*
X148924542Y-64198638D01*
X148918938Y-64193033D01*
X148910220Y-64184315D01*
X148897379Y-64169281D01*
X148890131Y-64159305D01*
X148890130Y-64159304D01*
X148885472Y-64152893D01*
X148851407Y-64124712D01*
X148842626Y-64116722D01*
X148508647Y-63782742D01*
X148501113Y-63774463D01*
X148497000Y-63767982D01*
X148447347Y-63721355D01*
X148444506Y-63718601D01*
X148424770Y-63698865D01*
X148421573Y-63696385D01*
X148412551Y-63688680D01*
X148386100Y-63663841D01*
X148380321Y-63658414D01*
X148373375Y-63654595D01*
X148373372Y-63654593D01*
X148362566Y-63648652D01*
X148346047Y-63637801D01*
X148345583Y-63637441D01*
X148330041Y-63625386D01*
X148322772Y-63622241D01*
X148322768Y-63622238D01*
X148289463Y-63607826D01*
X148278813Y-63602609D01*
X148240060Y-63581305D01*
X148232275Y-63579306D01*
X148220438Y-63576267D01*
X148201734Y-63569863D01*
X148190420Y-63564967D01*
X148190419Y-63564967D01*
X148183145Y-63561819D01*
X148175322Y-63560580D01*
X148175312Y-63560577D01*
X148139476Y-63554901D01*
X148127856Y-63552495D01*
X148092711Y-63543472D01*
X148092710Y-63543472D01*
X148085030Y-63541500D01*
X148064776Y-63541500D01*
X148045065Y-63539949D01*
X148032886Y-63538020D01*
X148025057Y-63536780D01*
X148017165Y-63537526D01*
X147981039Y-63540941D01*
X147969181Y-63541500D01*
X147558224Y-63541500D01*
X147490103Y-63521498D01*
X147443610Y-63467842D01*
X147433506Y-63397568D01*
X147449769Y-63351364D01*
X147469145Y-63318601D01*
X147480164Y-63280675D01*
X147508525Y-63183053D01*
X147515562Y-63158831D01*
X147516474Y-63147254D01*
X147518307Y-63123958D01*
X147518307Y-63123950D01*
X147518500Y-63121502D01*
X147518500Y-62688498D01*
X147518307Y-62686042D01*
X147516067Y-62657579D01*
X147516066Y-62657574D01*
X147515562Y-62651169D01*
X147476127Y-62515431D01*
X147471357Y-62499012D01*
X147471356Y-62499010D01*
X147469145Y-62491399D01*
X147384453Y-62348193D01*
X147381771Y-62345511D01*
X147356498Y-62281139D01*
X147370400Y-62211516D01*
X147380572Y-62195688D01*
X147384453Y-62191807D01*
X147469145Y-62048601D01*
X147515562Y-61888831D01*
X147518500Y-61851502D01*
X147518500Y-61418498D01*
X147515562Y-61381169D01*
X147469145Y-61221399D01*
X147407019Y-61116350D01*
X147388491Y-61085020D01*
X147388489Y-61085017D01*
X147384453Y-61078193D01*
X147266807Y-60960547D01*
X147259983Y-60956511D01*
X147259980Y-60956509D01*
X147130427Y-60879892D01*
X147130428Y-60879892D01*
X147123601Y-60875855D01*
X147115990Y-60873644D01*
X147115988Y-60873643D01*
X147056653Y-60856405D01*
X146963831Y-60829438D01*
X146957426Y-60828934D01*
X146957421Y-60828933D01*
X146928958Y-60826693D01*
X146928950Y-60826693D01*
X146926502Y-60826500D01*
X146660416Y-60826500D01*
X146592295Y-60806498D01*
X146551961Y-60764637D01*
X146543576Y-60750458D01*
X146543576Y-60750457D01*
X146539542Y-60743637D01*
X146525218Y-60729313D01*
X146512376Y-60714278D01*
X146500472Y-60697893D01*
X146466406Y-60669711D01*
X146457627Y-60661722D01*
X146158000Y-60362095D01*
X147917001Y-60362095D01*
X147917338Y-60368614D01*
X147927257Y-60464206D01*
X147930149Y-60477600D01*
X147981588Y-60631784D01*
X147987761Y-60644962D01*
X148073063Y-60782807D01*
X148082099Y-60794208D01*
X148196829Y-60908739D01*
X148208240Y-60917751D01*
X148346243Y-61002816D01*
X148359424Y-61008963D01*
X148513710Y-61060138D01*
X148527086Y-61063005D01*
X148621438Y-61072672D01*
X148627854Y-61073000D01*
X148740385Y-61073000D01*
X148755624Y-61068525D01*
X148756829Y-61067135D01*
X148758500Y-61059452D01*
X148758500Y-60112115D01*
X148754025Y-60096876D01*
X148752635Y-60095671D01*
X148744952Y-60094000D01*
X147935116Y-60094000D01*
X147919877Y-60098475D01*
X147918672Y-60099865D01*
X147917001Y-60107548D01*
X147917001Y-60362095D01*
X146158000Y-60362095D01*
X145745405Y-59949500D01*
X145711379Y-59887188D01*
X145708500Y-59860405D01*
X145708500Y-59567885D01*
X147917000Y-59567885D01*
X147921475Y-59583124D01*
X147922865Y-59584329D01*
X147930548Y-59586000D01*
X148740385Y-59586000D01*
X148755624Y-59581525D01*
X148756829Y-59580135D01*
X148758500Y-59572452D01*
X148758500Y-58625116D01*
X148754025Y-58609877D01*
X148752635Y-58608672D01*
X148744952Y-58607001D01*
X148627905Y-58607001D01*
X148621386Y-58607338D01*
X148525794Y-58617257D01*
X148512400Y-58620149D01*
X148358216Y-58671588D01*
X148345038Y-58677761D01*
X148207193Y-58763063D01*
X148195792Y-58772099D01*
X148081261Y-58886829D01*
X148072249Y-58898240D01*
X147987184Y-59036243D01*
X147981037Y-59049424D01*
X147929862Y-59203710D01*
X147926995Y-59217086D01*
X147917328Y-59311438D01*
X147917000Y-59317855D01*
X147917000Y-59567885D01*
X145708500Y-59567885D01*
X145708500Y-59199600D01*
X145705260Y-59168371D01*
X145698238Y-59100692D01*
X145698237Y-59100688D01*
X145697526Y-59093834D01*
X145687711Y-59064413D01*
X145643868Y-58933002D01*
X145641550Y-58926054D01*
X145548478Y-58775652D01*
X145423303Y-58650695D01*
X145405182Y-58639525D01*
X145278968Y-58561725D01*
X145278966Y-58561724D01*
X145272738Y-58557885D01*
X145116906Y-58506198D01*
X145111389Y-58504368D01*
X145111387Y-58504368D01*
X145104861Y-58502203D01*
X145098025Y-58501503D01*
X145098022Y-58501502D01*
X145054969Y-58497091D01*
X145000400Y-58491500D01*
X144339595Y-58491500D01*
X144271474Y-58471498D01*
X144250500Y-58454595D01*
X143170405Y-57374500D01*
X143136379Y-57312188D01*
X143133500Y-57285405D01*
X143133500Y-57017856D01*
X143153502Y-56949735D01*
X143193197Y-56910712D01*
X143318120Y-56833407D01*
X143324348Y-56829553D01*
X143410784Y-56742966D01*
X143473066Y-56708887D01*
X143543886Y-56713890D01*
X143588976Y-56742811D01*
X143676697Y-56830380D01*
X143682927Y-56834220D01*
X143682928Y-56834221D01*
X143820090Y-56918769D01*
X143827262Y-56923190D01*
X143907005Y-56949639D01*
X143988611Y-56976707D01*
X143988613Y-56976707D01*
X143995139Y-56978872D01*
X144001975Y-56979572D01*
X144001978Y-56979573D01*
X144045031Y-56983984D01*
X144099600Y-56989575D01*
X144900400Y-56989575D01*
X144903646Y-56989238D01*
X144903650Y-56989238D01*
X144999308Y-56979313D01*
X144999312Y-56979312D01*
X145006166Y-56978601D01*
X145012702Y-56976420D01*
X145012704Y-56976420D01*
X145156025Y-56928604D01*
X145173946Y-56922625D01*
X145324348Y-56829553D01*
X145449305Y-56704378D01*
X145463743Y-56680955D01*
X145538275Y-56560043D01*
X145538276Y-56560041D01*
X145542115Y-56553813D01*
X145559663Y-56500907D01*
X145600094Y-56442548D01*
X145665658Y-56415311D01*
X145679256Y-56414575D01*
X147292022Y-56414575D01*
X147356159Y-56432121D01*
X147486399Y-56509145D01*
X147494010Y-56511356D01*
X147494012Y-56511357D01*
X147546231Y-56526528D01*
X147646169Y-56555562D01*
X147652574Y-56556066D01*
X147652579Y-56556067D01*
X147681042Y-56558307D01*
X147681050Y-56558307D01*
X147683498Y-56558500D01*
X148841502Y-56558500D01*
X148843950Y-56558307D01*
X148843958Y-56558307D01*
X148872421Y-56556067D01*
X148872426Y-56556066D01*
X148878831Y-56555562D01*
X148978769Y-56526528D01*
X149030988Y-56511357D01*
X149030990Y-56511356D01*
X149038601Y-56509145D01*
X149125380Y-56457824D01*
X149174980Y-56428491D01*
X149174983Y-56428489D01*
X149181807Y-56424453D01*
X149299453Y-56306807D01*
X149301705Y-56302998D01*
X149358000Y-56262345D01*
X149428892Y-56258496D01*
X149490611Y-56293586D01*
X149497279Y-56301281D01*
X149500547Y-56306807D01*
X149618193Y-56424453D01*
X149625017Y-56428489D01*
X149625020Y-56428491D01*
X149674620Y-56457824D01*
X149761399Y-56509145D01*
X149769010Y-56511356D01*
X149769012Y-56511357D01*
X149821231Y-56526528D01*
X149921169Y-56555562D01*
X149927574Y-56556066D01*
X149927579Y-56556067D01*
X149956042Y-56558307D01*
X149956050Y-56558307D01*
X149958498Y-56558500D01*
X151116502Y-56558500D01*
X151118950Y-56558307D01*
X151118958Y-56558307D01*
X151147421Y-56556067D01*
X151147426Y-56556066D01*
X151153831Y-56555562D01*
X151253769Y-56526528D01*
X151305988Y-56511357D01*
X151305990Y-56511356D01*
X151313601Y-56509145D01*
X151400380Y-56457824D01*
X151449980Y-56428491D01*
X151449983Y-56428489D01*
X151456807Y-56424453D01*
X151574453Y-56306807D01*
X151578489Y-56299983D01*
X151578491Y-56299980D01*
X151655108Y-56170427D01*
X151659145Y-56163601D01*
X151705562Y-56003831D01*
X151708500Y-55966502D01*
X151708500Y-55533498D01*
X151705562Y-55496169D01*
X151659145Y-55336399D01*
X151614976Y-55261713D01*
X151578491Y-55200020D01*
X151578489Y-55200017D01*
X151574453Y-55193193D01*
X151456807Y-55075547D01*
X151449983Y-55071511D01*
X151449980Y-55071509D01*
X151320427Y-54994892D01*
X151320428Y-54994892D01*
X151313601Y-54990855D01*
X151305990Y-54988644D01*
X151305988Y-54988643D01*
X151253769Y-54973472D01*
X151153831Y-54944438D01*
X151147426Y-54943934D01*
X151147421Y-54943933D01*
X151118958Y-54941693D01*
X151118950Y-54941693D01*
X151116502Y-54941500D01*
X150677095Y-54941500D01*
X150608974Y-54921498D01*
X150588000Y-54904595D01*
X150557000Y-54873595D01*
X150522974Y-54811283D01*
X150528039Y-54740468D01*
X150570586Y-54683632D01*
X150637106Y-54658821D01*
X150646095Y-54658500D01*
X151116502Y-54658500D01*
X151118950Y-54658307D01*
X151118958Y-54658307D01*
X151147421Y-54656067D01*
X151147426Y-54656066D01*
X151153831Y-54655562D01*
X151253769Y-54626528D01*
X151305988Y-54611357D01*
X151305990Y-54611356D01*
X151313601Y-54609145D01*
X151375267Y-54572676D01*
X151449980Y-54528491D01*
X151449983Y-54528489D01*
X151456807Y-54524453D01*
X151462415Y-54518845D01*
X151468675Y-54513989D01*
X151469844Y-54515496D01*
X151523167Y-54486379D01*
X151549950Y-54483500D01*
X153105406Y-54483500D01*
X153173527Y-54503502D01*
G37*
%TD.AperFunction*%
%TA.AperFunction,Conductor*%
G36*
X127989391Y-56915295D02*
G01*
X131247418Y-60173322D01*
X131254962Y-60181612D01*
X131259075Y-60188093D01*
X131264852Y-60193518D01*
X131308742Y-60234733D01*
X131311584Y-60237488D01*
X131331306Y-60257210D01*
X131334448Y-60259647D01*
X131334508Y-60259694D01*
X131343518Y-60267390D01*
X131360830Y-60283646D01*
X131396797Y-60344858D01*
X131399907Y-60362497D01*
X131402474Y-60387241D01*
X131458450Y-60555021D01*
X131551522Y-60705423D01*
X131676697Y-60830380D01*
X131682927Y-60834220D01*
X131682928Y-60834221D01*
X131820090Y-60918769D01*
X131827262Y-60923190D01*
X131894239Y-60945405D01*
X131988611Y-60976707D01*
X131988613Y-60976707D01*
X131995139Y-60978872D01*
X132001975Y-60979572D01*
X132001978Y-60979573D01*
X132045031Y-60983984D01*
X132099600Y-60989575D01*
X132900400Y-60989575D01*
X132903646Y-60989238D01*
X132903650Y-60989238D01*
X132999308Y-60979313D01*
X132999312Y-60979312D01*
X133006166Y-60978601D01*
X133012702Y-60976420D01*
X133012704Y-60976420D01*
X133144806Y-60932347D01*
X133173946Y-60922625D01*
X133324348Y-60829553D01*
X133410784Y-60742966D01*
X133473066Y-60708887D01*
X133543886Y-60713890D01*
X133588975Y-60742811D01*
X133599328Y-60753146D01*
X133676697Y-60830380D01*
X133682927Y-60834220D01*
X133682928Y-60834221D01*
X133806616Y-60910464D01*
X133854110Y-60963237D01*
X133866500Y-61017724D01*
X133866500Y-62544294D01*
X133846498Y-62612415D01*
X133806803Y-62651438D01*
X133675652Y-62732597D01*
X133670479Y-62737779D01*
X133589216Y-62819184D01*
X133526934Y-62853263D01*
X133456114Y-62848260D01*
X133411025Y-62819339D01*
X133328483Y-62736941D01*
X133323303Y-62731770D01*
X133283075Y-62706973D01*
X133178968Y-62642800D01*
X133178966Y-62642799D01*
X133172738Y-62638960D01*
X133092707Y-62612415D01*
X133011389Y-62585443D01*
X133011387Y-62585443D01*
X133004861Y-62583278D01*
X132998025Y-62582578D01*
X132998022Y-62582577D01*
X132954969Y-62578166D01*
X132900400Y-62572575D01*
X132099600Y-62572575D01*
X132096354Y-62572912D01*
X132096350Y-62572912D01*
X132000692Y-62582837D01*
X132000688Y-62582838D01*
X131993834Y-62583549D01*
X131987298Y-62585730D01*
X131987296Y-62585730D01*
X131907312Y-62612415D01*
X131826054Y-62639525D01*
X131675652Y-62732597D01*
X131550695Y-62857772D01*
X131457885Y-63008337D01*
X131436133Y-63073917D01*
X131407969Y-63158831D01*
X131402203Y-63176214D01*
X131391500Y-63280675D01*
X131391500Y-64281475D01*
X131391837Y-64284721D01*
X131391837Y-64284725D01*
X131397200Y-64336407D01*
X131402474Y-64387241D01*
X131404655Y-64393777D01*
X131404655Y-64393779D01*
X131427126Y-64461133D01*
X131458450Y-64555021D01*
X131551522Y-64705423D01*
X131635999Y-64789753D01*
X131670078Y-64852034D01*
X131665075Y-64922854D01*
X131636076Y-64968020D01*
X129258595Y-67345501D01*
X129196283Y-67379527D01*
X129125468Y-67374462D01*
X129068632Y-67331915D01*
X129043821Y-67265395D01*
X129043500Y-67256406D01*
X129043500Y-64088767D01*
X129044027Y-64077584D01*
X129045702Y-64070091D01*
X129044534Y-64032917D01*
X129043562Y-64002014D01*
X129043500Y-63998055D01*
X129043500Y-63970144D01*
X129042995Y-63966144D01*
X129042062Y-63954301D01*
X129040922Y-63918029D01*
X129040673Y-63910110D01*
X129035022Y-63890658D01*
X129031014Y-63871306D01*
X129029467Y-63859063D01*
X129028474Y-63851203D01*
X129025556Y-63843832D01*
X129012200Y-63810097D01*
X129008355Y-63798870D01*
X129001856Y-63776502D01*
X128996018Y-63756407D01*
X128991962Y-63749548D01*
X128985707Y-63738972D01*
X128977012Y-63721224D01*
X128969552Y-63702383D01*
X128958154Y-63686694D01*
X128943564Y-63666613D01*
X128937048Y-63656693D01*
X128918580Y-63625465D01*
X128918578Y-63625462D01*
X128914542Y-63618638D01*
X128900221Y-63604317D01*
X128887380Y-63589283D01*
X128884356Y-63585121D01*
X128875472Y-63572893D01*
X128841395Y-63544702D01*
X128832616Y-63536712D01*
X127830405Y-62534501D01*
X127796379Y-62472189D01*
X127793500Y-62445406D01*
X127793500Y-61119600D01*
X127788521Y-61071610D01*
X127783238Y-61020692D01*
X127783237Y-61020688D01*
X127782526Y-61013834D01*
X127770772Y-60978601D01*
X127728868Y-60853002D01*
X127726550Y-60846054D01*
X127633478Y-60695652D01*
X127508303Y-60570695D01*
X127492982Y-60561251D01*
X127363968Y-60481725D01*
X127363966Y-60481724D01*
X127357738Y-60477885D01*
X127197254Y-60424655D01*
X127196389Y-60424368D01*
X127196387Y-60424368D01*
X127189861Y-60422203D01*
X127183025Y-60421503D01*
X127183022Y-60421502D01*
X127139969Y-60417091D01*
X127085400Y-60411500D01*
X125294600Y-60411500D01*
X125291354Y-60411837D01*
X125291350Y-60411837D01*
X125195692Y-60421762D01*
X125195688Y-60421763D01*
X125188834Y-60422474D01*
X125182298Y-60424655D01*
X125182296Y-60424655D01*
X125071212Y-60461716D01*
X125021054Y-60478450D01*
X124995802Y-60494077D01*
X124927352Y-60512914D01*
X124859582Y-60491753D01*
X124814011Y-60437313D01*
X124803500Y-60386932D01*
X124803500Y-59094594D01*
X124823502Y-59026473D01*
X124840405Y-59005499D01*
X125681265Y-58164639D01*
X125743577Y-58130613D01*
X125792779Y-58129745D01*
X125815359Y-58133828D01*
X125830720Y-58136606D01*
X125830724Y-58136607D01*
X125834803Y-58137344D01*
X125838943Y-58137539D01*
X125838950Y-58137540D01*
X125857828Y-58138430D01*
X125857835Y-58138430D01*
X125859316Y-58138500D01*
X126473738Y-58138500D01*
X126541641Y-58132738D01*
X126642791Y-58124156D01*
X126642795Y-58124155D01*
X126648102Y-58123705D01*
X126653259Y-58122367D01*
X126653262Y-58122366D01*
X126869371Y-58066275D01*
X126869375Y-58066274D01*
X126874540Y-58064933D01*
X126879406Y-58062741D01*
X126879409Y-58062740D01*
X127082964Y-57971045D01*
X127087837Y-57968850D01*
X127281896Y-57838202D01*
X127295999Y-57824749D01*
X127370378Y-57753794D01*
X127451168Y-57676724D01*
X127590813Y-57489035D01*
X127594986Y-57480829D01*
X127694420Y-57285256D01*
X127694420Y-57285255D01*
X127696838Y-57280500D01*
X127766210Y-57057083D01*
X127775388Y-56987834D01*
X127804167Y-56922933D01*
X127863466Y-56883893D01*
X127934459Y-56883110D01*
X127989391Y-56915295D01*
G37*
%TD.AperFunction*%
%TA.AperFunction,Conductor*%
G36*
X138543886Y-56713890D02*
G01*
X138588976Y-56742811D01*
X138676697Y-56830380D01*
X138682927Y-56834220D01*
X138682928Y-56834221D01*
X138820090Y-56918769D01*
X138827262Y-56923190D01*
X138907293Y-56949735D01*
X138948603Y-56963437D01*
X138998031Y-56993935D01*
X139009779Y-57005683D01*
X139022619Y-57020716D01*
X139034528Y-57037107D01*
X139040634Y-57042158D01*
X139068605Y-57065298D01*
X139077384Y-57073288D01*
X141454595Y-59450500D01*
X141488621Y-59512812D01*
X141491500Y-59539595D01*
X141491500Y-60200400D01*
X141491837Y-60203646D01*
X141491837Y-60203650D01*
X141501592Y-60297661D01*
X141502474Y-60306166D01*
X141504655Y-60312702D01*
X141504655Y-60312704D01*
X141541674Y-60423661D01*
X141558450Y-60473946D01*
X141651522Y-60624348D01*
X141776697Y-60749305D01*
X141782927Y-60753145D01*
X141782928Y-60753146D01*
X141914456Y-60834221D01*
X141927262Y-60842115D01*
X142007005Y-60868564D01*
X142088611Y-60895632D01*
X142088613Y-60895632D01*
X142095139Y-60897797D01*
X142101975Y-60898497D01*
X142101978Y-60898498D01*
X142145031Y-60902909D01*
X142199600Y-60908500D01*
X142714334Y-60908500D01*
X142782455Y-60928502D01*
X142803429Y-60945405D01*
X144514595Y-62656571D01*
X144548621Y-62718883D01*
X144551500Y-62745666D01*
X144551500Y-63121502D01*
X144551693Y-63123950D01*
X144551693Y-63123958D01*
X144553527Y-63147254D01*
X144554438Y-63158831D01*
X144561475Y-63183053D01*
X144589837Y-63280675D01*
X144600855Y-63318601D01*
X144685547Y-63461807D01*
X144688229Y-63464489D01*
X144713502Y-63528861D01*
X144699600Y-63598484D01*
X144689428Y-63614312D01*
X144685547Y-63618193D01*
X144600855Y-63761399D01*
X144598644Y-63769010D01*
X144598643Y-63769012D01*
X144586707Y-63810097D01*
X144554438Y-63921169D01*
X144551500Y-63958498D01*
X144551500Y-64391502D01*
X144554438Y-64428831D01*
X144560964Y-64451293D01*
X144598365Y-64580029D01*
X144600855Y-64588601D01*
X144604892Y-64595427D01*
X144669944Y-64705423D01*
X144685547Y-64731807D01*
X144688487Y-64734747D01*
X144713820Y-64799266D01*
X144699921Y-64868889D01*
X144687874Y-64887636D01*
X144681910Y-64895324D01*
X144605352Y-65024779D01*
X144599107Y-65039210D01*
X144560061Y-65173605D01*
X144560101Y-65187706D01*
X144567370Y-65191000D01*
X147496878Y-65191000D01*
X147510409Y-65187027D01*
X147511544Y-65179129D01*
X147470893Y-65039210D01*
X147464648Y-65024779D01*
X147449189Y-64998639D01*
X147431730Y-64929823D01*
X147454247Y-64862491D01*
X147509591Y-64818022D01*
X147557643Y-64808500D01*
X147660500Y-64808500D01*
X147728621Y-64828502D01*
X147775114Y-64882158D01*
X147786500Y-64934500D01*
X147786500Y-67146895D01*
X147766498Y-67215016D01*
X147712842Y-67261509D01*
X147642568Y-67271613D01*
X147577988Y-67242119D01*
X147552048Y-67211035D01*
X147544453Y-67198193D01*
X147426807Y-67080547D01*
X147419983Y-67076511D01*
X147419980Y-67076509D01*
X147302664Y-67007129D01*
X147283601Y-66995855D01*
X147275990Y-66993644D01*
X147275988Y-66993643D01*
X147223769Y-66978472D01*
X147123831Y-66949438D01*
X147117426Y-66948934D01*
X147117421Y-66948933D01*
X147088958Y-66946693D01*
X147088950Y-66946693D01*
X147086502Y-66946500D01*
X145324240Y-66946500D01*
X145256119Y-66926498D01*
X145235145Y-66909595D01*
X144036421Y-65710871D01*
X144558456Y-65710871D01*
X144599107Y-65850790D01*
X144605352Y-65865221D01*
X144681911Y-65994678D01*
X144691551Y-66007104D01*
X144797896Y-66113449D01*
X144810322Y-66123089D01*
X144939779Y-66199648D01*
X144954210Y-66205893D01*
X145100065Y-66248269D01*
X145112667Y-66250570D01*
X145141084Y-66252807D01*
X145146014Y-66253000D01*
X145762885Y-66253000D01*
X145778124Y-66248525D01*
X145779329Y-66247135D01*
X145781000Y-66239452D01*
X145781000Y-66234884D01*
X146289000Y-66234884D01*
X146293475Y-66250123D01*
X146294865Y-66251328D01*
X146302548Y-66252999D01*
X146923984Y-66252999D01*
X146928920Y-66252805D01*
X146957336Y-66250570D01*
X146969931Y-66248270D01*
X147115790Y-66205893D01*
X147130221Y-66199648D01*
X147259678Y-66123089D01*
X147272104Y-66113449D01*
X147378449Y-66007104D01*
X147388089Y-65994678D01*
X147464648Y-65865221D01*
X147470893Y-65850790D01*
X147509939Y-65716395D01*
X147509899Y-65702294D01*
X147502630Y-65699000D01*
X146307115Y-65699000D01*
X146291876Y-65703475D01*
X146290671Y-65704865D01*
X146289000Y-65712548D01*
X146289000Y-66234884D01*
X145781000Y-66234884D01*
X145781000Y-65717115D01*
X145776525Y-65701876D01*
X145775135Y-65700671D01*
X145767452Y-65699000D01*
X144573122Y-65699000D01*
X144559591Y-65702973D01*
X144558456Y-65710871D01*
X144036421Y-65710871D01*
X138170405Y-59844854D01*
X138136379Y-59782542D01*
X138133500Y-59755759D01*
X138133500Y-57017856D01*
X138153502Y-56949735D01*
X138193197Y-56910712D01*
X138318120Y-56833407D01*
X138324348Y-56829553D01*
X138410784Y-56742966D01*
X138473066Y-56708887D01*
X138543886Y-56713890D01*
G37*
%TD.AperFunction*%
%TA.AperFunction,Conductor*%
G36*
X152242757Y-60642066D02*
G01*
X152341677Y-60686108D01*
X152341685Y-60686111D01*
X152347712Y-60688794D01*
X152470175Y-60714825D01*
X152533072Y-60748976D01*
X154239595Y-62455499D01*
X154273621Y-62517811D01*
X154276500Y-62544594D01*
X154276500Y-63593940D01*
X154256498Y-63662061D01*
X154202842Y-63708554D01*
X154137659Y-63719284D01*
X154118565Y-63717328D01*
X154112145Y-63717000D01*
X153862115Y-63717000D01*
X153846876Y-63721475D01*
X153845671Y-63722865D01*
X153844000Y-63730548D01*
X153844000Y-64940500D01*
X153823998Y-65008621D01*
X153770342Y-65055114D01*
X153718000Y-65066500D01*
X153462000Y-65066500D01*
X153393879Y-65046498D01*
X153347386Y-64992842D01*
X153336000Y-64940500D01*
X153336000Y-63735116D01*
X153331525Y-63719877D01*
X153330135Y-63718672D01*
X153322452Y-63717001D01*
X153067905Y-63717001D01*
X153061386Y-63717338D01*
X152965794Y-63727257D01*
X152952400Y-63730149D01*
X152798216Y-63781588D01*
X152785038Y-63787761D01*
X152647192Y-63873063D01*
X152635146Y-63882611D01*
X152569336Y-63909248D01*
X152499571Y-63896077D01*
X152448003Y-63847279D01*
X152435885Y-63819018D01*
X152421357Y-63769012D01*
X152421356Y-63769010D01*
X152419145Y-63761399D01*
X152334453Y-63618193D01*
X152331771Y-63615511D01*
X152306498Y-63551139D01*
X152320400Y-63481516D01*
X152330572Y-63465688D01*
X152334453Y-63461807D01*
X152419145Y-63318601D01*
X152430164Y-63280675D01*
X152458525Y-63183053D01*
X152465562Y-63158831D01*
X152466474Y-63147254D01*
X152468307Y-63123958D01*
X152468307Y-63123950D01*
X152468500Y-63121502D01*
X152468500Y-62688498D01*
X152468307Y-62686042D01*
X152466067Y-62657579D01*
X152466066Y-62657574D01*
X152465562Y-62651169D01*
X152426127Y-62515431D01*
X152421357Y-62499012D01*
X152421356Y-62499010D01*
X152419145Y-62491399D01*
X152334453Y-62348193D01*
X152331771Y-62345511D01*
X152306498Y-62281139D01*
X152320400Y-62211516D01*
X152330572Y-62195688D01*
X152334453Y-62191807D01*
X152419145Y-62048601D01*
X152465562Y-61888831D01*
X152468500Y-61851502D01*
X152468500Y-61418498D01*
X152465562Y-61381169D01*
X152419145Y-61221399D01*
X152357019Y-61116350D01*
X152338491Y-61085020D01*
X152338489Y-61085017D01*
X152334453Y-61078193D01*
X152216807Y-60960547D01*
X152108381Y-60896424D01*
X152059931Y-60844534D01*
X152047226Y-60774683D01*
X152065264Y-60721856D01*
X152084250Y-60691056D01*
X152137023Y-60643563D01*
X152207095Y-60632141D01*
X152242757Y-60642066D01*
G37*
%TD.AperFunction*%
%TA.AperFunction,Conductor*%
G36*
X136388924Y-56434577D02*
G01*
X136435417Y-56488233D01*
X136440326Y-56500698D01*
X136441798Y-56505108D01*
X136458450Y-56555021D01*
X136551522Y-56705423D01*
X136676697Y-56830380D01*
X136682927Y-56834220D01*
X136682928Y-56834221D01*
X136806616Y-56910464D01*
X136854110Y-56963237D01*
X136866500Y-57017724D01*
X136866500Y-59991587D01*
X136865973Y-60002770D01*
X136864298Y-60010263D01*
X136864547Y-60018189D01*
X136864547Y-60018190D01*
X136866438Y-60078340D01*
X136866500Y-60082299D01*
X136866500Y-60110210D01*
X136866997Y-60114144D01*
X136866997Y-60114145D01*
X136867005Y-60114210D01*
X136867938Y-60126047D01*
X136869327Y-60170243D01*
X136874513Y-60188093D01*
X136874978Y-60189693D01*
X136878987Y-60209054D01*
X136881526Y-60229151D01*
X136884445Y-60236522D01*
X136884445Y-60236524D01*
X136897804Y-60270266D01*
X136901649Y-60281496D01*
X136913982Y-60323947D01*
X136918015Y-60330766D01*
X136918017Y-60330771D01*
X136924293Y-60341382D01*
X136932988Y-60359130D01*
X136940448Y-60377971D01*
X136945110Y-60384387D01*
X136945110Y-60384388D01*
X136966436Y-60413741D01*
X136972952Y-60423661D01*
X136995458Y-60461716D01*
X137009779Y-60476037D01*
X137022619Y-60491070D01*
X137034528Y-60507461D01*
X137040634Y-60512512D01*
X137068605Y-60535652D01*
X137077384Y-60543642D01*
X139466222Y-62932480D01*
X139500248Y-62994792D01*
X139495183Y-63065607D01*
X139452636Y-63122443D01*
X139386116Y-63147254D01*
X139377127Y-63147575D01*
X135679197Y-63147575D01*
X135611076Y-63127573D01*
X135564583Y-63073917D01*
X135559674Y-63061452D01*
X135543867Y-63014073D01*
X135543866Y-63014071D01*
X135541550Y-63007129D01*
X135448478Y-62856727D01*
X135323303Y-62731770D01*
X135283075Y-62706973D01*
X135193384Y-62651686D01*
X135145890Y-62598913D01*
X135133500Y-62544426D01*
X135133500Y-61017856D01*
X135153502Y-60949735D01*
X135193197Y-60910712D01*
X135318120Y-60833407D01*
X135324348Y-60829553D01*
X135449305Y-60704378D01*
X135453146Y-60698147D01*
X135538275Y-60560043D01*
X135538276Y-60560041D01*
X135542115Y-60553813D01*
X135597797Y-60385936D01*
X135599369Y-60370600D01*
X135606673Y-60299308D01*
X135608500Y-60281475D01*
X135608500Y-59280675D01*
X135608163Y-59277425D01*
X135598238Y-59181767D01*
X135598237Y-59181763D01*
X135597526Y-59174909D01*
X135541550Y-59007129D01*
X135448478Y-58856727D01*
X135323303Y-58731770D01*
X135304572Y-58720224D01*
X135193384Y-58651686D01*
X135145890Y-58598913D01*
X135133500Y-58544426D01*
X135133500Y-57859842D01*
X135134027Y-57848659D01*
X135135702Y-57841166D01*
X135133562Y-57773089D01*
X135133500Y-57769130D01*
X135133500Y-57741219D01*
X135132995Y-57737219D01*
X135132062Y-57725376D01*
X135130922Y-57689104D01*
X135130673Y-57681185D01*
X135125022Y-57661733D01*
X135121014Y-57642381D01*
X135119467Y-57630138D01*
X135118474Y-57622278D01*
X135114383Y-57611945D01*
X135102200Y-57581172D01*
X135098355Y-57569945D01*
X135097721Y-57567762D01*
X135086018Y-57527482D01*
X135075707Y-57510047D01*
X135067012Y-57492299D01*
X135059552Y-57473458D01*
X135033564Y-57437688D01*
X135027048Y-57427768D01*
X135008580Y-57396540D01*
X135008578Y-57396537D01*
X135004542Y-57389713D01*
X134990221Y-57375392D01*
X134977380Y-57360358D01*
X134970131Y-57350381D01*
X134965472Y-57343968D01*
X134931395Y-57315777D01*
X134922616Y-57307787D01*
X134819096Y-57204267D01*
X134785070Y-57141955D01*
X134790135Y-57071140D01*
X134832682Y-57014304D01*
X134900423Y-56989794D01*
X134900400Y-56989575D01*
X134901279Y-56989484D01*
X134901280Y-56989484D01*
X134903624Y-56989240D01*
X134903633Y-56989240D01*
X134999308Y-56979313D01*
X134999312Y-56979312D01*
X135006166Y-56978601D01*
X135012702Y-56976420D01*
X135012704Y-56976420D01*
X135156025Y-56928604D01*
X135173946Y-56922625D01*
X135324348Y-56829553D01*
X135449305Y-56704378D01*
X135463743Y-56680955D01*
X135538275Y-56560043D01*
X135538276Y-56560041D01*
X135542115Y-56553813D01*
X135559663Y-56500907D01*
X135600094Y-56442548D01*
X135665658Y-56415311D01*
X135679256Y-56414575D01*
X136320803Y-56414575D01*
X136388924Y-56434577D01*
G37*
%TD.AperFunction*%
%TA.AperFunction,Conductor*%
G36*
X141257012Y-52863305D02*
G01*
X141281643Y-52892223D01*
X141301522Y-52924348D01*
X141426697Y-53049305D01*
X141432927Y-53053145D01*
X141432928Y-53053146D01*
X141556616Y-53129389D01*
X141604110Y-53182162D01*
X141616500Y-53236649D01*
X141616500Y-53452307D01*
X141615973Y-53463492D01*
X141614298Y-53470984D01*
X141614547Y-53478909D01*
X141614547Y-53478910D01*
X141616438Y-53539061D01*
X141616500Y-53543020D01*
X141616500Y-53570931D01*
X141616997Y-53574865D01*
X141616997Y-53574866D01*
X141617005Y-53574931D01*
X141617938Y-53586768D01*
X141619327Y-53630964D01*
X141624978Y-53650414D01*
X141628987Y-53669775D01*
X141631526Y-53689872D01*
X141634445Y-53697243D01*
X141634445Y-53697245D01*
X141647804Y-53730987D01*
X141651649Y-53742217D01*
X141657639Y-53762835D01*
X141663982Y-53784668D01*
X141668015Y-53791487D01*
X141668017Y-53791492D01*
X141674293Y-53802103D01*
X141682988Y-53819851D01*
X141690448Y-53838692D01*
X141695110Y-53845108D01*
X141695110Y-53845109D01*
X141716436Y-53874462D01*
X141722952Y-53884382D01*
X141745458Y-53922437D01*
X141759779Y-53936758D01*
X141772619Y-53951791D01*
X141784528Y-53968182D01*
X141790634Y-53973233D01*
X141818605Y-53996373D01*
X141827384Y-54004363D01*
X142180904Y-54357883D01*
X142214930Y-54420195D01*
X142209865Y-54491010D01*
X142167318Y-54547846D01*
X142099577Y-54572356D01*
X142099600Y-54572575D01*
X142098721Y-54572666D01*
X142098720Y-54572666D01*
X142096376Y-54572910D01*
X142096367Y-54572910D01*
X142000692Y-54582837D01*
X142000688Y-54582838D01*
X141993834Y-54583549D01*
X141987298Y-54585730D01*
X141987296Y-54585730D01*
X141855194Y-54629803D01*
X141826054Y-54639525D01*
X141675652Y-54732597D01*
X141550695Y-54857772D01*
X141546855Y-54864002D01*
X141546854Y-54864003D01*
X141466173Y-54994892D01*
X141457885Y-55008337D01*
X141402203Y-55176214D01*
X141391500Y-55280675D01*
X141391500Y-56281475D01*
X141391837Y-56284721D01*
X141391837Y-56284725D01*
X141392757Y-56293586D01*
X141402474Y-56387241D01*
X141404655Y-56393777D01*
X141404655Y-56393779D01*
X141443882Y-56511357D01*
X141458450Y-56555021D01*
X141551522Y-56705423D01*
X141676697Y-56830380D01*
X141682927Y-56834220D01*
X141682928Y-56834221D01*
X141806616Y-56910464D01*
X141854110Y-56963237D01*
X141866500Y-57017724D01*
X141866500Y-57521233D01*
X141865973Y-57532416D01*
X141864298Y-57539909D01*
X141864547Y-57547835D01*
X141864547Y-57547836D01*
X141866438Y-57607986D01*
X141866500Y-57611945D01*
X141866500Y-57639856D01*
X141866997Y-57643790D01*
X141866997Y-57643791D01*
X141867005Y-57643856D01*
X141867938Y-57655693D01*
X141869327Y-57699889D01*
X141874978Y-57719339D01*
X141878987Y-57738700D01*
X141880531Y-57750926D01*
X141880532Y-57750931D01*
X141881188Y-57756122D01*
X141881188Y-57756124D01*
X141881526Y-57758798D01*
X141881095Y-57758852D01*
X141878837Y-57824749D01*
X141838431Y-57883126D01*
X141772878Y-57910390D01*
X141702991Y-57897886D01*
X141670132Y-57874227D01*
X140539172Y-56743267D01*
X140505146Y-56680955D01*
X140510211Y-56610140D01*
X140521008Y-56588055D01*
X140538274Y-56560045D01*
X140538276Y-56560042D01*
X140542115Y-56553813D01*
X140597797Y-56385936D01*
X140608500Y-56281475D01*
X140608500Y-55280675D01*
X140606533Y-55261713D01*
X140598238Y-55181767D01*
X140598237Y-55181763D01*
X140597526Y-55174909D01*
X140581734Y-55127573D01*
X140543868Y-55014077D01*
X140541550Y-55007129D01*
X140448478Y-54856727D01*
X140323303Y-54731770D01*
X140236887Y-54678502D01*
X140178968Y-54642800D01*
X140178966Y-54642799D01*
X140172738Y-54638960D01*
X140012254Y-54585730D01*
X140011389Y-54585443D01*
X140011387Y-54585443D01*
X140004861Y-54583278D01*
X139998025Y-54582578D01*
X139998022Y-54582577D01*
X139954969Y-54578166D01*
X139900400Y-54572575D01*
X139099600Y-54572575D01*
X139096354Y-54572912D01*
X139096350Y-54572912D01*
X139000692Y-54582837D01*
X139000688Y-54582838D01*
X138993834Y-54583549D01*
X138987298Y-54585730D01*
X138987296Y-54585730D01*
X138855194Y-54629803D01*
X138826054Y-54639525D01*
X138675652Y-54732597D01*
X138592894Y-54815500D01*
X138589216Y-54819184D01*
X138526934Y-54853263D01*
X138456114Y-54848260D01*
X138411025Y-54819339D01*
X138328483Y-54736941D01*
X138323303Y-54731770D01*
X138236887Y-54678502D01*
X138178968Y-54642800D01*
X138178966Y-54642799D01*
X138172738Y-54638960D01*
X138012254Y-54585730D01*
X138011389Y-54585443D01*
X138011387Y-54585443D01*
X138004861Y-54583278D01*
X137998025Y-54582578D01*
X137998022Y-54582577D01*
X137954969Y-54578166D01*
X137900400Y-54572575D01*
X137099600Y-54572575D01*
X137096354Y-54572912D01*
X137096350Y-54572912D01*
X137000692Y-54582837D01*
X137000688Y-54582838D01*
X136993834Y-54583549D01*
X136987298Y-54585730D01*
X136987296Y-54585730D01*
X136855194Y-54629803D01*
X136826054Y-54639525D01*
X136675652Y-54732597D01*
X136550695Y-54857772D01*
X136546855Y-54864002D01*
X136546854Y-54864003D01*
X136466173Y-54994892D01*
X136457885Y-55008337D01*
X136442739Y-55054000D01*
X136440337Y-55061243D01*
X136399906Y-55119602D01*
X136334342Y-55146839D01*
X136320744Y-55147575D01*
X135679197Y-55147575D01*
X135611076Y-55127573D01*
X135564583Y-55073917D01*
X135559674Y-55061452D01*
X135543867Y-55014073D01*
X135543866Y-55014071D01*
X135541550Y-55007129D01*
X135533978Y-54994892D01*
X135452332Y-54862955D01*
X135448478Y-54856727D01*
X135323303Y-54731770D01*
X135236887Y-54678502D01*
X135178968Y-54642800D01*
X135178966Y-54642799D01*
X135172738Y-54638960D01*
X135012254Y-54585730D01*
X135011389Y-54585443D01*
X135011387Y-54585443D01*
X135004861Y-54583278D01*
X134998025Y-54582578D01*
X134998022Y-54582577D01*
X134903689Y-54572912D01*
X134900400Y-54572575D01*
X134900424Y-54572340D01*
X134834753Y-54549354D01*
X134791060Y-54493395D01*
X134784558Y-54422696D01*
X134819102Y-54357878D01*
X135496575Y-53680405D01*
X135558887Y-53646379D01*
X135585670Y-53643500D01*
X138603219Y-53643500D01*
X138671340Y-53663502D01*
X138710363Y-53703197D01*
X138791522Y-53834348D01*
X138916697Y-53959305D01*
X138922927Y-53963145D01*
X138922928Y-53963146D01*
X139060090Y-54047694D01*
X139067262Y-54052115D01*
X139147005Y-54078564D01*
X139228611Y-54105632D01*
X139228613Y-54105632D01*
X139235139Y-54107797D01*
X139241975Y-54108497D01*
X139241978Y-54108498D01*
X139285031Y-54112909D01*
X139339600Y-54118500D01*
X140340400Y-54118500D01*
X140343646Y-54118163D01*
X140343650Y-54118163D01*
X140439308Y-54108238D01*
X140439312Y-54108237D01*
X140446166Y-54107526D01*
X140452702Y-54105345D01*
X140452704Y-54105345D01*
X140598429Y-54056727D01*
X140613946Y-54051550D01*
X140764348Y-53958478D01*
X140889305Y-53833303D01*
X140893146Y-53827072D01*
X140978275Y-53688968D01*
X140978276Y-53688966D01*
X140982115Y-53682738D01*
X141010685Y-53596603D01*
X141035632Y-53521389D01*
X141035632Y-53521387D01*
X141037797Y-53514861D01*
X141040329Y-53490154D01*
X141045390Y-53440751D01*
X141048500Y-53410400D01*
X141048500Y-52958529D01*
X141068502Y-52890408D01*
X141122158Y-52843915D01*
X141192432Y-52833811D01*
X141257012Y-52863305D01*
G37*
%TD.AperFunction*%
%TA.AperFunction,Conductor*%
G36*
X146166027Y-52653502D02*
G01*
X146187001Y-52670405D01*
X147054837Y-53538241D01*
X147088863Y-53600553D01*
X147091619Y-53631985D01*
X147091500Y-53633498D01*
X147091500Y-54066502D01*
X147094438Y-54103831D01*
X147140855Y-54263601D01*
X147144889Y-54270423D01*
X147147128Y-54275596D01*
X147155824Y-54346058D01*
X147147128Y-54375674D01*
X147139107Y-54394210D01*
X147100061Y-54528605D01*
X147100101Y-54542706D01*
X147107370Y-54546000D01*
X147345158Y-54546000D01*
X147409297Y-54563547D01*
X147424733Y-54572676D01*
X147486399Y-54609145D01*
X147494010Y-54611356D01*
X147494012Y-54611357D01*
X147546231Y-54626528D01*
X147646169Y-54655562D01*
X147652574Y-54656066D01*
X147652579Y-54656067D01*
X147681042Y-54658307D01*
X147681050Y-54658307D01*
X147683498Y-54658500D01*
X148390500Y-54658500D01*
X148458621Y-54678502D01*
X148505114Y-54732158D01*
X148516500Y-54784500D01*
X148516500Y-54815500D01*
X148496498Y-54883621D01*
X148442842Y-54930114D01*
X148390500Y-54941500D01*
X147683498Y-54941500D01*
X147681050Y-54941693D01*
X147681042Y-54941693D01*
X147652579Y-54943933D01*
X147652574Y-54943934D01*
X147646169Y-54944438D01*
X147546231Y-54973472D01*
X147494012Y-54988643D01*
X147494010Y-54988644D01*
X147486399Y-54990855D01*
X147479572Y-54994892D01*
X147479573Y-54994892D01*
X147409297Y-55036453D01*
X147345158Y-55054000D01*
X147113122Y-55054000D01*
X147097883Y-55058475D01*
X147088793Y-55068965D01*
X147072752Y-55104089D01*
X147013025Y-55142472D01*
X146977529Y-55147575D01*
X145679197Y-55147575D01*
X145611076Y-55127573D01*
X145564583Y-55073917D01*
X145559674Y-55061452D01*
X145543867Y-55014073D01*
X145543866Y-55014071D01*
X145541550Y-55007129D01*
X145533978Y-54994892D01*
X145452332Y-54862955D01*
X145448478Y-54856727D01*
X145323303Y-54731770D01*
X145236887Y-54678502D01*
X145178968Y-54642800D01*
X145178966Y-54642799D01*
X145172738Y-54638960D01*
X145012254Y-54585730D01*
X145011389Y-54585443D01*
X145011387Y-54585443D01*
X145004861Y-54583278D01*
X144998025Y-54582578D01*
X144998022Y-54582577D01*
X144954969Y-54578166D01*
X144900400Y-54572575D01*
X144239594Y-54572575D01*
X144171473Y-54552573D01*
X144150499Y-54535670D01*
X142932946Y-53318116D01*
X142898920Y-53255804D01*
X142903985Y-53184988D01*
X142946532Y-53128153D01*
X142955737Y-53121877D01*
X143074348Y-53048478D01*
X143160784Y-52961891D01*
X143223066Y-52927812D01*
X143293886Y-52932815D01*
X143338975Y-52961736D01*
X143398841Y-53021498D01*
X143426697Y-53049305D01*
X143432927Y-53053145D01*
X143432928Y-53053146D01*
X143570090Y-53137694D01*
X143577262Y-53142115D01*
X143657005Y-53168564D01*
X143738611Y-53195632D01*
X143738613Y-53195632D01*
X143745139Y-53197797D01*
X143751975Y-53198497D01*
X143751978Y-53198498D01*
X143795031Y-53202909D01*
X143849600Y-53208500D01*
X144650400Y-53208500D01*
X144653646Y-53208163D01*
X144653650Y-53208163D01*
X144749308Y-53198238D01*
X144749312Y-53198237D01*
X144756166Y-53197526D01*
X144762702Y-53195345D01*
X144762704Y-53195345D01*
X144894806Y-53151272D01*
X144923946Y-53141550D01*
X145074348Y-53048478D01*
X145199305Y-52923303D01*
X145233482Y-52867858D01*
X145288275Y-52778968D01*
X145288276Y-52778966D01*
X145292115Y-52772738D01*
X145309663Y-52719832D01*
X145350094Y-52661473D01*
X145415658Y-52634236D01*
X145429256Y-52633500D01*
X146097906Y-52633500D01*
X146166027Y-52653502D01*
G37*
%TD.AperFunction*%
%TA.AperFunction,Conductor*%
G36*
X145558085Y-47114301D02*
G01*
X145585323Y-47143450D01*
X145606679Y-47175171D01*
X145671798Y-47271896D01*
X145833276Y-47441168D01*
X146020965Y-47580813D01*
X146025716Y-47583229D01*
X146025720Y-47583231D01*
X146224744Y-47684420D01*
X146229500Y-47686838D01*
X146452917Y-47756210D01*
X146458204Y-47756911D01*
X146458205Y-47756911D01*
X146679545Y-47786248D01*
X146679549Y-47786248D01*
X146684829Y-47786948D01*
X146690158Y-47786748D01*
X146690160Y-47786748D01*
X146801717Y-47782560D01*
X146918604Y-47778172D01*
X147030813Y-47754628D01*
X147142332Y-47731229D01*
X147142335Y-47731228D01*
X147147559Y-47730132D01*
X147254655Y-47687838D01*
X147325361Y-47681420D01*
X147390031Y-47715935D01*
X148705075Y-49030979D01*
X148739101Y-49093291D01*
X148741980Y-49120074D01*
X148741980Y-49341436D01*
X148721978Y-49409557D01*
X148668322Y-49456050D01*
X148606857Y-49466173D01*
X148606815Y-49466992D01*
X148603598Y-49466828D01*
X148600400Y-49466500D01*
X147824600Y-49466500D01*
X147821354Y-49466837D01*
X147821350Y-49466837D01*
X147725692Y-49476762D01*
X147725688Y-49476763D01*
X147718834Y-49477474D01*
X147712298Y-49479655D01*
X147712296Y-49479655D01*
X147580194Y-49523728D01*
X147551054Y-49533450D01*
X147400652Y-49626522D01*
X147275695Y-49751697D01*
X147182885Y-49902262D01*
X147127203Y-50070139D01*
X147116500Y-50174600D01*
X147116500Y-51225400D01*
X147116837Y-51228646D01*
X147116837Y-51228650D01*
X147126618Y-51322914D01*
X147127474Y-51331166D01*
X147129655Y-51337702D01*
X147129655Y-51337704D01*
X147166199Y-51447238D01*
X147183450Y-51498946D01*
X147187304Y-51505174D01*
X147187305Y-51505176D01*
X147223163Y-51563121D01*
X147242001Y-51631573D01*
X147220840Y-51699342D01*
X147166399Y-51744914D01*
X147095963Y-51753818D01*
X147026924Y-51718519D01*
X146916152Y-51607747D01*
X146908612Y-51599461D01*
X146904500Y-51592982D01*
X146854848Y-51546356D01*
X146852007Y-51543602D01*
X146832270Y-51523865D01*
X146829073Y-51521385D01*
X146820051Y-51513680D01*
X146793600Y-51488841D01*
X146787821Y-51483414D01*
X146780875Y-51479595D01*
X146780872Y-51479593D01*
X146770066Y-51473652D01*
X146753547Y-51462801D01*
X146744967Y-51456146D01*
X146737541Y-51450386D01*
X146730272Y-51447241D01*
X146730268Y-51447238D01*
X146696963Y-51432826D01*
X146686313Y-51427609D01*
X146647560Y-51406305D01*
X146627937Y-51401267D01*
X146609234Y-51394863D01*
X146597920Y-51389967D01*
X146597919Y-51389967D01*
X146590645Y-51386819D01*
X146582822Y-51385580D01*
X146582812Y-51385577D01*
X146546976Y-51379901D01*
X146535356Y-51377495D01*
X146500211Y-51368472D01*
X146500210Y-51368472D01*
X146492530Y-51366500D01*
X146472276Y-51366500D01*
X146452565Y-51364949D01*
X146440386Y-51363020D01*
X146432557Y-51361780D01*
X146424665Y-51362526D01*
X146388539Y-51365941D01*
X146376681Y-51366500D01*
X145429197Y-51366500D01*
X145361076Y-51346498D01*
X145314583Y-51292842D01*
X145309674Y-51280377D01*
X145293867Y-51232998D01*
X145293866Y-51232996D01*
X145291550Y-51226054D01*
X145198478Y-51075652D01*
X145073303Y-50950695D01*
X144922738Y-50857885D01*
X144916137Y-50855696D01*
X144862965Y-50808877D01*
X144843500Y-50741600D01*
X144843500Y-47703990D01*
X144863502Y-47635869D01*
X144904135Y-47596271D01*
X145020580Y-47525611D01*
X145020584Y-47525608D01*
X145025144Y-47522841D01*
X145201834Y-47369517D01*
X145350165Y-47188614D01*
X145352801Y-47183984D01*
X145352804Y-47183979D01*
X145371301Y-47151484D01*
X145422384Y-47102178D01*
X145492015Y-47088317D01*
X145558085Y-47114301D01*
G37*
%TD.AperFunction*%
%TD*%
M02*
