M48
; DRILL file {KiCad 9.0.6} date 2026-05-11T20:36:49+1000
; FORMAT={-:-/ absolute / inch / decimal}
; #@! TF.CreationDate,2026-05-11T20:36:49+10:00
; #@! TF.GenerationSoftware,Kicad,Pcbnew,9.0.6
; #@! TF.FileFunction,Plated,1,2,PTH
FMAT,2
INCH
; #@! TA.AperFunction,Plated,PTH,ViaDrill
T1C0.0157
; #@! TA.AperFunction,Plated,PTH,ComponentDrill
T2C0.0469
; #@! TA.AperFunction,Plated,PTH,ComponentDrill
T3C0.0472
%
G90
G05
T1
X5.1681Y-2.4476
X5.2228Y-2.7705
X5.378Y-2.5396
X5.4063Y-2.4476
X5.4894Y-2.7673
X5.4921Y-2.3827
X5.5717Y-2.2638
X5.687Y-2.5776
X5.7508Y-2.0063
X5.7783Y-2.1583
X5.9713Y-1.9953
X6.0091Y-2.3551
X6.0476Y-2.5
T2
X4.9681Y-1.7547
X4.9681Y-1.8547
X4.9681Y-2.0346
X4.9681Y-2.1346
X4.9681Y-2.2346
X4.9681Y-2.4327
X4.9681Y-2.5327
X4.9681Y-2.7075
X4.9681Y-2.8075
X4.9681Y-2.9075
X5.3165Y-1.8181
X5.4165Y-1.8181
X5.5165Y-1.8181
X5.6776Y-1.8181
X5.7504Y-3.0461
X5.7776Y-1.8181
X5.8504Y-3.0461
X5.8776Y-1.8181
X5.9504Y-3.0461
T3
X5.2272Y-2.048
M30
