%TF.GenerationSoftware,KiCad,Pcbnew,9.0.6*%
%TF.CreationDate,2026-05-21T15:54:31+10:00*%
%TF.ProjectId,LTC1779_CV Controlled_Non-Inv,4c544331-3737-4395-9f43-5620436f6e74,rev?*%
%TF.SameCoordinates,Original*%
%TF.FileFunction,Legend,Bot*%
%TF.FilePolarity,Positive*%
%FSLAX46Y46*%
G04 Gerber Fmt 4.6, Leading zero omitted, Abs format (unit mm)*
G04 Created by KiCad (PCBNEW 9.0.6) date 2026-05-21 15:54:31*
%MOMM*%
%LPD*%
G01*
G04 APERTURE LIST*
G04 Aperture macros list*
%AMRoundRect*
0 Rectangle with rounded corners*
0 $1 Rounding radius*
0 $2 $3 $4 $5 $6 $7 $8 $9 X,Y pos of 4 corners*
0 Add a 4 corners polygon primitive as box body*
4,1,4,$2,$3,$4,$5,$6,$7,$8,$9,$2,$3,0*
0 Add four circle primitives for the rounded corners*
1,1,$1+$1,$2,$3*
1,1,$1+$1,$4,$5*
1,1,$1+$1,$6,$7*
1,1,$1+$1,$8,$9*
0 Add four rect primitives between the rounded corners*
20,1,$1+$1,$2,$3,$4,$5,0*
20,1,$1+$1,$4,$5,$6,$7,0*
20,1,$1+$1,$6,$7,$8,$9,0*
20,1,$1+$1,$8,$9,$2,$3,0*%
G04 Aperture macros list end*
%ADD10C,0.050000*%
%ADD11C,0.000000*%
%ADD12RoundRect,0.250000X-0.845000X0.620000X-0.845000X-0.620000X0.845000X-0.620000X0.845000X0.620000X0*%
%ADD13O,2.190000X1.740000*%
%ADD14RoundRect,0.250000X0.620000X0.845000X-0.620000X0.845000X-0.620000X-0.845000X0.620000X-0.845000X0*%
%ADD15O,1.740000X2.190000*%
%ADD16C,2.500000*%
%ADD17C,2.000000*%
%ADD18RoundRect,0.250000X-0.620000X-0.845000X0.620000X-0.845000X0.620000X0.845000X-0.620000X0.845000X0*%
G04 APERTURE END LIST*
D10*
X137939522Y-44424900D02*
X137868094Y-44448709D01*
X137868094Y-44448709D02*
X137749046Y-44448709D01*
X137749046Y-44448709D02*
X137701427Y-44424900D01*
X137701427Y-44424900D02*
X137677618Y-44401090D01*
X137677618Y-44401090D02*
X137653808Y-44353471D01*
X137653808Y-44353471D02*
X137653808Y-44305852D01*
X137653808Y-44305852D02*
X137677618Y-44258233D01*
X137677618Y-44258233D02*
X137701427Y-44234423D01*
X137701427Y-44234423D02*
X137749046Y-44210614D01*
X137749046Y-44210614D02*
X137844284Y-44186804D01*
X137844284Y-44186804D02*
X137891903Y-44162995D01*
X137891903Y-44162995D02*
X137915713Y-44139185D01*
X137915713Y-44139185D02*
X137939522Y-44091566D01*
X137939522Y-44091566D02*
X137939522Y-44043947D01*
X137939522Y-44043947D02*
X137915713Y-43996328D01*
X137915713Y-43996328D02*
X137891903Y-43972519D01*
X137891903Y-43972519D02*
X137844284Y-43948709D01*
X137844284Y-43948709D02*
X137725237Y-43948709D01*
X137725237Y-43948709D02*
X137653808Y-43972519D01*
X137439523Y-44186804D02*
X137272856Y-44186804D01*
X137201428Y-44448709D02*
X137439523Y-44448709D01*
X137439523Y-44448709D02*
X137439523Y-43948709D01*
X137439523Y-43948709D02*
X137201428Y-43948709D01*
X137058570Y-43948709D02*
X136772856Y-43948709D01*
X136915713Y-44448709D02*
X136915713Y-43948709D01*
X140640952Y-43972519D02*
X140688571Y-43948709D01*
X140688571Y-43948709D02*
X140760000Y-43948709D01*
X140760000Y-43948709D02*
X140831428Y-43972519D01*
X140831428Y-43972519D02*
X140879047Y-44020138D01*
X140879047Y-44020138D02*
X140902857Y-44067757D01*
X140902857Y-44067757D02*
X140926666Y-44162995D01*
X140926666Y-44162995D02*
X140926666Y-44234423D01*
X140926666Y-44234423D02*
X140902857Y-44329661D01*
X140902857Y-44329661D02*
X140879047Y-44377280D01*
X140879047Y-44377280D02*
X140831428Y-44424900D01*
X140831428Y-44424900D02*
X140760000Y-44448709D01*
X140760000Y-44448709D02*
X140712381Y-44448709D01*
X140712381Y-44448709D02*
X140640952Y-44424900D01*
X140640952Y-44424900D02*
X140617143Y-44401090D01*
X140617143Y-44401090D02*
X140617143Y-44234423D01*
X140617143Y-44234423D02*
X140712381Y-44234423D01*
X140402857Y-44448709D02*
X140402857Y-43948709D01*
X140402857Y-43948709D02*
X140117143Y-44448709D01*
X140117143Y-44448709D02*
X140117143Y-43948709D01*
X139879047Y-44448709D02*
X139879047Y-43948709D01*
X139879047Y-43948709D02*
X139759999Y-43948709D01*
X139759999Y-43948709D02*
X139688571Y-43972519D01*
X139688571Y-43972519D02*
X139640952Y-44020138D01*
X139640952Y-44020138D02*
X139617142Y-44067757D01*
X139617142Y-44067757D02*
X139593333Y-44162995D01*
X139593333Y-44162995D02*
X139593333Y-44234423D01*
X139593333Y-44234423D02*
X139617142Y-44329661D01*
X139617142Y-44329661D02*
X139640952Y-44377280D01*
X139640952Y-44377280D02*
X139688571Y-44424900D01*
X139688571Y-44424900D02*
X139759999Y-44448709D01*
X139759999Y-44448709D02*
X139879047Y-44448709D01*
X129224284Y-46956328D02*
X129200475Y-46932519D01*
X129200475Y-46932519D02*
X129152856Y-46908709D01*
X129152856Y-46908709D02*
X129033808Y-46908709D01*
X129033808Y-46908709D02*
X128986189Y-46932519D01*
X128986189Y-46932519D02*
X128962380Y-46956328D01*
X128962380Y-46956328D02*
X128938570Y-47003947D01*
X128938570Y-47003947D02*
X128938570Y-47051566D01*
X128938570Y-47051566D02*
X128962380Y-47122995D01*
X128962380Y-47122995D02*
X129248094Y-47408709D01*
X129248094Y-47408709D02*
X128938570Y-47408709D01*
X128724285Y-47361090D02*
X128700475Y-47384900D01*
X128700475Y-47384900D02*
X128724285Y-47408709D01*
X128724285Y-47408709D02*
X128748094Y-47384900D01*
X128748094Y-47384900D02*
X128724285Y-47361090D01*
X128724285Y-47361090D02*
X128724285Y-47408709D01*
X128248095Y-46908709D02*
X128486190Y-46908709D01*
X128486190Y-46908709D02*
X128509999Y-47146804D01*
X128509999Y-47146804D02*
X128486190Y-47122995D01*
X128486190Y-47122995D02*
X128438571Y-47099185D01*
X128438571Y-47099185D02*
X128319523Y-47099185D01*
X128319523Y-47099185D02*
X128271904Y-47122995D01*
X128271904Y-47122995D02*
X128248095Y-47146804D01*
X128248095Y-47146804D02*
X128224285Y-47194423D01*
X128224285Y-47194423D02*
X128224285Y-47313471D01*
X128224285Y-47313471D02*
X128248095Y-47361090D01*
X128248095Y-47361090D02*
X128271904Y-47384900D01*
X128271904Y-47384900D02*
X128319523Y-47408709D01*
X128319523Y-47408709D02*
X128438571Y-47408709D01*
X128438571Y-47408709D02*
X128486190Y-47384900D01*
X128486190Y-47384900D02*
X128509999Y-47361090D01*
X128081428Y-46908709D02*
X127914762Y-47408709D01*
X127914762Y-47408709D02*
X127748095Y-46908709D01*
X135414761Y-43948709D02*
X135652856Y-43948709D01*
X135652856Y-43948709D02*
X135676665Y-44186804D01*
X135676665Y-44186804D02*
X135652856Y-44162995D01*
X135652856Y-44162995D02*
X135605237Y-44139185D01*
X135605237Y-44139185D02*
X135486189Y-44139185D01*
X135486189Y-44139185D02*
X135438570Y-44162995D01*
X135438570Y-44162995D02*
X135414761Y-44186804D01*
X135414761Y-44186804D02*
X135390951Y-44234423D01*
X135390951Y-44234423D02*
X135390951Y-44353471D01*
X135390951Y-44353471D02*
X135414761Y-44401090D01*
X135414761Y-44401090D02*
X135438570Y-44424900D01*
X135438570Y-44424900D02*
X135486189Y-44448709D01*
X135486189Y-44448709D02*
X135605237Y-44448709D01*
X135605237Y-44448709D02*
X135652856Y-44424900D01*
X135652856Y-44424900D02*
X135676665Y-44401090D01*
X135248094Y-43948709D02*
X135081428Y-44448709D01*
X135081428Y-44448709D02*
X134914761Y-43948709D01*
X134748095Y-44258233D02*
X134367143Y-44258233D01*
X134557619Y-44448709D02*
X134557619Y-44067757D01*
X123981090Y-44869048D02*
X124004900Y-44845239D01*
X124004900Y-44845239D02*
X124028709Y-44773810D01*
X124028709Y-44773810D02*
X124028709Y-44726191D01*
X124028709Y-44726191D02*
X124004900Y-44654763D01*
X124004900Y-44654763D02*
X123957280Y-44607144D01*
X123957280Y-44607144D02*
X123909661Y-44583334D01*
X123909661Y-44583334D02*
X123814423Y-44559525D01*
X123814423Y-44559525D02*
X123742995Y-44559525D01*
X123742995Y-44559525D02*
X123647757Y-44583334D01*
X123647757Y-44583334D02*
X123600138Y-44607144D01*
X123600138Y-44607144D02*
X123552519Y-44654763D01*
X123552519Y-44654763D02*
X123528709Y-44726191D01*
X123528709Y-44726191D02*
X123528709Y-44773810D01*
X123528709Y-44773810D02*
X123552519Y-44845239D01*
X123552519Y-44845239D02*
X123576328Y-44869048D01*
X123528709Y-45011906D02*
X124028709Y-45178572D01*
X124028709Y-45178572D02*
X123528709Y-45345239D01*
X123981090Y-45511905D02*
X124004900Y-45535715D01*
X124004900Y-45535715D02*
X124028709Y-45511905D01*
X124028709Y-45511905D02*
X124004900Y-45488096D01*
X124004900Y-45488096D02*
X123981090Y-45511905D01*
X123981090Y-45511905D02*
X124028709Y-45511905D01*
X124028709Y-46011905D02*
X124028709Y-45726191D01*
X124028709Y-45869048D02*
X123528709Y-45869048D01*
X123528709Y-45869048D02*
X123600138Y-45821429D01*
X123600138Y-45821429D02*
X123647757Y-45773810D01*
X123647757Y-45773810D02*
X123671566Y-45726191D01*
X123981090Y-46226190D02*
X124004900Y-46250000D01*
X124004900Y-46250000D02*
X124028709Y-46226190D01*
X124028709Y-46226190D02*
X124004900Y-46202381D01*
X124004900Y-46202381D02*
X123981090Y-46226190D01*
X123981090Y-46226190D02*
X124028709Y-46226190D01*
X124028709Y-46464285D02*
X123695376Y-46464285D01*
X123528709Y-46464285D02*
X123552519Y-46440476D01*
X123552519Y-46440476D02*
X123576328Y-46464285D01*
X123576328Y-46464285D02*
X123552519Y-46488095D01*
X123552519Y-46488095D02*
X123528709Y-46464285D01*
X123528709Y-46464285D02*
X123576328Y-46464285D01*
X123695376Y-46702380D02*
X124028709Y-46702380D01*
X123742995Y-46702380D02*
X123719185Y-46726190D01*
X123719185Y-46726190D02*
X123695376Y-46773809D01*
X123695376Y-46773809D02*
X123695376Y-46845237D01*
X123695376Y-46845237D02*
X123719185Y-46892856D01*
X123719185Y-46892856D02*
X123766804Y-46916666D01*
X123766804Y-46916666D02*
X124028709Y-46916666D01*
X149967618Y-79558709D02*
X149681904Y-79558709D01*
X149824761Y-80058709D02*
X149824761Y-79558709D01*
X149443809Y-80058709D02*
X149491428Y-80034900D01*
X149491428Y-80034900D02*
X149515238Y-80011090D01*
X149515238Y-80011090D02*
X149539047Y-79963471D01*
X149539047Y-79963471D02*
X149539047Y-79820614D01*
X149539047Y-79820614D02*
X149515238Y-79772995D01*
X149515238Y-79772995D02*
X149491428Y-79749185D01*
X149491428Y-79749185D02*
X149443809Y-79725376D01*
X149443809Y-79725376D02*
X149372381Y-79725376D01*
X149372381Y-79725376D02*
X149324762Y-79749185D01*
X149324762Y-79749185D02*
X149300952Y-79772995D01*
X149300952Y-79772995D02*
X149277143Y-79820614D01*
X149277143Y-79820614D02*
X149277143Y-79963471D01*
X149277143Y-79963471D02*
X149300952Y-80011090D01*
X149300952Y-80011090D02*
X149324762Y-80034900D01*
X149324762Y-80034900D02*
X149372381Y-80058709D01*
X149372381Y-80058709D02*
X149443809Y-80058709D01*
X149062857Y-80011090D02*
X149039047Y-80034900D01*
X149039047Y-80034900D02*
X149062857Y-80058709D01*
X149062857Y-80058709D02*
X149086666Y-80034900D01*
X149086666Y-80034900D02*
X149062857Y-80011090D01*
X149062857Y-80011090D02*
X149062857Y-80058709D01*
X148824762Y-80058709D02*
X148824762Y-79558709D01*
X148824762Y-79749185D02*
X148777143Y-79725376D01*
X148777143Y-79725376D02*
X148681905Y-79725376D01*
X148681905Y-79725376D02*
X148634286Y-79749185D01*
X148634286Y-79749185D02*
X148610476Y-79772995D01*
X148610476Y-79772995D02*
X148586667Y-79820614D01*
X148586667Y-79820614D02*
X148586667Y-79963471D01*
X148586667Y-79963471D02*
X148610476Y-80011090D01*
X148610476Y-80011090D02*
X148634286Y-80034900D01*
X148634286Y-80034900D02*
X148681905Y-80058709D01*
X148681905Y-80058709D02*
X148777143Y-80058709D01*
X148777143Y-80058709D02*
X148824762Y-80034900D01*
X148300952Y-80058709D02*
X148348571Y-80034900D01*
X148348571Y-80034900D02*
X148372381Y-80011090D01*
X148372381Y-80011090D02*
X148396190Y-79963471D01*
X148396190Y-79963471D02*
X148396190Y-79820614D01*
X148396190Y-79820614D02*
X148372381Y-79772995D01*
X148372381Y-79772995D02*
X148348571Y-79749185D01*
X148348571Y-79749185D02*
X148300952Y-79725376D01*
X148300952Y-79725376D02*
X148229524Y-79725376D01*
X148229524Y-79725376D02*
X148181905Y-79749185D01*
X148181905Y-79749185D02*
X148158095Y-79772995D01*
X148158095Y-79772995D02*
X148134286Y-79820614D01*
X148134286Y-79820614D02*
X148134286Y-79963471D01*
X148134286Y-79963471D02*
X148158095Y-80011090D01*
X148158095Y-80011090D02*
X148181905Y-80034900D01*
X148181905Y-80034900D02*
X148229524Y-80058709D01*
X148229524Y-80058709D02*
X148300952Y-80058709D01*
X147705714Y-80058709D02*
X147705714Y-79796804D01*
X147705714Y-79796804D02*
X147729524Y-79749185D01*
X147729524Y-79749185D02*
X147777143Y-79725376D01*
X147777143Y-79725376D02*
X147872381Y-79725376D01*
X147872381Y-79725376D02*
X147920000Y-79749185D01*
X147705714Y-80034900D02*
X147753333Y-80058709D01*
X147753333Y-80058709D02*
X147872381Y-80058709D01*
X147872381Y-80058709D02*
X147920000Y-80034900D01*
X147920000Y-80034900D02*
X147943809Y-79987280D01*
X147943809Y-79987280D02*
X147943809Y-79939661D01*
X147943809Y-79939661D02*
X147920000Y-79892042D01*
X147920000Y-79892042D02*
X147872381Y-79868233D01*
X147872381Y-79868233D02*
X147753333Y-79868233D01*
X147753333Y-79868233D02*
X147705714Y-79844423D01*
X147467619Y-80058709D02*
X147467619Y-79725376D01*
X147467619Y-79820614D02*
X147443809Y-79772995D01*
X147443809Y-79772995D02*
X147420000Y-79749185D01*
X147420000Y-79749185D02*
X147372381Y-79725376D01*
X147372381Y-79725376D02*
X147324762Y-79725376D01*
X146943809Y-80058709D02*
X146943809Y-79558709D01*
X146943809Y-80034900D02*
X146991428Y-80058709D01*
X146991428Y-80058709D02*
X147086666Y-80058709D01*
X147086666Y-80058709D02*
X147134285Y-80034900D01*
X147134285Y-80034900D02*
X147158095Y-80011090D01*
X147158095Y-80011090D02*
X147181904Y-79963471D01*
X147181904Y-79963471D02*
X147181904Y-79820614D01*
X147181904Y-79820614D02*
X147158095Y-79772995D01*
X147158095Y-79772995D02*
X147134285Y-79749185D01*
X147134285Y-79749185D02*
X147086666Y-79725376D01*
X147086666Y-79725376D02*
X146991428Y-79725376D01*
X146991428Y-79725376D02*
X146943809Y-79749185D01*
X123981090Y-62229048D02*
X124004900Y-62205239D01*
X124004900Y-62205239D02*
X124028709Y-62133810D01*
X124028709Y-62133810D02*
X124028709Y-62086191D01*
X124028709Y-62086191D02*
X124004900Y-62014763D01*
X124004900Y-62014763D02*
X123957280Y-61967144D01*
X123957280Y-61967144D02*
X123909661Y-61943334D01*
X123909661Y-61943334D02*
X123814423Y-61919525D01*
X123814423Y-61919525D02*
X123742995Y-61919525D01*
X123742995Y-61919525D02*
X123647757Y-61943334D01*
X123647757Y-61943334D02*
X123600138Y-61967144D01*
X123600138Y-61967144D02*
X123552519Y-62014763D01*
X123552519Y-62014763D02*
X123528709Y-62086191D01*
X123528709Y-62086191D02*
X123528709Y-62133810D01*
X123528709Y-62133810D02*
X123552519Y-62205239D01*
X123552519Y-62205239D02*
X123576328Y-62229048D01*
X123528709Y-62371906D02*
X124028709Y-62538572D01*
X124028709Y-62538572D02*
X123528709Y-62705239D01*
X123981090Y-62871905D02*
X124004900Y-62895715D01*
X124004900Y-62895715D02*
X124028709Y-62871905D01*
X124028709Y-62871905D02*
X124004900Y-62848096D01*
X124004900Y-62848096D02*
X123981090Y-62871905D01*
X123981090Y-62871905D02*
X124028709Y-62871905D01*
X123576328Y-63086191D02*
X123552519Y-63110000D01*
X123552519Y-63110000D02*
X123528709Y-63157619D01*
X123528709Y-63157619D02*
X123528709Y-63276667D01*
X123528709Y-63276667D02*
X123552519Y-63324286D01*
X123552519Y-63324286D02*
X123576328Y-63348095D01*
X123576328Y-63348095D02*
X123623947Y-63371905D01*
X123623947Y-63371905D02*
X123671566Y-63371905D01*
X123671566Y-63371905D02*
X123742995Y-63348095D01*
X123742995Y-63348095D02*
X124028709Y-63062381D01*
X124028709Y-63062381D02*
X124028709Y-63371905D01*
X123981090Y-63586190D02*
X124004900Y-63610000D01*
X124004900Y-63610000D02*
X124028709Y-63586190D01*
X124028709Y-63586190D02*
X124004900Y-63562381D01*
X124004900Y-63562381D02*
X123981090Y-63586190D01*
X123981090Y-63586190D02*
X124028709Y-63586190D01*
X124028709Y-63824285D02*
X123695376Y-63824285D01*
X123528709Y-63824285D02*
X123552519Y-63800476D01*
X123552519Y-63800476D02*
X123576328Y-63824285D01*
X123576328Y-63824285D02*
X123552519Y-63848095D01*
X123552519Y-63848095D02*
X123528709Y-63824285D01*
X123528709Y-63824285D02*
X123576328Y-63824285D01*
X123695376Y-64062380D02*
X124028709Y-64062380D01*
X123742995Y-64062380D02*
X123719185Y-64086190D01*
X123719185Y-64086190D02*
X123695376Y-64133809D01*
X123695376Y-64133809D02*
X123695376Y-64205237D01*
X123695376Y-64205237D02*
X123719185Y-64252856D01*
X123719185Y-64252856D02*
X123766804Y-64276666D01*
X123766804Y-64276666D02*
X124028709Y-64276666D01*
X123981090Y-70119048D02*
X124004900Y-70095239D01*
X124004900Y-70095239D02*
X124028709Y-70023810D01*
X124028709Y-70023810D02*
X124028709Y-69976191D01*
X124028709Y-69976191D02*
X124004900Y-69904763D01*
X124004900Y-69904763D02*
X123957280Y-69857144D01*
X123957280Y-69857144D02*
X123909661Y-69833334D01*
X123909661Y-69833334D02*
X123814423Y-69809525D01*
X123814423Y-69809525D02*
X123742995Y-69809525D01*
X123742995Y-69809525D02*
X123647757Y-69833334D01*
X123647757Y-69833334D02*
X123600138Y-69857144D01*
X123600138Y-69857144D02*
X123552519Y-69904763D01*
X123552519Y-69904763D02*
X123528709Y-69976191D01*
X123528709Y-69976191D02*
X123528709Y-70023810D01*
X123528709Y-70023810D02*
X123552519Y-70095239D01*
X123552519Y-70095239D02*
X123576328Y-70119048D01*
X123528709Y-70261906D02*
X124028709Y-70428572D01*
X124028709Y-70428572D02*
X123528709Y-70595239D01*
X123981090Y-70761905D02*
X124004900Y-70785715D01*
X124004900Y-70785715D02*
X124028709Y-70761905D01*
X124028709Y-70761905D02*
X124004900Y-70738096D01*
X124004900Y-70738096D02*
X123981090Y-70761905D01*
X123981090Y-70761905D02*
X124028709Y-70761905D01*
X123576328Y-70976191D02*
X123552519Y-71000000D01*
X123552519Y-71000000D02*
X123528709Y-71047619D01*
X123528709Y-71047619D02*
X123528709Y-71166667D01*
X123528709Y-71166667D02*
X123552519Y-71214286D01*
X123552519Y-71214286D02*
X123576328Y-71238095D01*
X123576328Y-71238095D02*
X123623947Y-71261905D01*
X123623947Y-71261905D02*
X123671566Y-71261905D01*
X123671566Y-71261905D02*
X123742995Y-71238095D01*
X123742995Y-71238095D02*
X124028709Y-70952381D01*
X124028709Y-70952381D02*
X124028709Y-71261905D01*
X123981090Y-71476190D02*
X124004900Y-71500000D01*
X124004900Y-71500000D02*
X124028709Y-71476190D01*
X124028709Y-71476190D02*
X124004900Y-71452381D01*
X124004900Y-71452381D02*
X123981090Y-71476190D01*
X123981090Y-71476190D02*
X124028709Y-71476190D01*
X123695376Y-71714285D02*
X124195376Y-71714285D01*
X123719185Y-71714285D02*
X123695376Y-71761904D01*
X123695376Y-71761904D02*
X123695376Y-71857142D01*
X123695376Y-71857142D02*
X123719185Y-71904761D01*
X123719185Y-71904761D02*
X123742995Y-71928571D01*
X123742995Y-71928571D02*
X123790614Y-71952380D01*
X123790614Y-71952380D02*
X123933471Y-71952380D01*
X123933471Y-71952380D02*
X123981090Y-71928571D01*
X123981090Y-71928571D02*
X124004900Y-71904761D01*
X124004900Y-71904761D02*
X124028709Y-71857142D01*
X124028709Y-71857142D02*
X124028709Y-71761904D01*
X124028709Y-71761904D02*
X124004900Y-71714285D01*
X124028709Y-72238095D02*
X124004900Y-72190476D01*
X124004900Y-72190476D02*
X123981090Y-72166666D01*
X123981090Y-72166666D02*
X123933471Y-72142857D01*
X123933471Y-72142857D02*
X123790614Y-72142857D01*
X123790614Y-72142857D02*
X123742995Y-72166666D01*
X123742995Y-72166666D02*
X123719185Y-72190476D01*
X123719185Y-72190476D02*
X123695376Y-72238095D01*
X123695376Y-72238095D02*
X123695376Y-72309523D01*
X123695376Y-72309523D02*
X123719185Y-72357142D01*
X123719185Y-72357142D02*
X123742995Y-72380952D01*
X123742995Y-72380952D02*
X123790614Y-72404761D01*
X123790614Y-72404761D02*
X123933471Y-72404761D01*
X123933471Y-72404761D02*
X123981090Y-72380952D01*
X123981090Y-72380952D02*
X124004900Y-72357142D01*
X124004900Y-72357142D02*
X124028709Y-72309523D01*
X124028709Y-72309523D02*
X124028709Y-72238095D01*
X123695376Y-72547619D02*
X123695376Y-72738095D01*
X123528709Y-72619047D02*
X123957280Y-72619047D01*
X123957280Y-72619047D02*
X124004900Y-72642857D01*
X124004900Y-72642857D02*
X124028709Y-72690476D01*
X124028709Y-72690476D02*
X124028709Y-72738095D01*
X149680952Y-43972519D02*
X149728571Y-43948709D01*
X149728571Y-43948709D02*
X149800000Y-43948709D01*
X149800000Y-43948709D02*
X149871428Y-43972519D01*
X149871428Y-43972519D02*
X149919047Y-44020138D01*
X149919047Y-44020138D02*
X149942857Y-44067757D01*
X149942857Y-44067757D02*
X149966666Y-44162995D01*
X149966666Y-44162995D02*
X149966666Y-44234423D01*
X149966666Y-44234423D02*
X149942857Y-44329661D01*
X149942857Y-44329661D02*
X149919047Y-44377280D01*
X149919047Y-44377280D02*
X149871428Y-44424900D01*
X149871428Y-44424900D02*
X149800000Y-44448709D01*
X149800000Y-44448709D02*
X149752381Y-44448709D01*
X149752381Y-44448709D02*
X149680952Y-44424900D01*
X149680952Y-44424900D02*
X149657143Y-44401090D01*
X149657143Y-44401090D02*
X149657143Y-44234423D01*
X149657143Y-44234423D02*
X149752381Y-44234423D01*
X149442857Y-44448709D02*
X149442857Y-43948709D01*
X149442857Y-43948709D02*
X149157143Y-44448709D01*
X149157143Y-44448709D02*
X149157143Y-43948709D01*
X148919047Y-44448709D02*
X148919047Y-43948709D01*
X148919047Y-43948709D02*
X148799999Y-43948709D01*
X148799999Y-43948709D02*
X148728571Y-43972519D01*
X148728571Y-43972519D02*
X148680952Y-44020138D01*
X148680952Y-44020138D02*
X148657142Y-44067757D01*
X148657142Y-44067757D02*
X148633333Y-44162995D01*
X148633333Y-44162995D02*
X148633333Y-44234423D01*
X148633333Y-44234423D02*
X148657142Y-44329661D01*
X148657142Y-44329661D02*
X148680952Y-44377280D01*
X148680952Y-44377280D02*
X148728571Y-44424900D01*
X148728571Y-44424900D02*
X148799999Y-44448709D01*
X148799999Y-44448709D02*
X148919047Y-44448709D01*
X129700951Y-44771090D02*
X129724760Y-44794900D01*
X129724760Y-44794900D02*
X129796189Y-44818709D01*
X129796189Y-44818709D02*
X129843808Y-44818709D01*
X129843808Y-44818709D02*
X129915236Y-44794900D01*
X129915236Y-44794900D02*
X129962855Y-44747280D01*
X129962855Y-44747280D02*
X129986665Y-44699661D01*
X129986665Y-44699661D02*
X130010474Y-44604423D01*
X130010474Y-44604423D02*
X130010474Y-44532995D01*
X130010474Y-44532995D02*
X129986665Y-44437757D01*
X129986665Y-44437757D02*
X129962855Y-44390138D01*
X129962855Y-44390138D02*
X129915236Y-44342519D01*
X129915236Y-44342519D02*
X129843808Y-44318709D01*
X129843808Y-44318709D02*
X129796189Y-44318709D01*
X129796189Y-44318709D02*
X129724760Y-44342519D01*
X129724760Y-44342519D02*
X129700951Y-44366328D01*
X129558093Y-44318709D02*
X129391427Y-44818709D01*
X129391427Y-44818709D02*
X129224760Y-44318709D01*
X129058094Y-44771090D02*
X129034284Y-44794900D01*
X129034284Y-44794900D02*
X129058094Y-44818709D01*
X129058094Y-44818709D02*
X129081903Y-44794900D01*
X129081903Y-44794900D02*
X129058094Y-44771090D01*
X129058094Y-44771090D02*
X129058094Y-44818709D01*
X128819999Y-44818709D02*
X128819999Y-44485376D01*
X128819999Y-44318709D02*
X128843808Y-44342519D01*
X128843808Y-44342519D02*
X128819999Y-44366328D01*
X128819999Y-44366328D02*
X128796189Y-44342519D01*
X128796189Y-44342519D02*
X128819999Y-44318709D01*
X128819999Y-44318709D02*
X128819999Y-44366328D01*
X128581904Y-44485376D02*
X128581904Y-44818709D01*
X128581904Y-44532995D02*
X128558094Y-44509185D01*
X128558094Y-44509185D02*
X128510475Y-44485376D01*
X128510475Y-44485376D02*
X128439047Y-44485376D01*
X128439047Y-44485376D02*
X128391428Y-44509185D01*
X128391428Y-44509185D02*
X128367618Y-44556804D01*
X128367618Y-44556804D02*
X128367618Y-44818709D01*
X128129523Y-44771090D02*
X128105713Y-44794900D01*
X128105713Y-44794900D02*
X128129523Y-44818709D01*
X128129523Y-44818709D02*
X128153332Y-44794900D01*
X128153332Y-44794900D02*
X128129523Y-44771090D01*
X128129523Y-44771090D02*
X128129523Y-44818709D01*
X127629523Y-44818709D02*
X127915237Y-44818709D01*
X127772380Y-44818709D02*
X127772380Y-44318709D01*
X127772380Y-44318709D02*
X127819999Y-44390138D01*
X127819999Y-44390138D02*
X127867618Y-44437757D01*
X127867618Y-44437757D02*
X127915237Y-44461566D01*
X149064523Y-75148709D02*
X149302618Y-75148709D01*
X149302618Y-75148709D02*
X149326427Y-75386804D01*
X149326427Y-75386804D02*
X149302618Y-75362995D01*
X149302618Y-75362995D02*
X149254999Y-75339185D01*
X149254999Y-75339185D02*
X149135951Y-75339185D01*
X149135951Y-75339185D02*
X149088332Y-75362995D01*
X149088332Y-75362995D02*
X149064523Y-75386804D01*
X149064523Y-75386804D02*
X149040713Y-75434423D01*
X149040713Y-75434423D02*
X149040713Y-75553471D01*
X149040713Y-75553471D02*
X149064523Y-75601090D01*
X149064523Y-75601090D02*
X149088332Y-75624900D01*
X149088332Y-75624900D02*
X149135951Y-75648709D01*
X149135951Y-75648709D02*
X149254999Y-75648709D01*
X149254999Y-75648709D02*
X149302618Y-75624900D01*
X149302618Y-75624900D02*
X149326427Y-75601090D01*
X148897856Y-75148709D02*
X148731190Y-75648709D01*
X148731190Y-75648709D02*
X148564523Y-75148709D01*
X148397857Y-75458233D02*
X148016905Y-75458233D01*
X148207381Y-75648709D02*
X148207381Y-75267757D01*
X144584761Y-43948709D02*
X144822856Y-43948709D01*
X144822856Y-43948709D02*
X144846665Y-44186804D01*
X144846665Y-44186804D02*
X144822856Y-44162995D01*
X144822856Y-44162995D02*
X144775237Y-44139185D01*
X144775237Y-44139185D02*
X144656189Y-44139185D01*
X144656189Y-44139185D02*
X144608570Y-44162995D01*
X144608570Y-44162995D02*
X144584761Y-44186804D01*
X144584761Y-44186804D02*
X144560951Y-44234423D01*
X144560951Y-44234423D02*
X144560951Y-44353471D01*
X144560951Y-44353471D02*
X144584761Y-44401090D01*
X144584761Y-44401090D02*
X144608570Y-44424900D01*
X144608570Y-44424900D02*
X144656189Y-44448709D01*
X144656189Y-44448709D02*
X144775237Y-44448709D01*
X144775237Y-44448709D02*
X144822856Y-44424900D01*
X144822856Y-44424900D02*
X144846665Y-44401090D01*
X144418094Y-43948709D02*
X144251428Y-44448709D01*
X144251428Y-44448709D02*
X144084761Y-43948709D01*
X143918095Y-44258233D02*
X143537143Y-44258233D01*
X143727619Y-44448709D02*
X143727619Y-44067757D01*
X123981090Y-53079048D02*
X124004900Y-53055239D01*
X124004900Y-53055239D02*
X124028709Y-52983810D01*
X124028709Y-52983810D02*
X124028709Y-52936191D01*
X124028709Y-52936191D02*
X124004900Y-52864763D01*
X124004900Y-52864763D02*
X123957280Y-52817144D01*
X123957280Y-52817144D02*
X123909661Y-52793334D01*
X123909661Y-52793334D02*
X123814423Y-52769525D01*
X123814423Y-52769525D02*
X123742995Y-52769525D01*
X123742995Y-52769525D02*
X123647757Y-52793334D01*
X123647757Y-52793334D02*
X123600138Y-52817144D01*
X123600138Y-52817144D02*
X123552519Y-52864763D01*
X123552519Y-52864763D02*
X123528709Y-52936191D01*
X123528709Y-52936191D02*
X123528709Y-52983810D01*
X123528709Y-52983810D02*
X123552519Y-53055239D01*
X123552519Y-53055239D02*
X123576328Y-53079048D01*
X123528709Y-53221906D02*
X124028709Y-53388572D01*
X124028709Y-53388572D02*
X123528709Y-53555239D01*
X123981090Y-53721905D02*
X124004900Y-53745715D01*
X124004900Y-53745715D02*
X124028709Y-53721905D01*
X124028709Y-53721905D02*
X124004900Y-53698096D01*
X124004900Y-53698096D02*
X123981090Y-53721905D01*
X123981090Y-53721905D02*
X124028709Y-53721905D01*
X124028709Y-54221905D02*
X124028709Y-53936191D01*
X124028709Y-54079048D02*
X123528709Y-54079048D01*
X123528709Y-54079048D02*
X123600138Y-54031429D01*
X123600138Y-54031429D02*
X123647757Y-53983810D01*
X123647757Y-53983810D02*
X123671566Y-53936191D01*
X123981090Y-54436190D02*
X124004900Y-54460000D01*
X124004900Y-54460000D02*
X124028709Y-54436190D01*
X124028709Y-54436190D02*
X124004900Y-54412381D01*
X124004900Y-54412381D02*
X123981090Y-54436190D01*
X123981090Y-54436190D02*
X124028709Y-54436190D01*
X123695376Y-54674285D02*
X124195376Y-54674285D01*
X123719185Y-54674285D02*
X123695376Y-54721904D01*
X123695376Y-54721904D02*
X123695376Y-54817142D01*
X123695376Y-54817142D02*
X123719185Y-54864761D01*
X123719185Y-54864761D02*
X123742995Y-54888571D01*
X123742995Y-54888571D02*
X123790614Y-54912380D01*
X123790614Y-54912380D02*
X123933471Y-54912380D01*
X123933471Y-54912380D02*
X123981090Y-54888571D01*
X123981090Y-54888571D02*
X124004900Y-54864761D01*
X124004900Y-54864761D02*
X124028709Y-54817142D01*
X124028709Y-54817142D02*
X124028709Y-54721904D01*
X124028709Y-54721904D02*
X124004900Y-54674285D01*
X124028709Y-55198095D02*
X124004900Y-55150476D01*
X124004900Y-55150476D02*
X123981090Y-55126666D01*
X123981090Y-55126666D02*
X123933471Y-55102857D01*
X123933471Y-55102857D02*
X123790614Y-55102857D01*
X123790614Y-55102857D02*
X123742995Y-55126666D01*
X123742995Y-55126666D02*
X123719185Y-55150476D01*
X123719185Y-55150476D02*
X123695376Y-55198095D01*
X123695376Y-55198095D02*
X123695376Y-55269523D01*
X123695376Y-55269523D02*
X123719185Y-55317142D01*
X123719185Y-55317142D02*
X123742995Y-55340952D01*
X123742995Y-55340952D02*
X123790614Y-55364761D01*
X123790614Y-55364761D02*
X123933471Y-55364761D01*
X123933471Y-55364761D02*
X123981090Y-55340952D01*
X123981090Y-55340952D02*
X124004900Y-55317142D01*
X124004900Y-55317142D02*
X124028709Y-55269523D01*
X124028709Y-55269523D02*
X124028709Y-55198095D01*
X123695376Y-55507619D02*
X123695376Y-55698095D01*
X123528709Y-55579047D02*
X123957280Y-55579047D01*
X123957280Y-55579047D02*
X124004900Y-55602857D01*
X124004900Y-55602857D02*
X124028709Y-55650476D01*
X124028709Y-55650476D02*
X124028709Y-55698095D01*
X129144284Y-64156328D02*
X129120475Y-64132519D01*
X129120475Y-64132519D02*
X129072856Y-64108709D01*
X129072856Y-64108709D02*
X128953808Y-64108709D01*
X128953808Y-64108709D02*
X128906189Y-64132519D01*
X128906189Y-64132519D02*
X128882380Y-64156328D01*
X128882380Y-64156328D02*
X128858570Y-64203947D01*
X128858570Y-64203947D02*
X128858570Y-64251566D01*
X128858570Y-64251566D02*
X128882380Y-64322995D01*
X128882380Y-64322995D02*
X129168094Y-64608709D01*
X129168094Y-64608709D02*
X128858570Y-64608709D01*
X128644285Y-64561090D02*
X128620475Y-64584900D01*
X128620475Y-64584900D02*
X128644285Y-64608709D01*
X128644285Y-64608709D02*
X128668094Y-64584900D01*
X128668094Y-64584900D02*
X128644285Y-64561090D01*
X128644285Y-64561090D02*
X128644285Y-64608709D01*
X128168095Y-64108709D02*
X128406190Y-64108709D01*
X128406190Y-64108709D02*
X128429999Y-64346804D01*
X128429999Y-64346804D02*
X128406190Y-64322995D01*
X128406190Y-64322995D02*
X128358571Y-64299185D01*
X128358571Y-64299185D02*
X128239523Y-64299185D01*
X128239523Y-64299185D02*
X128191904Y-64322995D01*
X128191904Y-64322995D02*
X128168095Y-64346804D01*
X128168095Y-64346804D02*
X128144285Y-64394423D01*
X128144285Y-64394423D02*
X128144285Y-64513471D01*
X128144285Y-64513471D02*
X128168095Y-64561090D01*
X128168095Y-64561090D02*
X128191904Y-64584900D01*
X128191904Y-64584900D02*
X128239523Y-64608709D01*
X128239523Y-64608709D02*
X128358571Y-64608709D01*
X128358571Y-64608709D02*
X128406190Y-64584900D01*
X128406190Y-64584900D02*
X128429999Y-64561090D01*
X128001428Y-64108709D02*
X127834762Y-64608709D01*
X127834762Y-64608709D02*
X127668095Y-64108709D01*
X147284285Y-44448709D02*
X147284285Y-43948709D01*
X147284285Y-43948709D02*
X147165237Y-43948709D01*
X147165237Y-43948709D02*
X147093809Y-43972519D01*
X147093809Y-43972519D02*
X147046190Y-44020138D01*
X147046190Y-44020138D02*
X147022380Y-44067757D01*
X147022380Y-44067757D02*
X146998571Y-44162995D01*
X146998571Y-44162995D02*
X146998571Y-44234423D01*
X146998571Y-44234423D02*
X147022380Y-44329661D01*
X147022380Y-44329661D02*
X147046190Y-44377280D01*
X147046190Y-44377280D02*
X147093809Y-44424900D01*
X147093809Y-44424900D02*
X147165237Y-44448709D01*
X147165237Y-44448709D02*
X147284285Y-44448709D01*
X146784285Y-44448709D02*
X146784285Y-43948709D01*
X146617618Y-43948709D02*
X146450952Y-44448709D01*
X146450952Y-44448709D02*
X146284285Y-43948709D01*
X146400952Y-75172519D02*
X146448571Y-75148709D01*
X146448571Y-75148709D02*
X146520000Y-75148709D01*
X146520000Y-75148709D02*
X146591428Y-75172519D01*
X146591428Y-75172519D02*
X146639047Y-75220138D01*
X146639047Y-75220138D02*
X146662857Y-75267757D01*
X146662857Y-75267757D02*
X146686666Y-75362995D01*
X146686666Y-75362995D02*
X146686666Y-75434423D01*
X146686666Y-75434423D02*
X146662857Y-75529661D01*
X146662857Y-75529661D02*
X146639047Y-75577280D01*
X146639047Y-75577280D02*
X146591428Y-75624900D01*
X146591428Y-75624900D02*
X146520000Y-75648709D01*
X146520000Y-75648709D02*
X146472381Y-75648709D01*
X146472381Y-75648709D02*
X146400952Y-75624900D01*
X146400952Y-75624900D02*
X146377143Y-75601090D01*
X146377143Y-75601090D02*
X146377143Y-75434423D01*
X146377143Y-75434423D02*
X146472381Y-75434423D01*
X146162857Y-75648709D02*
X146162857Y-75148709D01*
X146162857Y-75148709D02*
X145877143Y-75648709D01*
X145877143Y-75648709D02*
X145877143Y-75148709D01*
X145639047Y-75648709D02*
X145639047Y-75148709D01*
X145639047Y-75148709D02*
X145519999Y-75148709D01*
X145519999Y-75148709D02*
X145448571Y-75172519D01*
X145448571Y-75172519D02*
X145400952Y-75220138D01*
X145400952Y-75220138D02*
X145377142Y-75267757D01*
X145377142Y-75267757D02*
X145353333Y-75362995D01*
X145353333Y-75362995D02*
X145353333Y-75434423D01*
X145353333Y-75434423D02*
X145377142Y-75529661D01*
X145377142Y-75529661D02*
X145400952Y-75577280D01*
X145400952Y-75577280D02*
X145448571Y-75624900D01*
X145448571Y-75624900D02*
X145519999Y-75648709D01*
X145519999Y-75648709D02*
X145639047Y-75648709D01*
X151537619Y-75601090D02*
X151561428Y-75624900D01*
X151561428Y-75624900D02*
X151632857Y-75648709D01*
X151632857Y-75648709D02*
X151680476Y-75648709D01*
X151680476Y-75648709D02*
X151751904Y-75624900D01*
X151751904Y-75624900D02*
X151799523Y-75577280D01*
X151799523Y-75577280D02*
X151823333Y-75529661D01*
X151823333Y-75529661D02*
X151847142Y-75434423D01*
X151847142Y-75434423D02*
X151847142Y-75362995D01*
X151847142Y-75362995D02*
X151823333Y-75267757D01*
X151823333Y-75267757D02*
X151799523Y-75220138D01*
X151799523Y-75220138D02*
X151751904Y-75172519D01*
X151751904Y-75172519D02*
X151680476Y-75148709D01*
X151680476Y-75148709D02*
X151632857Y-75148709D01*
X151632857Y-75148709D02*
X151561428Y-75172519D01*
X151561428Y-75172519D02*
X151537619Y-75196328D01*
X151085238Y-75648709D02*
X151323333Y-75648709D01*
X151323333Y-75648709D02*
X151323333Y-75148709D01*
X150918571Y-75648709D02*
X150918571Y-75148709D01*
X150632857Y-75648709D02*
X150847142Y-75362995D01*
X150632857Y-75148709D02*
X150918571Y-75434423D01*
X129940951Y-61971090D02*
X129964760Y-61994900D01*
X129964760Y-61994900D02*
X130036189Y-62018709D01*
X130036189Y-62018709D02*
X130083808Y-62018709D01*
X130083808Y-62018709D02*
X130155236Y-61994900D01*
X130155236Y-61994900D02*
X130202855Y-61947280D01*
X130202855Y-61947280D02*
X130226665Y-61899661D01*
X130226665Y-61899661D02*
X130250474Y-61804423D01*
X130250474Y-61804423D02*
X130250474Y-61732995D01*
X130250474Y-61732995D02*
X130226665Y-61637757D01*
X130226665Y-61637757D02*
X130202855Y-61590138D01*
X130202855Y-61590138D02*
X130155236Y-61542519D01*
X130155236Y-61542519D02*
X130083808Y-61518709D01*
X130083808Y-61518709D02*
X130036189Y-61518709D01*
X130036189Y-61518709D02*
X129964760Y-61542519D01*
X129964760Y-61542519D02*
X129940951Y-61566328D01*
X129798093Y-61518709D02*
X129631427Y-62018709D01*
X129631427Y-62018709D02*
X129464760Y-61518709D01*
X129298094Y-61971090D02*
X129274284Y-61994900D01*
X129274284Y-61994900D02*
X129298094Y-62018709D01*
X129298094Y-62018709D02*
X129321903Y-61994900D01*
X129321903Y-61994900D02*
X129298094Y-61971090D01*
X129298094Y-61971090D02*
X129298094Y-62018709D01*
X129059999Y-62018709D02*
X129059999Y-61685376D01*
X129059999Y-61518709D02*
X129083808Y-61542519D01*
X129083808Y-61542519D02*
X129059999Y-61566328D01*
X129059999Y-61566328D02*
X129036189Y-61542519D01*
X129036189Y-61542519D02*
X129059999Y-61518709D01*
X129059999Y-61518709D02*
X129059999Y-61566328D01*
X128821904Y-61685376D02*
X128821904Y-62018709D01*
X128821904Y-61732995D02*
X128798094Y-61709185D01*
X128798094Y-61709185D02*
X128750475Y-61685376D01*
X128750475Y-61685376D02*
X128679047Y-61685376D01*
X128679047Y-61685376D02*
X128631428Y-61709185D01*
X128631428Y-61709185D02*
X128607618Y-61756804D01*
X128607618Y-61756804D02*
X128607618Y-62018709D01*
X128369523Y-61971090D02*
X128345713Y-61994900D01*
X128345713Y-61994900D02*
X128369523Y-62018709D01*
X128369523Y-62018709D02*
X128393332Y-61994900D01*
X128393332Y-61994900D02*
X128369523Y-61971090D01*
X128369523Y-61971090D02*
X128369523Y-62018709D01*
X128155237Y-61566328D02*
X128131428Y-61542519D01*
X128131428Y-61542519D02*
X128083809Y-61518709D01*
X128083809Y-61518709D02*
X127964761Y-61518709D01*
X127964761Y-61518709D02*
X127917142Y-61542519D01*
X127917142Y-61542519D02*
X127893333Y-61566328D01*
X127893333Y-61566328D02*
X127869523Y-61613947D01*
X127869523Y-61613947D02*
X127869523Y-61661566D01*
X127869523Y-61661566D02*
X127893333Y-61732995D01*
X127893333Y-61732995D02*
X128179047Y-62018709D01*
X128179047Y-62018709D02*
X127869523Y-62018709D01*
D11*
%TO.C,G\u002A\u002A\u002A*%
G36*
X144328995Y-69660294D02*
G01*
X144344601Y-69986498D01*
X144360884Y-70339259D01*
X144377597Y-70712607D01*
X144394492Y-71100575D01*
X144411324Y-71497193D01*
X144417502Y-71646522D01*
X144427844Y-71896493D01*
X144443806Y-72292506D01*
X144458962Y-72679263D01*
X144473065Y-73050794D01*
X144485869Y-73401133D01*
X144497045Y-73722011D01*
X144497125Y-73724309D01*
X144506588Y-74014353D01*
X144514010Y-74265298D01*
X144519143Y-74471174D01*
X144521741Y-74626013D01*
X144521556Y-74723845D01*
X144518342Y-74758702D01*
X144484648Y-74761121D01*
X144385519Y-74766476D01*
X144224959Y-74774524D01*
X144006848Y-74785084D01*
X143735066Y-74797979D01*
X143413494Y-74813028D01*
X143046012Y-74830054D01*
X142636501Y-74848876D01*
X142188841Y-74869316D01*
X141706913Y-74891196D01*
X141194598Y-74914335D01*
X140655776Y-74938555D01*
X140094326Y-74963678D01*
X139514131Y-74989523D01*
X138966613Y-75013735D01*
X138404436Y-75038330D01*
X137864815Y-75061670D01*
X137351618Y-75083599D01*
X136868711Y-75103961D01*
X136419959Y-75122599D01*
X136009229Y-75139357D01*
X135640387Y-75154080D01*
X135317298Y-75166612D01*
X135043830Y-75176796D01*
X134823849Y-75184477D01*
X134661219Y-75189498D01*
X134559809Y-75191703D01*
X134523483Y-75190937D01*
X134523303Y-75190645D01*
X134517504Y-75150632D01*
X134506486Y-75048089D01*
X134490760Y-74888899D01*
X134470837Y-74678940D01*
X134447227Y-74424093D01*
X134420442Y-74130239D01*
X134390991Y-73803257D01*
X134384174Y-73726847D01*
X137012093Y-73726847D01*
X137012596Y-73891053D01*
X137015573Y-74026308D01*
X137023014Y-74116900D01*
X137036903Y-74175851D01*
X137059226Y-74216181D01*
X137091967Y-74250913D01*
X137113428Y-74269672D01*
X137162896Y-74299080D01*
X137230704Y-74316135D01*
X137333728Y-74324029D01*
X137488842Y-74325951D01*
X137805843Y-74325951D01*
X137805843Y-74206614D01*
X137805843Y-74087278D01*
X137538384Y-74077199D01*
X137432462Y-74072748D01*
X137339764Y-74064632D01*
X137290053Y-74048916D01*
X137268432Y-74019983D01*
X137260005Y-73972214D01*
X137249085Y-73877310D01*
X137504193Y-73877310D01*
X137636156Y-73874831D01*
X137726283Y-73863861D01*
X137785799Y-73839646D01*
X137834338Y-73797436D01*
X137851257Y-73778090D01*
X137880378Y-73726847D01*
X138081930Y-73726847D01*
X138082433Y-73891053D01*
X138085410Y-74026308D01*
X138092851Y-74116900D01*
X138106740Y-74175851D01*
X138129063Y-74216181D01*
X138161804Y-74250913D01*
X138183265Y-74269672D01*
X138232733Y-74299080D01*
X138300541Y-74316135D01*
X138403565Y-74324029D01*
X138558679Y-74325951D01*
X138875680Y-74325951D01*
X138875680Y-74206614D01*
X138875680Y-74087278D01*
X138608221Y-74077199D01*
X138502299Y-74072748D01*
X138409601Y-74064632D01*
X138359889Y-74048916D01*
X138338269Y-74019983D01*
X138329842Y-73972214D01*
X138318922Y-73877310D01*
X138574030Y-73877310D01*
X138705993Y-73874831D01*
X138796120Y-73863861D01*
X138855636Y-73839646D01*
X138904175Y-73797436D01*
X138921094Y-73778090D01*
X138957001Y-73714905D01*
X138974564Y-73627171D01*
X138978401Y-73516309D01*
X139186278Y-73516309D01*
X139514131Y-73842799D01*
X139612192Y-73942422D01*
X139740740Y-74083401D01*
X139816895Y-74184587D01*
X139841984Y-74247620D01*
X139847052Y-74289768D01*
X139880582Y-74319034D01*
X139962773Y-74325951D01*
X140083561Y-74325951D01*
X140083561Y-74205163D01*
X140394158Y-74205163D01*
X140394158Y-74325951D01*
X140756523Y-74325951D01*
X141118887Y-74325951D01*
X141118887Y-74205163D01*
X141118872Y-74195969D01*
X141112255Y-74119858D01*
X141079055Y-74089717D01*
X140998099Y-74084375D01*
X140877311Y-74084375D01*
X140877311Y-73773777D01*
X140877311Y-73463179D01*
X140998099Y-73463179D01*
X141007292Y-73463164D01*
X141083403Y-73456548D01*
X141113544Y-73423347D01*
X141114754Y-73405009D01*
X141360463Y-73405009D01*
X141360533Y-73425015D01*
X141367845Y-73498340D01*
X141400873Y-73527180D01*
X141478851Y-73532201D01*
X141530847Y-73529951D01*
X141587128Y-73508719D01*
X141608266Y-73454551D01*
X141614931Y-73424016D01*
X141640287Y-73393270D01*
X141699100Y-73379851D01*
X141809104Y-73376902D01*
X141998914Y-73376902D01*
X141998914Y-73722011D01*
X141998914Y-74067119D01*
X141809104Y-74067119D01*
X141734328Y-74066167D01*
X141657951Y-74057580D01*
X141621843Y-74034300D01*
X141608266Y-73989470D01*
X141600023Y-73955575D01*
X141562689Y-73920639D01*
X141478851Y-73911820D01*
X141452989Y-73911978D01*
X141389443Y-73920808D01*
X141364672Y-73957994D01*
X141360463Y-74043848D01*
X141376641Y-74155494D01*
X141440336Y-74250913D01*
X141450570Y-74260229D01*
X141500569Y-74294367D01*
X141565880Y-74314307D01*
X141664379Y-74323638D01*
X141813940Y-74325951D01*
X141880908Y-74325692D01*
X142005109Y-74321587D01*
X142085075Y-74309491D01*
X142138408Y-74285592D01*
X142182708Y-74246077D01*
X142205032Y-74220170D01*
X142228994Y-74178536D01*
X142244377Y-74120597D01*
X142253050Y-74033175D01*
X142256883Y-73903093D01*
X142257745Y-73717174D01*
X142257242Y-73552968D01*
X142254266Y-73417713D01*
X142246825Y-73327121D01*
X142232935Y-73268171D01*
X142210612Y-73227840D01*
X142177872Y-73193108D01*
X142167638Y-73183793D01*
X142117640Y-73149654D01*
X142052328Y-73129714D01*
X141953829Y-73120383D01*
X141804268Y-73118070D01*
X142361278Y-73118070D01*
X142361278Y-73238858D01*
X142361278Y-73359646D01*
X142533832Y-73359646D01*
X142706387Y-73359646D01*
X142706387Y-73717174D01*
X142706387Y-73842799D01*
X142706387Y-74325951D01*
X142827175Y-74325951D01*
X142947963Y-74325951D01*
X142947963Y-74084375D01*
X143086006Y-74084375D01*
X143086006Y-74205163D01*
X143086006Y-74325951D01*
X143465626Y-74325951D01*
X143845245Y-74325951D01*
X143845245Y-73722011D01*
X143845245Y-73118070D01*
X143724457Y-73118070D01*
X143603669Y-73118070D01*
X143603669Y-73238858D01*
X143603669Y-73601223D01*
X143603669Y-74084375D01*
X143344838Y-74084375D01*
X143086006Y-74084375D01*
X142947963Y-74084375D01*
X142947963Y-73842799D01*
X142947963Y-73359646D01*
X143120517Y-73359646D01*
X143293071Y-73359646D01*
X143293071Y-73238858D01*
X143293071Y-73118070D01*
X142827175Y-73118070D01*
X142361278Y-73118070D01*
X141804268Y-73118070D01*
X141737301Y-73118329D01*
X141613099Y-73122434D01*
X141533133Y-73134530D01*
X141479800Y-73158429D01*
X141435500Y-73197944D01*
X141389457Y-73266086D01*
X141373532Y-73342391D01*
X141360463Y-73405009D01*
X141114754Y-73405009D01*
X141118887Y-73342391D01*
X141118872Y-73333197D01*
X141112255Y-73257086D01*
X141079055Y-73226945D01*
X140998099Y-73221603D01*
X140987098Y-73221509D01*
X140903503Y-73208124D01*
X140877311Y-73169837D01*
X140877092Y-73165122D01*
X140845859Y-73129296D01*
X140756523Y-73118070D01*
X140635734Y-73118070D01*
X140635734Y-73238858D01*
X140635734Y-73601223D01*
X140635734Y-74084375D01*
X140514946Y-74084375D01*
X140505753Y-74084390D01*
X140429642Y-74091006D01*
X140399501Y-74124207D01*
X140394158Y-74205163D01*
X140083561Y-74205163D01*
X140083561Y-74162673D01*
X140083552Y-74154031D01*
X140081091Y-74087572D01*
X140068826Y-74031909D01*
X140038922Y-73975157D01*
X139983543Y-73905432D01*
X139894853Y-73810848D01*
X139765017Y-73679520D01*
X139446473Y-73359646D01*
X139765017Y-73359646D01*
X140083561Y-73359646D01*
X140083561Y-73238858D01*
X140083561Y-73118070D01*
X139634919Y-73118070D01*
X139186278Y-73118070D01*
X139186278Y-73317189D01*
X139186278Y-73492854D01*
X139186278Y-73516309D01*
X138978401Y-73516309D01*
X138979213Y-73492854D01*
X138978177Y-73414394D01*
X138968635Y-73312772D01*
X138944287Y-73246259D01*
X138899339Y-73193108D01*
X138889105Y-73183793D01*
X138839107Y-73149654D01*
X138773795Y-73129714D01*
X138675296Y-73120383D01*
X138525735Y-73118070D01*
X138458768Y-73118329D01*
X138334567Y-73122434D01*
X138254600Y-73134530D01*
X138201268Y-73158429D01*
X138156968Y-73197944D01*
X138134643Y-73223852D01*
X138110681Y-73265485D01*
X138095299Y-73323424D01*
X138086625Y-73410846D01*
X138084209Y-73492854D01*
X138082792Y-73540929D01*
X138081930Y-73726847D01*
X137880378Y-73726847D01*
X137887164Y-73714905D01*
X137904728Y-73627171D01*
X137909376Y-73492854D01*
X137908340Y-73414394D01*
X137898798Y-73312772D01*
X137874450Y-73246259D01*
X137829502Y-73193108D01*
X137819268Y-73183793D01*
X137769270Y-73149654D01*
X137703958Y-73129714D01*
X137605459Y-73120383D01*
X137455898Y-73118070D01*
X137388931Y-73118329D01*
X137264730Y-73122434D01*
X137184763Y-73134530D01*
X137131431Y-73158429D01*
X137087131Y-73197944D01*
X137064806Y-73223852D01*
X137040844Y-73265485D01*
X137025462Y-73323424D01*
X137016788Y-73410846D01*
X137012955Y-73540929D01*
X137012093Y-73726847D01*
X134384174Y-73726847D01*
X134359386Y-73449029D01*
X134326137Y-73073434D01*
X134291754Y-72682353D01*
X134256750Y-72281666D01*
X134221634Y-71877253D01*
X134186917Y-71474996D01*
X134153110Y-71080773D01*
X134150269Y-71047418D01*
X134630843Y-71047418D01*
X134630843Y-71651358D01*
X134630843Y-72255299D01*
X135004447Y-72255299D01*
X135045420Y-72255265D01*
X135199584Y-72253552D01*
X135302664Y-72247342D01*
X135369429Y-72234003D01*
X135414647Y-72210908D01*
X135453088Y-72175425D01*
X135453573Y-72174909D01*
X135492104Y-72123764D01*
X135514745Y-72059894D01*
X135525438Y-71964574D01*
X135526443Y-71910190D01*
X135666169Y-71910190D01*
X135996898Y-71910190D01*
X136139020Y-71911902D01*
X136247166Y-71918862D01*
X136302409Y-71932280D01*
X136313339Y-71953329D01*
X136275609Y-71977561D01*
X136171390Y-71995830D01*
X135999865Y-72006438D01*
X135700680Y-72016410D01*
X135700680Y-72135854D01*
X135700680Y-72255299D01*
X136057029Y-72255299D01*
X136066816Y-72255297D01*
X136226510Y-72253923D01*
X136333245Y-72248077D01*
X136402293Y-72234930D01*
X136448925Y-72211655D01*
X136488414Y-72175425D01*
X136488899Y-72174909D01*
X136519334Y-72134511D01*
X136666984Y-72134511D01*
X136666984Y-72255299D01*
X136994838Y-72255299D01*
X137322691Y-72255299D01*
X137322691Y-72134511D01*
X137391713Y-72134511D01*
X137391713Y-72255299D01*
X137719566Y-72255299D01*
X138047419Y-72255299D01*
X138047419Y-72134511D01*
X138041977Y-72054610D01*
X138013446Y-72020456D01*
X137943887Y-72013723D01*
X137840354Y-72013723D01*
X137840354Y-71828749D01*
X138150952Y-71828749D01*
X138151027Y-71863641D01*
X138154480Y-71994358D01*
X138166138Y-72078411D01*
X138190190Y-72134233D01*
X138230826Y-72180261D01*
X138241059Y-72189576D01*
X138291058Y-72223715D01*
X138356369Y-72243655D01*
X138454868Y-72252986D01*
X138604429Y-72255299D01*
X138671397Y-72255040D01*
X138795598Y-72250935D01*
X138875564Y-72238839D01*
X138928897Y-72214940D01*
X138973197Y-72175425D01*
X138973681Y-72174909D01*
X139012213Y-72123764D01*
X139034854Y-72059894D01*
X139045546Y-71964574D01*
X139048234Y-71819077D01*
X139048160Y-71784185D01*
X139044937Y-71662210D01*
X139151767Y-71662210D01*
X139157454Y-71734290D01*
X139189260Y-71766030D01*
X139268530Y-71772146D01*
X139293388Y-71771608D01*
X139369823Y-71753636D01*
X139403343Y-71703125D01*
X139430779Y-71657183D01*
X139510900Y-71634103D01*
X139557266Y-71637304D01*
X139586555Y-71658712D01*
X139598275Y-71715273D01*
X139600313Y-71819077D01*
X139600408Y-71823913D01*
X139600408Y-72013723D01*
X139479620Y-72013723D01*
X139470427Y-72013738D01*
X139394316Y-72020354D01*
X139364175Y-72053555D01*
X139358832Y-72134511D01*
X139358832Y-72255299D01*
X139686686Y-72255299D01*
X140014539Y-72255299D01*
X140014539Y-72136495D01*
X140049050Y-72136495D01*
X140049050Y-72255299D01*
X140250099Y-72255299D01*
X140356524Y-72250427D01*
X140476749Y-72219440D01*
X140551754Y-72151353D01*
X140590320Y-72036403D01*
X140598748Y-71903786D01*
X140842800Y-71903786D01*
X140842800Y-72255299D01*
X140962244Y-72255299D01*
X141081689Y-72255299D01*
X141091660Y-71953329D01*
X141101631Y-71651358D01*
X141300069Y-71641008D01*
X141498506Y-71630659D01*
X141498506Y-71942979D01*
X141498506Y-72255299D01*
X141619294Y-72255299D01*
X141740082Y-72255299D01*
X141740082Y-71828749D01*
X141947148Y-71828749D01*
X141947222Y-71863641D01*
X141950676Y-71994358D01*
X141962334Y-72078411D01*
X141986386Y-72134233D01*
X142027021Y-72180261D01*
X142037255Y-72189576D01*
X142087253Y-72223715D01*
X142152565Y-72243655D01*
X142251064Y-72252986D01*
X142400625Y-72255299D01*
X142467592Y-72255040D01*
X142591794Y-72250935D01*
X142671760Y-72238839D01*
X142725093Y-72214940D01*
X142769393Y-72175425D01*
X142769877Y-72174909D01*
X142808409Y-72123764D01*
X142831049Y-72059894D01*
X142840775Y-71973196D01*
X142947963Y-71973196D01*
X142964141Y-72084842D01*
X143027836Y-72180261D01*
X143038070Y-72189576D01*
X143088069Y-72223715D01*
X143153380Y-72243655D01*
X143251879Y-72252986D01*
X143401440Y-72255299D01*
X143468408Y-72255040D01*
X143592609Y-72250935D01*
X143672575Y-72238839D01*
X143725908Y-72214940D01*
X143770208Y-72175425D01*
X143792532Y-72149517D01*
X143816494Y-72107884D01*
X143831877Y-72049945D01*
X143840550Y-71962523D01*
X143844383Y-71832440D01*
X143845245Y-71646522D01*
X143844742Y-71482316D01*
X143841766Y-71347061D01*
X143834325Y-71256469D01*
X143820435Y-71197518D01*
X143798112Y-71157188D01*
X143765372Y-71122456D01*
X143755138Y-71113140D01*
X143705140Y-71079002D01*
X143639828Y-71059062D01*
X143541329Y-71049731D01*
X143391768Y-71047418D01*
X143324801Y-71047677D01*
X143200599Y-71051782D01*
X143120633Y-71063878D01*
X143067300Y-71087777D01*
X143023000Y-71127292D01*
X142976957Y-71195434D01*
X142947963Y-71334357D01*
X142948033Y-71354362D01*
X142955345Y-71427688D01*
X142988373Y-71456528D01*
X143066351Y-71461549D01*
X143118347Y-71459299D01*
X143174628Y-71438067D01*
X143195766Y-71383899D01*
X143202431Y-71353364D01*
X143227787Y-71322618D01*
X143286600Y-71309199D01*
X143396604Y-71306250D01*
X143586414Y-71306250D01*
X143586414Y-71651358D01*
X143586414Y-71819077D01*
X143586414Y-71996467D01*
X143396604Y-71996467D01*
X143321828Y-71995515D01*
X143245451Y-71986928D01*
X143209343Y-71963648D01*
X143195766Y-71918818D01*
X143187523Y-71884923D01*
X143150189Y-71849987D01*
X143066351Y-71841168D01*
X143040489Y-71841326D01*
X142976943Y-71850156D01*
X142952172Y-71887342D01*
X142947963Y-71973196D01*
X142840775Y-71973196D01*
X142841742Y-71964574D01*
X142844430Y-71819077D01*
X142844355Y-71784185D01*
X142840902Y-71653467D01*
X142829244Y-71569415D01*
X142805192Y-71513593D01*
X142764556Y-71467564D01*
X142754323Y-71458249D01*
X142704324Y-71424111D01*
X142639013Y-71404171D01*
X142540514Y-71394840D01*
X142390953Y-71392527D01*
X142323985Y-71392786D01*
X142199784Y-71396891D01*
X142119818Y-71408987D01*
X142066485Y-71432886D01*
X142022185Y-71472401D01*
X142021701Y-71472917D01*
X141983169Y-71524061D01*
X141960528Y-71587931D01*
X141949836Y-71683252D01*
X141947237Y-71823913D01*
X141947148Y-71828749D01*
X141740082Y-71828749D01*
X141740082Y-71823913D01*
X141740082Y-71392527D01*
X141366478Y-71392527D01*
X141325506Y-71392561D01*
X141171341Y-71394273D01*
X141068261Y-71400484D01*
X141001497Y-71413822D01*
X140956279Y-71436918D01*
X140917837Y-71472401D01*
X140888655Y-71507895D01*
X140886050Y-71513315D01*
X140864512Y-71558124D01*
X140850636Y-71630422D01*
X140844305Y-71740429D01*
X140842800Y-71903786D01*
X140598748Y-71903786D01*
X140601224Y-71864827D01*
X140601307Y-71817713D01*
X140604275Y-71714311D01*
X140615795Y-71659497D01*
X140641620Y-71637888D01*
X140687501Y-71634103D01*
X140738324Y-71628439D01*
X140767332Y-71594999D01*
X140773778Y-71513315D01*
X140769732Y-71442162D01*
X140745847Y-71401551D01*
X140687501Y-71392527D01*
X140679987Y-71392478D01*
X140628145Y-71382953D01*
X140605933Y-71343422D01*
X140601224Y-71254483D01*
X140600954Y-71213750D01*
X140592141Y-71146423D01*
X140557772Y-71120619D01*
X140480436Y-71116440D01*
X140444794Y-71116749D01*
X140385882Y-71126821D01*
X140363304Y-71166099D01*
X140363217Y-71168206D01*
X140359648Y-71254483D01*
X140359484Y-71284125D01*
X140352012Y-71357535D01*
X140322501Y-71387076D01*
X140256115Y-71392527D01*
X140187628Y-71398877D01*
X140158354Y-71432162D01*
X140152582Y-71513315D01*
X140158157Y-71593897D01*
X140187174Y-71627546D01*
X140257918Y-71634103D01*
X140363255Y-71634103D01*
X140352823Y-71815285D01*
X140342392Y-71996467D01*
X140195721Y-72007079D01*
X140146084Y-72011119D01*
X140079330Y-72025563D01*
X140053408Y-72061688D01*
X140049050Y-72136495D01*
X140014539Y-72136495D01*
X140014539Y-72134511D01*
X140010493Y-72063358D01*
X139986607Y-72022747D01*
X139928262Y-72013723D01*
X139885173Y-72010613D01*
X139856061Y-71989224D01*
X139844224Y-71932621D01*
X139841984Y-71823913D01*
X139843398Y-71729118D01*
X139853120Y-71665072D01*
X139878849Y-71639030D01*
X139928262Y-71634103D01*
X139979085Y-71628439D01*
X140008093Y-71594999D01*
X140014539Y-71513315D01*
X140014539Y-71392527D01*
X139658190Y-71392527D01*
X139648403Y-71392529D01*
X139488709Y-71393902D01*
X139381974Y-71399749D01*
X139312926Y-71412895D01*
X139266294Y-71436170D01*
X139226805Y-71472401D01*
X139180497Y-71542211D01*
X139151767Y-71662210D01*
X139044937Y-71662210D01*
X139044706Y-71653467D01*
X139033048Y-71569415D01*
X139008996Y-71513593D01*
X138968361Y-71467564D01*
X138958127Y-71458249D01*
X138908129Y-71424111D01*
X138842817Y-71404171D01*
X138744318Y-71394840D01*
X138594757Y-71392527D01*
X138527790Y-71392786D01*
X138403588Y-71396891D01*
X138323622Y-71408987D01*
X138270290Y-71432886D01*
X138225989Y-71472401D01*
X138225505Y-71472917D01*
X138186973Y-71524061D01*
X138164333Y-71587931D01*
X138153640Y-71683252D01*
X138150952Y-71828749D01*
X137840354Y-71828749D01*
X137840354Y-71651358D01*
X137840354Y-71288994D01*
X137943887Y-71288994D01*
X138012373Y-71282645D01*
X138041648Y-71249359D01*
X138047419Y-71168206D01*
X138047419Y-71047418D01*
X137823099Y-71047418D01*
X137598778Y-71047418D01*
X137598778Y-71168206D01*
X137598778Y-71530570D01*
X137598778Y-72013723D01*
X137495245Y-72013723D01*
X137426759Y-72020072D01*
X137397484Y-72053358D01*
X137391713Y-72134511D01*
X137322691Y-72134511D01*
X137317248Y-72054610D01*
X137288718Y-72020456D01*
X137219158Y-72013723D01*
X137115626Y-72013723D01*
X137115626Y-71651358D01*
X137115626Y-71288994D01*
X137219158Y-71288994D01*
X137287645Y-71282645D01*
X137316919Y-71249359D01*
X137322691Y-71168206D01*
X137322691Y-71047418D01*
X137098370Y-71047418D01*
X136874050Y-71047418D01*
X136874050Y-71530570D01*
X136874050Y-71819077D01*
X136874050Y-72013723D01*
X136770517Y-72013723D01*
X136702031Y-72020072D01*
X136672756Y-72053358D01*
X136666984Y-72134511D01*
X136519334Y-72134511D01*
X136527430Y-72123764D01*
X136550071Y-72059894D01*
X136560764Y-71964574D01*
X136563452Y-71819077D01*
X136563377Y-71784185D01*
X136559924Y-71653467D01*
X136548266Y-71569415D01*
X136524214Y-71513593D01*
X136483578Y-71467564D01*
X136473344Y-71458249D01*
X136423346Y-71424111D01*
X136358035Y-71404171D01*
X136259535Y-71394840D01*
X136109974Y-71392527D01*
X136043007Y-71392786D01*
X135918806Y-71396891D01*
X135838839Y-71408987D01*
X135785507Y-71432886D01*
X135741207Y-71472401D01*
X135708374Y-71514407D01*
X135675480Y-71602100D01*
X135666169Y-71731232D01*
X135666169Y-71819077D01*
X135666169Y-71910190D01*
X135526443Y-71910190D01*
X135528126Y-71819077D01*
X135528051Y-71784185D01*
X135524598Y-71653467D01*
X135512940Y-71569415D01*
X135488887Y-71513593D01*
X135448252Y-71467564D01*
X135412711Y-71438538D01*
X135350091Y-71409865D01*
X135259449Y-71396084D01*
X135120399Y-71392527D01*
X134872419Y-71392527D01*
X134872419Y-71219973D01*
X134872419Y-71047418D01*
X134751631Y-71047418D01*
X134630843Y-71047418D01*
X134150269Y-71047418D01*
X134120723Y-70700466D01*
X134090267Y-70339955D01*
X134062253Y-70005120D01*
X134037192Y-69701841D01*
X134033840Y-69660580D01*
X137322691Y-69660580D01*
X137322691Y-69839538D01*
X137653420Y-69839538D01*
X137795542Y-69841250D01*
X137903688Y-69848210D01*
X137958931Y-69861628D01*
X137969861Y-69882676D01*
X137932130Y-69906909D01*
X137827912Y-69925178D01*
X137656387Y-69935786D01*
X137357202Y-69945758D01*
X137357202Y-70065202D01*
X137357202Y-70184646D01*
X137713550Y-70184646D01*
X137723338Y-70184644D01*
X137883032Y-70183271D01*
X137989767Y-70177425D01*
X138058815Y-70164278D01*
X138105447Y-70141003D01*
X138144936Y-70104773D01*
X138145420Y-70104257D01*
X138183952Y-70053112D01*
X138206593Y-69989242D01*
X138217286Y-69893921D01*
X138218083Y-69850777D01*
X138358017Y-69850777D01*
X138358101Y-69957973D01*
X138359365Y-70130725D01*
X138363380Y-70251896D01*
X138371693Y-70333182D01*
X138385851Y-70386283D01*
X138407401Y-70422895D01*
X138437891Y-70454718D01*
X138441958Y-70458493D01*
X138492618Y-70495391D01*
X138556943Y-70517025D01*
X138653350Y-70527208D01*
X138800255Y-70529755D01*
X139082745Y-70529755D01*
X139082745Y-70410544D01*
X139082745Y-70291333D01*
X138852547Y-70281128D01*
X138755385Y-70274044D01*
X138651334Y-70255074D01*
X138608095Y-70227785D01*
X138607140Y-70219121D01*
X138633650Y-70198935D01*
X138711555Y-70187960D01*
X138849533Y-70184646D01*
X138982451Y-70182139D01*
X139072394Y-70171148D01*
X139131798Y-70146937D01*
X139180262Y-70104773D01*
X139180746Y-70104257D01*
X139219278Y-70053112D01*
X139241919Y-69989242D01*
X139252612Y-69893921D01*
X139253735Y-69833134D01*
X139427854Y-69833134D01*
X139427854Y-70184646D01*
X139801458Y-70184646D01*
X139842431Y-70184612D01*
X139996595Y-70182900D01*
X140099675Y-70176690D01*
X140166440Y-70163351D01*
X140211658Y-70140255D01*
X140250099Y-70104773D01*
X140279325Y-70065843D01*
X140394158Y-70065843D01*
X140394158Y-70184646D01*
X140595208Y-70184646D01*
X140701633Y-70179775D01*
X140821858Y-70148788D01*
X140896863Y-70080701D01*
X140902514Y-70063858D01*
X141153398Y-70063858D01*
X141153398Y-70184646D01*
X141481251Y-70184646D01*
X141809104Y-70184646D01*
X141809104Y-70063858D01*
X141803661Y-69983957D01*
X141775131Y-69949804D01*
X141705571Y-69943070D01*
X141602039Y-69943070D01*
X141602039Y-69758097D01*
X141912637Y-69758097D01*
X141912711Y-69792988D01*
X141916165Y-69923706D01*
X141927823Y-70007758D01*
X141951875Y-70063581D01*
X141992510Y-70109609D01*
X142002744Y-70118924D01*
X142052743Y-70153063D01*
X142118054Y-70173003D01*
X142216553Y-70182334D01*
X142366114Y-70184646D01*
X142433081Y-70184388D01*
X142557283Y-70180283D01*
X142637249Y-70168187D01*
X142690582Y-70144287D01*
X142734882Y-70104773D01*
X142735366Y-70104257D01*
X142773898Y-70053112D01*
X142796538Y-69989242D01*
X142807231Y-69893921D01*
X142809919Y-69748424D01*
X142809844Y-69713533D01*
X142806391Y-69582815D01*
X142794733Y-69498763D01*
X142770681Y-69442940D01*
X142748731Y-69418077D01*
X142947963Y-69418077D01*
X142947963Y-69748424D01*
X142947963Y-69859388D01*
X143113075Y-70022017D01*
X143207485Y-70106873D01*
X143327053Y-70177842D01*
X143437511Y-70186979D01*
X143551739Y-70134229D01*
X143682616Y-70019534D01*
X143845245Y-69854422D01*
X143845245Y-69415594D01*
X143845245Y-68976766D01*
X143724457Y-68976766D01*
X143603669Y-68976766D01*
X143603669Y-69349929D01*
X143603489Y-69461363D01*
X143600968Y-69590501D01*
X143592748Y-69675764D01*
X143575452Y-69732550D01*
X143545707Y-69776257D01*
X143500137Y-69822282D01*
X143396604Y-69921473D01*
X143293071Y-69822282D01*
X143262203Y-69792057D01*
X143227044Y-69749288D01*
X143205573Y-69699088D01*
X143194415Y-69626061D01*
X143190195Y-69514807D01*
X143189539Y-69349929D01*
X143189539Y-68976766D01*
X143068751Y-68976766D01*
X142947963Y-68976766D01*
X142947963Y-69097554D01*
X142947963Y-69418077D01*
X142748731Y-69418077D01*
X142730046Y-69396912D01*
X142719812Y-69387597D01*
X142669813Y-69353458D01*
X142604502Y-69333519D01*
X142506003Y-69324187D01*
X142356442Y-69321875D01*
X142289474Y-69322133D01*
X142165273Y-69326239D01*
X142085307Y-69338335D01*
X142031974Y-69362234D01*
X141987674Y-69401748D01*
X141987190Y-69402265D01*
X141948658Y-69453409D01*
X141926017Y-69517279D01*
X141915325Y-69612600D01*
X141912637Y-69758097D01*
X141602039Y-69758097D01*
X141602039Y-69580706D01*
X141602039Y-69218342D01*
X141705571Y-69218342D01*
X141774058Y-69211992D01*
X141803333Y-69178707D01*
X141809104Y-69097554D01*
X141809104Y-68976766D01*
X141584783Y-68976766D01*
X141360463Y-68976766D01*
X141360463Y-69442663D01*
X141360463Y-69459918D01*
X141360463Y-69943070D01*
X141256930Y-69943070D01*
X141188444Y-69949420D01*
X141159169Y-69982706D01*
X141153398Y-70063858D01*
X140902514Y-70063858D01*
X140935428Y-69965751D01*
X140946332Y-69794175D01*
X140946415Y-69747061D01*
X140949384Y-69643659D01*
X140960904Y-69588845D01*
X140986729Y-69567236D01*
X141032609Y-69563451D01*
X141083433Y-69557787D01*
X141112441Y-69524347D01*
X141118887Y-69442663D01*
X141114841Y-69371510D01*
X141090955Y-69330899D01*
X141032609Y-69321875D01*
X141025096Y-69321825D01*
X140973254Y-69312301D01*
X140951041Y-69272770D01*
X140946332Y-69183831D01*
X140946062Y-69143098D01*
X140937249Y-69075770D01*
X140902881Y-69049967D01*
X140825544Y-69045788D01*
X140789903Y-69046096D01*
X140730991Y-69056168D01*
X140708413Y-69095447D01*
X140704756Y-69183831D01*
X140704593Y-69213473D01*
X140697121Y-69286883D01*
X140667610Y-69316423D01*
X140601224Y-69321875D01*
X140532737Y-69328224D01*
X140503463Y-69361510D01*
X140497691Y-69442663D01*
X140503265Y-69523245D01*
X140532283Y-69556894D01*
X140603027Y-69563451D01*
X140708363Y-69563451D01*
X140697932Y-69744633D01*
X140687501Y-69925815D01*
X140540830Y-69936427D01*
X140528233Y-69937452D01*
X140491192Y-69940466D01*
X140424439Y-69954911D01*
X140398517Y-69991036D01*
X140394158Y-70065843D01*
X140279325Y-70065843D01*
X140284832Y-70058508D01*
X140324176Y-69937452D01*
X140310886Y-69812193D01*
X140245263Y-69707510D01*
X140208460Y-69677625D01*
X140145810Y-69649468D01*
X140054867Y-69635954D01*
X139915373Y-69632473D01*
X139788731Y-69628793D01*
X139706248Y-69617007D01*
X139686686Y-69597962D01*
X139694422Y-69592158D01*
X139756465Y-69577496D01*
X139863926Y-69567284D01*
X139999320Y-69563451D01*
X140290626Y-69563451D01*
X140290626Y-69442663D01*
X140290626Y-69321875D01*
X139934277Y-69321875D01*
X139924490Y-69321877D01*
X139764796Y-69323250D01*
X139658061Y-69329097D01*
X139589013Y-69342243D01*
X139542381Y-69365518D01*
X139502892Y-69401748D01*
X139473709Y-69437243D01*
X139449567Y-69487472D01*
X139435690Y-69559770D01*
X139429360Y-69669777D01*
X139428635Y-69748424D01*
X139427854Y-69833134D01*
X139253735Y-69833134D01*
X139255300Y-69748424D01*
X139255225Y-69713533D01*
X139251772Y-69582815D01*
X139240114Y-69498763D01*
X139216061Y-69442940D01*
X139175426Y-69396912D01*
X139133682Y-69363649D01*
X139082568Y-69341582D01*
X139007787Y-69328949D01*
X138894229Y-69323222D01*
X138726785Y-69321875D01*
X138358017Y-69321875D01*
X138358017Y-69748424D01*
X138358017Y-69850777D01*
X138218083Y-69850777D01*
X138219974Y-69748424D01*
X138219899Y-69713533D01*
X138216446Y-69582815D01*
X138204787Y-69498763D01*
X138180735Y-69442940D01*
X138140100Y-69396912D01*
X138129866Y-69387597D01*
X138079868Y-69353458D01*
X138014556Y-69333519D01*
X137916057Y-69324187D01*
X137766496Y-69321875D01*
X137699529Y-69322133D01*
X137575327Y-69326239D01*
X137495361Y-69338335D01*
X137442029Y-69362234D01*
X137397728Y-69401748D01*
X137364896Y-69443755D01*
X137332002Y-69531448D01*
X137322691Y-69660580D01*
X134033840Y-69660580D01*
X134015594Y-69435999D01*
X133997970Y-69213474D01*
X133984830Y-69040147D01*
X133976686Y-68921897D01*
X133974048Y-68864606D01*
X133975137Y-68769701D01*
X134570449Y-68767284D01*
X134580733Y-68767232D01*
X134697857Y-68766019D01*
X134878606Y-68763429D01*
X135118218Y-68759552D01*
X135411929Y-68754479D01*
X135754977Y-68748300D01*
X136142599Y-68741106D01*
X136570031Y-68732987D01*
X137032512Y-68724033D01*
X137525279Y-68714335D01*
X138043568Y-68703982D01*
X138582616Y-68693066D01*
X139137662Y-68681677D01*
X139703941Y-68669904D01*
X139882273Y-68666188D01*
X140430665Y-68654957D01*
X140958682Y-68644436D01*
X141462273Y-68634692D01*
X141937384Y-68625791D01*
X142379964Y-68617800D01*
X142785960Y-68610787D01*
X143151318Y-68604818D01*
X143471987Y-68599959D01*
X143743914Y-68596279D01*
X143963046Y-68593843D01*
X144125331Y-68592718D01*
X144226716Y-68592972D01*
X144263148Y-68594672D01*
X144263417Y-68595015D01*
X144269771Y-68636534D01*
X144278285Y-68740422D01*
X144288711Y-68900711D01*
X144300803Y-69111432D01*
X144314313Y-69366616D01*
X144316762Y-69415594D01*
X144328995Y-69660294D01*
G37*
G36*
X138609544Y-73377958D02*
G01*
X138683685Y-73386859D01*
X138718470Y-73410857D01*
X138731738Y-73457061D01*
X138734776Y-73513817D01*
X138724194Y-73586477D01*
X138709137Y-73605574D01*
X138640455Y-73628510D01*
X138512316Y-73635733D01*
X138319340Y-73635733D01*
X138330051Y-73506318D01*
X138340762Y-73376902D01*
X138530571Y-73376902D01*
X138609544Y-73377958D01*
G37*
G36*
X137539707Y-73377958D02*
G01*
X137613848Y-73386859D01*
X137648633Y-73410857D01*
X137661901Y-73457061D01*
X137664939Y-73513817D01*
X137654357Y-73586477D01*
X137639300Y-73605574D01*
X137570618Y-73628510D01*
X137442479Y-73635733D01*
X137249503Y-73635733D01*
X137260214Y-73506318D01*
X137270925Y-73376902D01*
X137460734Y-73376902D01*
X137539707Y-73377958D01*
G37*
G36*
X142596526Y-71784403D02*
G01*
X142597886Y-71803847D01*
X142598171Y-71901640D01*
X142588284Y-71967402D01*
X142569163Y-71990597D01*
X142505479Y-72007561D01*
X142387547Y-72006912D01*
X142205979Y-71996467D01*
X142205979Y-71823913D01*
X142205979Y-71651358D01*
X142395789Y-71651358D01*
X142585599Y-71651358D01*
X142596526Y-71784403D01*
G37*
G36*
X138800330Y-71784403D02*
G01*
X138801691Y-71803847D01*
X138801976Y-71901640D01*
X138792089Y-71967402D01*
X138772968Y-71990597D01*
X138709283Y-72007561D01*
X138591351Y-72006912D01*
X138409783Y-71996467D01*
X138409783Y-71823913D01*
X138409783Y-71651358D01*
X138599593Y-71651358D01*
X138789403Y-71651358D01*
X138800330Y-71784403D01*
G37*
G36*
X136171663Y-71636049D02*
G01*
X136260341Y-71648485D01*
X136304620Y-71668614D01*
X136297948Y-71683813D01*
X136234626Y-71698082D01*
X136114811Y-71703125D01*
X136023443Y-71700499D01*
X135943433Y-71688707D01*
X135925001Y-71668614D01*
X135941547Y-71657215D01*
X136012513Y-71640625D01*
X136114811Y-71634103D01*
X136171663Y-71636049D01*
G37*
G36*
X135070857Y-71641008D02*
G01*
X135269294Y-71651358D01*
X135280222Y-71784403D01*
X135281607Y-71804143D01*
X135282099Y-71901151D01*
X135272677Y-71965585D01*
X135260917Y-71981495D01*
X135192894Y-72005886D01*
X135063312Y-72013723D01*
X134872419Y-72013723D01*
X134872419Y-71822191D01*
X134872419Y-71630659D01*
X135070857Y-71641008D01*
G37*
G36*
X138798031Y-69570356D02*
G01*
X138996468Y-69580706D01*
X139007396Y-69713751D01*
X139008781Y-69733490D01*
X139009273Y-69830499D01*
X138999851Y-69894933D01*
X138988091Y-69910843D01*
X138920068Y-69935234D01*
X138790486Y-69943070D01*
X138599593Y-69943070D01*
X138599593Y-69751538D01*
X138599593Y-69560006D01*
X138798031Y-69570356D01*
G37*
G36*
X142562015Y-69713751D02*
G01*
X142563375Y-69733194D01*
X142563661Y-69830987D01*
X142553773Y-69896750D01*
X142534652Y-69919945D01*
X142470968Y-69936909D01*
X142353036Y-69936260D01*
X142171468Y-69925815D01*
X142171468Y-69753261D01*
X142171468Y-69580706D01*
X142361278Y-69580706D01*
X142551088Y-69580706D01*
X142562015Y-69713751D01*
G37*
G36*
X139937355Y-69877125D02*
G01*
X140017847Y-69889660D01*
X140049050Y-69908560D01*
X140032130Y-69922762D01*
X139963186Y-69937397D01*
X139859240Y-69943070D01*
X139781125Y-69939994D01*
X139700633Y-69927459D01*
X139669430Y-69908560D01*
X139686350Y-69894357D01*
X139755294Y-69879722D01*
X139859240Y-69874049D01*
X139937355Y-69877125D01*
G37*
G36*
X137828185Y-69565397D02*
G01*
X137916863Y-69577833D01*
X137961142Y-69597962D01*
X137954470Y-69613161D01*
X137891148Y-69627430D01*
X137771332Y-69632473D01*
X137679965Y-69629847D01*
X137599955Y-69618055D01*
X137581523Y-69597962D01*
X137598068Y-69586563D01*
X137669034Y-69569973D01*
X137771332Y-69563451D01*
X137828185Y-69565397D01*
G37*
G36*
X145109338Y-55804713D02*
G01*
X145131576Y-55861175D01*
X145150682Y-55958419D01*
X145152934Y-55974698D01*
X145175179Y-56128221D01*
X145198096Y-56277326D01*
X145223624Y-56436779D01*
X145102206Y-56436779D01*
X145033907Y-56433335D01*
X144996572Y-56410404D01*
X145001317Y-56352363D01*
X145012884Y-56291899D01*
X145030635Y-56172456D01*
X145047749Y-56033456D01*
X145063421Y-55921861D01*
X145083196Y-55833020D01*
X145101224Y-55798965D01*
X145109338Y-55804713D01*
G37*
G36*
X145184375Y-59181375D02*
G01*
X145206613Y-59237836D01*
X145225719Y-59335081D01*
X145227971Y-59351360D01*
X145250216Y-59504883D01*
X145273133Y-59653987D01*
X145298660Y-59813441D01*
X145177243Y-59813441D01*
X145108944Y-59809996D01*
X145071609Y-59787066D01*
X145076354Y-59729024D01*
X145087921Y-59668560D01*
X145105672Y-59549118D01*
X145122786Y-59410117D01*
X145138457Y-59298523D01*
X145158233Y-59209682D01*
X145176261Y-59175627D01*
X145184375Y-59181375D01*
G37*
G36*
X138399976Y-55537268D02*
G01*
X138433945Y-55550045D01*
X138452102Y-55590531D01*
X138459380Y-55674500D01*
X138460710Y-55817725D01*
X138460418Y-55904871D01*
X138456423Y-56013512D01*
X138443765Y-56071584D01*
X138417510Y-56094860D01*
X138372728Y-56099113D01*
X138346666Y-56097164D01*
X138245125Y-56048686D01*
X138172994Y-55949230D01*
X138145555Y-55817725D01*
X138147128Y-55785443D01*
X138186266Y-55659669D01*
X138266560Y-55570324D01*
X138372728Y-55536336D01*
X138399976Y-55537268D01*
G37*
G36*
X143949399Y-58930040D02*
G01*
X143960225Y-59011662D01*
X143968601Y-59151936D01*
X143974007Y-59341146D01*
X143975924Y-59569571D01*
X143975773Y-59666838D01*
X143973578Y-59890042D01*
X143968301Y-60049379D01*
X143959344Y-60153045D01*
X143946107Y-60209235D01*
X143927994Y-60226144D01*
X143909608Y-60224525D01*
X143815327Y-60180470D01*
X143722142Y-60091583D01*
X143653054Y-59978576D01*
X143638508Y-59935047D01*
X143613071Y-59788102D01*
X143602089Y-59605767D01*
X143605496Y-59415191D01*
X143623223Y-59243521D01*
X143655202Y-59117906D01*
X143705379Y-59035829D01*
X143814280Y-58946959D01*
X143940848Y-58912998D01*
X143949399Y-58930040D01*
G37*
G36*
X148818993Y-55556488D02*
G01*
X148783461Y-55908500D01*
X148744762Y-56289493D01*
X148703565Y-56692988D01*
X148660541Y-57112508D01*
X148616359Y-57541576D01*
X148571689Y-57973715D01*
X148527201Y-58402448D01*
X148483564Y-58821297D01*
X148441448Y-59223785D01*
X148401524Y-59603435D01*
X148364460Y-59953769D01*
X148330927Y-60268310D01*
X148303134Y-60526292D01*
X148301594Y-60540582D01*
X148277131Y-60764106D01*
X148258208Y-60932406D01*
X148245495Y-61039005D01*
X148239661Y-61077424D01*
X148227337Y-61078936D01*
X148148959Y-61083172D01*
X148001799Y-61089205D01*
X147789885Y-61096913D01*
X147517243Y-61106173D01*
X147187900Y-61116863D01*
X146805884Y-61128859D01*
X146375222Y-61142040D01*
X145899940Y-61156283D01*
X145384065Y-61171464D01*
X144831624Y-61187462D01*
X144246645Y-61204154D01*
X143633154Y-61221417D01*
X142995179Y-61239128D01*
X142336745Y-61257166D01*
X142054763Y-61264830D01*
X141393571Y-61282726D01*
X140749470Y-61300058D01*
X140126917Y-61316710D01*
X139530366Y-61332567D01*
X138964273Y-61347513D01*
X138433092Y-61361433D01*
X137941279Y-61374212D01*
X137493289Y-61385733D01*
X137093577Y-61395882D01*
X136746597Y-61404543D01*
X136456806Y-61411601D01*
X136228658Y-61416940D01*
X136066608Y-61420444D01*
X135975112Y-61421999D01*
X135949408Y-61422252D01*
X135760570Y-61423534D01*
X135633302Y-61421668D01*
X135555507Y-61414634D01*
X135515088Y-61400411D01*
X135499949Y-61376979D01*
X135497992Y-61342318D01*
X135496968Y-61297368D01*
X135493403Y-61182073D01*
X135487476Y-61002489D01*
X135479378Y-60764108D01*
X135471163Y-60526292D01*
X138535747Y-60526292D01*
X138723339Y-60526292D01*
X138910931Y-60526292D01*
X139211079Y-60526292D01*
X139398671Y-60526292D01*
X139586264Y-60526292D01*
X139586264Y-60132348D01*
X139586264Y-59738404D01*
X139773856Y-59738404D01*
X139961448Y-59738404D01*
X139961448Y-60132348D01*
X139961448Y-60526292D01*
X140149041Y-60526292D01*
X140336633Y-60526292D01*
X140336633Y-59569571D01*
X140336633Y-58612850D01*
X140524225Y-58612850D01*
X140524225Y-58781683D01*
X140524225Y-58950516D01*
X140693058Y-58950516D01*
X140861891Y-58950516D01*
X140861891Y-59569571D01*
X140861891Y-59738404D01*
X140861891Y-60526292D01*
X141049484Y-60526292D01*
X141237076Y-60526292D01*
X141237076Y-59738404D01*
X141237076Y-58950516D01*
X141405909Y-58950516D01*
X141574742Y-58950516D01*
X142100001Y-58950516D01*
X142343871Y-58950516D01*
X142587741Y-58950516D01*
X142587741Y-59156868D01*
X142587741Y-59363219D01*
X142362630Y-59363219D01*
X142137519Y-59363219D01*
X142137519Y-59532052D01*
X142137519Y-59700886D01*
X142362630Y-59700886D01*
X142587741Y-59700886D01*
X142587741Y-59944756D01*
X142587741Y-60188626D01*
X142343871Y-60188626D01*
X142100001Y-60188626D01*
X142100001Y-60357459D01*
X142100001Y-60526292D01*
X142531463Y-60526292D01*
X142962925Y-60526292D01*
X142962925Y-59637107D01*
X143191466Y-59637107D01*
X143208491Y-59848644D01*
X143243286Y-60023386D01*
X143257289Y-60065098D01*
X143353877Y-60243391D01*
X143491340Y-60391286D01*
X143650080Y-60486472D01*
X143658705Y-60489418D01*
X143755557Y-60508106D01*
X143896224Y-60521296D01*
X144053403Y-60526292D01*
X144351109Y-60526292D01*
X144351109Y-60498153D01*
X144574983Y-60498153D01*
X144587250Y-60508032D01*
X144654703Y-60521152D01*
X144761152Y-60526292D01*
X144946084Y-60526292D01*
X144989339Y-60317933D01*
X145032594Y-60109575D01*
X145188971Y-60120961D01*
X145345348Y-60132348D01*
X145378763Y-60329320D01*
X145412179Y-60526292D01*
X145615782Y-60526292D01*
X145680468Y-60525681D01*
X145766949Y-60518473D01*
X145801678Y-60498645D01*
X145800287Y-60460634D01*
X145796052Y-60443946D01*
X145776786Y-60359400D01*
X145770327Y-60329974D01*
X145891449Y-60329974D01*
X145894615Y-60425299D01*
X145905822Y-60484274D01*
X145915223Y-60498645D01*
X145926170Y-60515379D01*
X145956764Y-60527096D01*
X145998706Y-60527906D01*
X146053099Y-60526292D01*
X146216832Y-60526292D01*
X146240691Y-60352222D01*
X146245083Y-60314071D01*
X146255038Y-60175224D01*
X146261957Y-60001194D01*
X146264550Y-59820711D01*
X146265425Y-59725260D01*
X146270154Y-59595538D01*
X146278065Y-59511103D01*
X146288108Y-59486826D01*
X146291130Y-59491831D01*
X146311797Y-59552327D01*
X146344350Y-59668087D01*
X146384962Y-59825001D01*
X146429801Y-60008958D01*
X146547937Y-60507532D01*
X146693403Y-60507532D01*
X146838869Y-60507532D01*
X146945099Y-60057311D01*
X146945384Y-60056106D01*
X146986930Y-59875737D01*
X147021689Y-59716837D01*
X147046031Y-59596558D01*
X147056323Y-59532052D01*
X147062345Y-59485726D01*
X147072888Y-59486203D01*
X147085349Y-59539830D01*
X147098162Y-59634559D01*
X147109760Y-59758340D01*
X147118573Y-59899124D01*
X147123036Y-60044863D01*
X147124828Y-60135867D01*
X147131033Y-60288145D01*
X147139933Y-60405128D01*
X147150248Y-60466945D01*
X147158093Y-60481382D01*
X147219308Y-60515657D01*
X147341361Y-60526292D01*
X147509701Y-60526292D01*
X147488478Y-60348079D01*
X147483422Y-60299753D01*
X147471790Y-60166023D01*
X147457775Y-59984930D01*
X147442710Y-59774013D01*
X147427926Y-59550812D01*
X147419414Y-59420253D01*
X147404473Y-59205211D01*
X147390107Y-59014244D01*
X147377614Y-58864293D01*
X147368292Y-58772304D01*
X147347988Y-58612850D01*
X147144650Y-58612850D01*
X147074870Y-58613653D01*
X146986183Y-58622698D01*
X146941779Y-58648024D01*
X146921479Y-58697267D01*
X146908013Y-58756723D01*
X146881494Y-58876344D01*
X146846726Y-59034581D01*
X146807742Y-59213145D01*
X146772660Y-59373389D01*
X146736365Y-59537124D01*
X146707517Y-59665052D01*
X146690312Y-59738404D01*
X146676563Y-59765345D01*
X146657694Y-59739491D01*
X146632392Y-59651186D01*
X146598434Y-59494534D01*
X146591549Y-59460641D01*
X146550258Y-59260912D01*
X146506896Y-59055824D01*
X146469794Y-58884859D01*
X146409506Y-58612850D01*
X146207413Y-58612850D01*
X146177690Y-58612543D01*
X146115201Y-58611891D01*
X146067186Y-58618192D01*
X146031172Y-58639934D01*
X146004688Y-58685604D01*
X145985264Y-58763688D01*
X145970427Y-58882674D01*
X145957706Y-59051048D01*
X145944631Y-59277298D01*
X145928730Y-59569911D01*
X145919155Y-59741080D01*
X145904821Y-59996346D01*
X145895218Y-60189817D01*
X145891449Y-60329974D01*
X145770327Y-60329974D01*
X145745789Y-60218191D01*
X145705552Y-60031817D01*
X145658564Y-59811777D01*
X145607315Y-59569571D01*
X145583396Y-59456225D01*
X145533851Y-59222783D01*
X145489757Y-59016792D01*
X145453598Y-58849750D01*
X145427853Y-58733156D01*
X145415006Y-58678507D01*
X145408159Y-58661197D01*
X145372439Y-58631361D01*
X145296287Y-58616733D01*
X145162532Y-58612850D01*
X144928495Y-58612850D01*
X144751121Y-59541432D01*
X144745769Y-59569571D01*
X144711409Y-59750216D01*
X144667035Y-59985817D01*
X144629323Y-60188636D01*
X144600155Y-60348449D01*
X144581415Y-60455029D01*
X144574983Y-60498153D01*
X144351109Y-60498153D01*
X144351109Y-59569571D01*
X144351109Y-58612850D01*
X144030997Y-58612850D01*
X143789287Y-58625419D01*
X143589807Y-58670272D01*
X143439804Y-58753524D01*
X143328617Y-58881238D01*
X143245582Y-59059477D01*
X143210462Y-59213884D01*
X143192145Y-59416334D01*
X143191674Y-59569571D01*
X143191466Y-59637107D01*
X142962925Y-59637107D01*
X142962925Y-59569571D01*
X142962925Y-58612850D01*
X142531463Y-58612850D01*
X142100001Y-58612850D01*
X142100001Y-58781683D01*
X142100001Y-58950516D01*
X141574742Y-58950516D01*
X141574742Y-58781683D01*
X141574742Y-58612850D01*
X141049484Y-58612850D01*
X140524225Y-58612850D01*
X140336633Y-58612850D01*
X140149041Y-58612850D01*
X139961448Y-58612850D01*
X139961448Y-58988035D01*
X139961448Y-59363219D01*
X139773856Y-59363219D01*
X139586264Y-59363219D01*
X139586264Y-58988035D01*
X139586264Y-58612850D01*
X139398671Y-58612850D01*
X139211079Y-58612850D01*
X139211079Y-59569571D01*
X139211079Y-60526292D01*
X138910931Y-60526292D01*
X138910931Y-59569571D01*
X138910931Y-58612850D01*
X138723339Y-58612850D01*
X138535747Y-58612850D01*
X138535747Y-59569571D01*
X138535747Y-60436522D01*
X138535747Y-60526292D01*
X135471163Y-60526292D01*
X135469302Y-60472422D01*
X135457440Y-60132926D01*
X135452847Y-60002619D01*
X137305016Y-60002619D01*
X137309196Y-60047691D01*
X137354693Y-60229659D01*
X137449921Y-60366173D01*
X137605302Y-60473579D01*
X137617584Y-60479313D01*
X137724439Y-60506620D01*
X137868275Y-60521428D01*
X138021443Y-60523216D01*
X138156299Y-60511463D01*
X138245195Y-60485647D01*
X138289736Y-60436522D01*
X138288606Y-60346094D01*
X138276480Y-60291725D01*
X138250753Y-60190196D01*
X138226333Y-60142580D01*
X138192207Y-60134803D01*
X138137367Y-60152793D01*
X138115484Y-60160568D01*
X137964371Y-60187846D01*
X137827716Y-60171919D01*
X137730468Y-60115100D01*
X137685648Y-60037972D01*
X137693827Y-59937848D01*
X137771223Y-59826021D01*
X137919513Y-59698802D01*
X138017950Y-59621058D01*
X138164068Y-59470603D01*
X138246806Y-59319165D01*
X138272977Y-59156282D01*
X138261888Y-59034132D01*
X138193958Y-58857570D01*
X138069308Y-58725043D01*
X137893828Y-58641884D01*
X137673407Y-58613425D01*
X137586120Y-58614916D01*
X137465358Y-58628884D01*
X137400500Y-58666209D01*
X137379138Y-58737322D01*
X137388863Y-58852655D01*
X137395782Y-58896613D01*
X137414893Y-58977222D01*
X137441196Y-59002850D01*
X137485074Y-58988118D01*
X137503840Y-58978832D01*
X137634369Y-58948735D01*
X137756171Y-58971011D01*
X137843457Y-59041797D01*
X137845957Y-59045664D01*
X137878933Y-59130286D01*
X137859079Y-59210680D01*
X137780561Y-59296975D01*
X137637546Y-59399299D01*
X137483888Y-59513683D01*
X137368400Y-59651212D01*
X137311611Y-59809047D01*
X137305016Y-60002619D01*
X135452847Y-60002619D01*
X135443983Y-59751110D01*
X135429124Y-59332468D01*
X135413055Y-58882493D01*
X135395966Y-58406676D01*
X135378052Y-57910511D01*
X135361015Y-57431308D01*
X135351496Y-57153013D01*
X137684950Y-57153013D01*
X137893906Y-57141942D01*
X138102861Y-57130871D01*
X138150717Y-56905760D01*
X138172760Y-56802599D01*
X138199386Y-56679369D01*
X138217142Y-56598856D01*
X138254492Y-56511651D01*
X138326866Y-56431614D01*
X138407112Y-56399261D01*
X138414220Y-56400040D01*
X138437082Y-56422411D01*
X138451329Y-56484422D01*
X138458645Y-56597843D01*
X138460710Y-56774445D01*
X138460710Y-57149630D01*
X138648302Y-57149630D01*
X138835894Y-57149630D01*
X139173561Y-57149630D01*
X139361153Y-57149630D01*
X139548745Y-57149630D01*
X139548745Y-56192909D01*
X139548745Y-55264327D01*
X139735289Y-55264327D01*
X139739032Y-55293734D01*
X139753894Y-55388952D01*
X139778480Y-55539571D01*
X139811092Y-55735313D01*
X139850027Y-55965898D01*
X139888782Y-56192909D01*
X139893586Y-56221048D01*
X140052930Y-57149630D01*
X140263785Y-57149630D01*
X140474640Y-57149630D01*
X140565031Y-56589624D01*
X140655423Y-56029619D01*
X140716349Y-56373893D01*
X140725492Y-56425166D01*
X140760039Y-56613619D01*
X140794372Y-56794212D01*
X140822243Y-56933899D01*
X140867211Y-57149630D01*
X141070903Y-57149630D01*
X141153294Y-57147779D01*
X141240678Y-57139959D01*
X141274595Y-57128099D01*
X141277547Y-57106248D01*
X141291211Y-57019194D01*
X141314458Y-56875812D01*
X141345585Y-56686500D01*
X141382889Y-56461653D01*
X141418398Y-56249187D01*
X141687298Y-56249187D01*
X141687298Y-56380501D01*
X141687298Y-56511816D01*
X141987445Y-56511816D01*
X142287593Y-56511816D01*
X142287593Y-56830723D01*
X142287593Y-57149630D01*
X142418908Y-57149630D01*
X142550222Y-57149630D01*
X142550222Y-57123577D01*
X143263073Y-57123577D01*
X143279577Y-57133900D01*
X143352383Y-57145227D01*
X143463571Y-57149630D01*
X143664069Y-57149630D01*
X143753284Y-56868242D01*
X143764642Y-56833010D01*
X143808468Y-56707727D01*
X143844679Y-56619939D01*
X143866361Y-56586853D01*
X143868768Y-56587931D01*
X143891361Y-56632235D01*
X143924254Y-56728504D01*
X143961213Y-56858862D01*
X144032202Y-57130871D01*
X144229174Y-57142211D01*
X144305776Y-57144009D01*
X144392424Y-57137021D01*
X144424230Y-57121491D01*
X144499946Y-57121491D01*
X144512213Y-57131371D01*
X144579667Y-57144491D01*
X144686115Y-57149630D01*
X144871047Y-57149630D01*
X144914302Y-56941272D01*
X144957557Y-56732913D01*
X145113934Y-56744300D01*
X145270311Y-56755686D01*
X145303726Y-56952658D01*
X145337142Y-57149630D01*
X145540745Y-57149630D01*
X145605431Y-57149019D01*
X145691912Y-57141811D01*
X145726641Y-57121983D01*
X145725250Y-57083973D01*
X145721015Y-57067285D01*
X145701749Y-56982739D01*
X145670753Y-56841529D01*
X145630515Y-56655155D01*
X145583527Y-56435116D01*
X145532279Y-56192909D01*
X145508359Y-56079563D01*
X145458814Y-55846121D01*
X145414720Y-55640130D01*
X145378561Y-55473088D01*
X145352816Y-55356494D01*
X145339969Y-55301846D01*
X145333123Y-55284535D01*
X145308929Y-55264327D01*
X145700725Y-55264327D01*
X145704468Y-55293734D01*
X145719330Y-55388952D01*
X145743916Y-55539571D01*
X145776528Y-55735313D01*
X145815463Y-55965898D01*
X145859022Y-56221048D01*
X146013622Y-57121983D01*
X146018366Y-57149630D01*
X146229221Y-57149630D01*
X146440075Y-57149630D01*
X146530467Y-56589624D01*
X146620859Y-56029619D01*
X146681785Y-56373893D01*
X146690928Y-56425166D01*
X146725474Y-56613619D01*
X146759808Y-56794212D01*
X146787679Y-56933899D01*
X146832647Y-57149630D01*
X147036339Y-57149630D01*
X147118729Y-57147779D01*
X147206114Y-57139959D01*
X147240030Y-57128099D01*
X147242982Y-57106248D01*
X147256647Y-57019194D01*
X147279894Y-56875812D01*
X147311021Y-56686500D01*
X147348325Y-56461653D01*
X147390104Y-56211668D01*
X147419237Y-56037178D01*
X147458205Y-55801165D01*
X147491497Y-55596407D01*
X147517399Y-55433585D01*
X147534198Y-55323381D01*
X147540178Y-55276479D01*
X147528247Y-55261730D01*
X147458026Y-55243129D01*
X147339236Y-55236188D01*
X147138295Y-55236188D01*
X147076045Y-55770826D01*
X147069385Y-55828623D01*
X147047229Y-56029979D01*
X147028894Y-56210345D01*
X147016130Y-56351889D01*
X147010688Y-56436779D01*
X147010684Y-56436930D01*
X147003618Y-56444479D01*
X146985913Y-56386907D01*
X146959604Y-56273019D01*
X146926726Y-56111622D01*
X146889315Y-55911521D01*
X146771049Y-55254948D01*
X146600840Y-55243839D01*
X146430630Y-55232731D01*
X146347138Y-55750338D01*
X146338822Y-55802360D01*
X146309382Y-55994607D01*
X146285611Y-56162411D01*
X146269765Y-56289254D01*
X146264098Y-56358616D01*
X146258930Y-56413216D01*
X146242899Y-56427634D01*
X146242868Y-56427602D01*
X146233381Y-56387491D01*
X146216620Y-56288495D01*
X146194749Y-56146076D01*
X146169932Y-55975696D01*
X146144335Y-55792818D01*
X146120121Y-55612904D01*
X146099455Y-55451416D01*
X146084502Y-55323817D01*
X146077426Y-55245568D01*
X146068956Y-55240092D01*
X146009345Y-55234449D01*
X145915509Y-55235407D01*
X145814656Y-55241608D01*
X145733993Y-55251700D01*
X145700725Y-55264327D01*
X145308929Y-55264327D01*
X145297402Y-55254699D01*
X145221250Y-55240072D01*
X145087495Y-55236188D01*
X144853458Y-55236188D01*
X144676084Y-56164770D01*
X144636372Y-56373555D01*
X144591998Y-56609155D01*
X144554286Y-56811974D01*
X144525119Y-56971787D01*
X144506378Y-57078368D01*
X144500085Y-57120556D01*
X144499946Y-57121491D01*
X144424230Y-57121491D01*
X144426145Y-57120556D01*
X144425840Y-57117732D01*
X144409934Y-57062368D01*
X144373430Y-56953260D01*
X144321249Y-56804752D01*
X144258310Y-56631189D01*
X144090475Y-56174816D01*
X144236093Y-55771159D01*
X144288352Y-55626746D01*
X144343295Y-55475959D01*
X144385526Y-55361227D01*
X144408716Y-55299830D01*
X144417206Y-55268020D01*
X144399973Y-55246082D01*
X144337985Y-55239388D01*
X144216241Y-55243553D01*
X143996762Y-55254948D01*
X143915455Y-55536336D01*
X143903038Y-55577865D01*
X143864096Y-55689858D01*
X143832238Y-55755413D01*
X143813396Y-55761447D01*
X143796465Y-55708327D01*
X143765495Y-55601676D01*
X143729266Y-55470679D01*
X143665888Y-55236188D01*
X143465424Y-55236188D01*
X143264961Y-55236188D01*
X143280077Y-55276479D01*
X143381084Y-55545716D01*
X143394886Y-55582644D01*
X143456903Y-55751439D01*
X143513849Y-55910465D01*
X143554886Y-56029554D01*
X143612566Y-56203864D01*
X143594841Y-56249187D01*
X143437820Y-56650694D01*
X143428693Y-56674068D01*
X143364039Y-56841804D01*
X143311416Y-56982021D01*
X143276026Y-57080639D01*
X143263073Y-57123577D01*
X142550222Y-57123577D01*
X142550222Y-56830723D01*
X142550222Y-56511816D01*
X142869129Y-56511816D01*
X143188036Y-56511816D01*
X143188036Y-56380501D01*
X143188036Y-56249187D01*
X142869129Y-56249187D01*
X142550222Y-56249187D01*
X142550222Y-55949039D01*
X142550222Y-55648891D01*
X142418908Y-55648891D01*
X142287593Y-55648891D01*
X142287593Y-55949039D01*
X142287593Y-56249187D01*
X141987445Y-56249187D01*
X141687298Y-56249187D01*
X141418398Y-56249187D01*
X141424668Y-56211668D01*
X141453802Y-56037178D01*
X141492769Y-55801165D01*
X141526061Y-55596407D01*
X141551963Y-55433585D01*
X141568762Y-55323381D01*
X141574742Y-55276479D01*
X141562811Y-55261730D01*
X141492590Y-55243129D01*
X141373801Y-55236188D01*
X141172859Y-55236188D01*
X141110609Y-55770826D01*
X141103949Y-55828623D01*
X141081793Y-56029979D01*
X141063458Y-56210345D01*
X141050694Y-56351889D01*
X141045252Y-56436779D01*
X141045249Y-56436930D01*
X141038182Y-56444479D01*
X141020477Y-56386907D01*
X140994168Y-56273019D01*
X140961291Y-56111622D01*
X140923879Y-55911521D01*
X140805614Y-55254948D01*
X140635404Y-55243839D01*
X140465194Y-55232731D01*
X140381702Y-55750338D01*
X140373386Y-55802360D01*
X140343946Y-55994607D01*
X140320175Y-56162411D01*
X140304329Y-56289254D01*
X140298662Y-56358616D01*
X140293495Y-56413216D01*
X140277463Y-56427634D01*
X140277433Y-56427602D01*
X140267946Y-56387491D01*
X140251184Y-56288495D01*
X140229313Y-56146076D01*
X140204496Y-55975696D01*
X140178899Y-55792818D01*
X140154685Y-55612904D01*
X140134019Y-55451416D01*
X140119066Y-55323817D01*
X140111990Y-55245568D01*
X140103520Y-55240092D01*
X140043909Y-55234449D01*
X139950073Y-55235407D01*
X139849221Y-55241608D01*
X139768557Y-55251700D01*
X139735289Y-55264327D01*
X139548745Y-55264327D01*
X139548745Y-55236188D01*
X139361153Y-55236188D01*
X139173561Y-55236188D01*
X139173561Y-56192909D01*
X139173561Y-57149630D01*
X138835894Y-57149630D01*
X138835894Y-56192909D01*
X138835894Y-55236188D01*
X138466258Y-55236188D01*
X138358983Y-55236773D01*
X138214160Y-55242109D01*
X138113984Y-55255812D01*
X138038983Y-55281234D01*
X137969685Y-55321731D01*
X137951287Y-55334741D01*
X137858157Y-55417815D01*
X137795857Y-55499944D01*
X137789922Y-55512341D01*
X137753360Y-55655591D01*
X137753160Y-55821257D01*
X137784960Y-55985581D01*
X137844403Y-56124806D01*
X137906743Y-56192909D01*
X137927126Y-56215176D01*
X137966440Y-56242035D01*
X137977255Y-56275100D01*
X137931875Y-56327800D01*
X137906534Y-56356069D01*
X137879665Y-56399418D01*
X137853761Y-56464197D01*
X137824584Y-56563379D01*
X137787898Y-56709933D01*
X137739465Y-56916831D01*
X137684950Y-57153013D01*
X135351496Y-57153013D01*
X135344801Y-56957304D01*
X135330135Y-56509915D01*
X135317165Y-56094516D01*
X135306037Y-55716481D01*
X135296896Y-55381182D01*
X135293359Y-55236188D01*
X136659823Y-55236188D01*
X136659823Y-55405021D01*
X136659823Y-55573855D01*
X136903693Y-55573855D01*
X137147564Y-55573855D01*
X137147564Y-55780206D01*
X137147564Y-55986558D01*
X136922453Y-55986558D01*
X136697342Y-55986558D01*
X136697342Y-56155391D01*
X136697342Y-56324224D01*
X136922453Y-56324224D01*
X137147564Y-56324224D01*
X137147564Y-56568094D01*
X137147564Y-56811964D01*
X136903693Y-56811964D01*
X136659823Y-56811964D01*
X136659823Y-56980797D01*
X136659823Y-57149630D01*
X137091286Y-57149630D01*
X137522748Y-57149630D01*
X137522748Y-56192909D01*
X137522748Y-55236188D01*
X137091286Y-55236188D01*
X136659823Y-55236188D01*
X135293359Y-55236188D01*
X135289890Y-55093996D01*
X135285165Y-54860295D01*
X135282866Y-54685454D01*
X135283140Y-54574848D01*
X135286134Y-54533849D01*
X135300918Y-54531956D01*
X135383452Y-54528475D01*
X135535036Y-54524683D01*
X135751907Y-54520616D01*
X136030302Y-54516315D01*
X136366458Y-54511817D01*
X136756611Y-54507160D01*
X137196999Y-54502384D01*
X137683858Y-54497526D01*
X138213426Y-54492625D01*
X138781938Y-54487719D01*
X139385631Y-54482847D01*
X140020744Y-54478048D01*
X140683511Y-54473360D01*
X141370171Y-54468820D01*
X142076959Y-54464469D01*
X142493883Y-54461944D01*
X143189678Y-54457494D01*
X143863284Y-54452894D01*
X144510926Y-54448183D01*
X145128830Y-54443396D01*
X145713221Y-54438573D01*
X146260323Y-54433751D01*
X146766363Y-54428967D01*
X147227565Y-54424260D01*
X147640154Y-54419666D01*
X148000356Y-54415223D01*
X148304396Y-54410969D01*
X148548500Y-54406942D01*
X148728892Y-54403179D01*
X148841797Y-54399719D01*
X148883441Y-54396597D01*
X148906009Y-54388607D01*
X148928282Y-54417948D01*
X148925702Y-54457825D01*
X148916052Y-54567780D01*
X148899887Y-54739101D01*
X148877876Y-54965311D01*
X148850687Y-55239932D01*
X148847028Y-55276479D01*
X148818993Y-55556488D01*
G37*
%TD*%
%LPC*%
D12*
%TO.C,J5*%
X126190000Y-68770000D03*
D13*
X126190000Y-71310000D03*
X126190000Y-73850000D03*
%TD*%
D14*
%TO.C,J3*%
X149290000Y-46180000D03*
D15*
X146750000Y-46180000D03*
X144210000Y-46180000D03*
%TD*%
D16*
%TO.C,TP4*%
X132770000Y-52020000D03*
%TD*%
D12*
%TO.C,J6*%
X126190000Y-44570000D03*
D13*
X126190000Y-47110000D03*
%TD*%
D14*
%TO.C,J2*%
X140120000Y-46180000D03*
D15*
X137580000Y-46180000D03*
X135040000Y-46180000D03*
%TD*%
D17*
%TO.C,H1*%
X124570000Y-78550000D03*
%TD*%
%TO.C,H2*%
X153600000Y-44630000D03*
%TD*%
D12*
%TO.C,J1*%
X126190000Y-61790000D03*
D13*
X126190000Y-64330000D03*
%TD*%
D12*
%TO.C,J7*%
X126190000Y-51680000D03*
D13*
X126190000Y-54220000D03*
X126190000Y-56760000D03*
%TD*%
D18*
%TO.C,J4*%
X146060000Y-77370000D03*
D15*
X148600000Y-77370000D03*
X151140000Y-77370000D03*
%TD*%
%LPD*%
M02*
