%TF.GenerationSoftware,KiCad,Pcbnew,9.0.6*%
%TF.CreationDate,2026-05-11T20:36:49+10:00*%
%TF.ProjectId,LTC1779_CV Controlled_Non-Inv,4c544331-3737-4395-9f43-5620436f6e74,rev?*%
%TF.SameCoordinates,Original*%
%TF.FileFunction,Legend,Top*%
%TF.FilePolarity,Positive*%
%FSLAX46Y46*%
G04 Gerber Fmt 4.6, Leading zero omitted, Abs format (unit mm)*
G04 Created by KiCad (PCBNEW 9.0.6) date 2026-05-11 20:36:49*
%MOMM*%
%LPD*%
G01*
G04 APERTURE LIST*
G04 Aperture macros list*
%AMRoundRect*
0 Rectangle with rounded corners*
0 $1 Rounding radius*
0 $2 $3 $4 $5 $6 $7 $8 $9 X,Y pos of 4 corners*
0 Add a 4 corners polygon primitive as box body*
4,1,4,$2,$3,$4,$5,$6,$7,$8,$9,$2,$3,0*
0 Add four circle primitives for the rounded corners*
1,1,$1+$1,$2,$3*
1,1,$1+$1,$4,$5*
1,1,$1+$1,$6,$7*
1,1,$1+$1,$8,$9*
0 Add four rect primitives between the rounded corners*
20,1,$1+$1,$2,$3,$4,$5,0*
20,1,$1+$1,$4,$5,$6,$7,0*
20,1,$1+$1,$6,$7,$8,$9,0*
20,1,$1+$1,$8,$9,$2,$3,0*%
G04 Aperture macros list end*
%ADD10C,0.050000*%
%ADD11C,0.150000*%
%ADD12RoundRect,0.250000X-0.845000X0.620000X-0.845000X-0.620000X0.845000X-0.620000X0.845000X0.620000X0*%
%ADD13O,2.190000X1.740000*%
%ADD14RoundRect,0.150000X-0.512500X-0.150000X0.512500X-0.150000X0.512500X0.150000X-0.512500X0.150000X0*%
%ADD15RoundRect,0.250000X0.620000X0.845000X-0.620000X0.845000X-0.620000X-0.845000X0.620000X-0.845000X0*%
%ADD16O,1.740000X2.190000*%
%ADD17RoundRect,0.250000X-0.337500X-0.475000X0.337500X-0.475000X0.337500X0.475000X-0.337500X0.475000X0*%
%ADD18RoundRect,0.250000X-0.350000X-0.450000X0.350000X-0.450000X0.350000X0.450000X-0.350000X0.450000X0*%
%ADD19C,2.500000*%
%ADD20C,2.000000*%
%ADD21R,2.500000X1.800000*%
%ADD22RoundRect,0.250000X0.350000X0.450000X-0.350000X0.450000X-0.350000X-0.450000X0.350000X-0.450000X0*%
%ADD23RoundRect,0.150000X-0.825000X-0.150000X0.825000X-0.150000X0.825000X0.150000X-0.825000X0.150000X0*%
%ADD24RoundRect,0.250000X-0.325000X-0.450000X0.325000X-0.450000X0.325000X0.450000X-0.325000X0.450000X0*%
%ADD25RoundRect,0.250000X-0.450000X0.350000X-0.450000X-0.350000X0.450000X-0.350000X0.450000X0.350000X0*%
%ADD26RoundRect,0.250000X0.475000X-0.337500X0.475000X0.337500X-0.475000X0.337500X-0.475000X-0.337500X0*%
%ADD27RoundRect,0.250000X0.337500X0.475000X-0.337500X0.475000X-0.337500X-0.475000X0.337500X-0.475000X0*%
%ADD28RoundRect,0.250000X-0.620000X-0.845000X0.620000X-0.845000X0.620000X0.845000X-0.620000X0.845000X0*%
G04 APERTURE END LIST*
D10*
X129812109Y-69555848D02*
X129788300Y-69532039D01*
X129788300Y-69532039D02*
X129764490Y-69460610D01*
X129764490Y-69460610D02*
X129764490Y-69412991D01*
X129764490Y-69412991D02*
X129788300Y-69341563D01*
X129788300Y-69341563D02*
X129835919Y-69293944D01*
X129835919Y-69293944D02*
X129883538Y-69270134D01*
X129883538Y-69270134D02*
X129978776Y-69246325D01*
X129978776Y-69246325D02*
X130050204Y-69246325D01*
X130050204Y-69246325D02*
X130145442Y-69270134D01*
X130145442Y-69270134D02*
X130193061Y-69293944D01*
X130193061Y-69293944D02*
X130240680Y-69341563D01*
X130240680Y-69341563D02*
X130264490Y-69412991D01*
X130264490Y-69412991D02*
X130264490Y-69460610D01*
X130264490Y-69460610D02*
X130240680Y-69532039D01*
X130240680Y-69532039D02*
X130216871Y-69555848D01*
X130264490Y-69698706D02*
X129764490Y-69865372D01*
X129764490Y-69865372D02*
X130264490Y-70032039D01*
X129812109Y-70198705D02*
X129788300Y-70222515D01*
X129788300Y-70222515D02*
X129764490Y-70198705D01*
X129764490Y-70198705D02*
X129788300Y-70174896D01*
X129788300Y-70174896D02*
X129812109Y-70198705D01*
X129812109Y-70198705D02*
X129764490Y-70198705D01*
X130216871Y-70412991D02*
X130240680Y-70436800D01*
X130240680Y-70436800D02*
X130264490Y-70484419D01*
X130264490Y-70484419D02*
X130264490Y-70603467D01*
X130264490Y-70603467D02*
X130240680Y-70651086D01*
X130240680Y-70651086D02*
X130216871Y-70674895D01*
X130216871Y-70674895D02*
X130169252Y-70698705D01*
X130169252Y-70698705D02*
X130121633Y-70698705D01*
X130121633Y-70698705D02*
X130050204Y-70674895D01*
X130050204Y-70674895D02*
X129764490Y-70389181D01*
X129764490Y-70389181D02*
X129764490Y-70698705D01*
X129812109Y-70912990D02*
X129788300Y-70936800D01*
X129788300Y-70936800D02*
X129764490Y-70912990D01*
X129764490Y-70912990D02*
X129788300Y-70889181D01*
X129788300Y-70889181D02*
X129812109Y-70912990D01*
X129812109Y-70912990D02*
X129764490Y-70912990D01*
X130097823Y-71151085D02*
X129597823Y-71151085D01*
X130074014Y-71151085D02*
X130097823Y-71198704D01*
X130097823Y-71198704D02*
X130097823Y-71293942D01*
X130097823Y-71293942D02*
X130074014Y-71341561D01*
X130074014Y-71341561D02*
X130050204Y-71365371D01*
X130050204Y-71365371D02*
X130002585Y-71389180D01*
X130002585Y-71389180D02*
X129859728Y-71389180D01*
X129859728Y-71389180D02*
X129812109Y-71365371D01*
X129812109Y-71365371D02*
X129788300Y-71341561D01*
X129788300Y-71341561D02*
X129764490Y-71293942D01*
X129764490Y-71293942D02*
X129764490Y-71198704D01*
X129764490Y-71198704D02*
X129788300Y-71151085D01*
X129764490Y-71674895D02*
X129788300Y-71627276D01*
X129788300Y-71627276D02*
X129812109Y-71603466D01*
X129812109Y-71603466D02*
X129859728Y-71579657D01*
X129859728Y-71579657D02*
X130002585Y-71579657D01*
X130002585Y-71579657D02*
X130050204Y-71603466D01*
X130050204Y-71603466D02*
X130074014Y-71627276D01*
X130074014Y-71627276D02*
X130097823Y-71674895D01*
X130097823Y-71674895D02*
X130097823Y-71746323D01*
X130097823Y-71746323D02*
X130074014Y-71793942D01*
X130074014Y-71793942D02*
X130050204Y-71817752D01*
X130050204Y-71817752D02*
X130002585Y-71841561D01*
X130002585Y-71841561D02*
X129859728Y-71841561D01*
X129859728Y-71841561D02*
X129812109Y-71817752D01*
X129812109Y-71817752D02*
X129788300Y-71793942D01*
X129788300Y-71793942D02*
X129764490Y-71746323D01*
X129764490Y-71746323D02*
X129764490Y-71674895D01*
X130097823Y-71984419D02*
X130097823Y-72174895D01*
X130264490Y-72055847D02*
X129835919Y-72055847D01*
X129835919Y-72055847D02*
X129788300Y-72079657D01*
X129788300Y-72079657D02*
X129764490Y-72127276D01*
X129764490Y-72127276D02*
X129764490Y-72174895D01*
X129812109Y-53147448D02*
X129788300Y-53123639D01*
X129788300Y-53123639D02*
X129764490Y-53052210D01*
X129764490Y-53052210D02*
X129764490Y-53004591D01*
X129764490Y-53004591D02*
X129788300Y-52933163D01*
X129788300Y-52933163D02*
X129835919Y-52885544D01*
X129835919Y-52885544D02*
X129883538Y-52861734D01*
X129883538Y-52861734D02*
X129978776Y-52837925D01*
X129978776Y-52837925D02*
X130050204Y-52837925D01*
X130050204Y-52837925D02*
X130145442Y-52861734D01*
X130145442Y-52861734D02*
X130193061Y-52885544D01*
X130193061Y-52885544D02*
X130240680Y-52933163D01*
X130240680Y-52933163D02*
X130264490Y-53004591D01*
X130264490Y-53004591D02*
X130264490Y-53052210D01*
X130264490Y-53052210D02*
X130240680Y-53123639D01*
X130240680Y-53123639D02*
X130216871Y-53147448D01*
X130264490Y-53290306D02*
X129764490Y-53456972D01*
X129764490Y-53456972D02*
X130264490Y-53623639D01*
X129812109Y-53790305D02*
X129788300Y-53814115D01*
X129788300Y-53814115D02*
X129764490Y-53790305D01*
X129764490Y-53790305D02*
X129788300Y-53766496D01*
X129788300Y-53766496D02*
X129812109Y-53790305D01*
X129812109Y-53790305D02*
X129764490Y-53790305D01*
X129764490Y-54290305D02*
X129764490Y-54004591D01*
X129764490Y-54147448D02*
X130264490Y-54147448D01*
X130264490Y-54147448D02*
X130193061Y-54099829D01*
X130193061Y-54099829D02*
X130145442Y-54052210D01*
X130145442Y-54052210D02*
X130121633Y-54004591D01*
X129812109Y-54504590D02*
X129788300Y-54528400D01*
X129788300Y-54528400D02*
X129764490Y-54504590D01*
X129764490Y-54504590D02*
X129788300Y-54480781D01*
X129788300Y-54480781D02*
X129812109Y-54504590D01*
X129812109Y-54504590D02*
X129764490Y-54504590D01*
X130097823Y-54742685D02*
X129597823Y-54742685D01*
X130074014Y-54742685D02*
X130097823Y-54790304D01*
X130097823Y-54790304D02*
X130097823Y-54885542D01*
X130097823Y-54885542D02*
X130074014Y-54933161D01*
X130074014Y-54933161D02*
X130050204Y-54956971D01*
X130050204Y-54956971D02*
X130002585Y-54980780D01*
X130002585Y-54980780D02*
X129859728Y-54980780D01*
X129859728Y-54980780D02*
X129812109Y-54956971D01*
X129812109Y-54956971D02*
X129788300Y-54933161D01*
X129788300Y-54933161D02*
X129764490Y-54885542D01*
X129764490Y-54885542D02*
X129764490Y-54790304D01*
X129764490Y-54790304D02*
X129788300Y-54742685D01*
X129764490Y-55266495D02*
X129788300Y-55218876D01*
X129788300Y-55218876D02*
X129812109Y-55195066D01*
X129812109Y-55195066D02*
X129859728Y-55171257D01*
X129859728Y-55171257D02*
X130002585Y-55171257D01*
X130002585Y-55171257D02*
X130050204Y-55195066D01*
X130050204Y-55195066D02*
X130074014Y-55218876D01*
X130074014Y-55218876D02*
X130097823Y-55266495D01*
X130097823Y-55266495D02*
X130097823Y-55337923D01*
X130097823Y-55337923D02*
X130074014Y-55385542D01*
X130074014Y-55385542D02*
X130050204Y-55409352D01*
X130050204Y-55409352D02*
X130002585Y-55433161D01*
X130002585Y-55433161D02*
X129859728Y-55433161D01*
X129859728Y-55433161D02*
X129812109Y-55409352D01*
X129812109Y-55409352D02*
X129788300Y-55385542D01*
X129788300Y-55385542D02*
X129764490Y-55337923D01*
X129764490Y-55337923D02*
X129764490Y-55266495D01*
X130097823Y-55576019D02*
X130097823Y-55766495D01*
X130264490Y-55647447D02*
X129835919Y-55647447D01*
X129835919Y-55647447D02*
X129788300Y-55671257D01*
X129788300Y-55671257D02*
X129764490Y-55718876D01*
X129764490Y-55718876D02*
X129764490Y-55766495D01*
X136952077Y-49860500D02*
X137023505Y-49884309D01*
X137023505Y-49884309D02*
X137142553Y-49884309D01*
X137142553Y-49884309D02*
X137190172Y-49860500D01*
X137190172Y-49860500D02*
X137213981Y-49836690D01*
X137213981Y-49836690D02*
X137237791Y-49789071D01*
X137237791Y-49789071D02*
X137237791Y-49741452D01*
X137237791Y-49741452D02*
X137213981Y-49693833D01*
X137213981Y-49693833D02*
X137190172Y-49670023D01*
X137190172Y-49670023D02*
X137142553Y-49646214D01*
X137142553Y-49646214D02*
X137047315Y-49622404D01*
X137047315Y-49622404D02*
X136999696Y-49598595D01*
X136999696Y-49598595D02*
X136975886Y-49574785D01*
X136975886Y-49574785D02*
X136952077Y-49527166D01*
X136952077Y-49527166D02*
X136952077Y-49479547D01*
X136952077Y-49479547D02*
X136975886Y-49431928D01*
X136975886Y-49431928D02*
X136999696Y-49408119D01*
X136999696Y-49408119D02*
X137047315Y-49384309D01*
X137047315Y-49384309D02*
X137166362Y-49384309D01*
X137166362Y-49384309D02*
X137237791Y-49408119D01*
X137452076Y-49622404D02*
X137618743Y-49622404D01*
X137690171Y-49884309D02*
X137452076Y-49884309D01*
X137452076Y-49884309D02*
X137452076Y-49384309D01*
X137452076Y-49384309D02*
X137690171Y-49384309D01*
X137833029Y-49384309D02*
X138118743Y-49384309D01*
X137975886Y-49884309D02*
X137975886Y-49384309D01*
X146255714Y-44008709D02*
X146255714Y-43508709D01*
X146255714Y-43508709D02*
X146374762Y-43508709D01*
X146374762Y-43508709D02*
X146446190Y-43532519D01*
X146446190Y-43532519D02*
X146493809Y-43580138D01*
X146493809Y-43580138D02*
X146517619Y-43627757D01*
X146517619Y-43627757D02*
X146541428Y-43722995D01*
X146541428Y-43722995D02*
X146541428Y-43794423D01*
X146541428Y-43794423D02*
X146517619Y-43889661D01*
X146517619Y-43889661D02*
X146493809Y-43937280D01*
X146493809Y-43937280D02*
X146446190Y-43984900D01*
X146446190Y-43984900D02*
X146374762Y-44008709D01*
X146374762Y-44008709D02*
X146255714Y-44008709D01*
X146755714Y-44008709D02*
X146755714Y-43508709D01*
X146922381Y-43508709D02*
X147089047Y-44008709D01*
X147089047Y-44008709D02*
X147255714Y-43508709D01*
X146242114Y-49833509D02*
X146242114Y-49333509D01*
X146242114Y-49333509D02*
X146361162Y-49333509D01*
X146361162Y-49333509D02*
X146432590Y-49357319D01*
X146432590Y-49357319D02*
X146480209Y-49404938D01*
X146480209Y-49404938D02*
X146504019Y-49452557D01*
X146504019Y-49452557D02*
X146527828Y-49547795D01*
X146527828Y-49547795D02*
X146527828Y-49619223D01*
X146527828Y-49619223D02*
X146504019Y-49714461D01*
X146504019Y-49714461D02*
X146480209Y-49762080D01*
X146480209Y-49762080D02*
X146432590Y-49809700D01*
X146432590Y-49809700D02*
X146361162Y-49833509D01*
X146361162Y-49833509D02*
X146242114Y-49833509D01*
X146742114Y-49833509D02*
X146742114Y-49333509D01*
X146908781Y-49333509D02*
X147075447Y-49833509D01*
X147075447Y-49833509D02*
X147242114Y-49333509D01*
X146852381Y-79548709D02*
X147138095Y-79548709D01*
X146995238Y-80048709D02*
X146995238Y-79548709D01*
X147376190Y-80048709D02*
X147328571Y-80024900D01*
X147328571Y-80024900D02*
X147304761Y-80001090D01*
X147304761Y-80001090D02*
X147280952Y-79953471D01*
X147280952Y-79953471D02*
X147280952Y-79810614D01*
X147280952Y-79810614D02*
X147304761Y-79762995D01*
X147304761Y-79762995D02*
X147328571Y-79739185D01*
X147328571Y-79739185D02*
X147376190Y-79715376D01*
X147376190Y-79715376D02*
X147447618Y-79715376D01*
X147447618Y-79715376D02*
X147495237Y-79739185D01*
X147495237Y-79739185D02*
X147519047Y-79762995D01*
X147519047Y-79762995D02*
X147542856Y-79810614D01*
X147542856Y-79810614D02*
X147542856Y-79953471D01*
X147542856Y-79953471D02*
X147519047Y-80001090D01*
X147519047Y-80001090D02*
X147495237Y-80024900D01*
X147495237Y-80024900D02*
X147447618Y-80048709D01*
X147447618Y-80048709D02*
X147376190Y-80048709D01*
X147757142Y-80001090D02*
X147780952Y-80024900D01*
X147780952Y-80024900D02*
X147757142Y-80048709D01*
X147757142Y-80048709D02*
X147733333Y-80024900D01*
X147733333Y-80024900D02*
X147757142Y-80001090D01*
X147757142Y-80001090D02*
X147757142Y-80048709D01*
X147995237Y-80048709D02*
X147995237Y-79548709D01*
X147995237Y-79739185D02*
X148042856Y-79715376D01*
X148042856Y-79715376D02*
X148138094Y-79715376D01*
X148138094Y-79715376D02*
X148185713Y-79739185D01*
X148185713Y-79739185D02*
X148209523Y-79762995D01*
X148209523Y-79762995D02*
X148233332Y-79810614D01*
X148233332Y-79810614D02*
X148233332Y-79953471D01*
X148233332Y-79953471D02*
X148209523Y-80001090D01*
X148209523Y-80001090D02*
X148185713Y-80024900D01*
X148185713Y-80024900D02*
X148138094Y-80048709D01*
X148138094Y-80048709D02*
X148042856Y-80048709D01*
X148042856Y-80048709D02*
X147995237Y-80024900D01*
X148519047Y-80048709D02*
X148471428Y-80024900D01*
X148471428Y-80024900D02*
X148447618Y-80001090D01*
X148447618Y-80001090D02*
X148423809Y-79953471D01*
X148423809Y-79953471D02*
X148423809Y-79810614D01*
X148423809Y-79810614D02*
X148447618Y-79762995D01*
X148447618Y-79762995D02*
X148471428Y-79739185D01*
X148471428Y-79739185D02*
X148519047Y-79715376D01*
X148519047Y-79715376D02*
X148590475Y-79715376D01*
X148590475Y-79715376D02*
X148638094Y-79739185D01*
X148638094Y-79739185D02*
X148661904Y-79762995D01*
X148661904Y-79762995D02*
X148685713Y-79810614D01*
X148685713Y-79810614D02*
X148685713Y-79953471D01*
X148685713Y-79953471D02*
X148661904Y-80001090D01*
X148661904Y-80001090D02*
X148638094Y-80024900D01*
X148638094Y-80024900D02*
X148590475Y-80048709D01*
X148590475Y-80048709D02*
X148519047Y-80048709D01*
X149114285Y-80048709D02*
X149114285Y-79786804D01*
X149114285Y-79786804D02*
X149090475Y-79739185D01*
X149090475Y-79739185D02*
X149042856Y-79715376D01*
X149042856Y-79715376D02*
X148947618Y-79715376D01*
X148947618Y-79715376D02*
X148899999Y-79739185D01*
X149114285Y-80024900D02*
X149066666Y-80048709D01*
X149066666Y-80048709D02*
X148947618Y-80048709D01*
X148947618Y-80048709D02*
X148899999Y-80024900D01*
X148899999Y-80024900D02*
X148876190Y-79977280D01*
X148876190Y-79977280D02*
X148876190Y-79929661D01*
X148876190Y-79929661D02*
X148899999Y-79882042D01*
X148899999Y-79882042D02*
X148947618Y-79858233D01*
X148947618Y-79858233D02*
X149066666Y-79858233D01*
X149066666Y-79858233D02*
X149114285Y-79834423D01*
X149352380Y-80048709D02*
X149352380Y-79715376D01*
X149352380Y-79810614D02*
X149376190Y-79762995D01*
X149376190Y-79762995D02*
X149399999Y-79739185D01*
X149399999Y-79739185D02*
X149447618Y-79715376D01*
X149447618Y-79715376D02*
X149495237Y-79715376D01*
X149876190Y-80048709D02*
X149876190Y-79548709D01*
X149876190Y-80024900D02*
X149828571Y-80048709D01*
X149828571Y-80048709D02*
X149733333Y-80048709D01*
X149733333Y-80048709D02*
X149685714Y-80024900D01*
X149685714Y-80024900D02*
X149661904Y-80001090D01*
X149661904Y-80001090D02*
X149638095Y-79953471D01*
X149638095Y-79953471D02*
X149638095Y-79810614D01*
X149638095Y-79810614D02*
X149661904Y-79762995D01*
X149661904Y-79762995D02*
X149685714Y-79739185D01*
X149685714Y-79739185D02*
X149733333Y-79715376D01*
X149733333Y-79715376D02*
X149828571Y-79715376D01*
X149828571Y-79715376D02*
X149876190Y-79739185D01*
X129812109Y-45066248D02*
X129788300Y-45042439D01*
X129788300Y-45042439D02*
X129764490Y-44971010D01*
X129764490Y-44971010D02*
X129764490Y-44923391D01*
X129764490Y-44923391D02*
X129788300Y-44851963D01*
X129788300Y-44851963D02*
X129835919Y-44804344D01*
X129835919Y-44804344D02*
X129883538Y-44780534D01*
X129883538Y-44780534D02*
X129978776Y-44756725D01*
X129978776Y-44756725D02*
X130050204Y-44756725D01*
X130050204Y-44756725D02*
X130145442Y-44780534D01*
X130145442Y-44780534D02*
X130193061Y-44804344D01*
X130193061Y-44804344D02*
X130240680Y-44851963D01*
X130240680Y-44851963D02*
X130264490Y-44923391D01*
X130264490Y-44923391D02*
X130264490Y-44971010D01*
X130264490Y-44971010D02*
X130240680Y-45042439D01*
X130240680Y-45042439D02*
X130216871Y-45066248D01*
X130264490Y-45209106D02*
X129764490Y-45375772D01*
X129764490Y-45375772D02*
X130264490Y-45542439D01*
X129812109Y-45709105D02*
X129788300Y-45732915D01*
X129788300Y-45732915D02*
X129764490Y-45709105D01*
X129764490Y-45709105D02*
X129788300Y-45685296D01*
X129788300Y-45685296D02*
X129812109Y-45709105D01*
X129812109Y-45709105D02*
X129764490Y-45709105D01*
X129764490Y-46209105D02*
X129764490Y-45923391D01*
X129764490Y-46066248D02*
X130264490Y-46066248D01*
X130264490Y-46066248D02*
X130193061Y-46018629D01*
X130193061Y-46018629D02*
X130145442Y-45971010D01*
X130145442Y-45971010D02*
X130121633Y-45923391D01*
X129812109Y-46423390D02*
X129788300Y-46447200D01*
X129788300Y-46447200D02*
X129764490Y-46423390D01*
X129764490Y-46423390D02*
X129788300Y-46399581D01*
X129788300Y-46399581D02*
X129812109Y-46423390D01*
X129812109Y-46423390D02*
X129764490Y-46423390D01*
X129764490Y-46661485D02*
X130097823Y-46661485D01*
X130264490Y-46661485D02*
X130240680Y-46637676D01*
X130240680Y-46637676D02*
X130216871Y-46661485D01*
X130216871Y-46661485D02*
X130240680Y-46685295D01*
X130240680Y-46685295D02*
X130264490Y-46661485D01*
X130264490Y-46661485D02*
X130216871Y-46661485D01*
X130097823Y-46899580D02*
X129764490Y-46899580D01*
X130050204Y-46899580D02*
X130074014Y-46923390D01*
X130074014Y-46923390D02*
X130097823Y-46971009D01*
X130097823Y-46971009D02*
X130097823Y-47042437D01*
X130097823Y-47042437D02*
X130074014Y-47090056D01*
X130074014Y-47090056D02*
X130026395Y-47113866D01*
X130026395Y-47113866D02*
X129764490Y-47113866D01*
X146657381Y-73717509D02*
X146943095Y-73717509D01*
X146800238Y-74217509D02*
X146800238Y-73717509D01*
X147181190Y-74217509D02*
X147133571Y-74193700D01*
X147133571Y-74193700D02*
X147109761Y-74169890D01*
X147109761Y-74169890D02*
X147085952Y-74122271D01*
X147085952Y-74122271D02*
X147085952Y-73979414D01*
X147085952Y-73979414D02*
X147109761Y-73931795D01*
X147109761Y-73931795D02*
X147133571Y-73907985D01*
X147133571Y-73907985D02*
X147181190Y-73884176D01*
X147181190Y-73884176D02*
X147252618Y-73884176D01*
X147252618Y-73884176D02*
X147300237Y-73907985D01*
X147300237Y-73907985D02*
X147324047Y-73931795D01*
X147324047Y-73931795D02*
X147347856Y-73979414D01*
X147347856Y-73979414D02*
X147347856Y-74122271D01*
X147347856Y-74122271D02*
X147324047Y-74169890D01*
X147324047Y-74169890D02*
X147300237Y-74193700D01*
X147300237Y-74193700D02*
X147252618Y-74217509D01*
X147252618Y-74217509D02*
X147181190Y-74217509D01*
X147562142Y-74169890D02*
X147585952Y-74193700D01*
X147585952Y-74193700D02*
X147562142Y-74217509D01*
X147562142Y-74217509D02*
X147538333Y-74193700D01*
X147538333Y-74193700D02*
X147562142Y-74169890D01*
X147562142Y-74169890D02*
X147562142Y-74217509D01*
X147800237Y-74217509D02*
X147800237Y-73717509D01*
X147800237Y-73907985D02*
X147847856Y-73884176D01*
X147847856Y-73884176D02*
X147943094Y-73884176D01*
X147943094Y-73884176D02*
X147990713Y-73907985D01*
X147990713Y-73907985D02*
X148014523Y-73931795D01*
X148014523Y-73931795D02*
X148038332Y-73979414D01*
X148038332Y-73979414D02*
X148038332Y-74122271D01*
X148038332Y-74122271D02*
X148014523Y-74169890D01*
X148014523Y-74169890D02*
X147990713Y-74193700D01*
X147990713Y-74193700D02*
X147943094Y-74217509D01*
X147943094Y-74217509D02*
X147847856Y-74217509D01*
X147847856Y-74217509D02*
X147800237Y-74193700D01*
X148324047Y-74217509D02*
X148276428Y-74193700D01*
X148276428Y-74193700D02*
X148252618Y-74169890D01*
X148252618Y-74169890D02*
X148228809Y-74122271D01*
X148228809Y-74122271D02*
X148228809Y-73979414D01*
X148228809Y-73979414D02*
X148252618Y-73931795D01*
X148252618Y-73931795D02*
X148276428Y-73907985D01*
X148276428Y-73907985D02*
X148324047Y-73884176D01*
X148324047Y-73884176D02*
X148395475Y-73884176D01*
X148395475Y-73884176D02*
X148443094Y-73907985D01*
X148443094Y-73907985D02*
X148466904Y-73931795D01*
X148466904Y-73931795D02*
X148490713Y-73979414D01*
X148490713Y-73979414D02*
X148490713Y-74122271D01*
X148490713Y-74122271D02*
X148466904Y-74169890D01*
X148466904Y-74169890D02*
X148443094Y-74193700D01*
X148443094Y-74193700D02*
X148395475Y-74217509D01*
X148395475Y-74217509D02*
X148324047Y-74217509D01*
X148919285Y-74217509D02*
X148919285Y-73955604D01*
X148919285Y-73955604D02*
X148895475Y-73907985D01*
X148895475Y-73907985D02*
X148847856Y-73884176D01*
X148847856Y-73884176D02*
X148752618Y-73884176D01*
X148752618Y-73884176D02*
X148704999Y-73907985D01*
X148919285Y-74193700D02*
X148871666Y-74217509D01*
X148871666Y-74217509D02*
X148752618Y-74217509D01*
X148752618Y-74217509D02*
X148704999Y-74193700D01*
X148704999Y-74193700D02*
X148681190Y-74146080D01*
X148681190Y-74146080D02*
X148681190Y-74098461D01*
X148681190Y-74098461D02*
X148704999Y-74050842D01*
X148704999Y-74050842D02*
X148752618Y-74027033D01*
X148752618Y-74027033D02*
X148871666Y-74027033D01*
X148871666Y-74027033D02*
X148919285Y-74003223D01*
X149157380Y-74217509D02*
X149157380Y-73884176D01*
X149157380Y-73979414D02*
X149181190Y-73931795D01*
X149181190Y-73931795D02*
X149204999Y-73907985D01*
X149204999Y-73907985D02*
X149252618Y-73884176D01*
X149252618Y-73884176D02*
X149300237Y-73884176D01*
X149681190Y-74217509D02*
X149681190Y-73717509D01*
X149681190Y-74193700D02*
X149633571Y-74217509D01*
X149633571Y-74217509D02*
X149538333Y-74217509D01*
X149538333Y-74217509D02*
X149490714Y-74193700D01*
X149490714Y-74193700D02*
X149466904Y-74169890D01*
X149466904Y-74169890D02*
X149443095Y-74122271D01*
X149443095Y-74122271D02*
X149443095Y-73979414D01*
X149443095Y-73979414D02*
X149466904Y-73931795D01*
X149466904Y-73931795D02*
X149490714Y-73907985D01*
X149490714Y-73907985D02*
X149538333Y-73884176D01*
X149538333Y-73884176D02*
X149633571Y-73884176D01*
X149633571Y-73884176D02*
X149681190Y-73907985D01*
X129812109Y-62084248D02*
X129788300Y-62060439D01*
X129788300Y-62060439D02*
X129764490Y-61989010D01*
X129764490Y-61989010D02*
X129764490Y-61941391D01*
X129764490Y-61941391D02*
X129788300Y-61869963D01*
X129788300Y-61869963D02*
X129835919Y-61822344D01*
X129835919Y-61822344D02*
X129883538Y-61798534D01*
X129883538Y-61798534D02*
X129978776Y-61774725D01*
X129978776Y-61774725D02*
X130050204Y-61774725D01*
X130050204Y-61774725D02*
X130145442Y-61798534D01*
X130145442Y-61798534D02*
X130193061Y-61822344D01*
X130193061Y-61822344D02*
X130240680Y-61869963D01*
X130240680Y-61869963D02*
X130264490Y-61941391D01*
X130264490Y-61941391D02*
X130264490Y-61989010D01*
X130264490Y-61989010D02*
X130240680Y-62060439D01*
X130240680Y-62060439D02*
X130216871Y-62084248D01*
X130264490Y-62227106D02*
X129764490Y-62393772D01*
X129764490Y-62393772D02*
X130264490Y-62560439D01*
X129812109Y-62727105D02*
X129788300Y-62750915D01*
X129788300Y-62750915D02*
X129764490Y-62727105D01*
X129764490Y-62727105D02*
X129788300Y-62703296D01*
X129788300Y-62703296D02*
X129812109Y-62727105D01*
X129812109Y-62727105D02*
X129764490Y-62727105D01*
X130216871Y-62941391D02*
X130240680Y-62965200D01*
X130240680Y-62965200D02*
X130264490Y-63012819D01*
X130264490Y-63012819D02*
X130264490Y-63131867D01*
X130264490Y-63131867D02*
X130240680Y-63179486D01*
X130240680Y-63179486D02*
X130216871Y-63203295D01*
X130216871Y-63203295D02*
X130169252Y-63227105D01*
X130169252Y-63227105D02*
X130121633Y-63227105D01*
X130121633Y-63227105D02*
X130050204Y-63203295D01*
X130050204Y-63203295D02*
X129764490Y-62917581D01*
X129764490Y-62917581D02*
X129764490Y-63227105D01*
X129812109Y-63441390D02*
X129788300Y-63465200D01*
X129788300Y-63465200D02*
X129764490Y-63441390D01*
X129764490Y-63441390D02*
X129788300Y-63417581D01*
X129788300Y-63417581D02*
X129812109Y-63441390D01*
X129812109Y-63441390D02*
X129764490Y-63441390D01*
X129764490Y-63679485D02*
X130097823Y-63679485D01*
X130264490Y-63679485D02*
X130240680Y-63655676D01*
X130240680Y-63655676D02*
X130216871Y-63679485D01*
X130216871Y-63679485D02*
X130240680Y-63703295D01*
X130240680Y-63703295D02*
X130264490Y-63679485D01*
X130264490Y-63679485D02*
X130216871Y-63679485D01*
X130097823Y-63917580D02*
X129764490Y-63917580D01*
X130050204Y-63917580D02*
X130074014Y-63941390D01*
X130074014Y-63941390D02*
X130097823Y-63989009D01*
X130097823Y-63989009D02*
X130097823Y-64060437D01*
X130097823Y-64060437D02*
X130074014Y-64108056D01*
X130074014Y-64108056D02*
X130026395Y-64131866D01*
X130026395Y-64131866D02*
X129764490Y-64131866D01*
X136950477Y-44024900D02*
X137021905Y-44048709D01*
X137021905Y-44048709D02*
X137140953Y-44048709D01*
X137140953Y-44048709D02*
X137188572Y-44024900D01*
X137188572Y-44024900D02*
X137212381Y-44001090D01*
X137212381Y-44001090D02*
X137236191Y-43953471D01*
X137236191Y-43953471D02*
X137236191Y-43905852D01*
X137236191Y-43905852D02*
X137212381Y-43858233D01*
X137212381Y-43858233D02*
X137188572Y-43834423D01*
X137188572Y-43834423D02*
X137140953Y-43810614D01*
X137140953Y-43810614D02*
X137045715Y-43786804D01*
X137045715Y-43786804D02*
X136998096Y-43762995D01*
X136998096Y-43762995D02*
X136974286Y-43739185D01*
X136974286Y-43739185D02*
X136950477Y-43691566D01*
X136950477Y-43691566D02*
X136950477Y-43643947D01*
X136950477Y-43643947D02*
X136974286Y-43596328D01*
X136974286Y-43596328D02*
X136998096Y-43572519D01*
X136998096Y-43572519D02*
X137045715Y-43548709D01*
X137045715Y-43548709D02*
X137164762Y-43548709D01*
X137164762Y-43548709D02*
X137236191Y-43572519D01*
X137450476Y-43786804D02*
X137617143Y-43786804D01*
X137688571Y-44048709D02*
X137450476Y-44048709D01*
X137450476Y-44048709D02*
X137450476Y-43548709D01*
X137450476Y-43548709D02*
X137688571Y-43548709D01*
X137831429Y-43548709D02*
X138117143Y-43548709D01*
X137974286Y-44048709D02*
X137974286Y-43548709D01*
X130382309Y-71463066D02*
X130739452Y-71463066D01*
X130739452Y-71463066D02*
X130810880Y-71486875D01*
X130810880Y-71486875D02*
X130858500Y-71534494D01*
X130858500Y-71534494D02*
X130882309Y-71605923D01*
X130882309Y-71605923D02*
X130882309Y-71653542D01*
X130382309Y-70986876D02*
X130382309Y-71224971D01*
X130382309Y-71224971D02*
X130620404Y-71248780D01*
X130620404Y-71248780D02*
X130596595Y-71224971D01*
X130596595Y-71224971D02*
X130572785Y-71177352D01*
X130572785Y-71177352D02*
X130572785Y-71058304D01*
X130572785Y-71058304D02*
X130596595Y-71010685D01*
X130596595Y-71010685D02*
X130620404Y-70986876D01*
X130620404Y-70986876D02*
X130668023Y-70963066D01*
X130668023Y-70963066D02*
X130787071Y-70963066D01*
X130787071Y-70963066D02*
X130834690Y-70986876D01*
X130834690Y-70986876D02*
X130858500Y-71010685D01*
X130858500Y-71010685D02*
X130882309Y-71058304D01*
X130882309Y-71058304D02*
X130882309Y-71177352D01*
X130882309Y-71177352D02*
X130858500Y-71224971D01*
X130858500Y-71224971D02*
X130834690Y-71248780D01*
X148429047Y-52648709D02*
X148429047Y-53053471D01*
X148429047Y-53053471D02*
X148452857Y-53101090D01*
X148452857Y-53101090D02*
X148476666Y-53124900D01*
X148476666Y-53124900D02*
X148524285Y-53148709D01*
X148524285Y-53148709D02*
X148619523Y-53148709D01*
X148619523Y-53148709D02*
X148667142Y-53124900D01*
X148667142Y-53124900D02*
X148690952Y-53101090D01*
X148690952Y-53101090D02*
X148714761Y-53053471D01*
X148714761Y-53053471D02*
X148714761Y-52648709D01*
X148905238Y-52648709D02*
X149214762Y-52648709D01*
X149214762Y-52648709D02*
X149048095Y-52839185D01*
X149048095Y-52839185D02*
X149119524Y-52839185D01*
X149119524Y-52839185D02*
X149167143Y-52862995D01*
X149167143Y-52862995D02*
X149190952Y-52886804D01*
X149190952Y-52886804D02*
X149214762Y-52934423D01*
X149214762Y-52934423D02*
X149214762Y-53053471D01*
X149214762Y-53053471D02*
X149190952Y-53101090D01*
X149190952Y-53101090D02*
X149167143Y-53124900D01*
X149167143Y-53124900D02*
X149119524Y-53148709D01*
X149119524Y-53148709D02*
X148976667Y-53148709D01*
X148976667Y-53148709D02*
X148929048Y-53124900D01*
X148929048Y-53124900D02*
X148905238Y-53101090D01*
X146583333Y-50028709D02*
X146583333Y-50385852D01*
X146583333Y-50385852D02*
X146559524Y-50457280D01*
X146559524Y-50457280D02*
X146511905Y-50504900D01*
X146511905Y-50504900D02*
X146440476Y-50528709D01*
X146440476Y-50528709D02*
X146392857Y-50528709D01*
X146773809Y-50028709D02*
X147083333Y-50028709D01*
X147083333Y-50028709D02*
X146916666Y-50219185D01*
X146916666Y-50219185D02*
X146988095Y-50219185D01*
X146988095Y-50219185D02*
X147035714Y-50242995D01*
X147035714Y-50242995D02*
X147059523Y-50266804D01*
X147059523Y-50266804D02*
X147083333Y-50314423D01*
X147083333Y-50314423D02*
X147083333Y-50433471D01*
X147083333Y-50433471D02*
X147059523Y-50481090D01*
X147059523Y-50481090D02*
X147035714Y-50504900D01*
X147035714Y-50504900D02*
X146988095Y-50528709D01*
X146988095Y-50528709D02*
X146845238Y-50528709D01*
X146845238Y-50528709D02*
X146797619Y-50504900D01*
X146797619Y-50504900D02*
X146773809Y-50481090D01*
X149966666Y-52241090D02*
X149942857Y-52264900D01*
X149942857Y-52264900D02*
X149871428Y-52288709D01*
X149871428Y-52288709D02*
X149823809Y-52288709D01*
X149823809Y-52288709D02*
X149752381Y-52264900D01*
X149752381Y-52264900D02*
X149704762Y-52217280D01*
X149704762Y-52217280D02*
X149680952Y-52169661D01*
X149680952Y-52169661D02*
X149657143Y-52074423D01*
X149657143Y-52074423D02*
X149657143Y-52002995D01*
X149657143Y-52002995D02*
X149680952Y-51907757D01*
X149680952Y-51907757D02*
X149704762Y-51860138D01*
X149704762Y-51860138D02*
X149752381Y-51812519D01*
X149752381Y-51812519D02*
X149823809Y-51788709D01*
X149823809Y-51788709D02*
X149871428Y-51788709D01*
X149871428Y-51788709D02*
X149942857Y-51812519D01*
X149942857Y-51812519D02*
X149966666Y-51836328D01*
X150133333Y-51788709D02*
X150442857Y-51788709D01*
X150442857Y-51788709D02*
X150276190Y-51979185D01*
X150276190Y-51979185D02*
X150347619Y-51979185D01*
X150347619Y-51979185D02*
X150395238Y-52002995D01*
X150395238Y-52002995D02*
X150419047Y-52026804D01*
X150419047Y-52026804D02*
X150442857Y-52074423D01*
X150442857Y-52074423D02*
X150442857Y-52193471D01*
X150442857Y-52193471D02*
X150419047Y-52241090D01*
X150419047Y-52241090D02*
X150395238Y-52264900D01*
X150395238Y-52264900D02*
X150347619Y-52288709D01*
X150347619Y-52288709D02*
X150204762Y-52288709D01*
X150204762Y-52288709D02*
X150157143Y-52264900D01*
X150157143Y-52264900D02*
X150133333Y-52241090D01*
X133416666Y-65728709D02*
X133250000Y-65490614D01*
X133130952Y-65728709D02*
X133130952Y-65228709D01*
X133130952Y-65228709D02*
X133321428Y-65228709D01*
X133321428Y-65228709D02*
X133369047Y-65252519D01*
X133369047Y-65252519D02*
X133392857Y-65276328D01*
X133392857Y-65276328D02*
X133416666Y-65323947D01*
X133416666Y-65323947D02*
X133416666Y-65395376D01*
X133416666Y-65395376D02*
X133392857Y-65442995D01*
X133392857Y-65442995D02*
X133369047Y-65466804D01*
X133369047Y-65466804D02*
X133321428Y-65490614D01*
X133321428Y-65490614D02*
X133130952Y-65490614D01*
X133845238Y-65395376D02*
X133845238Y-65728709D01*
X133726190Y-65204900D02*
X133607143Y-65562042D01*
X133607143Y-65562042D02*
X133916666Y-65562042D01*
X132139048Y-49600709D02*
X132424762Y-49600709D01*
X132281905Y-50100709D02*
X132281905Y-49600709D01*
X132591428Y-50100709D02*
X132591428Y-49600709D01*
X132591428Y-49600709D02*
X132781904Y-49600709D01*
X132781904Y-49600709D02*
X132829523Y-49624519D01*
X132829523Y-49624519D02*
X132853333Y-49648328D01*
X132853333Y-49648328D02*
X132877142Y-49695947D01*
X132877142Y-49695947D02*
X132877142Y-49767376D01*
X132877142Y-49767376D02*
X132853333Y-49814995D01*
X132853333Y-49814995D02*
X132829523Y-49838804D01*
X132829523Y-49838804D02*
X132781904Y-49862614D01*
X132781904Y-49862614D02*
X132591428Y-49862614D01*
X133305714Y-49767376D02*
X133305714Y-50100709D01*
X133186666Y-49576900D02*
X133067619Y-49934042D01*
X133067619Y-49934042D02*
X133377142Y-49934042D01*
X130382309Y-46043066D02*
X130739452Y-46043066D01*
X130739452Y-46043066D02*
X130810880Y-46066875D01*
X130810880Y-46066875D02*
X130858500Y-46114494D01*
X130858500Y-46114494D02*
X130882309Y-46185923D01*
X130882309Y-46185923D02*
X130882309Y-46233542D01*
X130382309Y-45590685D02*
X130382309Y-45685923D01*
X130382309Y-45685923D02*
X130406119Y-45733542D01*
X130406119Y-45733542D02*
X130429928Y-45757352D01*
X130429928Y-45757352D02*
X130501357Y-45804971D01*
X130501357Y-45804971D02*
X130596595Y-45828780D01*
X130596595Y-45828780D02*
X130787071Y-45828780D01*
X130787071Y-45828780D02*
X130834690Y-45804971D01*
X130834690Y-45804971D02*
X130858500Y-45781161D01*
X130858500Y-45781161D02*
X130882309Y-45733542D01*
X130882309Y-45733542D02*
X130882309Y-45638304D01*
X130882309Y-45638304D02*
X130858500Y-45590685D01*
X130858500Y-45590685D02*
X130834690Y-45566876D01*
X130834690Y-45566876D02*
X130787071Y-45543066D01*
X130787071Y-45543066D02*
X130668023Y-45543066D01*
X130668023Y-45543066D02*
X130620404Y-45566876D01*
X130620404Y-45566876D02*
X130596595Y-45590685D01*
X130596595Y-45590685D02*
X130572785Y-45638304D01*
X130572785Y-45638304D02*
X130572785Y-45733542D01*
X130572785Y-45733542D02*
X130596595Y-45781161D01*
X130596595Y-45781161D02*
X130620404Y-45804971D01*
X130620404Y-45804971D02*
X130668023Y-45828780D01*
X137413333Y-50028709D02*
X137413333Y-50385852D01*
X137413333Y-50385852D02*
X137389524Y-50457280D01*
X137389524Y-50457280D02*
X137341905Y-50504900D01*
X137341905Y-50504900D02*
X137270476Y-50528709D01*
X137270476Y-50528709D02*
X137222857Y-50528709D01*
X137627619Y-50076328D02*
X137651428Y-50052519D01*
X137651428Y-50052519D02*
X137699047Y-50028709D01*
X137699047Y-50028709D02*
X137818095Y-50028709D01*
X137818095Y-50028709D02*
X137865714Y-50052519D01*
X137865714Y-50052519D02*
X137889523Y-50076328D01*
X137889523Y-50076328D02*
X137913333Y-50123947D01*
X137913333Y-50123947D02*
X137913333Y-50171566D01*
X137913333Y-50171566D02*
X137889523Y-50242995D01*
X137889523Y-50242995D02*
X137603809Y-50528709D01*
X137603809Y-50528709D02*
X137913333Y-50528709D01*
D11*
X125768095Y-77334819D02*
X125768095Y-76334819D01*
X125768095Y-76811009D02*
X126339523Y-76811009D01*
X126339523Y-77334819D02*
X126339523Y-76334819D01*
X127339523Y-77334819D02*
X126768095Y-77334819D01*
X127053809Y-77334819D02*
X127053809Y-76334819D01*
X127053809Y-76334819D02*
X126958571Y-76477676D01*
X126958571Y-76477676D02*
X126863333Y-76572914D01*
X126863333Y-76572914D02*
X126768095Y-76620533D01*
X152838095Y-41884819D02*
X152838095Y-40884819D01*
X152838095Y-41361009D02*
X153409523Y-41361009D01*
X153409523Y-41884819D02*
X153409523Y-40884819D01*
X153838095Y-40980057D02*
X153885714Y-40932438D01*
X153885714Y-40932438D02*
X153980952Y-40884819D01*
X153980952Y-40884819D02*
X154219047Y-40884819D01*
X154219047Y-40884819D02*
X154314285Y-40932438D01*
X154314285Y-40932438D02*
X154361904Y-40980057D01*
X154361904Y-40980057D02*
X154409523Y-41075295D01*
X154409523Y-41075295D02*
X154409523Y-41170533D01*
X154409523Y-41170533D02*
X154361904Y-41313390D01*
X154361904Y-41313390D02*
X153790476Y-41884819D01*
X153790476Y-41884819D02*
X154409523Y-41884819D01*
D10*
X130382309Y-63263066D02*
X130739452Y-63263066D01*
X130739452Y-63263066D02*
X130810880Y-63286875D01*
X130810880Y-63286875D02*
X130858500Y-63334494D01*
X130858500Y-63334494D02*
X130882309Y-63405923D01*
X130882309Y-63405923D02*
X130882309Y-63453542D01*
X130882309Y-62763066D02*
X130882309Y-63048780D01*
X130882309Y-62905923D02*
X130382309Y-62905923D01*
X130382309Y-62905923D02*
X130453738Y-62953542D01*
X130453738Y-62953542D02*
X130501357Y-63001161D01*
X130501357Y-63001161D02*
X130525166Y-63048780D01*
X138316666Y-73481090D02*
X138292857Y-73504900D01*
X138292857Y-73504900D02*
X138221428Y-73528709D01*
X138221428Y-73528709D02*
X138173809Y-73528709D01*
X138173809Y-73528709D02*
X138102381Y-73504900D01*
X138102381Y-73504900D02*
X138054762Y-73457280D01*
X138054762Y-73457280D02*
X138030952Y-73409661D01*
X138030952Y-73409661D02*
X138007143Y-73314423D01*
X138007143Y-73314423D02*
X138007143Y-73242995D01*
X138007143Y-73242995D02*
X138030952Y-73147757D01*
X138030952Y-73147757D02*
X138054762Y-73100138D01*
X138054762Y-73100138D02*
X138102381Y-73052519D01*
X138102381Y-73052519D02*
X138173809Y-73028709D01*
X138173809Y-73028709D02*
X138221428Y-73028709D01*
X138221428Y-73028709D02*
X138292857Y-73052519D01*
X138292857Y-73052519D02*
X138316666Y-73076328D01*
X138792857Y-73528709D02*
X138507143Y-73528709D01*
X138650000Y-73528709D02*
X138650000Y-73028709D01*
X138650000Y-73028709D02*
X138602381Y-73100138D01*
X138602381Y-73100138D02*
X138554762Y-73147757D01*
X138554762Y-73147757D02*
X138507143Y-73171566D01*
X135980952Y-80858709D02*
X135980952Y-80358709D01*
X135980952Y-80358709D02*
X136100000Y-80358709D01*
X136100000Y-80358709D02*
X136171428Y-80382519D01*
X136171428Y-80382519D02*
X136219047Y-80430138D01*
X136219047Y-80430138D02*
X136242857Y-80477757D01*
X136242857Y-80477757D02*
X136266666Y-80572995D01*
X136266666Y-80572995D02*
X136266666Y-80644423D01*
X136266666Y-80644423D02*
X136242857Y-80739661D01*
X136242857Y-80739661D02*
X136219047Y-80787280D01*
X136219047Y-80787280D02*
X136171428Y-80834900D01*
X136171428Y-80834900D02*
X136100000Y-80858709D01*
X136100000Y-80858709D02*
X135980952Y-80858709D01*
X136457143Y-80406328D02*
X136480952Y-80382519D01*
X136480952Y-80382519D02*
X136528571Y-80358709D01*
X136528571Y-80358709D02*
X136647619Y-80358709D01*
X136647619Y-80358709D02*
X136695238Y-80382519D01*
X136695238Y-80382519D02*
X136719047Y-80406328D01*
X136719047Y-80406328D02*
X136742857Y-80453947D01*
X136742857Y-80453947D02*
X136742857Y-80501566D01*
X136742857Y-80501566D02*
X136719047Y-80572995D01*
X136719047Y-80572995D02*
X136433333Y-80858709D01*
X136433333Y-80858709D02*
X136742857Y-80858709D01*
X143028571Y-53618709D02*
X142861905Y-53380614D01*
X142742857Y-53618709D02*
X142742857Y-53118709D01*
X142742857Y-53118709D02*
X142933333Y-53118709D01*
X142933333Y-53118709D02*
X142980952Y-53142519D01*
X142980952Y-53142519D02*
X143004762Y-53166328D01*
X143004762Y-53166328D02*
X143028571Y-53213947D01*
X143028571Y-53213947D02*
X143028571Y-53285376D01*
X143028571Y-53285376D02*
X143004762Y-53332995D01*
X143004762Y-53332995D02*
X142980952Y-53356804D01*
X142980952Y-53356804D02*
X142933333Y-53380614D01*
X142933333Y-53380614D02*
X142742857Y-53380614D01*
X143504762Y-53618709D02*
X143219048Y-53618709D01*
X143361905Y-53618709D02*
X143361905Y-53118709D01*
X143361905Y-53118709D02*
X143314286Y-53190138D01*
X143314286Y-53190138D02*
X143266667Y-53237757D01*
X143266667Y-53237757D02*
X143219048Y-53261566D01*
X143814285Y-53118709D02*
X143861904Y-53118709D01*
X143861904Y-53118709D02*
X143909523Y-53142519D01*
X143909523Y-53142519D02*
X143933333Y-53166328D01*
X143933333Y-53166328D02*
X143957142Y-53213947D01*
X143957142Y-53213947D02*
X143980952Y-53309185D01*
X143980952Y-53309185D02*
X143980952Y-53428233D01*
X143980952Y-53428233D02*
X143957142Y-53523471D01*
X143957142Y-53523471D02*
X143933333Y-53571090D01*
X143933333Y-53571090D02*
X143909523Y-53594900D01*
X143909523Y-53594900D02*
X143861904Y-53618709D01*
X143861904Y-53618709D02*
X143814285Y-53618709D01*
X143814285Y-53618709D02*
X143766666Y-53594900D01*
X143766666Y-53594900D02*
X143742857Y-53571090D01*
X143742857Y-53571090D02*
X143719047Y-53523471D01*
X143719047Y-53523471D02*
X143695238Y-53428233D01*
X143695238Y-53428233D02*
X143695238Y-53309185D01*
X143695238Y-53309185D02*
X143719047Y-53213947D01*
X143719047Y-53213947D02*
X143742857Y-53166328D01*
X143742857Y-53166328D02*
X143766666Y-53142519D01*
X143766666Y-53142519D02*
X143814285Y-53118709D01*
X138466666Y-57368709D02*
X138300000Y-57130614D01*
X138180952Y-57368709D02*
X138180952Y-56868709D01*
X138180952Y-56868709D02*
X138371428Y-56868709D01*
X138371428Y-56868709D02*
X138419047Y-56892519D01*
X138419047Y-56892519D02*
X138442857Y-56916328D01*
X138442857Y-56916328D02*
X138466666Y-56963947D01*
X138466666Y-56963947D02*
X138466666Y-57035376D01*
X138466666Y-57035376D02*
X138442857Y-57082995D01*
X138442857Y-57082995D02*
X138419047Y-57106804D01*
X138419047Y-57106804D02*
X138371428Y-57130614D01*
X138371428Y-57130614D02*
X138180952Y-57130614D01*
X138633333Y-56868709D02*
X138966666Y-56868709D01*
X138966666Y-56868709D02*
X138752381Y-57368709D01*
X147209047Y-60318709D02*
X147209047Y-60723471D01*
X147209047Y-60723471D02*
X147232857Y-60771090D01*
X147232857Y-60771090D02*
X147256666Y-60794900D01*
X147256666Y-60794900D02*
X147304285Y-60818709D01*
X147304285Y-60818709D02*
X147399523Y-60818709D01*
X147399523Y-60818709D02*
X147447142Y-60794900D01*
X147447142Y-60794900D02*
X147470952Y-60771090D01*
X147470952Y-60771090D02*
X147494761Y-60723471D01*
X147494761Y-60723471D02*
X147494761Y-60318709D01*
X147709048Y-60366328D02*
X147732857Y-60342519D01*
X147732857Y-60342519D02*
X147780476Y-60318709D01*
X147780476Y-60318709D02*
X147899524Y-60318709D01*
X147899524Y-60318709D02*
X147947143Y-60342519D01*
X147947143Y-60342519D02*
X147970952Y-60366328D01*
X147970952Y-60366328D02*
X147994762Y-60413947D01*
X147994762Y-60413947D02*
X147994762Y-60461566D01*
X147994762Y-60461566D02*
X147970952Y-60532995D01*
X147970952Y-60532995D02*
X147685238Y-60818709D01*
X147685238Y-60818709D02*
X147994762Y-60818709D01*
X130000952Y-80858709D02*
X130000952Y-80358709D01*
X130000952Y-80358709D02*
X130120000Y-80358709D01*
X130120000Y-80358709D02*
X130191428Y-80382519D01*
X130191428Y-80382519D02*
X130239047Y-80430138D01*
X130239047Y-80430138D02*
X130262857Y-80477757D01*
X130262857Y-80477757D02*
X130286666Y-80572995D01*
X130286666Y-80572995D02*
X130286666Y-80644423D01*
X130286666Y-80644423D02*
X130262857Y-80739661D01*
X130262857Y-80739661D02*
X130239047Y-80787280D01*
X130239047Y-80787280D02*
X130191428Y-80834900D01*
X130191428Y-80834900D02*
X130120000Y-80858709D01*
X130120000Y-80858709D02*
X130000952Y-80858709D01*
X130762857Y-80858709D02*
X130477143Y-80858709D01*
X130620000Y-80858709D02*
X130620000Y-80358709D01*
X130620000Y-80358709D02*
X130572381Y-80430138D01*
X130572381Y-80430138D02*
X130524762Y-80477757D01*
X130524762Y-80477757D02*
X130477143Y-80501566D01*
X130124821Y-75328709D02*
X129958155Y-75090614D01*
X129839107Y-75328709D02*
X129839107Y-74828709D01*
X129839107Y-74828709D02*
X130029583Y-74828709D01*
X130029583Y-74828709D02*
X130077202Y-74852519D01*
X130077202Y-74852519D02*
X130101012Y-74876328D01*
X130101012Y-74876328D02*
X130124821Y-74923947D01*
X130124821Y-74923947D02*
X130124821Y-74995376D01*
X130124821Y-74995376D02*
X130101012Y-75042995D01*
X130101012Y-75042995D02*
X130077202Y-75066804D01*
X130077202Y-75066804D02*
X130029583Y-75090614D01*
X130029583Y-75090614D02*
X129839107Y-75090614D01*
X130601012Y-75328709D02*
X130315298Y-75328709D01*
X130458155Y-75328709D02*
X130458155Y-74828709D01*
X130458155Y-74828709D02*
X130410536Y-74900138D01*
X130410536Y-74900138D02*
X130362917Y-74947757D01*
X130362917Y-74947757D02*
X130315298Y-74971566D01*
X131077202Y-75328709D02*
X130791488Y-75328709D01*
X130934345Y-75328709D02*
X130934345Y-74828709D01*
X130934345Y-74828709D02*
X130886726Y-74900138D01*
X130886726Y-74900138D02*
X130839107Y-74947757D01*
X130839107Y-74947757D02*
X130791488Y-74971566D01*
X138838709Y-52063333D02*
X138600614Y-52229999D01*
X138838709Y-52349047D02*
X138338709Y-52349047D01*
X138338709Y-52349047D02*
X138338709Y-52158571D01*
X138338709Y-52158571D02*
X138362519Y-52110952D01*
X138362519Y-52110952D02*
X138386328Y-52087142D01*
X138386328Y-52087142D02*
X138433947Y-52063333D01*
X138433947Y-52063333D02*
X138505376Y-52063333D01*
X138505376Y-52063333D02*
X138552995Y-52087142D01*
X138552995Y-52087142D02*
X138576804Y-52110952D01*
X138576804Y-52110952D02*
X138600614Y-52158571D01*
X138600614Y-52158571D02*
X138600614Y-52349047D01*
X138338709Y-51896666D02*
X138338709Y-51587142D01*
X138338709Y-51587142D02*
X138529185Y-51753809D01*
X138529185Y-51753809D02*
X138529185Y-51682380D01*
X138529185Y-51682380D02*
X138552995Y-51634761D01*
X138552995Y-51634761D02*
X138576804Y-51610952D01*
X138576804Y-51610952D02*
X138624423Y-51587142D01*
X138624423Y-51587142D02*
X138743471Y-51587142D01*
X138743471Y-51587142D02*
X138791090Y-51610952D01*
X138791090Y-51610952D02*
X138814900Y-51634761D01*
X138814900Y-51634761D02*
X138838709Y-51682380D01*
X138838709Y-51682380D02*
X138838709Y-51825237D01*
X138838709Y-51825237D02*
X138814900Y-51872856D01*
X138814900Y-51872856D02*
X138791090Y-51896666D01*
X133416666Y-73659784D02*
X133250000Y-73421689D01*
X133130952Y-73659784D02*
X133130952Y-73159784D01*
X133130952Y-73159784D02*
X133321428Y-73159784D01*
X133321428Y-73159784D02*
X133369047Y-73183594D01*
X133369047Y-73183594D02*
X133392857Y-73207403D01*
X133392857Y-73207403D02*
X133416666Y-73255022D01*
X133416666Y-73255022D02*
X133416666Y-73326451D01*
X133416666Y-73326451D02*
X133392857Y-73374070D01*
X133392857Y-73374070D02*
X133369047Y-73397879D01*
X133369047Y-73397879D02*
X133321428Y-73421689D01*
X133321428Y-73421689D02*
X133130952Y-73421689D01*
X133607143Y-73207403D02*
X133630952Y-73183594D01*
X133630952Y-73183594D02*
X133678571Y-73159784D01*
X133678571Y-73159784D02*
X133797619Y-73159784D01*
X133797619Y-73159784D02*
X133845238Y-73183594D01*
X133845238Y-73183594D02*
X133869047Y-73207403D01*
X133869047Y-73207403D02*
X133892857Y-73255022D01*
X133892857Y-73255022D02*
X133892857Y-73302641D01*
X133892857Y-73302641D02*
X133869047Y-73374070D01*
X133869047Y-73374070D02*
X133583333Y-73659784D01*
X133583333Y-73659784D02*
X133892857Y-73659784D01*
X143536666Y-57368709D02*
X143370000Y-57130614D01*
X143250952Y-57368709D02*
X143250952Y-56868709D01*
X143250952Y-56868709D02*
X143441428Y-56868709D01*
X143441428Y-56868709D02*
X143489047Y-56892519D01*
X143489047Y-56892519D02*
X143512857Y-56916328D01*
X143512857Y-56916328D02*
X143536666Y-56963947D01*
X143536666Y-56963947D02*
X143536666Y-57035376D01*
X143536666Y-57035376D02*
X143512857Y-57082995D01*
X143512857Y-57082995D02*
X143489047Y-57106804D01*
X143489047Y-57106804D02*
X143441428Y-57130614D01*
X143441428Y-57130614D02*
X143250952Y-57130614D01*
X143774762Y-57368709D02*
X143870000Y-57368709D01*
X143870000Y-57368709D02*
X143917619Y-57344900D01*
X143917619Y-57344900D02*
X143941428Y-57321090D01*
X143941428Y-57321090D02*
X143989047Y-57249661D01*
X143989047Y-57249661D02*
X144012857Y-57154423D01*
X144012857Y-57154423D02*
X144012857Y-56963947D01*
X144012857Y-56963947D02*
X143989047Y-56916328D01*
X143989047Y-56916328D02*
X143965238Y-56892519D01*
X143965238Y-56892519D02*
X143917619Y-56868709D01*
X143917619Y-56868709D02*
X143822381Y-56868709D01*
X143822381Y-56868709D02*
X143774762Y-56892519D01*
X143774762Y-56892519D02*
X143750952Y-56916328D01*
X143750952Y-56916328D02*
X143727143Y-56963947D01*
X143727143Y-56963947D02*
X143727143Y-57082995D01*
X143727143Y-57082995D02*
X143750952Y-57130614D01*
X143750952Y-57130614D02*
X143774762Y-57154423D01*
X143774762Y-57154423D02*
X143822381Y-57178233D01*
X143822381Y-57178233D02*
X143917619Y-57178233D01*
X143917619Y-57178233D02*
X143965238Y-57154423D01*
X143965238Y-57154423D02*
X143989047Y-57130614D01*
X143989047Y-57130614D02*
X144012857Y-57082995D01*
X133416666Y-57728709D02*
X133250000Y-57490614D01*
X133130952Y-57728709D02*
X133130952Y-57228709D01*
X133130952Y-57228709D02*
X133321428Y-57228709D01*
X133321428Y-57228709D02*
X133369047Y-57252519D01*
X133369047Y-57252519D02*
X133392857Y-57276328D01*
X133392857Y-57276328D02*
X133416666Y-57323947D01*
X133416666Y-57323947D02*
X133416666Y-57395376D01*
X133416666Y-57395376D02*
X133392857Y-57442995D01*
X133392857Y-57442995D02*
X133369047Y-57466804D01*
X133369047Y-57466804D02*
X133321428Y-57490614D01*
X133321428Y-57490614D02*
X133130952Y-57490614D01*
X133845238Y-57228709D02*
X133750000Y-57228709D01*
X133750000Y-57228709D02*
X133702381Y-57252519D01*
X133702381Y-57252519D02*
X133678571Y-57276328D01*
X133678571Y-57276328D02*
X133630952Y-57347757D01*
X133630952Y-57347757D02*
X133607143Y-57442995D01*
X133607143Y-57442995D02*
X133607143Y-57633471D01*
X133607143Y-57633471D02*
X133630952Y-57681090D01*
X133630952Y-57681090D02*
X133654762Y-57704900D01*
X133654762Y-57704900D02*
X133702381Y-57728709D01*
X133702381Y-57728709D02*
X133797619Y-57728709D01*
X133797619Y-57728709D02*
X133845238Y-57704900D01*
X133845238Y-57704900D02*
X133869047Y-57681090D01*
X133869047Y-57681090D02*
X133892857Y-57633471D01*
X133892857Y-57633471D02*
X133892857Y-57514423D01*
X133892857Y-57514423D02*
X133869047Y-57466804D01*
X133869047Y-57466804D02*
X133845238Y-57442995D01*
X133845238Y-57442995D02*
X133797619Y-57419185D01*
X133797619Y-57419185D02*
X133702381Y-57419185D01*
X133702381Y-57419185D02*
X133654762Y-57442995D01*
X133654762Y-57442995D02*
X133630952Y-57466804D01*
X133630952Y-57466804D02*
X133607143Y-57514423D01*
X152661090Y-66393333D02*
X152684900Y-66417142D01*
X152684900Y-66417142D02*
X152708709Y-66488571D01*
X152708709Y-66488571D02*
X152708709Y-66536190D01*
X152708709Y-66536190D02*
X152684900Y-66607618D01*
X152684900Y-66607618D02*
X152637280Y-66655237D01*
X152637280Y-66655237D02*
X152589661Y-66679047D01*
X152589661Y-66679047D02*
X152494423Y-66702856D01*
X152494423Y-66702856D02*
X152422995Y-66702856D01*
X152422995Y-66702856D02*
X152327757Y-66679047D01*
X152327757Y-66679047D02*
X152280138Y-66655237D01*
X152280138Y-66655237D02*
X152232519Y-66607618D01*
X152232519Y-66607618D02*
X152208709Y-66536190D01*
X152208709Y-66536190D02*
X152208709Y-66488571D01*
X152208709Y-66488571D02*
X152232519Y-66417142D01*
X152232519Y-66417142D02*
X152256328Y-66393333D01*
X152256328Y-66202856D02*
X152232519Y-66179047D01*
X152232519Y-66179047D02*
X152208709Y-66131428D01*
X152208709Y-66131428D02*
X152208709Y-66012380D01*
X152208709Y-66012380D02*
X152232519Y-65964761D01*
X152232519Y-65964761D02*
X152256328Y-65940952D01*
X152256328Y-65940952D02*
X152303947Y-65917142D01*
X152303947Y-65917142D02*
X152351566Y-65917142D01*
X152351566Y-65917142D02*
X152422995Y-65940952D01*
X152422995Y-65940952D02*
X152708709Y-66226666D01*
X152708709Y-66226666D02*
X152708709Y-65917142D01*
X133416666Y-61728709D02*
X133250000Y-61490614D01*
X133130952Y-61728709D02*
X133130952Y-61228709D01*
X133130952Y-61228709D02*
X133321428Y-61228709D01*
X133321428Y-61228709D02*
X133369047Y-61252519D01*
X133369047Y-61252519D02*
X133392857Y-61276328D01*
X133392857Y-61276328D02*
X133416666Y-61323947D01*
X133416666Y-61323947D02*
X133416666Y-61395376D01*
X133416666Y-61395376D02*
X133392857Y-61442995D01*
X133392857Y-61442995D02*
X133369047Y-61466804D01*
X133369047Y-61466804D02*
X133321428Y-61490614D01*
X133321428Y-61490614D02*
X133130952Y-61490614D01*
X133869047Y-61228709D02*
X133630952Y-61228709D01*
X133630952Y-61228709D02*
X133607143Y-61466804D01*
X133607143Y-61466804D02*
X133630952Y-61442995D01*
X133630952Y-61442995D02*
X133678571Y-61419185D01*
X133678571Y-61419185D02*
X133797619Y-61419185D01*
X133797619Y-61419185D02*
X133845238Y-61442995D01*
X133845238Y-61442995D02*
X133869047Y-61466804D01*
X133869047Y-61466804D02*
X133892857Y-61514423D01*
X133892857Y-61514423D02*
X133892857Y-61633471D01*
X133892857Y-61633471D02*
X133869047Y-61681090D01*
X133869047Y-61681090D02*
X133845238Y-61704900D01*
X133845238Y-61704900D02*
X133797619Y-61728709D01*
X133797619Y-61728709D02*
X133678571Y-61728709D01*
X133678571Y-61728709D02*
X133630952Y-61704900D01*
X133630952Y-61704900D02*
X133607143Y-61681090D01*
X150016666Y-58731090D02*
X149992857Y-58754900D01*
X149992857Y-58754900D02*
X149921428Y-58778709D01*
X149921428Y-58778709D02*
X149873809Y-58778709D01*
X149873809Y-58778709D02*
X149802381Y-58754900D01*
X149802381Y-58754900D02*
X149754762Y-58707280D01*
X149754762Y-58707280D02*
X149730952Y-58659661D01*
X149730952Y-58659661D02*
X149707143Y-58564423D01*
X149707143Y-58564423D02*
X149707143Y-58492995D01*
X149707143Y-58492995D02*
X149730952Y-58397757D01*
X149730952Y-58397757D02*
X149754762Y-58350138D01*
X149754762Y-58350138D02*
X149802381Y-58302519D01*
X149802381Y-58302519D02*
X149873809Y-58278709D01*
X149873809Y-58278709D02*
X149921428Y-58278709D01*
X149921428Y-58278709D02*
X149992857Y-58302519D01*
X149992857Y-58302519D02*
X150016666Y-58326328D01*
X150445238Y-58445376D02*
X150445238Y-58778709D01*
X150326190Y-58254900D02*
X150207143Y-58612042D01*
X150207143Y-58612042D02*
X150516666Y-58612042D01*
X130382309Y-54430666D02*
X130739452Y-54430666D01*
X130739452Y-54430666D02*
X130810880Y-54454475D01*
X130810880Y-54454475D02*
X130858500Y-54502094D01*
X130858500Y-54502094D02*
X130882309Y-54573523D01*
X130882309Y-54573523D02*
X130882309Y-54621142D01*
X130382309Y-54240190D02*
X130382309Y-53906857D01*
X130382309Y-53906857D02*
X130882309Y-54121142D01*
X138516666Y-69608709D02*
X138350000Y-69370614D01*
X138230952Y-69608709D02*
X138230952Y-69108709D01*
X138230952Y-69108709D02*
X138421428Y-69108709D01*
X138421428Y-69108709D02*
X138469047Y-69132519D01*
X138469047Y-69132519D02*
X138492857Y-69156328D01*
X138492857Y-69156328D02*
X138516666Y-69203947D01*
X138516666Y-69203947D02*
X138516666Y-69275376D01*
X138516666Y-69275376D02*
X138492857Y-69322995D01*
X138492857Y-69322995D02*
X138469047Y-69346804D01*
X138469047Y-69346804D02*
X138421428Y-69370614D01*
X138421428Y-69370614D02*
X138230952Y-69370614D01*
X138992857Y-69608709D02*
X138707143Y-69608709D01*
X138850000Y-69608709D02*
X138850000Y-69108709D01*
X138850000Y-69108709D02*
X138802381Y-69180138D01*
X138802381Y-69180138D02*
X138754762Y-69227757D01*
X138754762Y-69227757D02*
X138707143Y-69251566D01*
X147219047Y-66458709D02*
X147219047Y-66863471D01*
X147219047Y-66863471D02*
X147242857Y-66911090D01*
X147242857Y-66911090D02*
X147266666Y-66934900D01*
X147266666Y-66934900D02*
X147314285Y-66958709D01*
X147314285Y-66958709D02*
X147409523Y-66958709D01*
X147409523Y-66958709D02*
X147457142Y-66934900D01*
X147457142Y-66934900D02*
X147480952Y-66911090D01*
X147480952Y-66911090D02*
X147504761Y-66863471D01*
X147504761Y-66863471D02*
X147504761Y-66458709D01*
X148004762Y-66958709D02*
X147719048Y-66958709D01*
X147861905Y-66958709D02*
X147861905Y-66458709D01*
X147861905Y-66458709D02*
X147814286Y-66530138D01*
X147814286Y-66530138D02*
X147766667Y-66577757D01*
X147766667Y-66577757D02*
X147719048Y-66601566D01*
X148433333Y-72978709D02*
X148433333Y-73335852D01*
X148433333Y-73335852D02*
X148409524Y-73407280D01*
X148409524Y-73407280D02*
X148361905Y-73454900D01*
X148361905Y-73454900D02*
X148290476Y-73478709D01*
X148290476Y-73478709D02*
X148242857Y-73478709D01*
X148885714Y-73145376D02*
X148885714Y-73478709D01*
X148766666Y-72954900D02*
X148647619Y-73312042D01*
X148647619Y-73312042D02*
X148957142Y-73312042D01*
X143516666Y-61647634D02*
X143350000Y-61409539D01*
X143230952Y-61647634D02*
X143230952Y-61147634D01*
X143230952Y-61147634D02*
X143421428Y-61147634D01*
X143421428Y-61147634D02*
X143469047Y-61171444D01*
X143469047Y-61171444D02*
X143492857Y-61195253D01*
X143492857Y-61195253D02*
X143516666Y-61242872D01*
X143516666Y-61242872D02*
X143516666Y-61314301D01*
X143516666Y-61314301D02*
X143492857Y-61361920D01*
X143492857Y-61361920D02*
X143469047Y-61385729D01*
X143469047Y-61385729D02*
X143421428Y-61409539D01*
X143421428Y-61409539D02*
X143230952Y-61409539D01*
X143802381Y-61361920D02*
X143754762Y-61338110D01*
X143754762Y-61338110D02*
X143730952Y-61314301D01*
X143730952Y-61314301D02*
X143707143Y-61266682D01*
X143707143Y-61266682D02*
X143707143Y-61242872D01*
X143707143Y-61242872D02*
X143730952Y-61195253D01*
X143730952Y-61195253D02*
X143754762Y-61171444D01*
X143754762Y-61171444D02*
X143802381Y-61147634D01*
X143802381Y-61147634D02*
X143897619Y-61147634D01*
X143897619Y-61147634D02*
X143945238Y-61171444D01*
X143945238Y-61171444D02*
X143969047Y-61195253D01*
X143969047Y-61195253D02*
X143992857Y-61242872D01*
X143992857Y-61242872D02*
X143992857Y-61266682D01*
X143992857Y-61266682D02*
X143969047Y-61314301D01*
X143969047Y-61314301D02*
X143945238Y-61338110D01*
X143945238Y-61338110D02*
X143897619Y-61361920D01*
X143897619Y-61361920D02*
X143802381Y-61361920D01*
X143802381Y-61361920D02*
X143754762Y-61385729D01*
X143754762Y-61385729D02*
X143730952Y-61409539D01*
X143730952Y-61409539D02*
X143707143Y-61457158D01*
X143707143Y-61457158D02*
X143707143Y-61552396D01*
X143707143Y-61552396D02*
X143730952Y-61600015D01*
X143730952Y-61600015D02*
X143754762Y-61623825D01*
X143754762Y-61623825D02*
X143802381Y-61647634D01*
X143802381Y-61647634D02*
X143897619Y-61647634D01*
X143897619Y-61647634D02*
X143945238Y-61623825D01*
X143945238Y-61623825D02*
X143969047Y-61600015D01*
X143969047Y-61600015D02*
X143992857Y-61552396D01*
X143992857Y-61552396D02*
X143992857Y-61457158D01*
X143992857Y-61457158D02*
X143969047Y-61409539D01*
X143969047Y-61409539D02*
X143945238Y-61385729D01*
X143945238Y-61385729D02*
X143897619Y-61361920D01*
%TO.C,J5*%
X123200000Y-67390000D02*
X123200000Y-75230000D01*
X123200000Y-68770000D02*
X124200000Y-68770000D01*
X123200000Y-69020000D02*
X124200000Y-69020000D01*
X123200000Y-73600000D02*
X124200000Y-73600000D01*
X123200000Y-75230000D02*
X129220000Y-75230000D01*
X124200000Y-68770000D02*
X124200000Y-73850000D01*
X124200000Y-68770000D02*
X124730000Y-69020000D01*
X124200000Y-73850000D02*
X123200000Y-73850000D01*
X124730000Y-69020000D02*
X124730000Y-73600000D01*
X124730000Y-73600000D02*
X124200000Y-73850000D01*
X128190000Y-67100000D02*
X124190000Y-67100000D01*
X128620000Y-67970000D02*
X128620000Y-69570000D01*
X128620000Y-69570000D02*
X129220000Y-69570000D01*
X128620000Y-70510000D02*
X128620000Y-72110000D01*
X128620000Y-72110000D02*
X129220000Y-72110000D01*
X128620000Y-73050000D02*
X128620000Y-74650000D01*
X128620000Y-74650000D02*
X129220000Y-74650000D01*
X129220000Y-67390000D02*
X123200000Y-67390000D01*
X129220000Y-67970000D02*
X128620000Y-67970000D01*
X129220000Y-70510000D02*
X128620000Y-70510000D01*
X129220000Y-73050000D02*
X128620000Y-73050000D01*
X129220000Y-75230000D02*
X129220000Y-67390000D01*
%TO.C,U3*%
X149400000Y-53240000D02*
X147600000Y-53240000D01*
X149400000Y-53240000D02*
X150200000Y-53240000D01*
X149400000Y-56360000D02*
X148600000Y-56360000D01*
X149400000Y-56360000D02*
X150200000Y-56360000D01*
%TO.C,J3*%
X142830000Y-43190000D02*
X142830000Y-49210000D01*
X142830000Y-49210000D02*
X150670000Y-49210000D01*
X143410000Y-48610000D02*
X143410000Y-49210000D01*
X144210000Y-44190000D02*
X144210000Y-43190000D01*
X144460000Y-43190000D02*
X144460000Y-44190000D01*
X144460000Y-44720000D02*
X144210000Y-44190000D01*
X145010000Y-48610000D02*
X143410000Y-48610000D01*
X145010000Y-49210000D02*
X145010000Y-48610000D01*
X145950000Y-48610000D02*
X145950000Y-49210000D01*
X147550000Y-48610000D02*
X145950000Y-48610000D01*
X147550000Y-49210000D02*
X147550000Y-48610000D01*
X148490000Y-48610000D02*
X148490000Y-49210000D01*
X149040000Y-43190000D02*
X149040000Y-44190000D01*
X149040000Y-44720000D02*
X144460000Y-44720000D01*
X149290000Y-43190000D02*
X149290000Y-44190000D01*
X149290000Y-44190000D02*
X144210000Y-44190000D01*
X149290000Y-44190000D02*
X149040000Y-44720000D01*
X150090000Y-48610000D02*
X148490000Y-48610000D01*
X150090000Y-49210000D02*
X150090000Y-48610000D01*
X150670000Y-43190000D02*
X142830000Y-43190000D01*
X150670000Y-49210000D02*
X150670000Y-43190000D01*
X150960000Y-48180000D02*
X150960000Y-44180000D01*
%TO.C,C3*%
X148988748Y-49965000D02*
X149511252Y-49965000D01*
X148988748Y-51435000D02*
X149511252Y-51435000D01*
%TO.C,R4*%
X133272936Y-63046075D02*
X133727064Y-63046075D01*
X133272936Y-64516075D02*
X133727064Y-64516075D01*
%TO.C,TP4*%
X134220000Y-52020000D02*
G75*
G02*
X131320000Y-52020000I-1450000J0D01*
G01*
X131320000Y-52020000D02*
G75*
G02*
X134220000Y-52020000I1450000J0D01*
G01*
%TO.C,J6*%
X123200000Y-43190000D02*
X123200000Y-48490000D01*
X123200000Y-44570000D02*
X124200000Y-44570000D01*
X123200000Y-44820000D02*
X124200000Y-44820000D01*
X123200000Y-46860000D02*
X124200000Y-46860000D01*
X123200000Y-48490000D02*
X129220000Y-48490000D01*
X124200000Y-44570000D02*
X124200000Y-47110000D01*
X124200000Y-44570000D02*
X124730000Y-44820000D01*
X124200000Y-47110000D02*
X123200000Y-47110000D01*
X124730000Y-44820000D02*
X124730000Y-46860000D01*
X124730000Y-46860000D02*
X124200000Y-47110000D01*
X128190000Y-42900000D02*
X124190000Y-42900000D01*
X128620000Y-43770000D02*
X128620000Y-45370000D01*
X128620000Y-45370000D02*
X129220000Y-45370000D01*
X128620000Y-46310000D02*
X128620000Y-47910000D01*
X128620000Y-47910000D02*
X129220000Y-47910000D01*
X129220000Y-43190000D02*
X123200000Y-43190000D01*
X129220000Y-43770000D02*
X128620000Y-43770000D01*
X129220000Y-46310000D02*
X128620000Y-46310000D01*
X129220000Y-48490000D02*
X129220000Y-43190000D01*
%TO.C,J2*%
X133660000Y-43190000D02*
X133660000Y-49210000D01*
X133660000Y-49210000D02*
X141500000Y-49210000D01*
X134240000Y-48610000D02*
X134240000Y-49210000D01*
X135040000Y-44190000D02*
X135040000Y-43190000D01*
X135290000Y-43190000D02*
X135290000Y-44190000D01*
X135290000Y-44720000D02*
X135040000Y-44190000D01*
X135840000Y-48610000D02*
X134240000Y-48610000D01*
X135840000Y-49210000D02*
X135840000Y-48610000D01*
X136780000Y-48610000D02*
X136780000Y-49210000D01*
X138380000Y-48610000D02*
X136780000Y-48610000D01*
X138380000Y-49210000D02*
X138380000Y-48610000D01*
X139320000Y-48610000D02*
X139320000Y-49210000D01*
X139870000Y-43190000D02*
X139870000Y-44190000D01*
X139870000Y-44720000D02*
X135290000Y-44720000D01*
X140120000Y-43190000D02*
X140120000Y-44190000D01*
X140120000Y-44190000D02*
X135040000Y-44190000D01*
X140120000Y-44190000D02*
X139870000Y-44720000D01*
X140920000Y-48610000D02*
X139320000Y-48610000D01*
X140920000Y-49210000D02*
X140920000Y-48610000D01*
X141500000Y-43190000D02*
X133660000Y-43190000D01*
X141500000Y-49210000D02*
X141500000Y-43190000D01*
X141790000Y-48180000D02*
X141790000Y-44180000D01*
%TO.C,J1*%
X123200000Y-60410000D02*
X123200000Y-65710000D01*
X123200000Y-61790000D02*
X124200000Y-61790000D01*
X123200000Y-62040000D02*
X124200000Y-62040000D01*
X123200000Y-64080000D02*
X124200000Y-64080000D01*
X123200000Y-65710000D02*
X129220000Y-65710000D01*
X124200000Y-61790000D02*
X124200000Y-64330000D01*
X124200000Y-61790000D02*
X124730000Y-62040000D01*
X124200000Y-64330000D02*
X123200000Y-64330000D01*
X124730000Y-62040000D02*
X124730000Y-64080000D01*
X124730000Y-64080000D02*
X124200000Y-64330000D01*
X128190000Y-60120000D02*
X124190000Y-60120000D01*
X128620000Y-60990000D02*
X128620000Y-62590000D01*
X128620000Y-62590000D02*
X129220000Y-62590000D01*
X128620000Y-63530000D02*
X128620000Y-65130000D01*
X128620000Y-65130000D02*
X129220000Y-65130000D01*
X129220000Y-60410000D02*
X123200000Y-60410000D01*
X129220000Y-60990000D02*
X128620000Y-60990000D01*
X129220000Y-63530000D02*
X128620000Y-63530000D01*
X129220000Y-65710000D02*
X129220000Y-60410000D01*
%TO.C,C1*%
X138138748Y-71065000D02*
X138661252Y-71065000D01*
X138138748Y-72535000D02*
X138661252Y-72535000D01*
%TO.C,D2*%
X139706250Y-76920000D02*
X134306250Y-76920000D01*
X139706250Y-80220000D02*
X134306250Y-80220000D01*
X139706250Y-80220000D02*
X139706250Y-76920000D01*
%TO.C,R10*%
X143022936Y-51265000D02*
X143477064Y-51265000D01*
X143022936Y-52735000D02*
X143477064Y-52735000D01*
%TO.C,R7*%
X138727064Y-55046075D02*
X138272936Y-55046075D01*
X138727064Y-56516075D02*
X138272936Y-56516075D01*
%TO.C,U2*%
X148510000Y-60980000D02*
X145060000Y-60980000D01*
X148510000Y-60980000D02*
X150460000Y-60980000D01*
X148510000Y-66100000D02*
X146560000Y-66100000D01*
X148510000Y-66100000D02*
X150460000Y-66100000D01*
%TO.C,D1*%
X128608750Y-78350000D02*
X128608750Y-80270000D01*
X128608750Y-80270000D02*
X131468750Y-80270000D01*
X131468750Y-78350000D02*
X128608750Y-78350000D01*
%TO.C,R11*%
X130219186Y-76015000D02*
X130673314Y-76015000D01*
X130219186Y-77485000D02*
X130673314Y-77485000D01*
%TO.C,R3*%
X139105000Y-51782936D02*
X139105000Y-52237064D01*
X140575000Y-51782936D02*
X140575000Y-52237064D01*
%TO.C,R2*%
X133727064Y-71046075D02*
X133272936Y-71046075D01*
X133727064Y-72516075D02*
X133272936Y-72516075D01*
%TO.C,R9*%
X143727064Y-55046075D02*
X143272936Y-55046075D01*
X143727064Y-56516075D02*
X143272936Y-56516075D01*
%TO.C,R6*%
X133272936Y-55046075D02*
X133727064Y-55046075D01*
X133272936Y-56516075D02*
X133727064Y-56516075D01*
%TO.C,C2*%
X152855000Y-66111252D02*
X152855000Y-65588748D01*
X154325000Y-66111252D02*
X154325000Y-65588748D01*
%TO.C,R5*%
X133272936Y-59046075D02*
X133727064Y-59046075D01*
X133272936Y-60516075D02*
X133727064Y-60516075D01*
%TO.C,C4*%
X150311252Y-59105000D02*
X149788748Y-59105000D01*
X150311252Y-60575000D02*
X149788748Y-60575000D01*
%TO.C,J7*%
X123200000Y-50300000D02*
X123200000Y-58140000D01*
X123200000Y-51680000D02*
X124200000Y-51680000D01*
X123200000Y-51930000D02*
X124200000Y-51930000D01*
X123200000Y-56510000D02*
X124200000Y-56510000D01*
X123200000Y-58140000D02*
X129220000Y-58140000D01*
X124200000Y-51680000D02*
X124200000Y-56760000D01*
X124200000Y-51680000D02*
X124730000Y-51930000D01*
X124200000Y-56760000D02*
X123200000Y-56760000D01*
X124730000Y-51930000D02*
X124730000Y-56510000D01*
X124730000Y-56510000D02*
X124200000Y-56760000D01*
X128190000Y-50010000D02*
X124190000Y-50010000D01*
X128620000Y-50880000D02*
X128620000Y-52480000D01*
X128620000Y-52480000D02*
X129220000Y-52480000D01*
X128620000Y-53420000D02*
X128620000Y-55020000D01*
X128620000Y-55020000D02*
X129220000Y-55020000D01*
X128620000Y-55960000D02*
X128620000Y-57560000D01*
X128620000Y-57560000D02*
X129220000Y-57560000D01*
X129220000Y-50300000D02*
X123200000Y-50300000D01*
X129220000Y-50880000D02*
X128620000Y-50880000D01*
X129220000Y-53420000D02*
X128620000Y-53420000D01*
X129220000Y-55960000D02*
X128620000Y-55960000D01*
X129220000Y-58140000D02*
X129220000Y-50300000D01*
%TO.C,R1*%
X138727064Y-67046075D02*
X138272936Y-67046075D01*
X138727064Y-68516075D02*
X138272936Y-68516075D01*
%TO.C,U1*%
X148670000Y-67100000D02*
X145220000Y-67100000D01*
X148670000Y-67100000D02*
X150620000Y-67100000D01*
X148670000Y-72220000D02*
X146720000Y-72220000D01*
X148670000Y-72220000D02*
X150620000Y-72220000D01*
%TO.C,J4*%
X144390000Y-75370000D02*
X144390000Y-79370000D01*
X144680000Y-74340000D02*
X144680000Y-80360000D01*
X144680000Y-80360000D02*
X152520000Y-80360000D01*
X145260000Y-74340000D02*
X145260000Y-74940000D01*
X145260000Y-74940000D02*
X146860000Y-74940000D01*
X146060000Y-79360000D02*
X146310000Y-78830000D01*
X146060000Y-79360000D02*
X151140000Y-79360000D01*
X146060000Y-80360000D02*
X146060000Y-79360000D01*
X146310000Y-78830000D02*
X150890000Y-78830000D01*
X146310000Y-80360000D02*
X146310000Y-79360000D01*
X146860000Y-74940000D02*
X146860000Y-74340000D01*
X147800000Y-74340000D02*
X147800000Y-74940000D01*
X147800000Y-74940000D02*
X149400000Y-74940000D01*
X149400000Y-74940000D02*
X149400000Y-74340000D01*
X150340000Y-74340000D02*
X150340000Y-74940000D01*
X150340000Y-74940000D02*
X151940000Y-74940000D01*
X150890000Y-78830000D02*
X151140000Y-79360000D01*
X150890000Y-80360000D02*
X150890000Y-79360000D01*
X151140000Y-79360000D02*
X151140000Y-80360000D01*
X151940000Y-74940000D02*
X151940000Y-74340000D01*
X152520000Y-74340000D02*
X144680000Y-74340000D01*
X152520000Y-80360000D02*
X152520000Y-74340000D01*
%TO.C,R8*%
X143372936Y-58965000D02*
X143827064Y-58965000D01*
X143372936Y-60435000D02*
X143827064Y-60435000D01*
%TD*%
%LPC*%
D12*
%TO.C,J5*%
X126190000Y-68770000D03*
D13*
X126190000Y-71310000D03*
X126190000Y-73850000D03*
%TD*%
D14*
%TO.C,U3*%
X148262500Y-53850000D03*
X148262500Y-54800000D03*
X148262500Y-55750000D03*
X150537500Y-55750000D03*
X150537500Y-53850000D03*
%TD*%
D15*
%TO.C,J3*%
X149290000Y-46180000D03*
D16*
X146750000Y-46180000D03*
X144210000Y-46180000D03*
%TD*%
D17*
%TO.C,C3*%
X148212500Y-50700000D03*
X150287500Y-50700000D03*
%TD*%
D18*
%TO.C,R4*%
X132500000Y-63781075D03*
X134500000Y-63781075D03*
%TD*%
D19*
%TO.C,TP4*%
X132770000Y-52020000D03*
%TD*%
D12*
%TO.C,J6*%
X126190000Y-44570000D03*
D13*
X126190000Y-47110000D03*
%TD*%
D15*
%TO.C,J2*%
X140120000Y-46180000D03*
D16*
X137580000Y-46180000D03*
X135040000Y-46180000D03*
%TD*%
D20*
%TO.C,H1*%
X124570000Y-78550000D03*
%TD*%
%TO.C,H2*%
X153600000Y-44630000D03*
%TD*%
D12*
%TO.C,J1*%
X126190000Y-61790000D03*
D13*
X126190000Y-64330000D03*
%TD*%
D17*
%TO.C,C1*%
X137362500Y-71800000D03*
X139437500Y-71800000D03*
%TD*%
D21*
%TO.C,D2*%
X138306250Y-78570000D03*
X134306250Y-78570000D03*
%TD*%
D18*
%TO.C,R10*%
X142250000Y-52000000D03*
X144250000Y-52000000D03*
%TD*%
D22*
%TO.C,R7*%
X139500000Y-55781075D03*
X137500000Y-55781075D03*
%TD*%
D23*
%TO.C,U2*%
X146035000Y-61635000D03*
X146035000Y-62905000D03*
X146035000Y-64175000D03*
X146035000Y-65445000D03*
X150985000Y-65445000D03*
X150985000Y-64175000D03*
X150985000Y-62905000D03*
X150985000Y-61635000D03*
%TD*%
D24*
%TO.C,D1*%
X129443750Y-79310000D03*
X131493750Y-79310000D03*
%TD*%
D18*
%TO.C,R11*%
X129446250Y-76750000D03*
X131446250Y-76750000D03*
%TD*%
D25*
%TO.C,R3*%
X139840000Y-51010000D03*
X139840000Y-53010000D03*
%TD*%
D22*
%TO.C,R2*%
X134500000Y-71781075D03*
X132500000Y-71781075D03*
%TD*%
%TO.C,R9*%
X144500000Y-55781075D03*
X142500000Y-55781075D03*
%TD*%
D18*
%TO.C,R6*%
X132500000Y-55781075D03*
X134500000Y-55781075D03*
%TD*%
D26*
%TO.C,C2*%
X153590000Y-66887500D03*
X153590000Y-64812500D03*
%TD*%
D18*
%TO.C,R5*%
X132500000Y-59781075D03*
X134500000Y-59781075D03*
%TD*%
D27*
%TO.C,C4*%
X151087500Y-59840000D03*
X149012500Y-59840000D03*
%TD*%
D12*
%TO.C,J7*%
X126190000Y-51680000D03*
D13*
X126190000Y-54220000D03*
X126190000Y-56760000D03*
%TD*%
D22*
%TO.C,R1*%
X139500000Y-67781075D03*
X137500000Y-67781075D03*
%TD*%
D23*
%TO.C,U1*%
X146195000Y-67755000D03*
X146195000Y-69025000D03*
X146195000Y-70295000D03*
X146195000Y-71565000D03*
X151145000Y-71565000D03*
X151145000Y-70295000D03*
X151145000Y-69025000D03*
X151145000Y-67755000D03*
%TD*%
D28*
%TO.C,J4*%
X146060000Y-77370000D03*
D16*
X148600000Y-77370000D03*
X151140000Y-77370000D03*
%TD*%
D18*
%TO.C,R8*%
X142600000Y-59700000D03*
X144600000Y-59700000D03*
%TD*%
%LPD*%
M02*
